<svg width="45" height="43" viewBox="0 0 45 43" fill="none" xmlns="http://www.w3.org/2000/svg">
<circle cx="36" cy="34" r="7" fill="#140097"/>
<path d="M31.4286 13.1429C31.4286 17.64 27.7829 21.2857 23.2857 21.2857C18.7885 21.2857 15.1429 17.64 15.1429 13.1429C15.1429 8.64568 18.7885 5 23.2857 5C27.7829 5 31.4286 8.64568 31.4286 13.1429Z" fill="#2F78F1"/>
<path d="M7 34.8571C7 37.5714 9.71429 37.5714 9.71429 37.5714H23.9807C23.5306 36.298 23.2857 34.9276 23.2857 33.5C23.2857 29.8258 24.908 26.5305 27.4754 24.2913C26.2092 24.1036 24.8165 24 23.2857 24C9.71429 24 7 32.1429 7 34.8571Z" fill="#140097"/>
<path d="M35.5 43C40.7467 43 45 38.7467 45 33.5C45 28.2533 40.7467 24 35.5 24C30.2533 24 26 28.2533 26 33.5C26 38.7467 30.2533 43 35.5 43ZM33.7454 29.8261L35.5 31.5807L37.2546 29.8261C37.7846 29.2961 38.6439 29.2961 39.1739 29.8261C39.7039 30.3561 39.7039 31.2154 39.1739 31.7454L37.4193 33.5L39.1739 35.2546C39.7039 35.7846 39.7039 36.6439 39.1739 37.1739C38.6439 37.7039 37.7846 37.7039 37.2546 37.1739L35.5 35.4193L33.7454 37.1739C33.2154 37.7039 32.3561 37.7039 31.8261 37.1739C31.2961 36.6439 31.2961 35.7846 31.8261 35.2546L33.5807 33.5L31.8261 31.7454C31.2961 31.2154 31.2961 30.3561 31.8261 29.8261C32.3561 29.2961 33.2154 29.2961 33.7454 29.8261Z" fill="#2F78F1"/>
</svg>
