<svg width="152" height="152" viewBox="0 0 152 152" fill="none" xmlns="http://www.w3.org/2000/svg">
<path d="M152 127.074H1.00201V127.164H152V127.074Z" fill="#ECECEC"/>
<path d="M148.707 132.888H136.743V132.978H148.707V132.888Z" fill="#ECECEC"/>
<path d="M105.838 133.868H102.698V133.958H105.838V133.868Z" fill="#ECECEC"/>
<path d="M136.381 129.533H129.449V129.623H136.381V129.533Z" fill="#ECECEC"/>
<path d="M20.75 130.141H5.14801V130.231H20.75V130.141Z" fill="#ECECEC"/>
<path d="M26.254 130.141H23.966V130.231H26.254V130.141Z" fill="#ECECEC"/>
<path d="M67.524 131.665H33.688V131.755H67.524V131.665Z" fill="#ECECEC"/>
<path d="M71.81 110.969H2.06201C1.79093 110.969 1.5225 110.916 1.27213 110.812C1.02175 110.708 0.794317 110.556 0.602816 110.364C0.411315 110.172 0.259505 109.944 0.156069 109.693C0.0526327 109.443 -0.00039206 109.174 2.18234e-06 108.903V10.8603C0.000531688 10.3136 0.21794 9.78945 0.604525 9.40286C0.99111 9.01628 1.5153 8.79887 2.06201 8.79834H71.81C72.3567 8.79887 72.8809 9.01628 73.2675 9.40286C73.654 9.78945 73.8715 10.3136 73.872 10.8603V108.903C73.8724 109.174 73.8194 109.443 73.7159 109.693C73.6125 109.944 73.4607 110.172 73.2692 110.364C73.0777 110.556 72.8502 110.708 72.5999 110.812C72.3495 110.916 72.0811 110.969 71.81 110.969ZM2.06201 8.88834C1.53925 8.88913 1.03811 9.09715 0.668459 9.4668C0.298809 9.83645 0.090792 10.3376 0.0899985 10.8603V108.903C0.0907926 109.426 0.298842 109.927 0.66852 110.297C1.0382 110.666 1.53934 110.874 2.06201 110.874H71.81C72.3326 110.874 72.8336 110.666 73.2031 110.296C73.5726 109.927 73.7805 109.426 73.781 108.903V10.8603C73.7805 10.3377 73.5727 9.83654 73.2032 9.46686C72.8337 9.09718 72.3327 8.88913 71.81 8.88834H2.06201Z" fill="#ECECEC"/>
<path d="M149.938 110.969H80.19C79.6434 110.969 79.1192 110.752 78.7326 110.365C78.346 109.979 78.1285 109.455 78.128 108.908V10.8603C78.1285 10.3136 78.346 9.78945 78.7325 9.40286C79.1191 9.01628 79.6433 8.79887 80.19 8.79834H149.938C150.485 8.79887 151.009 9.01628 151.395 9.40286C151.782 9.78945 151.999 10.3136 152 10.8603V108.903C152 109.174 151.947 109.443 151.844 109.693C151.74 109.944 151.589 110.172 151.397 110.364C151.206 110.556 150.978 110.708 150.728 110.812C150.477 110.916 150.209 110.969 149.938 110.969ZM80.19 8.88834C79.6673 8.88913 79.1663 9.09718 78.7968 9.46686C78.4273 9.83654 78.2195 10.3377 78.219 10.8603V108.903C78.2195 109.426 78.4274 109.927 78.7969 110.296C79.1664 110.666 79.6674 110.874 80.19 110.874H149.938C150.461 110.874 150.962 110.666 151.331 110.297C151.701 109.927 151.909 109.426 151.91 108.903V10.8603C151.909 10.3376 151.701 9.83645 151.332 9.4668C150.962 9.09715 150.461 8.88913 149.938 8.88834H80.19Z" fill="#ECECEC"/>
<path d="M37.089 0.0502711C37.0493 0.0161847 36.9983 -0.00172245 36.946 0.000130717C36.8938 0.00198388 36.8442 0.0234559 36.807 0.0602656L34.16 2.70727L33.424 1.97227C32.8639 1.41225 32.199 0.968028 31.4673 0.664971C30.7355 0.361915 29.9512 0.205956 29.1592 0.206002C28.3671 0.206049 27.5828 0.362088 26.8511 0.665231C26.1194 0.968373 25.4545 1.41268 24.8945 1.97277C24.3345 2.53286 23.8903 3.19776 23.5872 3.92953C23.2841 4.66129 23.1282 5.44558 23.1282 6.23762C23.1283 7.02966 23.2843 7.81393 23.5875 8.54566C23.8906 9.27739 24.3349 9.94224 24.895 10.5023L25.63 11.2373L22.983 13.8843C22.9458 13.9213 22.924 13.9711 22.9219 14.0236C22.9199 14.0761 22.9377 14.1274 22.972 14.1673L35.472 28.7263C35.4904 28.7475 35.513 28.7648 35.5384 28.777C35.5637 28.7891 35.5913 28.796 35.6194 28.7971C35.6475 28.7983 35.6755 28.7936 35.7018 28.7835C35.728 28.7734 35.7519 28.758 35.772 28.7383L51.656 12.8553C51.6753 12.835 51.6904 12.811 51.7003 12.7848C51.7101 12.7586 51.7147 12.7307 51.7135 12.7027C51.7124 12.6747 51.7057 12.6473 51.6937 12.6219C51.6818 12.5966 51.6649 12.5739 51.644 12.5553L37.089 0.0502711ZM26.071 9.32526C25.252 8.50614 24.792 7.39524 24.7921 6.23692C24.7922 5.0786 25.2524 3.96776 26.0715 3.14877C26.8906 2.32978 28.0015 1.86973 29.1599 1.86982C30.3182 1.86991 31.429 2.33015 32.248 3.14927L32.983 3.88427L26.806 10.0613L26.071 9.32526ZM30.336 14.7693C29.9457 15.1587 29.4169 15.3774 28.8655 15.3774C28.3142 15.3774 27.7853 15.1587 27.395 14.7693C27.0952 14.4921 26.8892 14.1284 26.8056 13.7287C26.7221 13.3291 26.7652 12.9133 26.929 12.5393L28.277 13.8863C28.4337 14.0386 28.6441 14.1232 28.8626 14.1217C29.0812 14.1201 29.2904 14.0327 29.445 13.8782C29.5996 13.7238 29.6872 13.5147 29.6889 13.2961C29.6906 13.0776 29.6062 12.8671 29.454 12.7103L28.107 11.3633C28.4809 11.2001 28.8963 11.1571 29.2956 11.2404C29.695 11.3238 30.0586 11.5292 30.336 11.8283C30.7254 12.2186 30.9441 12.7474 30.9441 13.2988C30.9441 13.8501 30.7254 14.379 30.336 14.7693ZM37.689 7.41627C37.2986 7.80544 36.7698 8.02396 36.2185 8.02396C35.6672 8.02396 35.1384 7.80544 34.748 7.41627C34.448 7.13901 34.242 6.77506 34.1586 6.37515C34.0753 5.97523 34.1187 5.55929 34.283 5.18527L35.63 6.53327C35.7867 6.68561 35.9971 6.77014 36.2156 6.76864C36.4342 6.76714 36.6434 6.67971 36.798 6.52523C36.9526 6.37076 37.0402 6.16164 37.0419 5.94309C37.0436 5.72455 36.9592 5.51411 36.807 5.35726L35.46 4.01026C35.8338 3.84693 36.2491 3.80386 36.6485 3.88699C37.0478 3.97012 37.4114 4.17535 37.689 4.47427C38.0779 4.86467 38.2962 5.39324 38.2962 5.94427C38.2962 6.49529 38.0779 7.02387 37.689 7.41427V7.41627Z" fill="#ECECEC"/>
<path d="M151.844 34.5586C151.898 34.4749 151.919 34.374 151.903 34.2755C151.887 34.1771 151.834 34.0883 151.756 34.0266L146.112 29.6456L147.329 28.0776C148.267 26.8845 148.96 25.5177 149.368 24.0559C149.775 22.594 149.89 21.066 149.705 19.5596C149.52 18.0533 149.039 16.5984 148.289 15.2787C147.54 13.959 146.537 12.8006 145.338 11.87C144.139 10.9394 142.768 10.2551 141.304 9.85642C139.839 9.45774 138.311 9.35257 136.805 9.54697C135.3 9.74136 133.848 10.2315 132.533 10.9891C131.218 11.7468 130.066 12.757 129.143 13.9616L127.926 15.5296L122.282 11.1486C122.203 11.0878 122.103 11.0589 122.004 11.0676C121.904 11.0763 121.812 11.122 121.744 11.1956L97.158 38.3396C97.1217 38.3803 97.0942 38.4281 97.0771 38.4798C97.0599 38.5316 97.0535 38.5863 97.0583 38.6406C97.0631 38.6949 97.0789 38.7477 97.1048 38.7957C97.1308 38.8437 97.1662 38.8858 97.209 38.9196L131.073 65.2046C131.117 65.2375 131.167 65.2611 131.22 65.2739C131.273 65.2868 131.328 65.2885 131.382 65.2792C131.436 65.2698 131.487 65.2495 131.533 65.2194C131.579 65.1894 131.618 65.1503 131.648 65.1046L151.844 34.5586ZM131.651 15.9086C132.319 15.0341 133.153 14.3005 134.106 13.75C135.058 13.1995 136.11 12.843 137.201 12.7011C138.292 12.5592 139.401 12.6347 140.463 12.9233C141.524 13.2118 142.518 13.7077 143.388 14.3823C144.257 15.0569 144.984 15.8969 145.527 16.8539C146.07 17.8108 146.418 18.8658 146.551 19.9579C146.684 21.0501 146.6 22.1578 146.303 23.2172C146.006 24.2766 145.502 25.2668 144.821 26.1306L143.604 27.6986L130.434 17.4766L131.651 15.9086ZM122.365 25.2826C121.535 24.6363 120.995 23.6869 120.863 22.6429C120.732 21.5988 121.02 20.5453 121.665 19.7136C122.118 19.0794 122.758 18.6024 123.495 18.3489C124.232 18.0955 125.03 18.0782 125.777 18.2996L123.546 21.1736C123.416 21.3381 123.319 21.5268 123.262 21.7289C123.205 21.9309 123.189 22.1423 123.214 22.3507C123.239 22.5591 123.305 22.7604 123.409 22.9431C123.512 23.1257 123.651 23.286 123.817 23.4147C123.983 23.5434 124.172 23.6379 124.375 23.6928C124.578 23.7478 124.789 23.7619 124.997 23.7346C125.205 23.7072 125.406 23.6389 125.588 23.5335C125.769 23.4281 125.928 23.2878 126.055 23.1206L128.284 20.2486C128.682 20.9177 128.862 21.694 128.8 22.47C128.738 23.2461 128.436 23.9836 127.936 24.5806C127.29 25.4117 126.34 25.9523 125.296 26.0839C124.251 26.2156 123.197 25.9274 122.365 25.2826ZM138.043 37.4516C137.213 36.8053 136.673 35.8559 136.541 34.8119C136.41 33.7678 136.698 32.7143 137.343 31.8826C137.796 31.2485 138.435 30.7715 139.172 30.518C139.909 30.2646 140.707 30.2473 141.454 30.4686L139.224 33.3426C139.09 33.5067 138.99 33.6959 138.931 33.8991C138.871 34.1024 138.852 34.3155 138.876 34.526C138.9 34.7364 138.966 34.94 139.07 35.1247C139.173 35.3094 139.313 35.4715 139.48 35.6014C139.648 35.7312 139.839 35.8263 140.044 35.8811C140.248 35.9358 140.462 35.949 140.672 35.92C140.882 35.8909 141.084 35.8202 141.266 35.7119C141.448 35.6037 141.606 35.4601 141.732 35.2896L143.961 32.4176C144.359 33.0866 144.54 33.8628 144.478 34.6389C144.416 35.415 144.114 36.1525 143.614 36.7496C142.968 37.5807 142.018 38.1213 140.974 38.2529C139.929 38.3846 138.875 38.0964 138.043 37.4516Z" fill="#ECECEC"/>
<path d="M101.255 96.048C101.301 95.9784 101.319 95.894 101.306 95.8117C101.292 95.7293 101.248 95.6551 101.182 95.604L96.469 91.946L97.485 90.637C99.0479 88.6233 99.7469 86.0713 99.4282 83.5423C99.1095 81.0132 97.7991 78.7144 95.7855 77.1515C93.7718 75.5886 91.2198 74.8896 88.6908 75.2083C86.1617 75.527 83.8629 76.8373 82.3 78.851L81.284 80.16L76.572 76.502C76.5059 76.4507 76.4229 76.4263 76.3396 76.4337C76.2563 76.4412 76.1789 76.4798 76.123 76.542L55.6 99.205C55.5694 99.2387 55.5461 99.2784 55.5316 99.3216C55.5172 99.3649 55.5118 99.4106 55.516 99.456C55.52 99.5014 55.5332 99.5454 55.5549 99.5855C55.5766 99.6256 55.6062 99.6608 55.642 99.689L83.917 121.635C83.953 121.663 83.9944 121.683 84.0386 121.694C84.0827 121.705 84.1288 121.707 84.1737 121.7C84.2187 121.693 84.2616 121.676 84.2999 121.651C84.3381 121.626 84.3709 121.594 84.396 121.556L101.255 96.048ZM84.395 80.477C84.9553 79.7547 85.6525 79.1499 86.4466 78.697C87.2407 78.2442 88.1162 77.9522 89.0231 77.8377C89.9301 77.7232 90.8507 77.7884 91.7324 78.0297C92.6141 78.271 93.4397 78.6836 94.162 79.244C94.8842 79.8043 95.4891 80.5015 95.9419 81.2956C96.3948 82.0897 96.6868 82.9652 96.8013 83.8721C96.9158 84.7791 96.8505 85.6997 96.6092 86.5814C96.3679 87.4631 95.9553 88.2887 95.395 89.011L94.379 90.32L83.379 81.786L84.395 80.477ZM76.642 88.303C75.9485 87.7634 75.4974 86.9709 75.3876 86.0991C75.2777 85.2274 75.5181 84.3477 76.056 83.653C76.4347 83.1237 76.9689 82.7256 77.5844 82.5141C78.1999 82.3026 78.8659 82.2883 79.49 82.473L77.627 84.873C77.4136 85.151 77.319 85.5021 77.3637 85.8497C77.4085 86.1973 77.589 86.513 77.8658 86.7279C78.1427 86.9427 78.4933 87.0393 78.8411 86.9964C79.189 86.9535 79.5056 86.7747 79.722 86.499L81.583 84.099C81.9154 84.6577 82.0659 85.3059 82.0138 85.9538C81.9616 86.6018 81.7094 87.2176 81.292 87.716C80.7527 88.4098 79.9602 88.8613 79.0884 88.9713C78.2166 89.0814 77.3367 88.841 76.642 88.303ZM89.732 98.464C89.0385 97.9244 88.5874 97.1318 88.4776 96.2601C88.3677 95.3884 88.6081 94.5087 89.146 93.814C89.5247 93.2848 90.0589 92.8866 90.6744 92.675C91.2898 92.4633 91.9558 92.4487 92.58 92.633L90.717 95.033C90.6103 95.1705 90.5317 95.3276 90.4858 95.4955C90.4398 95.6634 90.4273 95.8386 90.4491 96.0113C90.4709 96.184 90.5265 96.3507 90.6127 96.5019C90.6989 96.653 90.814 96.7858 90.9515 96.8925C91.089 96.9992 91.2462 97.0777 91.414 97.1237C91.5819 97.1697 91.7571 97.1821 91.9298 97.1603C92.1025 97.1386 92.2692 97.083 92.4204 96.9968C92.5716 96.9106 92.7043 96.7955 92.811 96.658L94.673 94.258C95.0054 94.8167 95.1559 95.4649 95.1038 96.1128C95.0516 96.7608 94.7994 97.3766 94.382 97.875C93.8434 98.5694 93.0515 99.0219 92.1798 99.1333C91.3081 99.2446 90.4278 99.0057 89.732 98.469V98.464Z" fill="#ECECEC"/>
<path d="M42.531 117.535C42.5825 117.568 42.6448 117.581 42.7055 117.571C42.7662 117.561 42.821 117.529 42.859 117.481L45.559 114.006L46.524 114.755C48.0092 115.907 49.8913 116.422 51.7564 116.187C53.6214 115.951 55.3166 114.985 56.469 113.5C57.6213 112.014 58.1365 110.132 57.9012 108.267C57.6658 106.402 56.6992 104.707 55.214 103.555L54.249 102.806L56.949 99.3305C56.9869 99.2819 57.0049 99.2207 56.9995 99.1593C56.9942 99.0979 56.9657 99.0409 56.92 98.9995L40.2 83.8695C40.1748 83.8471 40.1453 83.83 40.1134 83.8194C40.0814 83.8087 40.0476 83.8047 40.014 83.8075C39.9805 83.8105 39.9481 83.8204 39.9186 83.8366C39.8892 83.8528 39.8634 83.8749 39.843 83.9015L23.661 104.749C23.6404 104.775 23.6254 104.806 23.6172 104.839C23.6089 104.871 23.6075 104.905 23.613 104.939C23.6183 104.972 23.6305 105.003 23.6487 105.032C23.667 105.06 23.6909 105.084 23.719 105.103L42.531 117.535ZM54.013 105.103C55.0747 105.942 55.762 107.166 55.9253 108.51C56.0886 109.853 55.7146 111.206 54.8849 112.275C54.0552 113.344 52.8368 114.043 51.4949 114.218C50.153 114.393 48.7963 114.031 47.72 113.211L46.755 112.462L53.048 104.354L54.013 105.103ZM48.242 99.3865C48.6396 98.8748 49.2241 98.5419 49.8671 98.4608C50.5101 98.3798 51.1589 98.5574 51.671 98.9545C52.061 99.2337 52.3544 99.6275 52.5103 100.081C52.6662 100.535 52.6769 101.026 52.541 101.486L50.772 100.113C50.6706 100.034 50.5547 99.9757 50.4309 99.9417C50.3071 99.9077 50.1778 99.8984 50.0504 99.9144C49.923 99.9303 49.8 99.9713 49.6884 100.035C49.5768 100.098 49.4788 100.183 49.4 100.285C49.3212 100.386 49.2631 100.502 49.2291 100.626C49.1951 100.749 49.1859 100.879 49.2018 101.006C49.2178 101.134 49.2587 101.257 49.3222 101.368C49.3857 101.48 49.4706 101.578 49.572 101.657L51.34 103.029C50.9281 103.274 50.4502 103.385 49.9724 103.347C49.4946 103.308 49.0405 103.122 48.673 102.815C48.1617 102.417 47.8291 101.832 47.7483 101.19C47.6675 100.547 47.8451 99.8985 48.242 99.3865ZM40.75 109.038C41.1479 108.526 41.7324 108.194 42.3752 108.113C43.018 108.032 43.6667 108.209 44.179 108.606C44.5692 108.885 44.8627 109.279 45.0186 109.732C45.1746 110.186 45.1852 110.677 45.049 111.138L43.28 109.765C43.1786 109.686 43.0627 109.628 42.9389 109.594C42.8151 109.56 42.6858 109.55 42.5584 109.566C42.431 109.582 42.308 109.623 42.1964 109.687C42.0848 109.75 41.9868 109.835 41.908 109.937C41.8292 110.038 41.7711 110.154 41.7371 110.278C41.7031 110.401 41.6939 110.531 41.7098 110.658C41.7258 110.786 41.7667 110.909 41.8302 111.02C41.8937 111.132 41.9786 111.23 42.08 111.309L43.848 112.681C43.4361 112.926 42.9582 113.037 42.4804 112.999C42.0026 112.96 41.5485 112.774 41.181 112.467C40.6699 112.068 40.3374 111.484 40.2566 110.841C40.1758 110.198 40.3533 109.55 40.75 109.038Z" fill="#F5F5F5"/>
<path d="M14.013 10.1824C14.7608 10.1829 15.4893 10.4195 16.0948 10.8583C16.7002 11.2972 17.1518 11.9159 17.385 12.6264L17.575 13.2074L19.666 12.5244C19.6783 12.5204 19.6911 12.5184 19.704 12.5183C19.7282 12.5181 19.7519 12.5252 19.772 12.5385C19.7922 12.5519 19.8078 12.571 19.817 12.5934L24.123 23.0163C24.1299 23.0321 24.1335 23.0491 24.1335 23.0664C24.1335 23.0836 24.1299 23.1006 24.123 23.1164C24.1161 23.1317 24.106 23.1454 24.0934 23.1566C24.0808 23.1678 24.066 23.1763 24.05 23.1814L11.502 27.2813C11.4857 27.287 11.4683 27.2891 11.4511 27.2875C11.4338 27.286 11.4171 27.2808 11.402 27.2724C11.3872 27.2641 11.3743 27.253 11.3639 27.2396C11.3536 27.2261 11.3462 27.2108 11.342 27.1944L8.66301 16.2394C8.6557 16.2094 8.66 16.1778 8.67503 16.1509C8.69005 16.1241 8.71468 16.1038 8.744 16.0944L10.835 15.4114L10.645 14.8304C10.4716 14.2983 10.4266 13.7328 10.5136 13.1801C10.6005 12.6273 10.817 12.103 11.1454 11.6499C11.4737 11.1968 11.9046 10.8279 12.4028 10.5732C12.9011 10.3184 13.4525 10.1852 14.012 10.1843L14.013 10.1824ZM11.765 15.1074L16.644 13.5134L16.454 12.9324C16.3494 12.612 16.1826 12.3154 15.9633 12.0595C15.744 11.8036 15.4765 11.5933 15.1759 11.4408C14.8754 11.2883 14.5478 11.1965 14.2117 11.1706C13.8757 11.1447 13.5379 11.1852 13.2175 11.2898C12.8972 11.3945 12.6005 11.5613 12.3446 11.7806C12.0887 11.9998 11.8785 12.2674 11.726 12.5679C11.5734 12.8685 11.4816 13.1961 11.4557 13.5321C11.4298 13.8682 11.4704 14.206 11.575 14.5264L11.765 15.1074ZM17.793 15.9414C17.6898 15.9413 17.5892 15.9087 17.5055 15.8482C17.4218 15.7877 17.3594 15.7024 17.327 15.6044L16.98 14.5394C16.7945 14.6918 16.6612 14.8982 16.5984 15.1299C16.5357 15.3617 16.5467 15.6072 16.63 15.8324C16.7307 16.1405 16.9496 16.3961 17.2387 16.5429C17.5278 16.6896 17.8633 16.7155 18.1715 16.6149C18.4797 16.5142 18.7353 16.2953 18.882 16.0062C19.0288 15.7171 19.0547 15.3815 18.954 15.0734C18.8881 14.8427 18.7521 14.6383 18.5649 14.4883C18.3777 14.3384 18.1485 14.2503 17.909 14.2364L18.257 15.3004C18.2971 15.4237 18.2867 15.5579 18.228 15.6735C18.1693 15.7892 18.0672 15.8769 17.944 15.9174C17.8952 15.933 17.8443 15.9411 17.793 15.9414ZM11.983 17.8414C11.8799 17.8411 11.7796 17.8084 11.6961 17.7479C11.6127 17.6874 11.5503 17.6022 11.518 17.5044L11.17 16.4394C10.985 16.5921 10.8519 16.7986 10.7894 17.0302C10.7269 17.2619 10.7379 17.5072 10.821 17.7324C10.9217 18.0405 11.1406 18.2961 11.4297 18.4429C11.7188 18.5896 12.0543 18.6155 12.3625 18.5149C12.6707 18.4142 12.9263 18.1953 13.073 17.9062C13.2198 17.6171 13.2456 17.2815 13.145 16.9734C13.0791 16.7427 12.9431 16.5383 12.7559 16.3883C12.5687 16.2384 12.3395 16.1503 12.1 16.1364L12.448 17.2004C12.4881 17.3237 12.4777 17.4579 12.419 17.5735C12.3603 17.6892 12.2582 17.7769 12.135 17.8174C12.0859 17.8332 12.0346 17.8413 11.983 17.8414ZM14.012 9.46436C13.3478 9.46533 12.6931 9.6212 12.0997 9.91961C11.5064 10.218 10.9908 10.6507 10.594 11.1834C10.1972 11.716 9.93011 12.3338 9.81398 12.9877C9.69784 13.6417 9.73586 14.3137 9.925 14.9504L8.51902 15.4094C8.31691 15.4766 8.14744 15.6174 8.04426 15.8037C7.94108 15.9901 7.91174 16.2084 7.96202 16.4154L10.64 27.3684C10.6853 27.5519 10.7908 27.7151 10.9396 27.8318C11.0883 27.9485 11.2719 28.0121 11.461 28.0124C11.55 28.0124 11.6385 27.9982 11.723 27.9704L24.271 23.8704C24.3815 23.8344 24.4834 23.7759 24.5703 23.6987C24.6572 23.6215 24.7272 23.5272 24.7759 23.4217C24.8246 23.3161 24.851 23.2017 24.8535 23.0855C24.8559 22.9693 24.8343 22.8538 24.79 22.7464L20.484 12.3214C20.4026 12.1245 20.2498 11.9656 20.0562 11.8766C19.8626 11.7876 19.6425 11.775 19.44 11.8414L18.04 12.3004C17.7453 11.4695 17.2001 10.7505 16.4796 10.2425C15.759 9.73458 14.8986 9.4627 14.017 9.46436H14.012ZM12.23 14.1973C12.1089 13.742 12.1668 13.2575 12.3916 12.8435C12.6165 12.4294 12.9913 12.1171 13.4392 11.9707C13.8871 11.8243 14.374 11.8549 14.8 12.0563C15.226 12.2576 15.5588 12.6144 15.73 13.0534L12.23 14.1973Z" fill="#ECECEC"/>
<path d="M76.501 143.387C115.18 143.387 146.535 141.556 146.535 139.297C146.535 137.038 115.18 135.207 76.501 135.207C37.8223 135.207 6.46701 137.038 6.46701 139.297C6.46701 141.556 37.8223 143.387 76.501 143.387Z" fill="#F5F5F5"/>
<path d="M141.96 24.0995V100.929C141.96 101.634 141.821 102.332 141.551 102.983C141.28 103.634 140.885 104.225 140.386 104.723C139.887 105.22 139.295 105.615 138.644 105.884C137.993 106.153 137.295 106.291 136.59 106.289H16.41C14.9874 106.29 13.6229 105.725 12.6161 104.72C11.6092 103.716 11.0424 102.352 11.04 100.929V24.0995C11.0419 22.6758 11.6082 21.311 12.6149 20.3044C13.6215 19.2977 14.9864 18.7313 16.41 18.7295H136.59C138.014 18.7298 139.38 19.2956 140.387 20.3026C141.394 21.3096 141.96 22.6754 141.96 24.0995Z" fill="white"/>
<path d="M143.419 78.4012H143.058V75.1372H143.419V78.4012ZM143.419 72.5862H143.058V65.8462H143.419V72.5862Z" fill="#C0C7CD"/>
<path d="M136.61 106.489H16.392C14.9219 106.488 13.5124 105.903 12.4728 104.863C11.4333 103.824 10.8486 102.414 10.847 100.944V24.0831C10.8486 22.6129 11.4333 21.2035 12.4728 20.1639C13.5124 19.1244 14.9219 18.5397 16.392 18.5381H136.61C138.08 18.5397 139.49 19.1244 140.529 20.1639C141.569 21.2035 142.153 22.6129 142.155 24.0831V100.944C142.153 102.414 141.569 103.824 140.529 104.863C139.49 105.903 138.08 106.488 136.61 106.489ZM16.392 18.9291C15.0256 18.9307 13.7155 19.4742 12.7493 20.4404C11.7831 21.4066 11.2396 22.7166 11.238 24.0831V100.944C11.2396 102.311 11.7831 103.621 12.7493 104.587C13.7155 105.553 15.0256 106.097 16.392 106.098H136.61C137.977 106.097 139.287 105.553 140.253 104.587C141.219 103.621 141.763 102.311 141.765 100.944V24.0831C141.763 22.7166 141.219 21.4065 140.253 20.4404C139.287 19.4742 137.977 18.9307 136.61 18.9291H16.392Z" fill="#C0C7CD"/>
<path d="M21.388 24.3695C21.3878 24.7105 21.2865 25.0437 21.097 25.3271C20.9074 25.6104 20.6381 25.8313 20.3231 25.9616C20.008 26.0919 19.6614 26.1259 19.3271 26.0593C18.9927 25.9926 18.6856 25.8284 18.4446 25.5872C18.2036 25.3461 18.0395 25.0389 17.9731 24.7045C17.9066 24.3701 17.9408 24.0235 18.0713 23.7086C18.2018 23.3936 18.4228 23.1244 18.7063 22.935C18.9898 22.7456 19.3231 22.6445 19.664 22.6445C19.8905 22.6445 20.1147 22.6892 20.324 22.7759C20.5332 22.8626 20.7233 22.9896 20.8834 23.1498C21.0435 23.31 21.1705 23.5002 21.2571 23.7095C21.3436 23.9188 21.3881 24.1431 21.388 24.3695Z" fill="#C0C7CD"/>
<path opacity="0.2" d="M32.71 25.3764H24.251C23.9839 25.3756 23.728 25.2691 23.5391 25.0803C23.3503 24.8914 23.2438 24.6355 23.243 24.3684C23.2438 24.1012 23.3502 23.8452 23.5391 23.6561C23.7279 23.4671 23.9838 23.3604 24.251 23.3594H32.71C32.9774 23.3602 33.2336 23.4667 33.4226 23.6558C33.6117 23.8448 33.7182 24.101 33.719 24.3684C33.7179 24.6356 33.6113 24.8915 33.4222 25.0803C33.2332 25.2692 32.9772 25.3756 32.71 25.3764Z" fill="#C0C7CD"/>
<path opacity="0.2" d="M73.489 24.9214H67.554C67.4074 24.9214 67.2668 24.8633 67.163 24.7599C67.0591 24.6564 67.0005 24.516 67 24.3694C67 24.2228 67.0582 24.0821 67.162 23.9784C67.2657 23.8747 67.4063 23.8164 67.553 23.8164H73.488C73.5607 23.8163 73.6326 23.8305 73.6998 23.8582C73.7669 23.886 73.828 23.9267 73.8793 23.9781C73.9307 24.0295 73.9714 24.0905 73.9992 24.1576C74.0269 24.2248 74.0411 24.2968 74.041 24.3694C74.0407 24.5157 73.9825 24.656 73.879 24.7594C73.7756 24.8629 73.6353 24.9211 73.489 24.9214Z" fill="#C0C7CD"/>
<path opacity="0.2" d="M86.807 24.9214H80.872C80.7254 24.9212 80.5849 24.8628 80.4813 24.7592C80.3776 24.6555 80.3193 24.515 80.319 24.3684C80.319 24.2218 80.3772 24.0811 80.481 23.9774C80.5847 23.8737 80.7253 23.8154 80.872 23.8154H86.807C86.8797 23.8153 86.9516 23.8295 87.0188 23.8573C87.0859 23.885 87.147 23.9257 87.1983 23.9771C87.2497 24.0285 87.2904 24.0895 87.3182 24.1566C87.3459 24.2238 87.3601 24.2958 87.36 24.3684C87.36 24.5151 87.3017 24.6558 87.198 24.7595C87.0943 24.8632 86.9537 24.9214 86.807 24.9214Z" fill="#C0C7CD"/>
<path opacity="0.2" d="M100.126 24.9214H94.19C94.0434 24.9212 93.9029 24.8628 93.7993 24.7592C93.6956 24.6555 93.6373 24.515 93.637 24.3684C93.637 24.2218 93.6953 24.0811 93.799 23.9774C93.9027 23.8737 94.0433 23.8154 94.19 23.8154H100.126C100.273 23.8154 100.413 23.8737 100.517 23.9774C100.621 24.0811 100.679 24.2218 100.679 24.3684C100.679 24.515 100.62 24.6555 100.517 24.7592C100.413 24.8628 100.273 24.9212 100.126 24.9214Z" fill="#C0C7CD"/>
<path opacity="0.2" d="M113.444 24.9214H107.508C107.361 24.9212 107.221 24.8628 107.117 24.7592C107.014 24.6555 106.955 24.515 106.955 24.3684C106.955 24.2218 107.013 24.0811 107.117 23.9774C107.221 23.8737 107.361 23.8154 107.508 23.8154H113.444C113.591 23.8154 113.731 23.8737 113.835 23.9774C113.939 24.0811 113.997 24.2218 113.997 24.3684C113.997 24.515 113.938 24.6555 113.835 24.7592C113.731 24.8628 113.591 24.9212 113.444 24.9214Z" fill="#C0C7CD"/>
<path opacity="0.7" d="M130.486 25.3446H121.507C121.248 25.3446 121 25.2418 120.817 25.0587C120.634 24.8757 120.531 24.6275 120.531 24.3686C120.531 24.2404 120.556 24.1133 120.605 23.9948C120.654 23.8763 120.726 23.7686 120.816 23.6778C120.907 23.5871 121.015 23.5151 121.133 23.466C121.252 23.4169 121.379 23.3916 121.507 23.3916H130.486C130.614 23.3916 130.741 23.4169 130.86 23.466C130.978 23.5151 131.086 23.5871 131.176 23.6778C131.267 23.7686 131.339 23.8763 131.388 23.9948C131.437 24.1133 131.462 24.2404 131.462 24.3686C131.462 24.6275 131.359 24.8757 131.176 25.0587C130.993 25.2418 130.745 25.3446 130.486 25.3446Z" fill="#C0C7CD"/>
<path opacity="0.2" d="M133.991 71.3601V53.7972C133.991 53.6505 134.049 53.5098 134.153 53.4061C134.257 53.3024 134.397 53.2441 134.544 53.2441C134.617 53.244 134.689 53.2582 134.756 53.286C134.823 53.3137 134.884 53.3544 134.935 53.4058C134.987 53.4572 135.027 53.5182 135.055 53.5854C135.083 53.6525 135.097 53.7245 135.097 53.7972V71.3601C135.097 71.5068 135.039 71.6475 134.935 71.7512C134.831 71.8549 134.691 71.9131 134.544 71.9131C134.397 71.9129 134.257 71.8545 134.153 71.7509C134.05 71.6472 133.991 71.5067 133.991 71.3601Z" fill="#C0C7CD"/>
<path opacity="0.2" d="M134.544 76.9234C134.849 76.9234 135.097 76.6758 135.097 76.3704C135.097 76.065 134.849 75.8174 134.544 75.8174C134.239 75.8174 133.991 76.065 133.991 76.3704C133.991 76.6758 134.239 76.9234 134.544 76.9234Z" fill="#C0C7CD"/>
<path opacity="0.2" d="M134.544 84.731C134.849 84.731 135.097 84.4834 135.097 84.178C135.097 83.8726 134.849 83.625 134.544 83.625C134.239 83.625 133.991 83.8726 133.991 84.178C133.991 84.4834 134.239 84.731 134.544 84.731Z" fill="#C0C7CD"/>
<path opacity="0.2" d="M134.544 92.5396C134.849 92.5396 135.097 92.292 135.097 91.9866C135.097 91.6812 134.849 91.4336 134.544 91.4336C134.239 91.4336 133.991 91.6812 133.991 91.9866C133.991 92.292 134.239 92.5396 134.544 92.5396Z" fill="#C0C7CD"/>
<path d="M131.23 39.3993C131.227 40.8837 130.637 42.3066 129.587 43.3562C128.537 44.4058 127.114 44.9967 125.63 44.9993H23.77C22.2848 44.9993 20.8604 44.4093 19.8102 43.3591C18.76 42.3089 18.17 40.8845 18.17 39.3993C18.17 37.9141 18.76 36.4897 19.8102 35.4395C20.8604 34.3893 22.2848 33.7993 23.77 33.7993H125.63C127.115 33.7993 128.54 34.3893 129.59 35.4395C130.64 36.4897 131.23 37.9141 131.23 39.3993Z" fill="#F2F4F8"/>
<path d="M125.631 33.9782C127.068 33.9782 128.446 34.549 129.462 35.5651C130.478 36.5812 131.049 37.9593 131.049 39.3962C131.049 40.8332 130.478 42.2112 129.462 43.2273C128.446 44.2434 127.068 44.8142 125.631 44.8142H23.771C22.3341 44.8142 20.956 44.2434 19.9399 43.2273C18.9238 42.2112 18.353 40.8332 18.353 39.3962C18.353 37.9593 18.9238 36.5812 19.9399 35.5651C20.956 34.549 22.3341 33.9782 23.771 33.9782H125.631ZM125.631 33.6162H23.771C23.0056 33.6062 22.2459 33.7482 21.5359 34.0341C20.8258 34.3201 20.1797 34.7442 19.6349 35.2819C19.0901 35.8195 18.6575 36.4601 18.3622 37.1663C18.067 37.8725 17.915 38.6303 17.915 39.3957C17.915 40.1612 18.067 40.919 18.3622 41.6252C18.6575 42.3314 19.0901 42.9719 19.6349 43.5096C20.1797 44.0473 20.8258 44.4714 21.5359 44.7573C22.2459 45.0432 23.0056 45.1853 23.771 45.1752H125.631C127.151 45.1552 128.601 44.5375 129.669 43.4558C130.736 42.3741 131.335 40.9155 131.335 39.3957C131.335 37.8759 130.736 36.4173 129.669 35.3356C128.601 34.2539 127.151 33.6362 125.631 33.6162Z" fill="#C0C7CD"/>
<path d="M125.632 33.6162H108.293C105.101 33.6162 102.514 36.2036 102.514 39.3952V39.3962C102.514 42.5879 105.101 45.1752 108.293 45.1752H125.632C128.824 45.1752 131.411 42.5879 131.411 39.3962V39.3952C131.411 36.2036 128.824 33.6162 125.632 33.6162Z" fill="#C0C7CD"/>
<path d="M40.386 80.2305H18.713C18.3142 80.2305 17.991 80.5537 17.991 80.9525V80.9535C17.991 81.3522 18.3142 81.6755 18.713 81.6755H40.386C40.7847 81.6755 41.108 81.3522 41.108 80.9535V80.9525C41.108 80.5537 40.7847 80.2305 40.386 80.2305Z" fill="#ECECEC"/>
<path d="M34.607 83.8423H18.713C18.3142 83.8423 17.991 84.1655 17.991 84.5643V84.5653C17.991 84.964 18.3142 85.2873 18.713 85.2873H34.607C35.0057 85.2873 35.329 84.964 35.329 84.5653V84.5643C35.329 84.1655 35.0057 83.8423 34.607 83.8423Z" fill="#ECECEC"/>
<path d="M31.717 87.4541H18.713C18.3142 87.4541 17.991 87.7774 17.991 88.1761V88.1771C17.991 88.5759 18.3142 88.8991 18.713 88.8991H31.717C32.1157 88.8991 32.439 88.5759 32.439 88.1771V88.1761C32.439 87.7774 32.1157 87.4541 31.717 87.4541Z" fill="#ECECEC"/>
<path d="M38.941 91.7891H20.158C18.9612 91.7891 17.991 92.7593 17.991 93.9561C17.991 95.1529 18.9612 96.1231 20.158 96.1231H38.941C40.1378 96.1231 41.108 95.1529 41.108 93.9561C41.108 92.7593 40.1378 91.7891 38.941 91.7891Z" fill="#DDE1E6"/>
<path d="M70.494 80.2305H48.821C48.4222 80.2305 48.099 80.5537 48.099 80.9525V80.9535C48.099 81.3522 48.4222 81.6755 48.821 81.6755H70.494C70.8927 81.6755 71.216 81.3522 71.216 80.9535V80.9525C71.216 80.5537 70.8927 80.2305 70.494 80.2305Z" fill="#ECECEC"/>
<path d="M64.715 83.8423H48.821C48.4222 83.8423 48.099 84.1655 48.099 84.5643V84.5653C48.099 84.964 48.4222 85.2873 48.821 85.2873H64.715C65.1137 85.2873 65.437 84.964 65.437 84.5653V84.5643C65.437 84.1655 65.1137 83.8423 64.715 83.8423Z" fill="#ECECEC"/>
<path d="M61.825 87.4541H48.821C48.4222 87.4541 48.099 87.7774 48.099 88.1761V88.1771C48.099 88.5759 48.4222 88.8991 48.821 88.8991H61.825C62.2237 88.8991 62.547 88.5759 62.547 88.1771V88.1761C62.547 87.7774 62.2237 87.4541 61.825 87.4541Z" fill="#ECECEC"/>
<path d="M69.049 91.7891H50.266C49.0692 91.7891 48.099 92.7593 48.099 93.9561C48.099 95.1529 49.0692 96.1231 50.266 96.1231H69.049C70.2458 96.1231 71.216 95.1529 71.216 93.9561C71.216 92.7593 70.2458 91.7891 69.049 91.7891Z" fill="#DDE1E6"/>
<path d="M100.581 80.2305H78.908C78.5093 80.2305 78.186 80.5537 78.186 80.9525V80.9535C78.186 81.3522 78.5093 81.6755 78.908 81.6755H100.581C100.98 81.6755 101.303 81.3522 101.303 80.9535V80.9525C101.303 80.5537 100.98 80.2305 100.581 80.2305Z" fill="#ECECEC"/>
<path d="M94.802 83.8423H78.908C78.5093 83.8423 78.186 84.1655 78.186 84.5643V84.5653C78.186 84.964 78.5093 85.2873 78.908 85.2873H94.802C95.2008 85.2873 95.524 84.964 95.524 84.5653V84.5643C95.524 84.1655 95.2008 83.8423 94.802 83.8423Z" fill="#ECECEC"/>
<path d="M91.912 87.4541H78.908C78.5093 87.4541 78.186 87.7774 78.186 88.1761V88.1771C78.186 88.5759 78.5093 88.8991 78.908 88.8991H91.912C92.3108 88.8991 92.634 88.5759 92.634 88.1771V88.1761C92.634 87.7774 92.3108 87.4541 91.912 87.4541Z" fill="#ECECEC"/>
<path d="M99.136 91.7891H80.353C79.1562 91.7891 78.186 92.7593 78.186 93.9561C78.186 95.1529 79.1562 96.1231 80.353 96.1231H99.136C100.333 96.1231 101.303 95.1529 101.303 93.9561C101.303 92.7593 100.333 91.7891 99.136 91.7891Z" fill="#DDE1E6"/>
<path d="M41.11 61.2393V68.3593C41.11 70.481 40.2671 72.5158 38.7668 74.0161C37.2666 75.5164 35.2317 76.3593 33.11 76.3593H25.99C23.8683 76.3593 21.8335 75.5164 20.3332 74.0161C18.8329 72.5158 17.99 70.481 17.99 68.3593V61.2393C17.99 59.1175 18.8329 57.0827 20.3332 55.5824C21.8335 54.0821 23.8683 53.2393 25.99 53.2393H33.11C35.2317 53.2393 37.2666 54.0821 38.7668 55.5824C40.2671 57.0827 41.11 59.1175 41.11 61.2393Z" fill="#ECECEC"/>
<path d="M71.22 61.2393V68.3593C71.22 70.481 70.3772 72.5158 68.8769 74.0161C67.3766 75.5164 65.3417 76.3593 63.22 76.3593H56.1C53.9783 76.3593 51.9434 75.5164 50.4431 74.0161C48.9429 72.5158 48.1 70.481 48.1 68.3593V61.2393C48.1 59.1175 48.9429 57.0827 50.4431 55.5824C51.9434 54.0821 53.9783 53.2393 56.1 53.2393H63.22C65.3408 53.2422 67.374 54.0859 68.8736 55.5856C70.3733 57.0853 71.2171 59.1184 71.22 61.2393Z" fill="#ECECEC"/>
<path d="M101.3 61.2393V68.3593C101.3 70.481 100.457 72.5158 98.9568 74.0161C97.4566 75.5164 95.4217 76.3593 93.3 76.3593H86.19C84.0683 76.3593 82.0334 75.5164 80.5331 74.0161C79.0329 72.5158 78.19 70.481 78.19 68.3593V61.2393C78.19 59.1175 79.0329 57.0827 80.5331 55.5824C82.0334 54.0821 84.0683 53.2393 86.19 53.2393H93.3C95.4217 53.2393 97.4566 54.0821 98.9568 55.5824C100.457 57.0827 101.3 59.1175 101.3 61.2393Z" fill="#ECECEC"/>
<path d="M131.41 61.2393V68.3593C131.41 70.481 130.567 72.5158 129.067 74.0161C127.567 75.5164 125.532 76.3593 123.41 76.3593H116.29C114.168 76.3593 112.133 75.5164 110.633 74.0161C109.133 72.5158 108.29 70.481 108.29 68.3593V61.2393C108.29 59.1175 109.133 57.0827 110.633 55.5824C112.133 54.0821 114.168 53.2393 116.29 53.2393H123.41C125.532 53.2393 127.567 54.0821 129.067 55.5824C130.567 57.0827 131.41 59.1175 131.41 61.2393Z" fill="#ECECEC"/>
<path d="M130.688 80.2305H109.015C108.616 80.2305 108.293 80.5537 108.293 80.9525V80.9535C108.293 81.3522 108.616 81.6755 109.015 81.6755H130.688C131.087 81.6755 131.41 81.3522 131.41 80.9535V80.9525C131.41 80.5537 131.087 80.2305 130.688 80.2305Z" fill="#ECECEC"/>
<path d="M124.909 83.8423H109.015C108.616 83.8423 108.293 84.1655 108.293 84.5643V84.5653C108.293 84.964 108.616 85.2873 109.015 85.2873H124.909C125.308 85.2873 125.631 84.964 125.631 84.5653V84.5643C125.631 84.1655 125.308 83.8423 124.909 83.8423Z" fill="#ECECEC"/>
<path d="M122.019 87.4541H109.015C108.616 87.4541 108.293 87.7774 108.293 88.1761V88.1771C108.293 88.5759 108.616 88.8991 109.015 88.8991H122.019C122.418 88.8991 122.741 88.5759 122.741 88.1771V88.1761C122.741 87.7774 122.418 87.4541 122.019 87.4541Z" fill="#ECECEC"/>
<path d="M129.243 91.7891H110.46C109.263 91.7891 108.293 92.7593 108.293 93.9561C108.293 95.1529 109.263 96.1231 110.46 96.1231H129.243C130.44 96.1231 131.41 95.1529 131.41 93.9561C131.41 92.7593 130.44 91.7891 129.243 91.7891Z" fill="#DDE1E6"/>
<path d="M24.216 41.8499C24.2683 41.898 24.3369 41.9244 24.408 41.9239C24.4451 41.9244 24.482 41.9174 24.5164 41.9033C24.5507 41.8892 24.5819 41.8684 24.608 41.8419L25.864 40.5809C26.2216 40.8235 26.644 40.9524 27.076 40.9509C27.4767 40.9368 27.8645 40.8051 28.1909 40.5721C28.5172 40.3392 28.7679 40.0153 28.9115 39.6409C29.0551 39.2665 29.0854 38.8582 28.9985 38.4667C28.9117 38.0752 28.7115 37.718 28.423 37.4394C28.1346 37.1609 27.7705 36.9735 27.3762 36.9004C26.9819 36.8273 26.5749 36.8719 26.2058 37.0286C25.8366 37.1853 25.5218 37.4471 25.3004 37.7815C25.0791 38.1158 24.9611 38.5079 24.961 38.9089C24.9634 39.3927 25.141 39.8591 25.461 40.2219L24.215 41.4729C24.1896 41.4974 24.1694 41.5267 24.1557 41.5591C24.142 41.5915 24.1349 41.6264 24.135 41.6617C24.1351 41.6969 24.1423 41.7317 24.1563 41.7641C24.1702 41.7964 24.1905 41.8256 24.216 41.8499ZM28.637 38.9089C28.648 39.2204 28.5656 39.5281 28.4005 39.7924C28.2354 40.0568 27.9951 40.2658 27.7104 40.3926C27.4257 40.5194 27.1096 40.5583 26.8026 40.5042C26.4957 40.4501 26.2119 40.3056 25.9877 40.0891C25.7634 39.8726 25.609 39.5941 25.5442 39.2892C25.4793 38.9844 25.5071 38.6671 25.6238 38.3781C25.7406 38.0891 25.941 37.8416 26.1994 37.6673C26.4578 37.493 26.7623 37.3999 27.074 37.3999C27.4812 37.3932 27.8745 37.5484 28.1675 37.8313C28.4605 38.1141 28.6294 38.5017 28.637 38.9089Z" fill="#C0C7CD"/>
<path d="M32.4 40.0429H32.73C32.7309 40.13 32.7505 40.2158 32.7874 40.2946C32.8244 40.3735 32.8777 40.4435 32.944 40.4999C33.0506 40.5846 33.1819 40.632 33.318 40.6349C33.4707 40.6366 33.6181 40.5788 33.729 40.4739C33.7859 40.4242 33.8313 40.3627 33.8619 40.2936C33.8925 40.2245 33.9075 40.1495 33.906 40.0739C33.908 39.9911 33.8909 39.909 33.856 39.8339C33.8211 39.7642 33.7674 39.7057 33.701 39.6649C33.6374 39.6258 33.5705 39.5923 33.501 39.5649C33.4212 39.532 33.3398 39.5033 33.257 39.4789L33.205 39.4629C33.134 39.4419 33.076 39.4229 33.033 39.4079C32.9681 39.3821 32.9049 39.352 32.844 39.3179C32.7704 39.2816 32.7029 39.2341 32.644 39.1769C32.5883 39.1167 32.5433 39.0473 32.511 38.9719C32.4699 38.8815 32.4494 38.7832 32.451 38.6839C32.4452 38.5721 32.4654 38.4605 32.51 38.3577C32.5546 38.255 32.6224 38.1641 32.708 38.0919C32.832 37.9908 32.9789 37.9218 33.1359 37.8911C33.2929 37.8604 33.4551 37.8689 33.608 37.9159C33.6995 37.9446 33.7859 37.9874 33.864 38.0429C33.9483 38.1056 34.0168 38.1871 34.064 38.2809C34.1211 38.3902 34.1551 38.51 34.164 38.6329H33.838C33.7767 38.3123 33.6033 38.1519 33.318 38.1519C33.1773 38.148 33.0404 38.1985 32.936 38.2929C32.8853 38.3387 32.8451 38.395 32.8183 38.4578C32.7916 38.5207 32.7788 38.5886 32.781 38.6569C32.7808 38.704 32.7875 38.7508 32.801 38.7959C32.8119 38.8327 32.8259 38.8685 32.843 38.9029C32.8646 38.9402 32.8952 38.9715 32.932 38.9939L33.032 39.0659C33.0772 39.0929 33.1251 39.1151 33.175 39.1319L33.326 39.1889C33.353 39.1999 33.415 39.2209 33.51 39.2529C33.582 39.2789 33.633 39.2989 33.663 39.3119C33.693 39.3249 33.745 39.3499 33.816 39.3859C33.8749 39.413 33.9292 39.4491 33.977 39.4929C34.013 39.5289 34.053 39.5739 34.098 39.6279C34.1443 39.6831 34.1784 39.7476 34.198 39.8169C34.2185 39.8946 34.2282 39.9746 34.227 40.0549C34.2297 40.1691 34.2087 40.2826 34.1653 40.3883C34.1219 40.494 34.0571 40.5895 33.975 40.6689C33.8879 40.7525 33.7848 40.8175 33.6719 40.8601C33.559 40.9028 33.4386 40.9221 33.318 40.9169C33.081 40.9245 32.85 40.8415 32.672 40.6849C32.5841 40.603 32.5145 40.5035 32.4677 40.3929C32.4208 40.2823 32.3977 40.163 32.4 40.0429Z" fill="#DDE1E6"/>
<path d="M36.746 39.8761H34.8C34.7986 39.9876 34.8221 40.0979 34.8688 40.1991C34.9155 40.3004 34.9843 40.3899 35.07 40.4611C35.2269 40.5958 35.4273 40.669 35.634 40.6671C35.7881 40.67 35.9401 40.6302 36.073 40.5521C36.2033 40.4758 36.3078 40.3623 36.373 40.2261H36.679C36.5922 40.4405 36.4409 40.6226 36.246 40.7471C36.0616 40.8603 35.8494 40.9202 35.633 40.9202C35.4166 40.9202 35.2044 40.8603 35.02 40.7471C34.855 40.6434 34.7212 40.4969 34.633 40.3231C34.5516 40.159 34.5095 39.9783 34.51 39.7951C34.5073 39.6468 34.5346 39.4995 34.5903 39.362C34.646 39.2245 34.7289 39.0997 34.834 38.9951C35.0443 38.7889 35.3257 38.6712 35.6201 38.6662C35.9146 38.6612 36.1998 38.7692 36.417 38.9681C36.5373 39.0849 36.6297 39.2272 36.6875 39.3846C36.7453 39.5419 36.767 39.7102 36.751 39.8771L36.746 39.8761ZM34.803 39.6421H36.456C36.4492 39.5436 36.4228 39.4475 36.3783 39.3594C36.3338 39.2713 36.2722 39.193 36.197 39.1291C36.122 39.0577 36.0334 39.0019 35.9366 38.9652C35.8397 38.9284 35.7365 38.9114 35.633 38.9151C35.4213 38.91 35.2157 38.9866 35.059 39.1291C34.9838 39.193 34.9221 39.2713 34.8776 39.3594C34.8331 39.4475 34.8067 39.5436 34.8 39.6421H34.803Z" fill="#DDE1E6"/>
<path d="M39.308 38.7244V40.8624H39.014V40.4214C38.9354 40.5766 38.8126 40.705 38.661 40.7904C38.4479 40.9037 38.204 40.9455 37.9654 40.9094C37.7268 40.8734 37.5061 40.7616 37.336 40.5904C37.1374 40.3739 37.0299 40.0891 37.036 39.7954C37.0326 39.6479 37.0586 39.5012 37.1125 39.3638C37.1664 39.2265 37.2472 39.1012 37.35 38.9954C37.4522 38.8886 37.5757 38.8045 37.7125 38.7485C37.8492 38.6926 37.9963 38.6659 38.144 38.6704C38.3392 38.666 38.5314 38.7188 38.697 38.8224C38.8368 38.9068 38.9485 39.0306 39.018 39.1784V38.7294L39.308 38.7244ZM37.322 39.7934C37.3239 39.9294 37.3549 40.0634 37.413 40.1864C37.4772 40.3184 37.577 40.4299 37.701 40.5084C37.8433 40.6008 38.0103 40.6478 38.18 40.6434C38.3507 40.6474 38.5184 40.5973 38.659 40.5004C38.7928 40.4078 38.8948 40.2762 38.951 40.1234C38.9988 40.0172 39.023 39.9019 39.022 39.7854C39.0285 39.6676 39.0055 39.55 38.955 39.4434C38.8947 39.2928 38.7901 39.1641 38.655 39.0744C38.5127 38.9777 38.3439 38.9278 38.172 38.9314C38.059 38.9282 37.9465 38.9486 37.8418 38.9913C37.7372 39.034 37.6425 39.0981 37.564 39.1794C37.4842 39.2601 37.4217 39.3561 37.3801 39.4616C37.3385 39.5671 37.3187 39.68 37.322 39.7934Z" fill="#DDE1E6"/>
<path d="M39.88 40.8624V38.7244H40.159V39.0743C40.2199 38.9465 40.3172 38.8395 40.4387 38.7667C40.5602 38.6939 40.7005 38.6587 40.842 38.6653V38.9554H40.814C40.7254 38.9498 40.6366 38.9639 40.5541 38.9968C40.4717 39.0296 40.3975 39.0804 40.337 39.1454C40.216 39.3033 40.1567 39.4999 40.17 39.6984V40.8624H39.88Z" fill="#DDE1E6"/>
<path d="M42.769 40.1394H43.075C43.0058 40.3655 42.8655 40.5633 42.675 40.7034C42.4507 40.8626 42.1776 40.9379 41.9034 40.9161C41.6292 40.8944 41.3714 40.777 41.175 40.5844C40.9705 40.3722 40.8577 40.0881 40.861 39.7934C40.858 39.6453 40.885 39.498 40.9403 39.3605C40.9957 39.2231 41.0782 39.0982 41.183 38.9934C41.2877 38.8866 41.4133 38.8026 41.552 38.7467C41.6907 38.6908 41.8395 38.6641 41.989 38.6684C42.2317 38.6661 42.4689 38.7403 42.667 38.8804C42.8685 39.0215 43.014 39.2289 43.078 39.4664H42.778C42.7215 39.3033 42.6106 39.1645 42.464 39.0734C42.3002 38.9693 42.1061 38.9233 41.913 38.9427C41.7199 38.9621 41.5388 39.0458 41.399 39.1804C41.2766 39.2993 41.1925 39.4521 41.1576 39.6192C41.1226 39.7862 41.1384 39.9599 41.2029 40.1179C41.2674 40.2759 41.3777 40.411 41.5195 40.5059C41.6614 40.6008 41.8283 40.6511 41.999 40.6504C42.1774 40.6541 42.3525 40.6013 42.499 40.4994C42.6237 40.4099 42.718 40.2842 42.769 40.1394Z" fill="#DDE1E6"/>
<path d="M43.476 40.8624V37.9224H43.77V39.0694C43.834 38.9337 43.9428 38.8243 44.078 38.7594C44.2185 38.6873 44.3752 38.6528 44.533 38.6594C44.6657 38.649 44.7989 38.6702 44.9218 38.7213C45.0447 38.7724 45.1538 38.852 45.24 38.9534C45.3881 39.1746 45.4585 39.4388 45.44 39.7044V40.8564H45.15V39.7154C45.1617 39.5154 45.1073 39.3172 44.995 39.1514C44.928 39.0768 44.8449 39.0185 44.7521 38.9807C44.6592 38.9429 44.559 38.9268 44.459 38.9334C44.362 38.9274 44.2649 38.9431 44.1748 38.9795C44.0846 39.0158 44.0037 39.0718 43.938 39.1434C43.8186 39.2817 43.7573 39.4609 43.767 39.6434V40.8594L43.476 40.8624Z" fill="#DDE1E6"/>
<path d="M47.465 40.8624V39.8294L46.52 37.9224H46.877L47.632 39.5114L48.383 37.9224H48.741L47.795 39.8294V40.8624H47.465Z" fill="#DDE1E6"/>
<path d="M48.538 39.7931C48.5357 39.6466 48.5625 39.5011 48.6167 39.365C48.671 39.2289 48.7516 39.1049 48.854 39.0001C49.0735 38.7877 49.367 38.6689 49.6725 38.6689C49.978 38.6689 50.2715 38.7877 50.491 39.0001C50.6939 39.2155 50.8068 39.5002 50.8068 39.7961C50.8068 40.092 50.6939 40.3767 50.491 40.5921C50.2708 40.8032 49.9775 40.921 49.6725 40.921C49.3674 40.921 49.0742 40.8032 48.854 40.5921C48.7507 40.4867 48.6696 40.3618 48.6153 40.2245C48.5611 40.0873 48.5347 39.9407 48.538 39.7931ZM48.828 39.7931C48.8252 39.9054 48.8453 40.017 48.8871 40.1212C48.9289 40.2254 48.9914 40.3199 49.071 40.3991C49.2316 40.5555 49.4468 40.643 49.671 40.643C49.8951 40.643 50.1104 40.5555 50.271 40.3991C50.4264 40.234 50.5129 40.0159 50.5129 39.7891C50.5129 39.5624 50.4264 39.3442 50.271 39.1791C50.1104 39.0228 49.8951 38.9353 49.671 38.9353C49.4468 38.9353 49.2316 39.0228 49.071 39.1791C48.9906 39.2594 48.9276 39.3553 48.8858 39.4609C48.844 39.5665 48.8243 39.6796 48.828 39.7931Z" fill="#DDE1E6"/>
<path d="M53.215 38.7246V40.8626H52.937V40.4806C52.8765 40.6204 52.7708 40.7358 52.637 40.8086C52.4858 40.8899 52.3155 40.929 52.144 40.9216C52.0159 40.9304 51.8874 40.9095 51.7686 40.8606C51.6498 40.8117 51.5439 40.7361 51.459 40.6396C51.3088 40.4379 51.2322 40.1909 51.242 39.9396V38.7276H51.532V39.8836C51.52 40.0866 51.5799 40.2873 51.701 40.4506C51.766 40.5218 51.8466 40.5769 51.9364 40.6116C52.0263 40.6463 52.1231 40.6597 52.219 40.6506C52.3137 40.6553 52.4083 40.6407 52.4972 40.6077C52.5861 40.5747 52.6673 40.5239 52.736 40.4586C52.7995 40.3878 52.8484 40.3052 52.8798 40.2154C52.9112 40.1257 52.9246 40.0305 52.919 39.9356V38.7276L53.215 38.7246Z" fill="#DDE1E6"/>
<path d="M53.787 40.8623V38.7243H54.065V39.0743C54.126 38.9465 54.2233 38.8396 54.3448 38.7668C54.4663 38.6941 54.6065 38.6588 54.748 38.6653V38.9553H54.72C54.6316 38.9499 54.543 38.9641 54.4607 38.9969C54.3784 39.0298 54.3044 39.0805 54.244 39.1453C54.1226 39.303 54.0632 39.4998 54.077 39.6983V40.8623H53.787Z" fill="#DDE1E6"/>
<path d="M56.218 40.8624V37.9224H56.544V40.8624H56.218Z" fill="#DDE1E6"/>
<path d="M57.3 40.8622V38.9622H56.879V38.7272H57.3V37.9272H57.59V38.7272H58.059V38.9622H57.59V40.8622H57.3Z" fill="#DDE1E6"/>
<path d="M60.335 39.8761H58.388C58.3866 39.9876 58.4101 40.098 58.4568 40.1992C58.5035 40.3004 58.5722 40.3899 58.658 40.4611C58.8149 40.5958 59.0152 40.669 59.222 40.6671C59.3761 40.67 59.5281 40.6302 59.661 40.5521C59.7914 40.4759 59.8959 40.3624 59.961 40.2261H60.267C60.1803 40.4405 60.0289 40.6226 59.834 40.7471C59.6496 40.8603 59.4374 40.9202 59.221 40.9202C59.0046 40.9202 58.7924 40.8603 58.608 40.7471C58.443 40.6435 58.3092 40.4969 58.221 40.3231C58.1396 40.1591 58.0975 39.9783 58.098 39.7951C58.0953 39.6468 58.1226 39.4995 58.1783 39.362C58.2339 39.2246 58.3168 39.0997 58.422 38.9951C58.6322 38.7906 58.9126 38.6739 59.2058 38.6691C59.4991 38.6643 59.7832 38.7716 60 38.9691C60.1203 39.0859 60.2127 39.2282 60.2705 39.3856C60.3284 39.5429 60.3501 39.7113 60.334 39.8781L60.335 39.8761ZM58.392 39.6421H60.045C60.0382 39.5437 60.0118 39.4476 59.9673 39.3595C59.9229 39.2714 59.8612 39.1931 59.786 39.1291C59.711 39.0577 59.6224 39.002 59.5256 38.9652C59.4287 38.9285 59.3255 38.9115 59.222 38.9151C59.0103 38.9101 58.8047 38.9867 58.648 39.1291C58.5733 39.1933 58.5122 39.2717 58.4682 39.3598C58.4243 39.4479 58.3983 39.5439 58.392 39.6421Z" fill="#DDE1E6"/>
<path d="M60.752 40.8624V38.7244H61.03V39.0624C61.092 38.9367 61.1921 38.8339 61.316 38.7684C61.4352 38.7028 61.569 38.6684 61.705 38.6684C61.8142 38.663 61.9232 38.6818 62.0242 38.7237C62.1252 38.7655 62.2157 38.8293 62.289 38.9104C62.3457 38.9774 62.3925 39.0521 62.428 39.1324C62.4696 39.0506 62.5217 38.9746 62.583 38.9064C62.7392 38.7577 62.9453 38.6729 63.1609 38.6684C63.3764 38.664 63.5858 38.7403 63.748 38.8824C63.837 38.9704 63.9018 39.08 63.936 39.2004C63.9761 39.3561 63.9942 39.5167 63.99 39.6774V40.8654H63.7V39.6894C63.7174 39.4871 63.6609 39.2853 63.541 39.1214C63.4897 39.0596 63.4243 39.0111 63.3504 38.98C63.2764 38.9488 63.196 38.9359 63.116 38.9424C63.0253 38.9359 62.9345 38.9529 62.8524 38.9918C62.7702 39.0307 62.6995 39.0901 62.647 39.1644C62.599 39.2283 62.5649 39.3015 62.547 39.3794C62.5285 39.4783 62.5205 39.5788 62.523 39.6794V40.8674H62.229V39.6694C62.2451 39.4923 62.2064 39.3147 62.118 39.1604C62.0646 39.0869 61.9938 39.0277 61.912 38.9883C61.8301 38.9488 61.7398 38.9303 61.649 38.9344C61.5572 38.9305 61.466 38.9501 61.384 38.9914C61.3088 39.0285 61.2442 39.0838 61.196 39.1524C61.0942 39.3034 61.044 39.4834 61.053 39.6654V40.8574L60.752 40.8624Z" fill="#DDE1E6"/>
<path d="M65.8 39.2614H65.51C65.513 39.2133 65.5056 39.1651 65.4883 39.1201C65.4711 39.075 65.4444 39.0342 65.41 39.0004C65.3334 38.9389 65.2378 38.9061 65.1396 38.9075C65.0413 38.909 64.9467 38.9447 64.872 39.0084C64.8377 39.0389 64.8108 39.0768 64.7935 39.1193C64.7762 39.1618 64.7688 39.2076 64.772 39.2534C64.7702 39.2953 64.7783 39.3371 64.7957 39.3754C64.8131 39.4136 64.8392 39.4472 64.872 39.4734C64.9683 39.5385 65.0752 39.5862 65.188 39.6144L65.377 39.6684C65.4347 39.6871 65.4908 39.7102 65.545 39.7374C65.605 39.7636 65.6591 39.8017 65.704 39.8494C65.7452 39.8978 65.7788 39.9521 65.804 40.0104C65.8356 40.0837 65.8523 40.1626 65.853 40.2424C65.8589 40.3326 65.8446 40.423 65.811 40.5069C65.7775 40.5909 65.7255 40.6662 65.659 40.7274C65.5203 40.8573 65.3359 40.9271 65.146 40.9214C64.9619 40.9241 64.7827 40.8617 64.64 40.7454C64.5672 40.6865 64.5089 40.6115 64.4699 40.5263C64.4308 40.4411 64.4121 40.3481 64.415 40.2544H64.705C64.7038 40.314 64.7156 40.3732 64.7396 40.4277C64.7636 40.4823 64.7992 40.531 64.844 40.5704C64.9295 40.6425 65.0382 40.6812 65.15 40.6794C65.2053 40.6814 65.2605 40.672 65.3121 40.6519C65.3637 40.6318 65.4106 40.6013 65.45 40.5624C65.4879 40.5258 65.5175 40.4815 65.537 40.4326C65.5565 40.3836 65.5653 40.331 65.563 40.2784C65.5647 40.2266 65.5543 40.1752 65.5326 40.1281C65.5109 40.0811 65.4785 40.0397 65.438 40.0074C65.3127 39.9241 65.1735 39.8638 65.027 39.8294C64.8791 39.7912 64.7406 39.7232 64.62 39.6294C64.571 39.5849 64.5326 39.53 64.5075 39.4688C64.4824 39.4075 64.4713 39.3415 64.475 39.2754C64.4718 39.1916 64.4873 39.1081 64.5206 39.0311C64.5538 38.9541 64.6038 38.8856 64.667 38.8304C64.7993 38.7181 64.9686 38.659 65.142 38.6644C65.2446 38.6633 65.3464 38.682 65.442 38.7194C65.5397 38.7602 65.624 38.8278 65.685 38.9144C65.7575 39.0158 65.7976 39.1368 65.8 39.2614Z" fill="#DDE1E6"/>
<path d="M66.732 40.4253V40.8623H66.422V40.4253H66.732Z" fill="#DDE1E6"/>
<path d="M67.88 40.4253V40.8623H67.57V40.4253H67.88Z" fill="#DDE1E6"/>
<path d="M69.028 40.4253V40.8623H68.718V40.4253H69.028Z" fill="#DDE1E6"/>
<path d="M110.838 39.896H111.372C111.375 39.9714 111.391 40.0456 111.421 40.115C111.441 40.1677 111.476 40.2137 111.521 40.248C111.557 40.2735 111.596 40.2937 111.638 40.308C111.701 40.3288 111.768 40.3317 111.833 40.3163C111.897 40.301 111.956 40.268 112.003 40.221C112.037 40.1891 112.064 40.1506 112.083 40.1077C112.101 40.0649 112.11 40.0187 112.11 39.972C112.111 39.9072 112.087 39.8445 112.043 39.797C112.004 39.7519 111.957 39.7146 111.904 39.687C111.856 39.662 111.763 39.624 111.626 39.571L111.546 39.538C111.486 39.517 111.436 39.497 111.396 39.481C111.338 39.4542 111.281 39.4238 111.227 39.39C111.162 39.3535 111.102 39.3073 111.051 39.253C111.002 39.1951 110.962 39.13 110.932 39.06C110.895 38.9762 110.877 38.8855 110.878 38.794C110.874 38.6834 110.896 38.5734 110.942 38.4729C110.988 38.3724 111.058 38.2844 111.145 38.216C111.32 38.0754 111.538 38 111.763 38.003C111.858 38.0028 111.953 38.0163 112.045 38.043C112.139 38.0714 112.229 38.1138 112.31 38.169C112.4 38.2316 112.472 38.3163 112.52 38.415C112.576 38.5301 112.606 38.6561 112.608 38.784H112.077C112.071 38.7501 112.063 38.7167 112.052 38.684C112.039 38.6492 112.022 38.6157 112.003 38.584C111.98 38.5441 111.945 38.5123 111.903 38.493C111.853 38.4716 111.799 38.4614 111.744 38.463C111.658 38.4608 111.575 38.4912 111.511 38.548C111.479 38.5745 111.453 38.6079 111.436 38.6456C111.419 38.6834 111.41 38.7245 111.411 38.766C111.407 38.8065 111.415 38.8471 111.432 38.8838C111.45 38.9204 111.477 38.9515 111.511 38.974C111.668 39.0624 111.832 39.1389 112.001 39.203C112.181 39.2727 112.344 39.3786 112.481 39.514C112.588 39.6354 112.643 39.7935 112.636 39.955C112.643 40.1742 112.562 40.3871 112.412 40.547C112.323 40.6312 112.218 40.6959 112.103 40.7369C111.988 40.7779 111.866 40.7943 111.744 40.785C111.62 40.7935 111.495 40.7764 111.378 40.7347C111.261 40.6931 111.153 40.6279 111.062 40.543C110.982 40.4564 110.921 40.3542 110.882 40.2429C110.844 40.1316 110.829 40.0135 110.838 39.896Z" fill="white"/>
<path d="M114.93 39.8925H113.33C113.332 39.9629 113.35 40.0319 113.382 40.0945C113.414 40.1572 113.46 40.2118 113.516 40.2545C113.626 40.3419 113.763 40.3879 113.904 40.3845C114.001 40.3902 114.097 40.368 114.182 40.3205C114.266 40.273 114.336 40.2022 114.381 40.1165H114.868C114.787 40.3191 114.648 40.4932 114.468 40.6165C114.302 40.7318 114.103 40.7923 113.901 40.7895C113.762 40.7927 113.623 40.7667 113.495 40.7134C113.366 40.66 113.25 40.5803 113.154 40.4795C113.057 40.3828 112.981 40.2678 112.93 40.1412C112.878 40.0147 112.852 39.8791 112.854 39.7425C112.852 39.6048 112.878 39.4681 112.929 39.3404C112.981 39.2127 113.057 39.0964 113.154 38.9985C113.25 38.8998 113.365 38.8211 113.492 38.7671C113.618 38.713 113.754 38.6846 113.892 38.6836C114.03 38.6826 114.167 38.7089 114.294 38.7611C114.422 38.8132 114.537 38.8902 114.635 38.9875C114.751 39.105 114.838 39.248 114.889 39.4051C114.941 39.5622 114.955 39.7291 114.93 39.8925ZM113.341 39.5315H114.464C114.448 39.4115 114.388 39.3019 114.295 39.2245C114.188 39.1271 114.046 39.0764 113.901 39.0835C113.756 39.0773 113.615 39.1279 113.507 39.2245C113.414 39.3018 113.355 39.4116 113.341 39.5315Z" fill="white"/>
<path d="M117.336 38.7441V40.7271H116.863V40.4411C116.803 40.5542 116.708 40.6449 116.592 40.7001C116.467 40.76 116.33 40.7901 116.192 40.7881C116.055 40.7939 115.918 40.7694 115.791 40.7163C115.665 40.6633 115.551 40.583 115.459 40.4811C115.276 40.2756 115.178 40.0082 115.185 39.7331C115.18 39.594 115.203 39.4554 115.253 39.3255C115.303 39.1955 115.378 39.077 115.475 38.9771C115.568 38.8813 115.679 38.8056 115.803 38.7548C115.926 38.7041 116.059 38.6793 116.192 38.6821C116.339 38.6771 116.485 38.7135 116.613 38.7871C116.716 38.8455 116.802 38.9304 116.861 39.0331V38.7441H117.336ZM115.66 39.7441C115.66 39.8359 115.68 39.9265 115.718 40.0101C115.768 40.1122 115.845 40.1982 115.942 40.258C116.038 40.3178 116.149 40.3491 116.263 40.3481C116.373 40.3544 116.482 40.3274 116.576 40.2706C116.67 40.2139 116.744 40.13 116.79 40.0301C116.836 39.9438 116.862 39.8486 116.866 39.7511C116.871 39.6554 116.853 39.5598 116.812 39.4731C116.766 39.3724 116.694 39.2858 116.603 39.2221C116.502 39.1536 116.381 39.1186 116.259 39.1221C116.177 39.1186 116.095 39.1335 116.019 39.1657C115.944 39.1979 115.876 39.2465 115.822 39.3081C115.716 39.4271 115.658 39.5816 115.66 39.7411V39.7441Z" fill="white"/>
<path d="M117.8 40.727V38.744H118.248V39.004C118.297 38.9014 118.375 38.8158 118.473 38.7583C118.571 38.7009 118.684 38.6743 118.797 38.682V39.159H118.775C118.707 39.1493 118.638 39.1555 118.573 39.1772C118.508 39.1989 118.449 39.2355 118.4 39.284C118.352 39.3325 118.315 39.3916 118.293 39.4567C118.272 39.5218 118.265 39.5911 118.275 39.659V40.728L117.8 40.727Z" fill="white"/>
<path d="M120.46 40.0044H120.944C120.902 40.1602 120.824 40.3042 120.717 40.4254C120.611 40.5467 120.478 40.6418 120.328 40.7036C120.179 40.7655 120.018 40.7924 119.857 40.7822C119.695 40.772 119.539 40.7251 119.399 40.645C119.258 40.5649 119.138 40.4538 119.048 40.3201C118.957 40.1865 118.898 40.0339 118.876 39.874C118.853 39.7141 118.867 39.5511 118.918 39.3976C118.968 39.2441 119.052 39.1041 119.165 38.9884C119.261 38.8888 119.377 38.8101 119.504 38.7575C119.632 38.7048 119.77 38.6792 119.908 38.6824C120.147 38.6787 120.38 38.7559 120.57 38.9014C120.76 39.0438 120.893 39.2496 120.944 39.4814H120.46C120.419 39.3738 120.346 39.2815 120.25 39.2174C120.154 39.1533 120.041 39.1204 119.926 39.1234C119.848 39.1216 119.77 39.1358 119.697 39.165C119.624 39.1942 119.558 39.2379 119.503 39.2934C119.393 39.4131 119.335 39.5711 119.341 39.7334C119.338 39.814 119.351 39.8944 119.379 39.9698C119.408 40.0452 119.451 40.1141 119.507 40.1724C119.606 40.2687 119.735 40.3283 119.873 40.3416C120.01 40.3548 120.148 40.3209 120.264 40.2454C120.35 40.1839 120.417 40.1007 120.46 40.0044Z" fill="white"/>
<path d="M121.259 40.7272V38.0542H121.732V38.9792C121.783 38.8789 121.867 38.7991 121.97 38.7532C122.079 38.703 122.197 38.6787 122.317 38.6822C122.435 38.6715 122.553 38.6915 122.661 38.7402C122.768 38.7889 122.861 38.8647 122.931 38.9602C123.048 39.1654 123.102 39.4005 123.086 39.6362V40.7272H122.613V39.6582C122.621 39.5267 122.59 39.3957 122.523 39.2822C122.483 39.2298 122.431 39.1882 122.371 39.1611C122.311 39.134 122.246 39.1224 122.18 39.1272C122.109 39.1217 122.038 39.1347 121.974 39.1651C121.91 39.1954 121.855 39.242 121.815 39.3002C121.756 39.3955 121.727 39.5063 121.732 39.6182V40.7272H121.259Z" fill="white"/>
<path d="M58.99 48.2376C60.7882 48.2376 62.246 46.7798 62.246 44.9816C62.246 43.1833 60.7882 41.7256 58.99 41.7256C57.1918 41.7256 55.734 43.1833 55.734 44.9816C55.734 46.7798 57.1918 48.2376 58.99 48.2376Z" fill="#D9DDE5"/>
<path opacity="0.7" d="M58.99 48.2376C60.7882 48.2376 62.246 46.7798 62.246 44.9816C62.246 43.1833 60.7882 41.7256 58.99 41.7256C57.1918 41.7256 55.734 43.1833 55.734 44.9816C55.734 46.7798 57.1918 48.2376 58.99 48.2376Z" fill="#D9DDE5"/>
<path d="M66.261 46.5043C67.0889 46.5043 67.76 45.8332 67.76 45.0053C67.76 44.1775 67.0889 43.5063 66.261 43.5063C65.4331 43.5063 64.762 44.1775 64.762 45.0053C64.762 45.8332 65.4331 46.5043 66.261 46.5043Z" fill="#D9DDE5"/>
<path opacity="0.6" d="M66.261 46.5043C67.0889 46.5043 67.76 45.8332 67.76 45.0053C67.76 44.1775 67.0889 43.5063 66.261 43.5063C65.4331 43.5063 64.762 44.1775 64.762 45.0053C64.762 45.8332 65.4331 46.5043 66.261 46.5043Z" fill="#D9DDE5"/>
<path d="M71.146 43.4102C71.0967 43.533 71.0122 43.6385 70.903 43.7132C70.7938 43.788 70.665 43.8286 70.5327 43.8301C70.4004 43.8316 70.2706 43.7939 70.1597 43.7216C70.0489 43.6494 69.962 43.5459 69.9099 43.4242C69.8579 43.3026 69.8432 43.1682 69.8675 43.0381C69.8918 42.9081 69.9542 42.7882 70.0467 42.6936C70.1391 42.5989 70.2576 42.5339 70.3871 42.5066C70.5166 42.4793 70.6512 42.491 70.774 42.5402C70.8556 42.5728 70.93 42.6212 70.993 42.6826C71.0559 42.744 71.106 42.8172 71.1406 42.898C71.1752 42.9788 71.1934 43.0657 71.1943 43.1536C71.1953 43.2415 71.1788 43.3287 71.146 43.4102Z" fill="#D9DDE5"/>
<path opacity="0.5" d="M71.146 43.4102C71.0967 43.533 71.0122 43.6385 70.903 43.7132C70.7938 43.788 70.665 43.8286 70.5327 43.8301C70.4004 43.8316 70.2706 43.7939 70.1597 43.7216C70.0489 43.6494 69.962 43.5459 69.9099 43.4242C69.8579 43.3026 69.8432 43.1682 69.8675 43.0381C69.8918 42.9081 69.9542 42.7882 70.0467 42.6936C70.1391 42.5989 70.2576 42.5339 70.3871 42.5066C70.5166 42.4793 70.6512 42.491 70.774 42.5402C70.8556 42.5728 70.93 42.6212 70.993 42.6826C71.0559 42.744 71.106 42.8172 71.1406 42.898C71.1752 42.9788 71.1934 43.0657 71.1943 43.1536C71.1953 43.2415 71.1788 43.3287 71.146 43.4102Z" fill="#D9DDE5"/>
<path d="M62.271 35.6869C62.685 34.6558 62.8241 33.5349 62.6748 32.4339C62.5254 31.3329 62.0927 30.2895 61.419 29.4059C61.9362 28.1022 62.0651 26.6766 61.7899 25.3012C61.5148 23.9258 60.8475 22.6595 59.8685 21.655C58.8895 20.6506 57.6408 19.9509 56.2729 19.6406C54.9051 19.3302 53.4766 19.4224 52.16 19.9059C51.8395 18.8991 51.2755 17.987 50.5181 17.2504C49.7606 16.5138 48.8331 15.9754 47.8178 15.6832C46.8024 15.3909 45.7307 15.3537 44.6975 15.5748C43.6643 15.796 42.7017 16.2686 41.895 16.951C41.3063 16.2859 40.5573 15.7825 39.7192 15.4887C38.8811 15.1948 37.9817 15.1201 37.1066 15.2719C36.2315 15.4236 35.4098 15.7966 34.7195 16.3555C34.0293 16.9144 33.4934 17.6406 33.163 18.4649C32.9921 18.8925 32.8781 19.3407 32.824 19.798C32.028 19.9648 31.2888 20.3354 30.6789 20.8734C30.0689 21.4115 29.6091 22.0986 29.3443 22.8676C29.0794 23.6366 29.0187 24.4612 29.168 25.2607C29.3173 26.0602 29.6715 26.8073 30.196 27.4289C30.0729 28.0367 30.0713 28.6628 30.1913 29.2711C30.3112 29.8795 30.5504 30.4581 30.895 30.9736C31.2396 31.4891 31.6827 31.9314 32.199 32.2749C32.7152 32.6183 33.2944 32.8563 33.903 32.9749C33.9165 33.6346 34.0688 34.2841 34.35 34.881C34.6311 35.478 35.0348 36.0091 35.5347 36.4397C36.0347 36.8703 36.6197 37.1908 37.2517 37.3804C37.8837 37.5699 38.5486 37.6243 39.203 37.5399C39.4936 38.1477 39.9115 38.6859 40.4284 39.118C40.9452 39.5501 41.5489 39.866 42.1985 40.0444C42.8482 40.2228 43.5285 40.2595 44.1936 40.1519C44.8586 40.0443 45.4927 39.795 46.053 39.4209C46.3762 40.445 47.0081 41.3441 47.8621 41.995C48.7162 42.646 49.7506 43.0169 50.8237 43.0571C51.8968 43.0973 52.956 42.8047 53.8564 42.2195C54.7567 41.6342 55.4541 40.7849 55.853 39.7879C55.864 39.7599 55.873 39.7309 55.884 39.7029C57.2362 39.7932 58.5823 39.4533 59.7295 38.732C60.8768 38.0106 61.7664 36.9447 62.271 35.6869Z" fill="#D9DDE5"/>
<path opacity="0.8" d="M62.271 35.6869C62.685 34.6558 62.8241 33.5349 62.6748 32.4339C62.5254 31.3329 62.0927 30.2895 61.419 29.4059C61.9362 28.1022 62.0651 26.6766 61.7899 25.3012C61.5148 23.9258 60.8475 22.6595 59.8685 21.655C58.8895 20.6506 57.6408 19.9509 56.2729 19.6406C54.9051 19.3302 53.4766 19.4224 52.16 19.9059C51.8395 18.8991 51.2755 17.987 50.5181 17.2504C49.7606 16.5138 48.8331 15.9754 47.8178 15.6832C46.8024 15.3909 45.7307 15.3537 44.6975 15.5748C43.6643 15.796 42.7017 16.2686 41.895 16.951C41.3063 16.2859 40.5573 15.7825 39.7192 15.4887C38.8811 15.1948 37.9817 15.1201 37.1066 15.2719C36.2315 15.4236 35.4098 15.7966 34.7195 16.3555C34.0293 16.9144 33.4934 17.6406 33.163 18.4649C32.9921 18.8925 32.8781 19.3407 32.824 19.798C32.028 19.9648 31.2888 20.3354 30.6789 20.8734C30.0689 21.4115 29.6091 22.0986 29.3443 22.8676C29.0794 23.6366 29.0187 24.4612 29.168 25.2607C29.3173 26.0602 29.6715 26.8073 30.196 27.4289C30.0729 28.0367 30.0713 28.6628 30.1913 29.2711C30.3112 29.8795 30.5504 30.4581 30.895 30.9736C31.2396 31.4891 31.6827 31.9314 32.199 32.2749C32.7152 32.6183 33.2944 32.8563 33.903 32.9749C33.9165 33.6346 34.0688 34.2841 34.35 34.881C34.6311 35.478 35.0348 36.0091 35.5347 36.4397C36.0347 36.8703 36.6197 37.1908 37.2517 37.3804C37.8837 37.5699 38.5486 37.6243 39.203 37.5399C39.4936 38.1477 39.9115 38.6859 40.4284 39.118C40.9452 39.5501 41.5489 39.866 42.1985 40.0444C42.8482 40.2228 43.5285 40.2595 44.1936 40.1519C44.8586 40.0443 45.4927 39.795 46.053 39.4209C46.3762 40.445 47.0081 41.3441 47.8621 41.995C48.7162 42.646 49.7506 43.0169 50.8237 43.0571C51.8968 43.0973 52.956 42.8047 53.8564 42.2195C54.7567 41.6342 55.4541 40.7849 55.853 39.7879C55.864 39.7599 55.873 39.7309 55.884 39.7029C57.2362 39.7932 58.5823 39.4533 59.7295 38.732C60.8768 38.0106 61.7664 36.9447 62.271 35.6869Z" fill="#D9DDE5"/>
<path d="M47.663 24.4012C47.944 24.3992 48.2171 24.3082 48.4431 24.1413C48.6691 23.9744 48.8364 23.7401 48.921 23.4722C48.0907 23.6827 47.2221 23.6909 46.388 23.4962C46.4776 23.7624 46.6493 23.9934 46.8783 24.156C47.1074 24.3186 47.3821 24.4044 47.663 24.4012Z" fill="#F2F4F8"/>
<path d="M54.377 25.01C54.3629 24.9717 54.3413 24.9366 54.3135 24.9068C54.2857 24.8769 54.2522 24.8529 54.215 24.836L51.64 23.676C51.0949 23.4976 50.5383 23.3566 49.974 23.254C49.9545 23.2509 49.9348 23.2492 49.915 23.249C49.8463 23.2494 49.7798 23.2734 49.7267 23.3169C49.6736 23.3604 49.6369 23.4208 49.623 23.488C49.5278 23.9368 49.2823 24.3397 48.9272 24.6301C48.5721 24.9206 48.1286 25.0812 47.6698 25.0856C47.2111 25.0899 46.7646 24.9376 46.4041 24.6539C46.0436 24.3701 45.7906 23.9719 45.687 23.525C45.6695 23.4479 45.6223 23.3808 45.5557 23.3383C45.489 23.2958 45.4083 23.2813 45.331 23.298C44.7685 23.4105 44.2145 23.5619 43.673 23.751L41.121 24.959C41.0836 24.976 41.0501 25.0005 41.0226 25.031C40.9951 25.0615 40.9741 25.0973 40.961 25.1362C40.9479 25.1751 40.9429 25.2163 40.9463 25.2572C40.9498 25.2981 40.9615 25.3379 40.981 25.374L42.115 27.56C42.1472 27.6236 42.2011 27.6736 42.2669 27.7011C42.3326 27.7286 42.4061 27.7318 42.474 27.71L43.706 27.332L43.775 34.703C43.7763 34.7836 43.8094 34.8603 43.8671 34.9165C43.9248 34.9727 44.0024 35.0038 44.083 35.003L51.442 34.934C51.482 34.934 51.5216 34.9261 51.5584 34.9105C51.5953 34.895 51.6287 34.8723 51.6566 34.8437C51.6846 34.8151 51.7065 34.7812 51.7212 34.744C51.7358 34.7068 51.7429 34.667 51.742 34.627L51.673 27.257L52.913 27.611C52.9415 27.6197 52.9712 27.6241 53.001 27.624C53.0571 27.6236 53.1119 27.6074 53.1593 27.5774C53.2067 27.5473 53.2447 27.5046 53.269 27.454L54.362 25.247C54.3805 25.2106 54.3914 25.1708 54.3939 25.1301C54.3965 25.0893 54.3908 25.0485 54.377 25.01Z" fill="#F2F4F8"/>
<g clip-path="url(#clip0_642_2565)">
<path d="M85.9262 127.508L84.024 121.088L91.8385 120.465L92.4811 127.953L90.1548 129.415L85.9262 127.508Z" fill="#FFBF9D"/>
<path d="M64.1665 120.363L65.0662 131.385L70.1816 130.648L70.5286 119.829L64.1665 120.363Z" fill="#FFBF9D"/>
<path d="M70.2073 128.474C70.2073 128.474 66.7756 131.207 64.8606 129.198L64.475 130.266L62.9712 137.805C62.8684 138.288 63.1511 138.809 63.6396 138.949C64.0123 139.063 64.4236 138.949 64.6806 138.682C66.0687 137.207 71.1327 131.766 71.0299 131.093L70.8756 129.275C70.8371 128.893 70.58 128.575 70.2073 128.474Z" fill="#FF735D"/>
<g opacity="0.6">
<path d="M63.8323 139L70.9913 130.47L71.017 130.864C71.0941 131.296 70.9014 131.474 70.7086 131.766C70.143 132.631 68.5364 134.576 64.7063 138.695C64.4878 138.936 64.1537 139.051 63.8195 139H63.8323Z" fill="white"/>
</g>
<g opacity="0.6">
<path d="M69.7574 129.364C69.5261 129.542 69.4747 129.898 69.6418 130.126C69.8217 130.355 70.1944 130.406 70.4258 130.241C70.6571 130.063 70.7343 129.631 70.5415 129.427C70.3358 129.224 69.886 129.173 69.706 129.402" fill="white"/>
</g>
<path d="M65.7603 134.754C65.7603 134.754 65.4518 134.309 64.8606 134.08C64.2693 133.839 63.7424 134.004 63.7295 133.953C63.7295 133.928 63.8323 133.851 64.0637 133.8C64.2822 133.75 64.6164 133.762 64.9505 133.889C65.2719 134.017 65.5161 134.233 65.6446 134.423C65.7731 134.614 65.7988 134.741 65.7731 134.754H65.7603Z" fill="#1A2E35"/>
<path d="M65.1562 136.051C65.1562 136.051 64.7834 135.809 64.2693 135.707C63.7552 135.593 63.3311 135.707 63.3182 135.656C63.2925 135.606 63.7424 135.377 64.3207 135.504C64.8991 135.631 65.2076 136.025 65.1562 136.051Z" fill="#1A2E35"/>
<path d="M66.9299 133.05C66.9299 133.05 66.3772 132.656 65.5932 132.427C64.8092 132.186 64.1408 132.262 64.128 132.199C64.1023 132.148 64.822 131.97 65.6574 132.224C66.4929 132.466 66.9684 133.012 66.9299 133.038V133.05Z" fill="#1A2E35"/>
<path d="M66.9299 130.787C66.9299 130.787 66.3515 130.66 65.6574 130.686C64.9634 130.698 64.4107 130.915 64.385 130.851C64.3593 130.813 64.8991 130.495 65.6446 130.482C66.4029 130.457 66.9556 130.737 66.9299 130.787Z" fill="#1A2E35"/>
<path d="M65.259 130.711C65.259 130.711 65.2333 130.584 65.2847 130.355C65.3361 130.126 65.4389 129.809 65.6831 129.465C65.8117 129.3 65.9402 129.097 66.223 128.995C66.3643 128.944 66.5571 128.995 66.66 129.122C66.7628 129.249 66.7756 129.414 66.7628 129.554C66.6857 130.139 66.0944 130.66 65.3875 130.673C64.6806 130.673 64.1023 130.228 63.8838 129.681C63.8452 129.542 63.8195 129.376 63.9095 129.224C63.9994 129.071 64.2051 129.033 64.3465 129.071C64.6292 129.148 64.7963 129.325 64.9505 129.453C65.259 129.745 65.4261 130.037 65.5289 130.241C65.6317 130.444 65.6574 130.571 65.6446 130.584C65.606 130.609 65.4518 130.101 64.8477 129.554C64.6935 129.427 64.5264 129.275 64.3208 129.224C64.2179 129.198 64.128 129.224 64.0894 129.313C64.038 129.389 64.0508 129.503 64.0894 129.618C64.2693 130.063 64.8092 130.47 65.4004 130.457C65.9916 130.457 66.5186 129.999 66.5828 129.516C66.5957 129.402 66.5828 129.287 66.5186 129.211C66.4672 129.135 66.3643 129.109 66.2744 129.135C66.0816 129.186 65.9274 129.376 65.8117 129.529C65.3233 130.165 65.2976 130.711 65.259 130.686V130.711Z" fill="#1A2E35"/>
<path d="M92.6097 127.114V127.533C92.6097 127.533 99.8972 130.33 99.9872 131.69L85.5921 131.792L85.7592 127.05C87.9056 128.016 90.1419 128.105 92.6097 127.114Z" fill="#FF735D"/>
<g opacity="0.6">
<path d="M87.2244 128.55C86.9416 128.626 86.7617 128.944 86.826 129.211C86.8902 129.491 87.2115 129.682 87.4943 129.605C87.7771 129.529 88.0084 129.16 87.9184 128.893C87.8156 128.626 87.43 128.423 87.1858 128.55" fill="white"/>
</g>
<g opacity="0.6">
<path d="M85.5921 131.792L85.6306 130.648L99.4088 130.966C99.4088 130.966 100.051 131.233 99.9872 131.69L85.5921 131.792Z" fill="white"/>
</g>
<path d="M92.6611 127.571C92.6611 127.635 92.3141 127.673 91.967 127.902C91.62 128.118 91.4401 128.423 91.3758 128.398C91.3115 128.385 91.4144 127.965 91.8385 127.698C92.2627 127.431 92.6868 127.508 92.6739 127.571H92.6611Z" fill="#1A2E35"/>
<path d="M94.1777 128.181C94.1906 128.245 93.8949 128.372 93.6507 128.665C93.4065 128.957 93.3423 129.275 93.278 129.275C93.2138 129.275 93.1623 128.881 93.458 128.512C93.7536 128.143 94.1649 128.118 94.1649 128.181H94.1777Z" fill="#1A2E35"/>
<path d="M95.0517 129.961C95.0517 129.961 94.8846 129.631 95.0646 129.249C95.2445 128.868 95.5658 128.715 95.6044 128.766C95.6429 128.817 95.4373 129.033 95.2959 129.338C95.1417 129.656 95.1288 129.949 95.0646 129.949L95.0517 129.961Z" fill="#1A2E35"/>
<path d="M75.5669 36.9037L74.9757 25.958C74.9243 25.0681 74.8729 24.1655 74.603 23.3138C74.3202 22.462 73.7932 21.6611 72.9964 21.2543C72.1995 20.8475 71.1199 20.911 70.5029 21.5721L70.9399 22.1569C70.58 28.8565 70.4258 35.5689 70.4901 42.2812C70.4901 42.777 70.5158 43.3237 70.8114 43.7305C71.3127 44.417 72.328 44.4043 73.1763 44.328C73.9089 44.2644 74.7315 44.1373 75.1299 43.5398C75.297 43.2855 75.3741 42.9931 75.4255 42.7007C75.7854 40.7938 75.6826 38.8361 75.5798 36.9037H75.5669Z" fill="#1A2E35"/>
<path d="M72.0581 22.7925C71.8268 22.2967 71.4283 21.839 70.9014 21.6611C70.3744 21.4958 69.7061 21.6992 69.4747 22.195L70.7214 23.5934C70.8499 23.7968 71.017 23.9748 71.2355 24.0765C71.454 24.1782 71.7239 24.1782 71.9296 24.0384C72.1224 23.9112 72.2123 23.6697 72.2252 23.4536C72.2252 23.2247 72.1609 23.0086 72.0581 22.8052V22.7925Z" fill="#FF735D"/>
<path d="M74.1531 28.615C73.9346 26.2504 72.675 23.9494 70.6572 22.6781C68.6393 21.4068 65.8631 21.2797 63.8452 22.551C62.5599 23.3646 61.6345 24.6613 61.0947 26.0724C60.5677 27.4835 60.7991 28.6531 60.812 30.1659C60.812 30.9414 60.9148 33.0517 61.596 33.4458L72.238 35.3273C73.6004 33.3695 74.3716 30.9795 74.1531 28.615Z" fill="#1A2E35"/>
<path d="M73.7804 26.8098C73.5362 25.4114 72.1609 24.0384 71.0684 23.0977C69.8346 22.0298 69.6675 22.0679 68.0223 22.0298C66.2872 21.9916 64.3979 21.9916 63.0483 23.0722C62.3029 23.6697 61.8145 24.5215 61.4289 25.386C60.5292 27.3946 60.6706 29.6829 60.9405 31.8568C61.2104 34.0306 61.6859 36.0901 63.4853 37.3741L71.0556 36.2172C72.7265 35.607 73.2791 33.7128 73.7547 32.022C74.2302 30.3185 74.076 28.5514 73.7804 26.8225V26.8098Z" fill="#1A2E35"/>
<path d="M61.1975 28.2081C61.3003 26.1487 63.5239 24.0638 65.5932 24.2545L72.3409 25.4368V26.5428L72.4051 40.3743C69.7446 40.9591 67.1612 41.3786 64.6421 41.5947L64.5778 38.8233C64.5778 38.8233 61.9173 38.4165 61.3261 34.9968C61.0304 33.2933 61.0819 30.4964 61.1975 28.2081Z" fill="#FFBF9D"/>
<path d="M62.4571 30.9287C62.4571 31.1575 62.6499 31.3609 62.8941 31.3736C63.1383 31.3736 63.3439 31.2083 63.3439 30.9668C63.3439 30.738 63.1511 30.5346 62.9069 30.5219C62.6627 30.5219 62.4571 30.6871 62.4571 30.9287Z" fill="#1A2E35"/>
<path d="M61.9558 29.6574C61.9558 29.6574 62.3414 29.4667 62.8298 29.454C63.3054 29.454 63.6652 29.6828 63.7167 29.6193C63.7424 29.5938 63.6781 29.4921 63.5239 29.3777C63.3696 29.276 63.1126 29.1616 62.817 29.1743C62.5214 29.1743 62.2643 29.2887 62.1229 29.4031C61.9815 29.5176 61.9301 29.6193 61.9558 29.6447V29.6574Z" fill="#1A2E35"/>
<path d="M66.7242 30.9287C66.7242 31.1575 66.917 31.3609 67.1612 31.3736C67.4054 31.3736 67.6111 31.2083 67.6111 30.9668C67.6111 30.738 67.4183 30.5346 67.1741 30.5219C66.9299 30.5219 66.7242 30.6871 66.7242 30.9287Z" fill="#1A2E35"/>
<path d="M66.6599 29.6828C66.6599 29.6828 67.0455 29.4921 67.5339 29.4794C68.0095 29.4794 68.3693 29.7082 68.4208 29.6446C68.4465 29.6192 68.3951 29.5175 68.228 29.4031C68.0737 29.3014 67.8167 29.187 67.5211 29.1997C67.2255 29.1997 66.9684 29.3141 66.827 29.4285C66.6856 29.5429 66.6342 29.6446 66.6599 29.6701V29.6828Z" fill="#1A2E35"/>
<path d="M64.9634 33.217C64.9634 33.217 64.6678 33.1407 64.1794 33.0898C64.0508 33.0898 63.9352 33.0517 63.9223 32.9754C63.8966 32.8864 63.948 32.7593 63.9994 32.6195C64.1151 32.3271 64.2308 32.022 64.3464 31.6914C64.8349 30.3693 65.1819 29.2887 65.1305 29.276C65.0791 29.2633 64.6421 30.3057 64.1537 31.6279C64.038 31.9584 63.9223 32.2635 63.8195 32.5559C63.7809 32.6957 63.691 32.8483 63.7681 33.0263C63.8066 33.1153 63.8966 33.1788 63.9737 33.2042C64.0508 33.2297 64.1151 33.2297 64.1794 33.2297C64.6678 33.2551 64.9634 33.2424 64.9634 33.2297V33.217Z" fill="#1A2E35"/>
<path d="M64.5778 38.836C64.5778 38.836 67.0327 38.9504 69.3333 37.552C69.3333 37.552 68.1894 39.9674 64.5906 39.7005V38.8487L64.5778 38.836Z" fill="#FF9A6C"/>
<path d="M65.1819 34.3611C65.349 34.1323 65.6574 34.0051 65.953 34.0306C66.1587 34.056 66.3772 34.145 66.5057 34.3102C66.6342 34.4755 66.6599 34.717 66.5443 34.8696C66.4157 35.0476 66.1458 35.0984 65.9145 35.0349C65.6831 34.9713 65.4903 34.8315 65.2976 34.6789C65.2461 34.6408 65.1947 34.6026 65.1562 34.5391C65.1176 34.4882 65.1176 34.4119 65.1562 34.3611" fill="#FF9A6C"/>
<path d="M66.3772 33.5348C66.3001 33.5348 66.3001 34.0433 65.8631 34.412C65.4261 34.7806 64.8734 34.7298 64.8606 34.8061C64.8606 34.8442 64.9891 34.9078 65.2204 34.9078C65.4518 34.9078 65.786 34.8315 66.0559 34.6154C66.3258 34.3865 66.4415 34.0942 66.4543 33.878C66.4672 33.6619 66.4157 33.5348 66.3772 33.5348Z" fill="#1A2E35"/>
<path d="M66.5314 28.3479C66.5828 28.4751 67.0584 28.4115 67.6239 28.4751C68.1894 28.5259 68.6393 28.6785 68.7164 28.5641C68.755 28.5132 68.665 28.3861 68.4851 28.2717C68.3051 28.1445 68.0095 28.0301 67.6753 28.0047C67.3412 27.9666 67.0327 28.0301 66.827 28.1191C66.6214 28.2081 66.5186 28.3098 66.5443 28.3734L66.5314 28.3479Z" fill="#1A2E35"/>
<path d="M61.943 28.0301C62.033 28.1318 62.3543 28.0301 62.7527 28.0174C63.1512 27.992 63.4853 28.081 63.5624 27.9666C63.601 27.9157 63.5367 27.8013 63.3954 27.6996C63.254 27.5979 63.0098 27.5216 62.7399 27.5343C62.47 27.5343 62.2386 27.6488 62.0972 27.7632C61.9559 27.8776 61.9173 27.992 61.9559 28.0429L61.943 28.0301Z" fill="#1A2E35"/>
<path d="M63.5239 23.3011C62.2515 24.1529 61.3646 25.564 60.9276 27.1149L61.1333 28.3862C61.4289 27.776 61.4675 27.1149 62.0844 26.4793C62.4957 26.0598 63.254 25.653 64.0637 25.4496C66.3772 24.8648 67.1484 24.0385 68.1766 22.5383C66.6857 22.1697 64.7963 22.4366 63.511 23.2884L63.5239 23.3011Z" fill="#1A2E35"/>
<path d="M73.5105 26.6445C72.8679 24.3562 70.76 22.5383 68.3822 22.2078L68.1895 22.5383C67.5982 23.2121 67.0199 23.8859 66.4286 24.5723C66.2872 24.7376 66.133 24.9283 66.0945 25.1444C66.0559 25.4368 66.2358 25.7292 66.4672 25.9072C67.0199 26.3521 67.8039 26.3903 68.5236 26.403C69.2434 26.4157 70.0274 26.4793 70.5544 26.9623C71.2099 27.5726 71.197 28.6023 70.9785 29.454C70.76 30.3185 70.67 31.7042 70.76 32.5814C70.8371 33.3696 71.891 31.45 72.5851 31.8568C72.7779 31.9712 72.2509 35.0731 72.4566 34.9714C72.6494 34.8824 72.6365 33.7637 72.7008 33.5603C73.0606 32.4416 73.4205 31.3101 73.6005 30.1532C73.7933 28.9964 73.8061 27.7887 73.4848 26.6572L73.5105 26.6445Z" fill="#1A2E35"/>
<path d="M71.544 32.6068C71.5954 31.8567 72.4308 31.3737 73.0735 31.7678C73.4334 31.9839 73.6904 32.4034 73.639 33.1916C73.5105 35.3019 71.3898 34.7298 71.3898 34.679C71.3898 34.6408 71.4669 33.484 71.5312 32.6068H71.544Z" fill="#FFBF9D"/>
<path d="M72.0967 33.9162C72.0967 33.9162 72.1352 33.9416 72.1995 33.9798C72.2638 34.0179 72.3666 34.0433 72.4823 34.0052C72.7136 33.9416 72.9321 33.5984 72.9578 33.217C72.9707 33.0263 72.9578 32.8356 72.8935 32.6831C72.8421 32.5305 72.7393 32.4034 72.6365 32.378C72.5208 32.3398 72.4437 32.4034 72.4051 32.4669C72.3666 32.5178 72.3794 32.5686 72.3666 32.5686C72.3666 32.5686 72.328 32.5305 72.3409 32.4415C72.3409 32.4034 72.3794 32.3525 72.4308 32.3144C72.4823 32.2763 72.5594 32.2635 72.6365 32.2763C72.8036 32.3017 72.945 32.4542 73.0092 32.6322C73.0863 32.8102 73.1249 33.0136 73.0992 33.2297C73.0606 33.6492 72.8036 34.0433 72.4951 34.1069C72.3409 34.1323 72.2252 34.0815 72.1609 34.0306C72.0967 33.9798 72.0838 33.9289 72.0967 33.9289V33.9162Z" fill="#FF9A6C"/>
<path d="M72.0838 23.8732C72.0838 23.8732 72.4309 24.2419 72.8421 24.9411C73.0606 25.2843 73.2663 25.7165 73.4719 26.2123C73.6647 26.7081 73.8318 27.2802 73.9475 27.8777C74.1788 29.0981 74.0889 30.2296 73.9089 31.0178C73.8961 31.1195 73.8704 31.2085 73.8447 31.2974L73.7804 31.539C73.7418 31.6915 73.6904 31.8187 73.6519 31.9331L73.5619 32.1746L73.5233 32.2636C73.5233 32.2636 73.5233 32.2382 73.549 32.1746L73.6262 31.9331C73.6647 31.8314 73.7161 31.6915 73.7418 31.539L73.8061 31.2974C73.8318 31.2085 73.8575 31.1195 73.8704 31.0178C74.0246 30.2296 74.1146 29.1109 73.8832 27.9031C73.7675 27.3056 73.6133 26.7336 73.4205 26.2378C73.2277 25.742 73.0221 25.3097 72.8164 24.9665L72.6751 24.7122L72.5337 24.4961L72.4052 24.3054C72.4052 24.3054 72.328 24.2037 72.2895 24.1529L72.1352 23.9368L72.0838 23.8605V23.8732Z" fill="#375A64"/>
<path d="M72.2895 24.5215C72.2895 24.5215 72.2895 24.5469 72.2895 24.585C72.2766 24.6232 72.2509 24.6867 72.1995 24.7503C72.1095 24.8901 71.891 25.03 71.6083 25.119C71.3255 25.208 70.9914 25.297 70.6058 25.3732C70.2202 25.4495 69.7961 25.5258 69.3462 25.5512C68.8964 25.5766 68.4594 25.5639 68.0738 25.5131C67.6882 25.4622 67.3412 25.3732 67.0713 25.2715C66.7885 25.1698 66.5829 25.0554 66.4415 24.9791C66.3644 24.941 66.313 24.9029 66.2873 24.8774C66.2487 24.852 66.2358 24.8393 66.2358 24.8393C66.2358 24.8393 66.313 24.8774 66.4543 24.9537C66.5957 25.03 66.8142 25.1317 67.0841 25.2334C67.354 25.3351 67.7011 25.4114 68.0866 25.4622C68.4722 25.5131 68.8964 25.5258 69.3462 25.4876C70.233 25.4241 71.0299 25.2207 71.5954 25.0681C71.8782 24.9791 72.0838 24.852 72.1738 24.7249C72.2766 24.5978 72.2766 24.4961 72.2895 24.5088V24.5215Z" fill="#375A64"/>
<path d="M71.9039 23.7842C71.9039 23.7842 71.9039 23.7969 71.8653 23.8223C71.8396 23.8478 71.8011 23.8859 71.7497 23.9367C71.6468 24.0257 71.4926 24.1529 71.2741 24.28C70.85 24.5342 70.1688 24.7376 69.4105 24.7504C68.6522 24.7504 67.971 24.5978 67.4954 24.4834C67.2512 24.4198 67.0584 24.369 66.9299 24.3308C66.8014 24.2927 66.7242 24.2673 66.7242 24.2673C66.7242 24.2673 66.8014 24.2673 66.9299 24.3054L67.4954 24.4325C67.971 24.5342 68.6522 24.6868 69.3976 24.6741C70.1431 24.6741 70.8114 24.4707 71.2356 24.2291C71.6726 24.0003 71.8653 23.7588 71.8782 23.7715L71.9039 23.7842Z" fill="#375A64"/>
<path d="M71.4669 23.5553C71.4669 23.5553 71.4155 23.5808 71.3127 23.6062C71.2099 23.6316 71.0685 23.6697 70.8885 23.7079C70.5287 23.7842 70.0145 23.8477 69.4619 23.8477C68.8964 23.8477 68.3951 23.7714 68.0352 23.6952C67.8553 23.657 67.7139 23.6189 67.6111 23.5808C67.5083 23.5553 67.4568 23.5299 67.4568 23.5299C67.4568 23.5299 67.5083 23.5299 67.6111 23.5553C67.7139 23.5808 67.8553 23.6062 68.0352 23.6443C68.3951 23.7079 68.8964 23.7715 69.4619 23.7842C70.0145 23.7842 70.5287 23.7333 70.8885 23.6697C71.0685 23.6443 71.2099 23.6062 71.3127 23.5808C71.4155 23.5553 71.4669 23.5426 71.4669 23.5553Z" fill="#375A64"/>
<path d="M68.6136 21.7501C68.6136 21.7501 68.6007 21.801 68.5622 21.9027C68.5236 22.0044 68.4594 22.1315 68.3822 22.2968C68.2152 22.6273 67.9453 23.0595 67.5725 23.4791C67.1998 23.8986 66.8014 24.2291 66.5057 24.4452C66.3515 24.5469 66.223 24.6232 66.133 24.6741C66.043 24.7249 65.9916 24.7503 65.9916 24.7503C65.9916 24.7503 66.0302 24.7122 66.1202 24.6613C66.2101 24.6105 66.3258 24.5215 66.48 24.4071C66.7757 24.191 67.1612 23.8604 67.534 23.4409C67.8938 23.0214 68.1766 22.5892 68.3437 22.2713C68.4337 22.1061 68.4979 21.979 68.5365 21.89C68.575 21.801 68.6136 21.7501 68.6136 21.7501Z" fill="#375A64"/>
<path d="M61.0176 26.2885C61.0176 26.2885 61.0176 26.2631 61.0562 26.2377C61.0819 26.1995 61.1204 26.1487 61.1718 26.0851C61.2747 25.958 61.4289 25.78 61.6345 25.5639C61.8402 25.3605 62.1101 25.119 62.4314 24.9028C62.5985 24.7884 62.7656 24.6867 62.9584 24.5977C63.1512 24.5088 63.3568 24.4198 63.5753 24.3562C64.4364 24.0765 65.2719 24.0511 65.8631 24.1147C66.1587 24.1401 66.3901 24.1909 66.5571 24.2291C66.6343 24.2418 66.6985 24.2672 66.7371 24.2799C66.7756 24.2799 66.8013 24.3053 66.8013 24.3053C66.8013 24.3053 66.7114 24.2926 66.5443 24.2545C66.3772 24.2164 66.1459 24.1909 65.8502 24.1655C65.2719 24.1147 64.4493 24.1655 63.5882 24.4325C62.727 24.6994 62.0844 25.2207 61.6731 25.6275C61.4675 25.8309 61.3004 26.0089 61.1975 26.1233L61.069 26.2631L61.0176 26.314V26.2885Z" fill="#375A64"/>
<path d="M62.6242 24.0258C62.6242 24.0258 62.6756 23.9876 62.7913 23.9241C62.8427 23.8859 62.907 23.8478 62.9969 23.8097C63.0741 23.7715 63.164 23.7207 63.2668 23.6825C63.3697 23.6317 63.4853 23.5935 63.6139 23.5427C63.7424 23.4918 63.8709 23.4537 64.0123 23.4156C64.2951 23.3393 64.6292 23.2757 64.9634 23.2376C65.3104 23.2121 65.6318 23.2121 65.9402 23.2376C66.0944 23.2503 66.2358 23.263 66.3644 23.2884C66.4929 23.3011 66.6214 23.3393 66.7242 23.3647C66.8399 23.3901 66.9299 23.4156 67.0198 23.441C67.1098 23.4664 67.1741 23.4918 67.2383 23.5173C67.354 23.5554 67.4183 23.5808 67.4183 23.5935C67.4183 23.5935 67.354 23.5808 67.2255 23.5427C67.1612 23.53 67.097 23.5045 67.007 23.4791C66.917 23.4537 66.8271 23.4283 66.7114 23.4156C66.5957 23.3901 66.48 23.3647 66.3515 23.352C66.223 23.3266 66.0816 23.3266 65.9402 23.3011C65.6446 23.2884 65.3233 23.2884 64.9763 23.3139C64.6421 23.352 64.3208 23.4156 64.038 23.4791C63.8966 23.5173 63.7552 23.5554 63.6396 23.6062C63.511 23.6444 63.3954 23.6952 63.2925 23.7334C63.1897 23.7715 63.0998 23.8224 63.0226 23.8605C62.9455 23.8986 62.8684 23.9368 62.817 23.9622C62.7013 24.0258 62.6499 24.0512 62.6371 24.0512L62.6242 24.0258Z" fill="#375A64"/>
<path d="M73.2277 34.4501C73.2277 34.4501 73.3305 34.4501 73.4077 34.5264C73.4848 34.6027 73.5619 34.7298 73.6004 34.9205C73.6133 35.0222 73.6262 35.1239 73.6004 35.251C73.5876 35.3654 73.5233 35.518 73.4462 35.6324C73.3562 35.7468 73.2406 35.8612 73.0863 35.9248C72.9321 36.0011 72.7265 36.0265 72.5337 35.9757C72.3409 35.9248 72.1866 35.7977 72.0838 35.6706C71.981 35.5434 71.9296 35.3909 71.9039 35.2383C71.8525 34.9332 71.9681 34.6917 72.0838 34.5391C72.1995 34.3866 72.328 34.2976 72.4308 34.2594C72.5337 34.2213 72.5979 34.2213 72.6236 34.2594C72.6879 34.3357 72.5594 34.501 72.4951 34.7425C72.4694 34.8569 72.4566 34.9968 72.4951 35.1112C72.5337 35.2256 72.6365 35.3273 72.7136 35.34C72.7522 35.34 72.7907 35.34 72.8421 35.34C72.8935 35.3273 72.945 35.2892 72.9964 35.251C73.0863 35.1748 73.1377 35.0603 73.1635 34.9332C73.2149 34.6917 73.1635 34.4756 73.2534 34.4374L73.2277 34.4501Z" fill="#FF735D"/>
<path d="M59.501 51.1165L61.1076 58.1976L60.3493 62.9521H77.9447L76.8008 40.7556L72.4051 40.387L61.6859 42.1668L59.501 51.1165Z" fill="#B71010"/>
<path d="M63.9866 42.0396C63.9866 42.0396 59.3982 41.6201 57.2132 44.7093C55.8765 46.6035 54 50.9386 54 50.9386L60.1051 51.981L63.9866 42.0524V42.0396Z" fill="#B71010"/>
<g opacity="0.3">
<path d="M70.1173 48.752C71.4026 50.3284 72.0067 52.3243 72.855 54.1676C73.9346 56.5449 75.4384 58.7061 76.9422 60.8546C77.0578 61.0198 77.2121 61.1978 77.4049 61.1724C77.6105 61.147 77.7133 60.9181 77.7647 60.7274C78.0861 59.5197 77.9318 58.2103 77.5077 57.028C77.0835 55.8457 76.4023 54.7651 75.6826 53.7354C74.5387 52.1082 73.2791 50.5826 71.891 49.1461C71.6468 48.8918 71.3769 48.6249 71.0299 48.5232C70.6829 48.4215 70.2459 48.5232 70.1045 48.841" fill="#262626"/>
</g>
<g opacity="0.3">
<path d="M61.0433 56.9644C61.3389 55.8075 61.6345 54.6507 61.9302 53.4938C61.9944 53.265 62.0458 53.0234 62.1744 52.82C62.3286 52.5658 62.5599 52.3624 62.7913 52.1717C63.074 51.9301 63.3825 51.6886 63.7424 51.5742C64.038 51.4852 64.3593 51.4979 64.6292 51.3581C65.002 51.1674 65.2076 50.7733 65.3618 50.3792C65.4775 50.0868 65.5803 49.7308 65.4132 49.4639C65.2462 49.2096 64.912 49.1333 64.6035 49.1333C63.2026 49.0952 61.8016 49.9342 61.2104 51.1928C60.7477 52.159 60.7477 53.265 60.7606 54.3329L60.7863 57.1932" fill="#262626"/>
</g>
<path d="M66.6728 57.1043C66.6728 57.1043 66.4286 57.1297 66.043 57.1551C65.6574 57.1805 65.1176 57.1933 64.5393 57.117C63.9609 57.0407 63.4468 56.9009 63.074 56.7737C62.7142 56.6466 62.4957 56.5449 62.4828 56.5703C62.4828 56.5703 62.5342 56.6085 62.6242 56.6593C62.7142 56.7102 62.8684 56.7737 63.0483 56.85C63.4082 56.9899 63.9352 57.1551 64.5264 57.2314C65.1176 57.3077 65.6574 57.2822 66.0559 57.2314C66.2487 57.206 66.4029 57.1805 66.5057 57.1551C66.6086 57.1297 66.6728 57.117 66.6728 57.1043Z" fill="#1A2E35"/>
<path d="M74.3588 57.4094C74.3588 57.4094 71.8653 58.0832 68.7935 58.9731C65.7346 59.863 63.254 60.613 63.2668 60.6385C63.2668 60.6639 65.7603 59.9647 68.8321 59.0748C71.891 58.1849 74.3716 57.4348 74.3588 57.4094Z" fill="#1A2E35"/>
<g opacity="0.3">
<path d="M62.7527 56.6847C63.0226 57.4348 63.7295 57.9433 64.5264 58.0323C65.3233 58.134 66.1587 57.7399 66.5957 57.0788C65.3104 57.2441 63.9609 57.1551 62.7527 56.672" fill="#262626"/>
</g>
<g opacity="0.3">
<path d="M63.9223 60.4351L63.9866 60.4605C65.5546 60.7402 67.0327 60.4605 68.5365 59.9266C70.0402 59.4053 71.4412 58.6298 72.8421 57.8544C69.8732 58.7061 66.9042 59.5706 63.9223 60.4224V60.4351Z" fill="#262626"/>
</g>
<path d="M73.292 60.2571C73.292 60.2571 73.3305 60.4351 73.292 60.702C73.2534 60.9817 73.1249 61.3504 72.8935 61.719C72.6493 62.075 72.3537 62.342 72.1095 62.4818C71.8653 62.6344 71.6982 62.6852 71.6982 62.6725C71.6982 62.6471 71.8396 62.5708 72.0581 62.4183C72.2766 62.253 72.5594 61.9987 72.7779 61.6555C73.0092 61.3122 73.1377 60.9563 73.202 60.702C73.2663 60.4351 73.2791 60.2698 73.3048 60.2698L73.292 60.2571Z" fill="#1A2E35"/>
<path d="M74.1917 61.3376C74.1917 61.3376 74.1531 61.4902 73.9989 61.6936C73.8446 61.897 73.5876 62.1512 73.2534 62.3419C72.9064 62.5326 72.5594 62.6216 72.3152 62.647C72.0581 62.6725 71.9039 62.647 71.9039 62.6216C71.9039 62.5835 72.5337 62.5962 73.1891 62.2275C73.8446 61.8716 74.166 61.3122 74.1917 61.3376Z" fill="#1A2E35"/>
<path d="M83.3557 81.462C83.0344 80.1399 80.6823 71.6477 80.2325 70.3637L78.1246 64.376L77.9832 62.3928L60.0536 62.9395C60.0536 62.9395 57.4959 66.0541 56.5577 69.5755C55.748 72.6012 55.3367 77.1905 57.2646 89.1151C58.537 95.7384 62.7656 124.622 62.7656 124.622H73.4848L69.2691 78.4109L73.2534 92.0517L82.6359 124.037L94.1263 123.974L83.3428 81.4493L83.3557 81.462Z" fill="#01194F"/>
<path d="M71.0813 62.7361C71.0813 62.7361 71.0813 62.787 71.0941 62.8759L71.1199 63.2955C71.1327 63.6641 71.1584 64.1854 71.1584 64.8337C71.1713 66.1304 71.1456 67.9356 71.0042 69.9061C70.8499 72.1944 70.5672 74.2285 70.3487 75.4997V75.5379H70.3101L69.1534 75.5633H68.8449C68.7807 75.5633 68.7421 75.5633 68.7421 75.5633C68.7421 75.5633 68.7807 75.5633 68.8449 75.5506L69.1534 75.5252C69.4361 75.5124 69.8217 75.487 70.3101 75.4616L70.2716 75.4997C70.4515 74.2157 70.7086 72.1944 70.8757 69.9061C71.017 67.9356 71.0684 66.1304 71.0684 64.8337V62.8759C71.0684 62.7742 71.0684 62.7361 71.0684 62.7234L71.0813 62.7361Z" fill="#01194F"/>
<path d="M68.9606 63.5116C68.9606 63.5116 68.922 63.5497 68.8706 63.6387C68.8192 63.715 68.7678 63.8421 68.7678 64.0074C68.7678 64.1726 68.8192 64.376 68.9863 64.5159C69.1405 64.6557 69.4104 64.6684 69.6289 64.5667C69.8474 64.4523 70.0017 64.2362 69.976 64.0201C69.9631 63.804 69.8217 63.6387 69.6932 63.5497C69.5518 63.448 69.4233 63.4226 69.3205 63.4099C69.2305 63.4099 69.1662 63.4099 69.1662 63.4099C69.1662 63.4099 69.2176 63.3717 69.3205 63.359C69.4233 63.359 69.5775 63.359 69.7446 63.4734C69.8988 63.5751 70.0659 63.7531 70.0916 64.0201C70.1302 64.287 69.9502 64.5667 69.6803 64.6938C69.4233 64.821 69.0891 64.8083 68.8963 64.6176C68.7035 64.4396 68.6521 64.1981 68.665 64.0201C68.6778 63.8294 68.7549 63.6895 68.8321 63.6133C68.8963 63.537 68.9606 63.5116 68.9606 63.5243V63.5116Z" fill="#01194F"/>
<path d="M65.3747 63.3971C65.3747 63.3971 65.3747 63.4988 65.349 63.6895C65.3104 63.8802 65.2461 64.1472 65.1305 64.4523C64.8991 65.0879 64.4107 65.9269 63.601 66.588C62.7913 67.2491 61.8659 67.5796 61.1975 67.694C60.8634 67.7576 60.5806 67.7703 60.3878 67.7703C60.195 67.7703 60.0922 67.7576 60.0922 67.7449C60.0922 67.7194 60.5163 67.7449 61.1718 67.605C61.8273 67.4779 62.7142 67.1474 63.511 66.499C64.295 65.8507 64.7834 65.037 65.0405 64.4268C65.2976 63.8166 65.349 63.3971 65.3747 63.3971Z" fill="#01194F"/>
<path d="M79.397 68.139C79.397 68.139 79.2942 68.1136 79.1271 68.0373C78.96 67.961 78.7287 67.8212 78.4588 67.6305C77.919 67.2491 77.2635 66.6007 76.6337 65.8253C75.9911 65.0625 75.4127 64.3506 75.0785 63.7912C74.8986 63.5115 74.7829 63.27 74.7058 63.1047C74.6287 62.9395 74.5901 62.8378 74.603 62.8378C74.6287 62.8378 74.7957 63.1937 75.1556 63.7404C75.5155 64.287 76.0939 64.9735 76.7365 65.7363C77.3792 66.499 77.9961 67.1601 78.523 67.5542C79.0372 67.9483 79.4099 68.1263 79.397 68.139Z" fill="#01194F"/>
<path d="M68.6778 95.9291C68.6778 95.9291 68.5879 95.9419 68.4208 95.9419C68.2537 95.9419 68.0223 95.9419 67.7267 95.9037C67.1484 95.8529 66.3386 95.7003 65.5032 95.3952C64.6678 95.0901 63.948 94.696 63.4725 94.3655C63.2283 94.2002 63.0483 94.0604 62.9198 93.9587C62.7913 93.857 62.727 93.7934 62.7399 93.7807C62.7527 93.768 63.0355 93.9841 63.5239 94.2892C64.0123 94.5943 64.7192 94.9757 65.5546 95.2681C66.39 95.5605 67.1741 95.7257 67.7396 95.802C68.318 95.8783 68.6778 95.891 68.6778 95.9164V95.9291Z" fill="#01194F"/>
<path d="M83.2015 94.2383C83.2015 94.2383 83.0729 94.518 82.8287 94.9375C82.5717 95.357 82.199 95.9291 81.762 96.5393C81.3121 97.1495 80.8751 97.6708 80.5538 98.0394C80.2196 98.4081 80.0011 98.6242 79.9883 98.6115C79.9754 98.6115 80.1682 98.3573 80.4767 97.9759C80.7851 97.5945 81.2093 97.0606 81.6591 96.4503C82.109 95.8401 82.4817 95.2808 82.7645 94.874C83.0344 94.4671 83.2015 94.2129 83.2272 94.2129L83.2015 94.2383Z" fill="#01194F"/>
<path d="M73.9218 45.8027C73.8446 44.8747 74.9114 43.7941 75.2199 42.9169C75.8368 41.1498 75.7726 40.387 75.5669 36.9037L72.4437 36.2427C72.3537 37.3995 72.5208 36.9546 72.4051 38.2132C72.2895 39.4717 71.9681 40.7303 71.287 41.7982C70.7985 42.5609 70.1174 43.2728 70.0274 44.1627C69.8989 45.4594 71.0427 46.5782 71.1199 47.8876C71.2227 49.6928 69.2434 51.1802 69.4876 52.9854C69.539 53.3795 69.7318 53.7863 70.0916 53.977C70.3487 54.1168 70.6572 54.1041 70.9528 54.1041C71.5954 54.1041 72.2381 54.0914 72.8807 54.0787C73.0863 54.0787 73.3177 54.066 73.4591 53.9261C73.7033 53.6973 73.5747 53.3032 73.5233 52.9854C73.3048 51.5743 74.8343 50.4174 74.8729 48.9936C74.8986 47.8876 74.0246 46.9341 73.9346 45.8281L73.9218 45.8027Z" fill="#1A2E35"/>
<path d="M71.9167 50.1886C71.9167 50.1886 77.2892 62.0242 80.4124 62.3928C81.9933 62.5708 82.9444 61.7191 83.2914 60.1045C83.6256 58.49 82.5074 47.9003 82.5074 47.9003L77.0964 49.3877L77.5077 51.4344L74.2688 48.2435L71.9167 50.1759V50.1886Z" fill="#FFBF9D"/>
<path d="M76.8008 40.7557C76.8008 40.7557 79.8212 41.0481 80.9522 43.4889C82.0832 45.9425 83.6384 48.7011 83.6384 48.7011L76.9807 50.1885C76.9807 50.1885 76.0553 45.2433 75.9782 43.4889C75.9011 41.5693 75.6954 40.6921 76.8008 40.7557Z" fill="#B71010"/>
<path d="M82.109 55.9475C82.109 55.9475 82.0833 55.922 82.0318 55.8585L81.8005 55.6297C81.5948 55.4262 81.2992 55.1466 80.9522 54.816C80.2325 54.1295 79.2556 53.1761 78.1632 52.1082C77.0964 51.0403 76.1196 50.0869 75.3998 49.375C75.0528 49.0317 74.77 48.752 74.5644 48.5486L74.333 48.3198C74.333 48.3198 74.2559 48.2435 74.2431 48.2435C74.2431 48.2435 74.2688 48.2817 74.3073 48.3325L74.5258 48.5741C74.7186 48.7775 74.9885 49.0699 75.3356 49.4258C76.0296 50.1377 76.9936 51.1166 78.0732 52.1845C79.1528 53.2524 80.1553 54.1931 80.8751 54.8669C81.235 55.2101 81.5434 55.4771 81.7491 55.6551L81.9933 55.8585C81.9933 55.8585 82.0833 55.9348 82.0833 55.922L82.109 55.9475Z" fill="#FF9A6C"/>
<path d="M67.1612 40.9972L69.269 41.8108C69.269 41.8108 70.4258 41.8108 70.58 42.1922L70.8756 42.9295C70.8756 42.9295 71.5825 43.1075 71.7368 43.5016C71.891 43.8957 73.112 46.5527 73.112 46.5527L74.2688 48.2689L71.9167 50.2012C71.9167 50.2012 71.4283 49.5783 70.9528 49.2478C70.4644 48.9173 68.4593 47.2519 68.4208 46.7942C68.3822 46.3366 67.2897 43.7813 67.2769 43.5143C67.2769 43.2474 67.2383 42.6499 67.5082 42.8024C67.7781 42.955 68.1509 43.6923 68.1509 43.6923L67.8938 42.7007C67.8938 42.7007 67.7267 42.6117 67.5082 42.332C67.2255 41.9888 67.1869 41.5947 67.1869 41.5947L67.1612 41.0353V40.9972Z" fill="#FFBF9D"/>
<path d="M71.5826 46.9977C71.5826 46.9977 71.5055 46.8833 71.3641 46.6926L70.7471 45.8917H70.7086L69.9117 45.8662H69.886V45.8917C69.7832 46.0442 69.6675 46.2095 69.4876 46.2858C69.4105 46.3239 69.3076 46.3112 69.192 46.3239C69.0891 46.3239 68.9735 46.3239 68.8706 46.3239L68.9092 46.4002L69.0506 46.1205L69.5647 45.1035L69.5133 45.1289C70.0402 45.1289 70.5286 45.1289 70.9271 45.1289H70.9142L71.6982 45.4848C71.891 45.5738 71.9939 45.612 71.9939 45.5993C71.9939 45.5993 71.9039 45.5357 71.724 45.4467L70.9528 45.0526H69.4747L68.9606 46.0823L68.8192 46.362L68.7807 46.4256H68.8578C68.9735 46.451 69.0763 46.451 69.192 46.4383H69.359C69.359 46.4383 69.4747 46.4129 69.5261 46.3875C69.7318 46.2858 69.8603 46.1205 69.9503 45.9425L69.9117 45.9679H70.7086L70.67 45.9425L71.3127 46.718C71.4669 46.896 71.5569 46.9977 71.5697 46.9977H71.5826Z" fill="#FF9A6C"/>
<path d="M70.8757 43.8194C70.8757 43.8194 70.7471 43.8067 70.5286 43.7939H69.5904L69.4233 43.7685L69.5647 43.8448C69.7575 43.9465 69.9888 44.0736 70.1816 44.2516C70.233 44.3025 70.2587 44.3533 70.2459 44.3787C70.233 44.4169 70.1688 44.4677 70.1045 44.4931C69.9888 44.5567 69.8474 44.6076 69.6932 44.6584H69.7061C69.449 44.6457 69.1662 44.544 68.9092 44.3914C68.6907 44.277 68.6264 43.9974 68.6007 43.7685C68.575 43.527 68.6007 43.2854 68.6264 43.0693L68.575 43.1075C69.2305 43.0566 69.796 43.0185 70.2073 42.9803L70.67 42.9295C70.7728 42.9295 70.8371 42.9041 70.8371 42.9041C70.8371 42.9041 70.7728 42.9041 70.67 42.9041H70.2073L68.5622 43.0058H68.5236V43.0439C68.4722 43.2727 68.4593 43.5143 68.4851 43.7685C68.4851 43.8956 68.5236 44.0228 68.575 44.1499C68.6264 44.277 68.7164 44.4042 68.8449 44.4804C69.1148 44.633 69.3976 44.7347 69.6932 44.7474H69.7061C69.8603 44.6966 70.0017 44.6457 70.1302 44.5694C70.1945 44.5313 70.2587 44.4932 70.3101 44.4042C70.3358 44.3533 70.3101 44.3025 70.3101 44.2643C70.2844 44.2262 70.2587 44.2008 70.233 44.1753C70.0145 43.9846 69.796 43.8702 69.5904 43.7685V43.8448H70.5158C70.7343 43.8194 70.8628 43.8067 70.8628 43.8067L70.8757 43.8194Z" fill="#FF9A6C"/>
<path d="M74.2688 48.2562C74.2688 48.2562 74.2688 48.2562 74.2559 48.2308L74.2045 48.1418L73.986 47.7985L73.1506 46.5273C72.9321 46.0315 72.6622 45.434 72.3537 44.7602L71.8782 43.6923C71.8396 43.5906 71.8011 43.5143 71.7496 43.3999C71.6854 43.2982 71.6083 43.2219 71.5183 43.1584C71.3384 43.0312 71.1199 42.9422 70.9014 42.8787L70.9399 42.9041L70.7471 42.421L70.6443 42.1668C70.6057 42.0651 70.5158 42.0015 70.4258 41.9507C70.2459 41.8617 70.0659 41.8235 69.8731 41.7981C69.6803 41.7727 69.4876 41.7472 69.2948 41.7472H69.3076C68.6264 41.493 67.9324 41.2133 67.1998 40.9336L67.1227 40.9082V40.9845C67.1355 41.1752 67.1355 41.3786 67.1612 41.582C67.1998 41.7854 67.2769 41.9888 67.3797 42.1795C67.5211 42.3829 67.6753 42.5609 67.881 42.7007L67.8553 42.6626L68.1123 43.6542L68.2151 43.616C68.1252 43.4508 68.0352 43.2982 67.9324 43.1329C67.8296 42.9804 67.7267 42.8278 67.5596 42.7134C67.5211 42.688 67.4568 42.6626 67.3926 42.688C67.3283 42.7134 67.3026 42.777 67.2769 42.8151C67.2383 42.9041 67.2383 43.0058 67.2255 43.0948C67.2255 43.1838 67.2255 43.2728 67.2255 43.3618C67.2255 43.3999 67.2255 43.4508 67.2255 43.4889C67.2255 43.5397 67.2383 43.5779 67.264 43.6287C67.4825 44.2898 67.7396 44.8873 67.9452 45.4721C68.0609 45.7645 68.1637 46.0442 68.2537 46.3238C68.2923 46.4637 68.3437 46.6035 68.3694 46.7307C68.3951 46.8959 68.4979 47.0103 68.575 47.1248C68.9349 47.557 69.3205 47.9002 69.6675 48.2053C70.0145 48.5104 70.3487 48.7774 70.6443 49.0062C70.7857 49.1207 70.9399 49.2224 71.0556 49.3113C71.1841 49.4003 71.2869 49.502 71.3769 49.591C71.5569 49.769 71.6982 49.9216 71.7882 50.0233L71.891 50.1377L71.9296 50.1758C71.9296 50.1758 71.9296 50.1631 71.9039 50.1377L71.8139 50.0106C71.7239 49.9088 71.5954 49.7563 71.4155 49.5656C71.3255 49.4766 71.2227 49.3749 71.0942 49.2732C70.9656 49.1715 70.8242 49.0825 70.6829 48.9681C70.4001 48.7393 70.0659 48.4723 69.7189 48.1545C69.3719 47.8367 68.9863 47.4934 68.6521 47.0739C68.575 46.9595 68.485 46.8578 68.4722 46.7307C68.4465 46.5781 68.4079 46.451 68.3565 46.2984C68.2665 46.0187 68.1637 45.7263 68.048 45.434C67.8296 44.8492 67.5853 44.239 67.3669 43.5906C67.354 43.5525 67.3411 43.5143 67.3411 43.4762C67.3411 43.438 67.3411 43.3872 67.3411 43.3491C67.3411 43.2601 67.3411 43.1838 67.3411 43.0948C67.3411 42.9422 67.3797 42.7007 67.5082 42.8024C67.6368 42.8914 67.7524 43.044 67.8424 43.1838C67.9452 43.3363 68.0352 43.4889 68.1123 43.6542L68.3308 44.0864L68.2151 43.6287L67.9581 42.6371L67.9324 42.599C67.7524 42.4846 67.5982 42.2939 67.4697 42.1159C67.3669 41.9507 67.2897 41.76 67.264 41.5693C67.2512 41.3786 67.2512 41.1752 67.2383 40.9845L67.1612 41.0353C67.881 41.315 68.5879 41.582 69.2691 41.8489H69.2819C69.6546 41.8617 70.0531 41.8998 70.3744 42.0396C70.4515 42.0778 70.5158 42.1286 70.5415 42.2049L70.6443 42.4592L70.8371 42.9422V42.9677H70.8757C71.0813 43.0312 71.2869 43.1202 71.4669 43.2346C71.5568 43.2982 71.6211 43.3618 71.6725 43.4508C71.7111 43.527 71.7625 43.6414 71.8011 43.7304L72.2895 44.7983L73.0992 46.5654L73.9603 47.824L74.1917 48.1545L74.2559 48.2435L74.2816 48.2689L74.2688 48.2562Z" fill="#FF9A6C"/>
<path d="M77.4434 51.3835C77.4434 51.3835 77.3791 50.6461 77.2249 49.7562C77.0835 48.8664 76.9293 48.1417 76.9036 48.1417C76.8779 48.1417 76.9679 48.8791 77.1221 49.769C77.2635 50.6589 77.4177 51.3835 77.4434 51.3835Z" fill="#1A2E35"/>
<path d="M62.38 40.8193L63.0355 49.0063C63.0612 49.2987 63.3182 49.5148 63.6138 49.5021L68.228 49.2097C68.5364 49.1843 68.7549 48.93 68.7292 48.6249L67.9709 40.4379C67.9452 40.1455 67.6882 39.9294 67.3925 39.9548L62.8812 40.2472C62.5856 40.2726 62.3543 40.5269 62.38 40.8193Z" fill="#1A2E35"/>
<path d="M55.7737 51.2438C55.7737 51.2438 54.3984 60.4605 54.4498 61.6937C54.5012 62.9268 55.915 65.6728 57.8173 65.9397C59.7195 66.2067 61.5188 64.4905 61.5703 62.2276C61.6217 59.9647 61.9044 52.8202 61.9044 52.8202L60.4778 52.0447L55.7608 51.2438H55.7737Z" fill="#FFBF9D"/>
<path d="M59.1668 51.7904C59.1668 51.7904 59.1411 51.8158 59.1154 51.8794L58.9997 52.1591C58.8969 52.4006 58.7427 52.7439 58.5499 53.1761C58.1643 54.0279 57.5731 55.1847 56.969 56.4941C56.3649 57.7908 55.9022 59.0113 55.6451 59.9266C55.5809 60.1554 55.5295 60.3588 55.4909 60.5368C55.4395 60.7148 55.4138 60.88 55.3881 61.0072L55.3367 61.2996C55.3367 61.3631 55.3238 61.4013 55.3367 61.4013C55.3367 61.4013 55.3495 61.3631 55.3624 61.2996L55.4395 61.0072C55.4652 60.88 55.5038 60.7275 55.5552 60.5495C55.6066 60.3715 55.658 60.1681 55.7223 59.9393C55.9922 59.0367 56.4549 57.829 57.0718 56.5323C57.6759 55.2356 58.2543 54.066 58.627 53.2015C58.8198 52.7693 58.9612 52.4133 59.0511 52.1718L59.1539 51.8921C59.1796 51.8285 59.1925 51.7904 59.1796 51.7904H59.1668Z" fill="#FF9A6C"/>
<path d="M63.6138 43.6415C63.6138 43.6415 62.1872 44.506 61.763 44.7348C61.3389 44.9636 61.3903 46.6417 61.3903 46.6417L58.9868 52.1591L61.8787 53.1888C61.8787 53.1888 62.9069 51.2565 63.2025 51.0149C63.4982 50.7734 63.8966 50.6717 63.8966 50.6717C63.8966 50.6717 64.0508 51.2056 64.4878 50.9641C64.9377 50.7225 65.4261 50.1377 65.4261 50.1377C65.4261 50.1377 65.8245 50.3793 65.9659 50.0869C66.1201 49.7945 66.3643 49.1588 66.3643 49.1588C66.3643 49.1588 65.5289 48.0783 65.1819 48.0783C64.8348 48.0783 63.0612 48.18 63.0612 48.18C63.0612 48.18 63.164 48.0274 63.6524 47.8367C64.1408 47.646 67.0841 46.7816 67.2255 46.7307C67.4311 46.6544 67.6625 46.1205 67.0198 46.0696C66.3772 46.0188 62.7656 46.6544 62.7656 46.6544C62.7656 46.6544 62.5728 45.7264 62.7141 45.5357C62.8684 45.345 64.1408 44.506 63.601 43.6288L63.6138 43.6415Z" fill="#FFBF9D"/>
<path d="M65.4518 50.0869C65.4518 50.0869 65.4903 49.9343 65.4518 49.6801C65.4261 49.5529 65.3747 49.4004 65.2333 49.286C65.0919 49.1588 64.8863 49.1334 64.7063 49.1207C64.3207 49.0953 63.9737 49.1207 63.7295 49.1588C63.4853 49.197 63.3311 49.2351 63.3311 49.2478C63.3311 49.286 63.948 49.1843 64.6935 49.2224C64.8863 49.2224 65.0534 49.2478 65.169 49.3495C65.2847 49.4385 65.349 49.5784 65.3747 49.6928C65.4389 49.9216 65.4389 50.0742 65.4646 50.0742L65.4518 50.0869Z" fill="#FF9A6C"/>
<path d="M64.8734 50.2649C64.8734 50.2649 64.6292 50.392 64.3208 50.5191C64.0123 50.659 63.7424 50.7098 63.7552 50.748C63.7552 50.7734 64.0508 50.748 64.3722 50.6208C64.6935 50.481 64.8991 50.2903 64.8863 50.2649H64.8734Z" fill="#FF9A6C"/>
<path d="M62.9455 46.6417C62.9455 46.6417 62.6756 46.6672 62.4314 46.896C62.2 47.1248 62.1358 47.3918 62.1615 47.3918C62.1872 47.3918 62.29 47.1757 62.5085 46.9723C62.727 46.7689 62.9584 46.6799 62.9455 46.6417Z" fill="#FF9A6C"/>
</g>
<rect y="120" width="32" height="32" rx="4" fill="#00194F"/>
<path d="M16.017 142.159C15.2595 142.159 14.5814 142.017 13.983 141.733C13.3845 141.445 12.9091 141.051 12.5568 140.551C12.2083 140.051 12.0227 139.479 12 138.835H14.0455C14.0833 139.312 14.2898 139.703 14.6648 140.006C15.0398 140.305 15.4905 140.455 16.017 140.455C16.4299 140.455 16.7973 140.36 17.1193 140.17C17.4413 139.981 17.6951 139.718 17.8807 139.381C18.0663 139.044 18.1572 138.659 18.1534 138.227C18.1572 137.788 18.0644 137.398 17.875 137.057C17.6856 136.716 17.4261 136.449 17.0966 136.256C16.767 136.059 16.3883 135.96 15.9602 135.96C15.6117 135.956 15.2689 136.021 14.9318 136.153C14.5947 136.286 14.3277 136.46 14.1307 136.676L12.2273 136.364L12.8352 130.364H19.5852V132.125H14.5795L14.2443 135.21H14.3125C14.5284 134.956 14.8333 134.746 15.2273 134.58C15.6212 134.409 16.053 134.324 16.5227 134.324C17.2273 134.324 17.8561 134.491 18.4091 134.824C18.9621 135.153 19.3977 135.608 19.7159 136.188C20.0341 136.767 20.1932 137.43 20.1932 138.176C20.1932 138.945 20.0152 139.631 19.6591 140.233C19.3068 140.831 18.8163 141.303 18.1875 141.648C17.5625 141.989 16.839 142.159 16.017 142.159Z" fill="white"/>
<defs>
<clipPath id="clip0_642_2565">
<rect width="46" height="118" fill="white" transform="translate(54 21)"/>
</clipPath>
</defs>
</svg>
