<svg width="152" height="152" viewBox="0 0 152 152" fill="none" xmlns="http://www.w3.org/2000/svg">
<path d="M152 127.074H1.00201V127.164H152V127.074Z" fill="#ECECEC"/>
<path d="M148.707 132.888H136.743V132.978H148.707V132.888Z" fill="#ECECEC"/>
<path d="M105.838 133.868H102.698V133.958H105.838V133.868Z" fill="#ECECEC"/>
<path d="M136.381 129.533H129.449V129.623H136.381V129.533Z" fill="#ECECEC"/>
<path d="M20.75 130.141H5.14801V130.231H20.75V130.141Z" fill="#ECECEC"/>
<path d="M26.254 130.141H23.966V130.231H26.254V130.141Z" fill="#ECECEC"/>
<path d="M67.524 131.665H33.688V131.755H67.524V131.665Z" fill="#ECECEC"/>
<path d="M71.81 110.969H2.06201C1.79093 110.969 1.5225 110.916 1.27213 110.812C1.02175 110.708 0.794317 110.556 0.602816 110.364C0.411315 110.172 0.259505 109.944 0.156069 109.693C0.0526327 109.443 -0.00039206 109.174 2.18234e-06 108.903V10.8603C0.000531688 10.3136 0.21794 9.78945 0.604525 9.40286C0.99111 9.01628 1.5153 8.79887 2.06201 8.79834H71.81C72.3567 8.79887 72.8809 9.01628 73.2675 9.40286C73.654 9.78945 73.8715 10.3136 73.872 10.8603V108.903C73.8724 109.174 73.8194 109.443 73.7159 109.693C73.6125 109.944 73.4607 110.172 73.2692 110.364C73.0777 110.556 72.8502 110.708 72.5999 110.812C72.3495 110.916 72.0811 110.969 71.81 110.969ZM2.06201 8.88834C1.53925 8.88913 1.03811 9.09715 0.668459 9.4668C0.298809 9.83645 0.090792 10.3376 0.0899985 10.8603V108.903C0.0907926 109.426 0.298842 109.927 0.66852 110.297C1.0382 110.666 1.53934 110.874 2.06201 110.874H71.81C72.3326 110.874 72.8336 110.666 73.2031 110.296C73.5726 109.927 73.7805 109.426 73.781 108.903V10.8603C73.7805 10.3377 73.5727 9.83654 73.2032 9.46686C72.8337 9.09718 72.3327 8.88913 71.81 8.88834H2.06201Z" fill="#ECECEC"/>
<path d="M149.938 110.969H80.19C79.6434 110.969 79.1192 110.752 78.7326 110.365C78.346 109.979 78.1285 109.455 78.128 108.908V10.8603C78.1285 10.3136 78.346 9.78945 78.7325 9.40286C79.1191 9.01628 79.6433 8.79887 80.19 8.79834H149.938C150.485 8.79887 151.009 9.01628 151.395 9.40286C151.782 9.78945 151.999 10.3136 152 10.8603V108.903C152 109.174 151.947 109.443 151.844 109.693C151.74 109.944 151.589 110.172 151.397 110.364C151.206 110.556 150.978 110.708 150.728 110.812C150.477 110.916 150.209 110.969 149.938 110.969ZM80.19 8.88834C79.6673 8.88913 79.1663 9.09718 78.7968 9.46686C78.4273 9.83654 78.2195 10.3377 78.219 10.8603V108.903C78.2195 109.426 78.4274 109.927 78.7969 110.296C79.1664 110.666 79.6674 110.874 80.19 110.874H149.938C150.461 110.874 150.962 110.666 151.331 110.297C151.701 109.927 151.909 109.426 151.91 108.903V10.8603C151.909 10.3376 151.701 9.83645 151.332 9.4668C150.962 9.09715 150.461 8.88913 149.938 8.88834H80.19Z" fill="#ECECEC"/>
<path d="M37.089 0.0502711C37.0493 0.0161847 36.9983 -0.00172245 36.946 0.000130717C36.8938 0.00198388 36.8442 0.0234559 36.807 0.0602656L34.16 2.70727L33.424 1.97227C32.8639 1.41225 32.199 0.968028 31.4673 0.664971C30.7355 0.361915 29.9512 0.205956 29.1592 0.206002C28.3671 0.206049 27.5828 0.362088 26.8511 0.665231C26.1194 0.968373 25.4545 1.41268 24.8945 1.97277C24.3345 2.53286 23.8903 3.19776 23.5872 3.92953C23.2841 4.66129 23.1282 5.44558 23.1282 6.23762C23.1283 7.02966 23.2843 7.81393 23.5875 8.54566C23.8906 9.27739 24.3349 9.94224 24.895 10.5023L25.63 11.2373L22.983 13.8843C22.9458 13.9213 22.924 13.9711 22.9219 14.0236C22.9199 14.0761 22.9377 14.1274 22.972 14.1673L35.472 28.7263C35.4904 28.7475 35.513 28.7648 35.5384 28.777C35.5637 28.7891 35.5913 28.796 35.6194 28.7971C35.6475 28.7983 35.6755 28.7936 35.7018 28.7835C35.728 28.7734 35.7519 28.758 35.772 28.7383L51.656 12.8553C51.6753 12.835 51.6904 12.811 51.7003 12.7848C51.7101 12.7586 51.7147 12.7307 51.7135 12.7027C51.7124 12.6747 51.7057 12.6473 51.6937 12.6219C51.6818 12.5966 51.6649 12.5739 51.644 12.5553L37.089 0.0502711ZM26.071 9.32526C25.252 8.50614 24.792 7.39524 24.7921 6.23692C24.7922 5.0786 25.2524 3.96776 26.0715 3.14877C26.8906 2.32978 28.0015 1.86973 29.1599 1.86982C30.3182 1.86991 31.429 2.33015 32.248 3.14927L32.983 3.88427L26.806 10.0613L26.071 9.32526ZM30.336 14.7693C29.9457 15.1587 29.4169 15.3774 28.8655 15.3774C28.3142 15.3774 27.7853 15.1587 27.395 14.7693C27.0952 14.4921 26.8892 14.1284 26.8056 13.7287C26.7221 13.3291 26.7652 12.9133 26.929 12.5393L28.277 13.8863C28.4337 14.0386 28.6441 14.1232 28.8626 14.1217C29.0812 14.1201 29.2904 14.0327 29.445 13.8782C29.5996 13.7238 29.6872 13.5147 29.6889 13.2961C29.6906 13.0776 29.6062 12.8671 29.454 12.7103L28.107 11.3633C28.4809 11.2001 28.8963 11.1571 29.2956 11.2404C29.695 11.3238 30.0586 11.5292 30.336 11.8283C30.7254 12.2186 30.9441 12.7474 30.9441 13.2988C30.9441 13.8501 30.7254 14.379 30.336 14.7693ZM37.689 7.41627C37.2986 7.80544 36.7698 8.02396 36.2185 8.02396C35.6672 8.02396 35.1384 7.80544 34.748 7.41627C34.448 7.13901 34.242 6.77506 34.1586 6.37515C34.0753 5.97523 34.1187 5.55929 34.283 5.18527L35.63 6.53327C35.7867 6.68561 35.9971 6.77014 36.2156 6.76864C36.4342 6.76714 36.6434 6.67971 36.798 6.52523C36.9526 6.37076 37.0402 6.16164 37.0419 5.94309C37.0436 5.72455 36.9592 5.51411 36.807 5.35726L35.46 4.01026C35.8338 3.84693 36.2491 3.80386 36.6485 3.88699C37.0478 3.97012 37.4114 4.17535 37.689 4.47427C38.0779 4.86467 38.2962 5.39324 38.2962 5.94427C38.2962 6.49529 38.0779 7.02387 37.689 7.41427V7.41627Z" fill="#ECECEC"/>
<path d="M151.844 34.5586C151.898 34.4749 151.919 34.374 151.903 34.2755C151.887 34.1771 151.834 34.0883 151.756 34.0266L146.112 29.6456L147.329 28.0776C148.267 26.8845 148.96 25.5177 149.368 24.0559C149.775 22.594 149.89 21.066 149.705 19.5596C149.52 18.0533 149.039 16.5984 148.289 15.2787C147.54 13.959 146.537 12.8006 145.338 11.87C144.139 10.9394 142.768 10.2551 141.304 9.85642C139.839 9.45774 138.311 9.35257 136.805 9.54697C135.3 9.74136 133.848 10.2315 132.533 10.9891C131.218 11.7468 130.066 12.757 129.143 13.9616L127.926 15.5296L122.282 11.1486C122.203 11.0878 122.103 11.0589 122.004 11.0676C121.904 11.0763 121.812 11.122 121.744 11.1956L97.158 38.3396C97.1217 38.3803 97.0942 38.4281 97.077 38.4798C97.0599 38.5316 97.0535 38.5863 97.0583 38.6406C97.063 38.6949 97.0789 38.7477 97.1048 38.7957C97.1307 38.8437 97.1662 38.8858 97.209 38.9196L131.073 65.2046C131.117 65.2375 131.167 65.2611 131.22 65.2739C131.273 65.2868 131.328 65.2885 131.382 65.2792C131.436 65.2698 131.487 65.2495 131.533 65.2194C131.579 65.1894 131.618 65.1503 131.648 65.1046L151.844 34.5586ZM131.651 15.9086C132.319 15.0341 133.153 14.3005 134.106 13.75C135.058 13.1995 136.11 12.843 137.201 12.7011C138.292 12.5592 139.401 12.6347 140.463 12.9233C141.524 13.2118 142.518 13.7077 143.388 14.3823C144.257 15.0569 144.984 15.8969 145.527 16.8539C146.07 17.8108 146.418 18.8658 146.551 19.9579C146.684 21.0501 146.6 22.1578 146.303 23.2172C146.006 24.2766 145.502 25.2668 144.821 26.1306L143.604 27.6986L130.434 17.4766L131.651 15.9086ZM122.365 25.2826C121.535 24.6363 120.995 23.6869 120.863 22.6429C120.732 21.5988 121.02 20.5453 121.665 19.7136C122.118 19.0794 122.758 18.6024 123.495 18.3489C124.232 18.0955 125.03 18.0782 125.777 18.2996L123.546 21.1736C123.416 21.3381 123.319 21.5268 123.262 21.7289C123.205 21.9309 123.189 22.1423 123.214 22.3507C123.239 22.5591 123.305 22.7604 123.409 22.9431C123.512 23.1257 123.651 23.286 123.817 23.4147C123.983 23.5434 124.172 23.6379 124.375 23.6928C124.578 23.7478 124.789 23.7619 124.997 23.7346C125.205 23.7072 125.406 23.6389 125.588 23.5335C125.769 23.4281 125.928 23.2878 126.055 23.1206L128.284 20.2486C128.682 20.9177 128.862 21.694 128.8 22.47C128.738 23.2461 128.436 23.9836 127.936 24.5806C127.29 25.4117 126.34 25.9523 125.296 26.0839C124.251 26.2156 123.197 25.9274 122.365 25.2826ZM138.043 37.4516C137.213 36.8053 136.673 35.8559 136.541 34.8119C136.41 33.7678 136.698 32.7143 137.343 31.8826C137.796 31.2485 138.435 30.7715 139.172 30.518C139.909 30.2646 140.707 30.2473 141.454 30.4686L139.224 33.3426C139.09 33.5067 138.99 33.6959 138.93 33.8991C138.871 34.1024 138.852 34.3155 138.876 34.526C138.9 34.7364 138.966 34.94 139.07 35.1247C139.173 35.3094 139.313 35.4715 139.48 35.6014C139.648 35.7312 139.839 35.8263 140.044 35.8811C140.248 35.9358 140.462 35.949 140.672 35.92C140.882 35.8909 141.083 35.8202 141.266 35.7119C141.448 35.6037 141.606 35.4601 141.732 35.2896L143.961 32.4176C144.359 33.0866 144.54 33.8628 144.478 34.6389C144.415 35.415 144.114 36.1525 143.614 36.7496C142.968 37.5807 142.018 38.1213 140.974 38.2529C139.929 38.3846 138.875 38.0964 138.043 37.4516Z" fill="#ECECEC"/>
<path d="M101.255 96.048C101.301 95.9784 101.319 95.894 101.306 95.8117C101.292 95.7293 101.248 95.6551 101.182 95.604L96.469 91.946L97.4849 90.637C99.0479 88.6233 99.7469 86.0713 99.4282 83.5423C99.1094 81.0132 97.7991 78.7144 95.7854 77.1515C93.7718 75.5886 91.2197 74.8896 88.6907 75.2083C86.1617 75.527 83.8629 76.8373 82.2999 78.851L81.284 80.16L76.5719 76.502C76.5059 76.4507 76.4229 76.4263 76.3396 76.4337C76.2563 76.4412 76.1789 76.4798 76.1229 76.542L55.6 99.205C55.5693 99.2387 55.5461 99.2784 55.5316 99.3216C55.5171 99.3649 55.5118 99.4106 55.5159 99.456C55.52 99.5014 55.5332 99.5454 55.5549 99.5855C55.5765 99.6256 55.6062 99.6608 55.642 99.689L83.917 121.635C83.953 121.663 83.9944 121.683 84.0385 121.694C84.0827 121.705 84.1287 121.707 84.1737 121.7C84.2187 121.693 84.2616 121.676 84.2999 121.651C84.3381 121.626 84.3708 121.594 84.396 121.556L101.255 96.048ZM84.3949 80.477C84.9553 79.7547 85.6524 79.1499 86.4465 78.697C87.2406 78.2442 88.1161 77.9522 89.0231 77.8377C89.93 77.7232 90.8507 77.7884 91.7324 78.0297C92.6141 78.271 93.4397 78.6836 94.1619 79.244C94.8842 79.8043 95.4891 80.5015 95.9419 81.2956C96.3948 82.0897 96.6868 82.9652 96.8013 83.8721C96.9158 84.7791 96.8505 85.6997 96.6092 86.5814C96.3679 87.4631 95.9553 88.2887 95.3949 89.011L94.379 90.32L83.379 81.786L84.3949 80.477ZM76.642 88.303C75.9485 87.7634 75.4974 86.9709 75.3875 86.0991C75.2777 85.2274 75.5181 84.3477 76.056 83.653C76.4346 83.1237 76.9689 82.7256 77.5844 82.5141C78.1998 82.3026 78.8659 82.2883 79.4899 82.473L77.627 84.873C77.4136 85.151 77.3189 85.5021 77.3637 85.8497C77.4085 86.1973 77.589 86.513 77.8658 86.7279C78.1426 86.9427 78.4933 87.0393 78.8411 86.9964C79.1889 86.9535 79.5056 86.7747 79.7219 86.499L81.583 84.099C81.9153 84.6577 82.0659 85.3059 82.0137 85.9538C81.9616 86.6018 81.7094 87.2176 81.292 87.716C80.7527 88.4098 79.9602 88.8613 79.0884 88.9713C78.2166 89.0814 77.3367 88.841 76.642 88.303ZM89.732 98.464C89.0385 97.9244 88.5874 97.1318 88.4775 96.2601C88.3677 95.3884 88.6081 94.5087 89.146 93.814C89.5247 93.2848 90.0589 92.8866 90.6743 92.675C91.2898 92.4633 91.9558 92.4487 92.5799 92.633L90.717 95.033C90.6103 95.1705 90.5317 95.3276 90.4857 95.4955C90.4398 95.6634 90.4273 95.8386 90.4491 96.0113C90.4709 96.184 90.5264 96.3507 90.6126 96.5019C90.6988 96.653 90.814 96.7858 90.9515 96.8925C91.089 96.9992 91.2461 97.0777 91.414 97.1237C91.5818 97.1697 91.7571 97.1821 91.9298 97.1603C92.1024 97.1386 92.2691 97.083 92.4203 96.9968C92.5715 96.9106 92.7043 96.7955 92.811 96.658L94.673 94.258C95.0053 94.8167 95.1559 95.4649 95.1037 96.1128C95.0516 96.7608 94.7994 97.3766 94.3819 97.875C93.8434 98.5694 93.0515 99.0219 92.1798 99.1333C91.3081 99.2446 90.4278 99.0057 89.732 98.469V98.464Z" fill="#ECECEC"/>
<path d="M42.531 117.535C42.5825 117.568 42.6447 117.581 42.7055 117.571C42.7662 117.561 42.821 117.529 42.859 117.481L45.5589 114.006L46.5239 114.755C48.0092 115.907 49.8913 116.422 51.7564 116.187C53.6214 115.951 55.3166 114.985 56.469 113.5C57.6213 112.014 58.1365 110.132 57.9011 108.267C57.6658 106.402 56.6992 104.707 55.2139 103.555L54.249 102.806L56.949 99.3305C56.9868 99.2819 57.0049 99.2207 56.9995 99.1593C56.9941 99.0979 56.9657 99.0409 56.92 98.9995L40.2 83.8695C40.1748 83.8471 40.1453 83.83 40.1133 83.8194C40.0814 83.8087 40.0476 83.8047 40.014 83.8075C39.9805 83.8105 39.948 83.8204 39.9186 83.8366C39.8892 83.8528 39.8634 83.8749 39.8429 83.9015L23.661 104.749C23.6403 104.775 23.6254 104.806 23.6171 104.839C23.6089 104.871 23.6075 104.905 23.613 104.939C23.6183 104.972 23.6304 105.003 23.6487 105.032C23.6669 105.06 23.6909 105.084 23.719 105.103L42.531 117.535ZM54.013 105.103C55.0746 105.942 55.7619 107.166 55.9252 108.51C56.0885 109.853 55.7146 111.206 54.8849 112.275C54.0551 113.344 52.8368 114.043 51.4949 114.218C50.153 114.393 48.7963 114.031 47.72 113.211L46.755 112.462L53.048 104.354L54.013 105.103ZM48.242 99.3865C48.6396 98.8748 49.2241 98.5419 49.8671 98.4608C50.51 98.3798 51.1588 98.5574 51.6709 98.9545C52.061 99.2337 52.3544 99.6275 52.5103 100.081C52.6662 100.535 52.6769 101.026 52.5409 101.486L50.772 100.113C50.6706 100.034 50.5547 99.9757 50.4309 99.9417C50.3071 99.9077 50.1777 99.8984 50.0503 99.9144C49.9229 99.9303 49.7999 99.9713 49.6883 100.035C49.5768 100.098 49.4787 100.183 49.4 100.285C49.3212 100.386 49.2631 100.502 49.2291 100.626C49.1951 100.749 49.1858 100.879 49.2018 101.006C49.2178 101.134 49.2587 101.257 49.3222 101.368C49.3857 101.48 49.4706 101.578 49.5719 101.657L51.34 103.029C50.9281 103.274 50.4502 103.385 49.9724 103.347C49.4946 103.308 49.0405 103.122 48.673 102.815C48.1617 102.417 47.8291 101.832 47.7483 101.19C47.6675 100.547 47.845 99.8985 48.242 99.3865ZM40.75 109.038C41.1479 108.526 41.7323 108.194 42.3751 108.113C43.0179 108.032 43.6666 108.209 44.1789 108.606C44.5692 108.885 44.8627 109.279 45.0186 109.732C45.1745 110.186 45.1852 110.677 45.049 111.138L43.28 109.765C43.1786 109.686 43.0627 109.628 42.9389 109.594C42.815 109.56 42.6857 109.55 42.5583 109.566C42.4309 109.582 42.3079 109.623 42.1963 109.687C42.0847 109.75 41.9867 109.835 41.9079 109.937C41.8292 110.038 41.7711 110.154 41.7371 110.278C41.7031 110.401 41.6938 110.531 41.7098 110.658C41.7258 110.786 41.7667 110.909 41.8302 111.02C41.8937 111.132 41.9786 111.23 42.0799 111.309L43.8479 112.681C43.4361 112.926 42.9582 113.037 42.4804 112.999C42.0026 112.96 41.5485 112.774 41.181 112.467C40.6698 112.068 40.3374 111.484 40.2566 110.841C40.1758 110.198 40.3532 109.55 40.75 109.038Z" fill="#F5F5F5"/>
<path d="M14.013 10.1824C14.7608 10.1829 15.4893 10.4195 16.0947 10.8583C16.7002 11.2972 17.1517 11.9159 17.385 12.6264L17.575 13.2074L19.666 12.5244C19.6783 12.5204 19.6911 12.5184 19.704 12.5183C19.7282 12.5181 19.7518 12.5252 19.772 12.5385C19.7921 12.5519 19.8078 12.571 19.817 12.5934L24.123 23.0163C24.1299 23.0321 24.1335 23.0491 24.1335 23.0664C24.1335 23.0836 24.1299 23.1006 24.123 23.1164C24.116 23.1317 24.106 23.1454 24.0934 23.1566C24.0808 23.1678 24.066 23.1763 24.05 23.1814L11.502 27.2813C11.4856 27.287 11.4683 27.2891 11.451 27.2875C11.4338 27.286 11.4171 27.2808 11.402 27.2724C11.3872 27.2641 11.3742 27.253 11.3639 27.2396C11.3536 27.2261 11.3461 27.2108 11.342 27.1944L8.66297 16.2394C8.65567 16.2094 8.65997 16.1778 8.675 16.1509C8.69002 16.1241 8.71465 16.1038 8.74397 16.0944L10.835 15.4114L10.645 14.8304C10.4716 14.2983 10.4266 13.7328 10.5135 13.1801C10.6005 12.6273 10.817 12.103 11.1453 11.6499C11.4737 11.1968 11.9046 10.8279 12.4028 10.5732C12.901 10.3184 13.4524 10.1852 14.012 10.1843L14.013 10.1824ZM11.765 15.1074L16.644 13.5134L16.454 12.9324C16.3493 12.612 16.1826 12.3154 15.9633 12.0595C15.744 11.8036 15.4765 11.5933 15.1759 11.4408C14.8754 11.2883 14.5477 11.1965 14.2117 11.1706C13.8757 11.1447 13.5378 11.1852 13.2175 11.2898C12.8971 11.3945 12.6005 11.5613 12.3446 11.7806C12.0887 11.9998 11.8785 12.2674 11.7259 12.5679C11.5734 12.8685 11.4816 13.1961 11.4557 13.5321C11.4298 13.8682 11.4703 14.206 11.575 14.5264L11.765 15.1074ZM17.793 15.9414C17.6897 15.9413 17.5891 15.9087 17.5055 15.8482C17.4218 15.7877 17.3594 15.7024 17.327 15.6044L16.98 14.5394C16.7945 14.6918 16.6611 14.8982 16.5984 15.1299C16.5357 15.3617 16.5467 15.6072 16.63 15.8324C16.7306 16.1405 16.9496 16.3961 17.2387 16.5429C17.5277 16.6896 17.8633 16.7155 18.1715 16.6149C18.4797 16.5142 18.7353 16.2953 18.882 16.0062C19.0287 15.7171 19.0546 15.3815 18.954 15.0734C18.8881 14.8427 18.7521 14.6383 18.5649 14.4883C18.3776 14.3384 18.1484 14.2503 17.909 14.2364L18.257 15.3004C18.2971 15.4237 18.2866 15.5579 18.228 15.6735C18.1693 15.7892 18.0672 15.8769 17.944 15.9174C17.8952 15.933 17.8442 15.9411 17.793 15.9414ZM11.983 17.8414C11.8799 17.8411 11.7795 17.8084 11.6961 17.7479C11.6126 17.6874 11.5503 17.6022 11.518 17.5044L11.17 16.4394C10.9849 16.5921 10.8519 16.7986 10.7894 17.0302C10.7269 17.2619 10.7379 17.5072 10.821 17.7324C10.9216 18.0405 11.1406 18.2961 11.4297 18.4429C11.7188 18.5896 12.0543 18.6155 12.3625 18.5149C12.6707 18.4142 12.9262 18.1953 13.073 17.9062C13.2197 17.6171 13.2456 17.2815 13.145 16.9734C13.079 16.7427 12.9431 16.5383 12.7558 16.3883C12.5686 16.2384 12.3394 16.1503 12.1 16.1364L12.448 17.2004C12.4881 17.3237 12.4777 17.4579 12.419 17.5735C12.3603 17.6892 12.2582 17.7769 12.135 17.8174C12.0859 17.8332 12.0346 17.8413 11.983 17.8414ZM14.012 9.46436C13.3478 9.46533 12.693 9.6212 12.0997 9.91961C11.5063 10.218 10.9907 10.6507 10.5939 11.1834C10.1972 11.716 9.93008 12.3338 9.81395 12.9877C9.69781 13.6417 9.73583 14.3137 9.92497 14.9504L8.51899 15.4094C8.31688 15.4766 8.14741 15.6174 8.04423 15.8037C7.94105 15.9901 7.9117 16.2084 7.96199 16.4154L10.64 27.3684C10.6853 27.5519 10.7907 27.7151 10.9395 27.8318C11.0883 27.9485 11.2719 28.0121 11.461 28.0124C11.55 28.0124 11.6384 27.9982 11.723 27.9704L24.271 23.8704C24.3815 23.8344 24.4834 23.7759 24.5703 23.6987C24.6571 23.6215 24.7271 23.5272 24.7759 23.4217C24.8246 23.3161 24.851 23.2017 24.8534 23.0855C24.8559 22.9693 24.8343 22.8538 24.79 22.7464L20.484 12.3214C20.4025 12.1245 20.2497 11.9656 20.0561 11.8766C19.8625 11.7876 19.6425 11.775 19.44 11.8414L18.04 12.3004C17.7453 11.4695 17.2001 10.7505 16.4795 10.2425C15.759 9.73458 14.8986 9.4627 14.017 9.46436H14.012ZM12.23 14.1973C12.1089 13.742 12.1667 13.2575 12.3916 12.8435C12.6164 12.4294 12.9913 12.1171 13.4392 11.9707C13.887 11.8243 14.374 11.8549 14.8 12.0563C15.226 12.2576 15.5588 12.6144 15.73 13.0534L12.23 14.1973Z" fill="#ECECEC"/>
<path d="M76.501 143.387C115.18 143.387 146.535 141.556 146.535 139.297C146.535 137.038 115.18 135.207 76.501 135.207C37.8223 135.207 6.46704 137.038 6.46704 139.297C6.46704 141.556 37.8223 143.387 76.501 143.387Z" fill="#F5F5F5"/>
<path d="M141.96 24.0995V100.929C141.96 101.634 141.821 102.332 141.551 102.983C141.28 103.634 140.885 104.225 140.386 104.723C139.887 105.22 139.295 105.615 138.644 105.884C137.993 106.153 137.295 106.291 136.59 106.289H16.41C14.9875 106.29 13.623 105.725 12.6161 104.72C11.6093 103.716 11.0424 102.352 11.04 100.929V24.0995C11.0419 22.6758 11.6082 21.311 12.6149 20.3044C13.6216 19.2977 14.9864 18.7313 16.41 18.7295H136.59C138.014 18.7298 139.38 19.2956 140.387 20.3026C141.394 21.3096 141.96 22.6754 141.96 24.0995Z" fill="white"/>
<path d="M143.419 78.4012H143.058V75.1372H143.419V78.4012ZM143.419 72.5862H143.058V65.8462H143.419V72.5862Z" fill="#C0C7CD"/>
<path d="M136.61 106.489H16.392C14.9219 106.488 13.5124 105.903 12.4728 104.863C11.4333 103.824 10.8486 102.414 10.847 100.944V24.0831C10.8486 22.6129 11.4333 21.2035 12.4728 20.1639C13.5124 19.1244 14.9219 18.5397 16.392 18.5381H136.61C138.08 18.5397 139.49 19.1244 140.529 20.1639C141.569 21.2035 142.153 22.6129 142.155 24.0831V100.944C142.153 102.414 141.569 103.824 140.529 104.863C139.49 105.903 138.08 106.488 136.61 106.489ZM16.392 18.9291C15.0256 18.9307 13.7155 19.4742 12.7493 20.4404C11.7831 21.4066 11.2396 22.7166 11.238 24.0831V100.944C11.2396 102.311 11.7831 103.621 12.7493 104.587C13.7155 105.553 15.0256 106.097 16.392 106.098H136.61C137.977 106.097 139.287 105.553 140.253 104.587C141.219 103.621 141.763 102.311 141.765 100.944V24.0831C141.763 22.7166 141.219 21.4065 140.253 20.4404C139.287 19.4742 137.977 18.9307 136.61 18.9291H16.392Z" fill="#C0C7CD"/>
<path d="M21.388 24.3695C21.3878 24.7105 21.2865 25.0437 21.097 25.3271C20.9074 25.6104 20.6381 25.8313 20.3231 25.9616C20.008 26.0919 19.6614 26.1259 19.3271 26.0593C18.9927 25.9926 18.6856 25.8284 18.4446 25.5872C18.2036 25.3461 18.0395 25.0389 17.9731 24.7045C17.9066 24.3701 17.9408 24.0235 18.0713 23.7086C18.2018 23.3936 18.4228 23.1244 18.7063 22.935C18.9898 22.7456 19.3231 22.6445 19.664 22.6445C19.8905 22.6445 20.1147 22.6892 20.324 22.7759C20.5332 22.8626 20.7233 22.9896 20.8834 23.1498C21.0435 23.31 21.1705 23.5002 21.2571 23.7095C21.3436 23.9188 21.3881 24.1431 21.388 24.3695Z" fill="#C0C7CD"/>
<path opacity="0.2" d="M32.71 25.3764H24.251C23.9839 25.3756 23.728 25.2691 23.5392 25.0803C23.3503 24.8914 23.2438 24.6355 23.243 24.3684C23.2438 24.1012 23.3503 23.8452 23.5391 23.6561C23.7279 23.4671 23.9839 23.3604 24.251 23.3594H32.71C32.9774 23.3602 33.2336 23.4667 33.4226 23.6558C33.6117 23.8448 33.7182 24.101 33.719 24.3684C33.718 24.6356 33.6113 24.8915 33.4223 25.0803C33.2332 25.2692 32.9772 25.3756 32.71 25.3764Z" fill="#C0C7CD"/>
<path opacity="0.2" d="M73.489 24.9214H67.554C67.4074 24.9214 67.2668 24.8633 67.163 24.7599C67.0591 24.6564 67.0005 24.516 67 24.3694C67 24.2228 67.0582 24.0821 67.162 23.9784C67.2657 23.8747 67.4063 23.8164 67.553 23.8164H73.488C73.5607 23.8163 73.6326 23.8305 73.6998 23.8582C73.7669 23.886 73.828 23.9267 73.8793 23.9781C73.9307 24.0295 73.9714 24.0905 73.9992 24.1576C74.0269 24.2248 74.0411 24.2968 74.041 24.3694C74.0407 24.5157 73.9825 24.656 73.879 24.7594C73.7756 24.8629 73.6353 24.9211 73.489 24.9214Z" fill="#C0C7CD"/>
<path opacity="0.2" d="M86.807 24.9214H80.872C80.7254 24.9212 80.5849 24.8628 80.4813 24.7592C80.3776 24.6555 80.3193 24.515 80.319 24.3684C80.319 24.2218 80.3772 24.0811 80.481 23.9774C80.5847 23.8737 80.7253 23.8154 80.872 23.8154H86.807C86.8797 23.8153 86.9516 23.8295 87.0188 23.8573C87.0859 23.885 87.147 23.9257 87.1983 23.9771C87.2497 24.0285 87.2904 24.0895 87.3182 24.1566C87.3459 24.2238 87.3601 24.2958 87.36 24.3684C87.36 24.5151 87.3017 24.6558 87.198 24.7595C87.0943 24.8632 86.9537 24.9214 86.807 24.9214Z" fill="#C0C7CD"/>
<path opacity="0.2" d="M100.126 24.9214H94.19C94.0434 24.9212 93.9029 24.8628 93.7993 24.7592C93.6956 24.6555 93.6373 24.515 93.637 24.3684C93.637 24.2218 93.6953 24.0811 93.799 23.9774C93.9027 23.8737 94.0433 23.8154 94.19 23.8154H100.126C100.273 23.8154 100.413 23.8737 100.517 23.9774C100.621 24.0811 100.679 24.2218 100.679 24.3684C100.679 24.515 100.62 24.6555 100.517 24.7592C100.413 24.8628 100.273 24.9212 100.126 24.9214Z" fill="#C0C7CD"/>
<path opacity="0.2" d="M113.444 24.9214H107.508C107.361 24.9212 107.221 24.8628 107.117 24.7592C107.014 24.6555 106.955 24.515 106.955 24.3684C106.955 24.2218 107.013 24.0811 107.117 23.9774C107.221 23.8737 107.361 23.8154 107.508 23.8154H113.444C113.591 23.8154 113.731 23.8737 113.835 23.9774C113.939 24.0811 113.997 24.2218 113.997 24.3684C113.997 24.515 113.938 24.6555 113.835 24.7592C113.731 24.8628 113.591 24.9212 113.444 24.9214Z" fill="#C0C7CD"/>
<path opacity="0.7" d="M130.486 25.3446H121.507C121.248 25.3446 121 25.2418 120.817 25.0587C120.634 24.8757 120.531 24.6275 120.531 24.3686C120.531 24.2404 120.556 24.1133 120.605 23.9948C120.654 23.8763 120.726 23.7686 120.816 23.6778C120.907 23.5871 121.015 23.5151 121.133 23.466C121.252 23.4169 121.379 23.3916 121.507 23.3916H130.486C130.614 23.3916 130.741 23.4169 130.86 23.466C130.978 23.5151 131.086 23.5871 131.176 23.6778C131.267 23.7686 131.339 23.8763 131.388 23.9948C131.437 24.1133 131.462 24.2404 131.462 24.3686C131.462 24.6275 131.359 24.8757 131.176 25.0587C130.993 25.2418 130.745 25.3446 130.486 25.3446Z" fill="#C0C7CD"/>
<path opacity="0.2" d="M133.991 71.3601V53.7972C133.991 53.6505 134.049 53.5098 134.153 53.4061C134.257 53.3024 134.397 53.2441 134.544 53.2441C134.617 53.244 134.689 53.2582 134.756 53.286C134.823 53.3137 134.884 53.3544 134.935 53.4058C134.987 53.4572 135.027 53.5182 135.055 53.5854C135.083 53.6525 135.097 53.7245 135.097 53.7972V71.3601C135.097 71.5068 135.039 71.6475 134.935 71.7512C134.831 71.8549 134.691 71.9131 134.544 71.9131C134.397 71.9129 134.257 71.8545 134.153 71.7509C134.05 71.6472 133.991 71.5067 133.991 71.3601Z" fill="#C0C7CD"/>
<path opacity="0.2" d="M134.544 76.9234C134.849 76.9234 135.097 76.6758 135.097 76.3704C135.097 76.065 134.849 75.8174 134.544 75.8174C134.239 75.8174 133.991 76.065 133.991 76.3704C133.991 76.6758 134.239 76.9234 134.544 76.9234Z" fill="#C0C7CD"/>
<path opacity="0.2" d="M134.544 84.731C134.849 84.731 135.097 84.4834 135.097 84.178C135.097 83.8726 134.849 83.625 134.544 83.625C134.239 83.625 133.991 83.8726 133.991 84.178C133.991 84.4834 134.239 84.731 134.544 84.731Z" fill="#C0C7CD"/>
<path opacity="0.2" d="M134.544 92.5396C134.849 92.5396 135.097 92.292 135.097 91.9866C135.097 91.6812 134.849 91.4336 134.544 91.4336C134.239 91.4336 133.991 91.6812 133.991 91.9866C133.991 92.292 134.239 92.5396 134.544 92.5396Z" fill="#C0C7CD"/>
<path d="M131.23 39.3993C131.227 40.8837 130.637 42.3066 129.587 43.3562C128.537 44.4058 127.114 44.9967 125.63 44.9993H23.77C22.2848 44.9993 20.8604 44.4093 19.8102 43.3591C18.76 42.3089 18.17 40.8845 18.17 39.3993C18.17 37.9141 18.76 36.4897 19.8102 35.4395C20.8604 34.3893 22.2848 33.7993 23.77 33.7993H125.63C127.115 33.7993 128.54 34.3893 129.59 35.4395C130.64 36.4897 131.23 37.9141 131.23 39.3993Z" fill="#F2F4F8"/>
<path d="M125.631 33.9782C127.068 33.9782 128.446 34.549 129.462 35.5651C130.478 36.5812 131.049 37.9593 131.049 39.3962C131.049 40.8332 130.478 42.2112 129.462 43.2273C128.446 44.2434 127.068 44.8142 125.631 44.8142H23.771C22.3341 44.8142 20.956 44.2434 19.9399 43.2273C18.9238 42.2112 18.353 40.8332 18.353 39.3962C18.353 37.9593 18.9238 36.5812 19.9399 35.5651C20.956 34.549 22.3341 33.9782 23.771 33.9782H125.631ZM125.631 33.6162H23.771C23.0056 33.6062 22.2459 33.7482 21.5359 34.0341C20.8258 34.3201 20.1797 34.7442 19.6349 35.2819C19.0901 35.8195 18.6575 36.4601 18.3622 37.1663C18.067 37.8725 17.915 38.6303 17.915 39.3957C17.915 40.1612 18.067 40.919 18.3622 41.6252C18.6575 42.3314 19.0901 42.9719 19.6349 43.5096C20.1797 44.0473 20.8258 44.4714 21.5359 44.7573C22.2459 45.0432 23.0056 45.1853 23.771 45.1752H125.631C127.151 45.1552 128.601 44.5375 129.669 43.4558C130.736 42.3741 131.335 40.9155 131.335 39.3957C131.335 37.8759 130.736 36.4173 129.669 35.3356C128.601 34.2539 127.151 33.6362 125.631 33.6162Z" fill="#C0C7CD"/>
<path d="M125.632 33.6162H108.293C105.101 33.6162 102.514 36.2036 102.514 39.3952V39.3962C102.514 42.5879 105.101 45.1752 108.293 45.1752H125.632C128.824 45.1752 131.411 42.5879 131.411 39.3962V39.3952C131.411 36.2036 128.824 33.6162 125.632 33.6162Z" fill="#C0C7CD"/>
<path d="M40.386 80.2305H18.713C18.3142 80.2305 17.991 80.5537 17.991 80.9525V80.9535C17.991 81.3522 18.3142 81.6755 18.713 81.6755H40.386C40.7847 81.6755 41.108 81.3522 41.108 80.9535V80.9525C41.108 80.5537 40.7847 80.2305 40.386 80.2305Z" fill="#ECECEC"/>
<path d="M34.607 83.8423H18.713C18.3142 83.8423 17.991 84.1655 17.991 84.5643V84.5653C17.991 84.964 18.3142 85.2873 18.713 85.2873H34.607C35.0057 85.2873 35.329 84.964 35.329 84.5653V84.5643C35.329 84.1655 35.0057 83.8423 34.607 83.8423Z" fill="#ECECEC"/>
<path d="M31.717 87.4541H18.713C18.3142 87.4541 17.991 87.7774 17.991 88.1761V88.1771C17.991 88.5759 18.3142 88.8991 18.713 88.8991H31.717C32.1157 88.8991 32.439 88.5759 32.439 88.1771V88.1761C32.439 87.7774 32.1157 87.4541 31.717 87.4541Z" fill="#ECECEC"/>
<path d="M38.941 91.7891H20.158C18.9612 91.7891 17.991 92.7593 17.991 93.9561C17.991 95.1529 18.9612 96.1231 20.158 96.1231H38.941C40.1378 96.1231 41.108 95.1529 41.108 93.9561C41.108 92.7593 40.1378 91.7891 38.941 91.7891Z" fill="#DDE1E6"/>
<path d="M70.494 80.2305H48.821C48.4222 80.2305 48.099 80.5537 48.099 80.9525V80.9535C48.099 81.3522 48.4222 81.6755 48.821 81.6755H70.494C70.8927 81.6755 71.216 81.3522 71.216 80.9535V80.9525C71.216 80.5537 70.8927 80.2305 70.494 80.2305Z" fill="#ECECEC"/>
<path d="M64.715 83.8423H48.821C48.4222 83.8423 48.099 84.1655 48.099 84.5643V84.5653C48.099 84.964 48.4222 85.2873 48.821 85.2873H64.715C65.1137 85.2873 65.437 84.964 65.437 84.5653V84.5643C65.437 84.1655 65.1137 83.8423 64.715 83.8423Z" fill="#ECECEC"/>
<path d="M61.825 87.4541H48.821C48.4222 87.4541 48.099 87.7774 48.099 88.1761V88.1771C48.099 88.5759 48.4222 88.8991 48.821 88.8991H61.825C62.2237 88.8991 62.547 88.5759 62.547 88.1771V88.1761C62.547 87.7774 62.2237 87.4541 61.825 87.4541Z" fill="#ECECEC"/>
<path d="M69.049 91.7891H50.266C49.0692 91.7891 48.099 92.7593 48.099 93.9561C48.099 95.1529 49.0692 96.1231 50.266 96.1231H69.049C70.2458 96.1231 71.216 95.1529 71.216 93.9561C71.216 92.7593 70.2458 91.7891 69.049 91.7891Z" fill="#DDE1E6"/>
<path d="M100.581 80.2305H78.908C78.5093 80.2305 78.186 80.5537 78.186 80.9525V80.9535C78.186 81.3522 78.5093 81.6755 78.908 81.6755H100.581C100.98 81.6755 101.303 81.3522 101.303 80.9535V80.9525C101.303 80.5537 100.98 80.2305 100.581 80.2305Z" fill="#ECECEC"/>
<path d="M94.802 83.8423H78.908C78.5093 83.8423 78.186 84.1655 78.186 84.5643V84.5653C78.186 84.964 78.5093 85.2873 78.908 85.2873H94.802C95.2008 85.2873 95.524 84.964 95.524 84.5653V84.5643C95.524 84.1655 95.2008 83.8423 94.802 83.8423Z" fill="#ECECEC"/>
<path d="M91.912 87.4541H78.908C78.5093 87.4541 78.186 87.7774 78.186 88.1761V88.1771C78.186 88.5759 78.5093 88.8991 78.908 88.8991H91.912C92.3108 88.8991 92.634 88.5759 92.634 88.1771V88.1761C92.634 87.7774 92.3108 87.4541 91.912 87.4541Z" fill="#ECECEC"/>
<path d="M99.136 91.7891H80.353C79.1562 91.7891 78.186 92.7593 78.186 93.9561C78.186 95.1529 79.1562 96.1231 80.353 96.1231H99.136C100.333 96.1231 101.303 95.1529 101.303 93.9561C101.303 92.7593 100.333 91.7891 99.136 91.7891Z" fill="#DDE1E6"/>
<path d="M41.11 61.2393V68.3593C41.11 70.481 40.2671 72.5158 38.7668 74.0161C37.2666 75.5164 35.2317 76.3593 33.11 76.3593H25.99C23.8683 76.3593 21.8335 75.5164 20.3332 74.0161C18.8329 72.5158 17.99 70.481 17.99 68.3593V61.2393C17.99 59.1175 18.8329 57.0827 20.3332 55.5824C21.8335 54.0821 23.8683 53.2393 25.99 53.2393H33.11C35.2317 53.2393 37.2666 54.0821 38.7668 55.5824C40.2671 57.0827 41.11 59.1175 41.11 61.2393Z" fill="#ECECEC"/>
<path d="M71.22 61.2393V68.3593C71.22 70.481 70.3771 72.5158 68.8768 74.0161C67.3765 75.5164 65.3417 76.3593 63.22 76.3593H56.1C53.9782 76.3593 51.9434 75.5164 50.4431 74.0161C48.9428 72.5158 48.1 70.481 48.1 68.3593V61.2393C48.1 59.1175 48.9428 57.0827 50.4431 55.5824C51.9434 54.0821 53.9782 53.2393 56.1 53.2393H63.22C65.3408 53.2422 67.3739 54.0859 68.8736 55.5856C70.3733 57.0853 71.2171 59.1184 71.22 61.2393Z" fill="#ECECEC"/>
<path d="M101.3 61.2393V68.3593C101.3 70.481 100.457 72.5158 98.9568 74.0161C97.4566 75.5164 95.4217 76.3593 93.3 76.3593H86.19C84.0683 76.3593 82.0334 75.5164 80.5331 74.0161C79.0329 72.5158 78.19 70.481 78.19 68.3593V61.2393C78.19 59.1175 79.0329 57.0827 80.5331 55.5824C82.0334 54.0821 84.0683 53.2393 86.19 53.2393H93.3C95.4217 53.2393 97.4566 54.0821 98.9568 55.5824C100.457 57.0827 101.3 59.1175 101.3 61.2393Z" fill="#ECECEC"/>
<path d="M131.41 61.2393V68.3593C131.41 70.481 130.567 72.5158 129.067 74.0161C127.567 75.5164 125.532 76.3593 123.41 76.3593H116.29C114.168 76.3593 112.133 75.5164 110.633 74.0161C109.133 72.5158 108.29 70.481 108.29 68.3593V61.2393C108.29 59.1175 109.133 57.0827 110.633 55.5824C112.133 54.0821 114.168 53.2393 116.29 53.2393H123.41C125.532 53.2393 127.567 54.0821 129.067 55.5824C130.567 57.0827 131.41 59.1175 131.41 61.2393Z" fill="#ECECEC"/>
<path d="M130.688 80.2305H109.015C108.616 80.2305 108.293 80.5537 108.293 80.9525V80.9535C108.293 81.3522 108.616 81.6755 109.015 81.6755H130.688C131.087 81.6755 131.41 81.3522 131.41 80.9535V80.9525C131.41 80.5537 131.087 80.2305 130.688 80.2305Z" fill="#ECECEC"/>
<path d="M124.909 83.8423H109.015C108.616 83.8423 108.293 84.1655 108.293 84.5643V84.5653C108.293 84.964 108.616 85.2873 109.015 85.2873H124.909C125.308 85.2873 125.631 84.964 125.631 84.5653V84.5643C125.631 84.1655 125.308 83.8423 124.909 83.8423Z" fill="#ECECEC"/>
<path d="M122.019 87.4541H109.015C108.616 87.4541 108.293 87.7774 108.293 88.1761V88.1771C108.293 88.5759 108.616 88.8991 109.015 88.8991H122.019C122.418 88.8991 122.741 88.5759 122.741 88.1771V88.1761C122.741 87.7774 122.418 87.4541 122.019 87.4541Z" fill="#ECECEC"/>
<path d="M129.243 91.7891H110.46C109.263 91.7891 108.293 92.7593 108.293 93.9561C108.293 95.1529 109.263 96.1231 110.46 96.1231H129.243C130.44 96.1231 131.41 95.1529 131.41 93.9561C131.41 92.7593 130.44 91.7891 129.243 91.7891Z" fill="#DDE1E6"/>
<path d="M24.216 41.8499C24.2683 41.898 24.3369 41.9244 24.408 41.9239C24.4451 41.9244 24.482 41.9174 24.5164 41.9033C24.5507 41.8892 24.5819 41.8684 24.608 41.8419L25.864 40.5809C26.2216 40.8235 26.644 40.9524 27.076 40.9509C27.4767 40.9368 27.8645 40.8051 28.1909 40.5721C28.5172 40.3392 28.7679 40.0153 28.9115 39.6409C29.0551 39.2665 29.0854 38.8582 28.9985 38.4667C28.9117 38.0752 28.7115 37.718 28.423 37.4394C28.1346 37.1609 27.7705 36.9735 27.3762 36.9004C26.9819 36.8273 26.5749 36.8719 26.2058 37.0286C25.8366 37.1853 25.5218 37.4471 25.3004 37.7815C25.0791 38.1158 24.9611 38.5079 24.961 38.9089C24.9634 39.3927 25.141 39.8591 25.461 40.2219L24.215 41.4729C24.1896 41.4974 24.1694 41.5267 24.1557 41.5591C24.142 41.5915 24.1349 41.6264 24.135 41.6617C24.1351 41.6969 24.1423 41.7317 24.1563 41.7641C24.1702 41.7964 24.1905 41.8256 24.216 41.8499ZM28.637 38.9089C28.648 39.2204 28.5656 39.5281 28.4005 39.7924C28.2354 40.0568 27.9951 40.2658 27.7104 40.3926C27.4257 40.5194 27.1096 40.5583 26.8026 40.5042C26.4957 40.4501 26.2119 40.3056 25.9877 40.0891C25.7634 39.8726 25.609 39.5941 25.5442 39.2892C25.4793 38.9844 25.5071 38.6671 25.6238 38.3781C25.7406 38.0891 25.941 37.8416 26.1994 37.6673C26.4578 37.493 26.7623 37.3999 27.074 37.3999C27.4812 37.3932 27.8745 37.5484 28.1675 37.8313C28.4605 38.1141 28.6294 38.5017 28.637 38.9089Z" fill="#C0C7CD"/>
<path d="M32.4 40.0429H32.73C32.7309 40.13 32.7505 40.2158 32.7874 40.2946C32.8244 40.3735 32.8777 40.4435 32.944 40.4999C33.0506 40.5846 33.1819 40.632 33.318 40.6349C33.4707 40.6366 33.6181 40.5788 33.729 40.4739C33.7859 40.4242 33.8313 40.3627 33.8619 40.2936C33.8925 40.2245 33.9075 40.1495 33.906 40.0739C33.908 39.9911 33.8909 39.909 33.856 39.8339C33.8211 39.7642 33.7674 39.7057 33.701 39.6649C33.6374 39.6258 33.5705 39.5923 33.501 39.5649C33.4212 39.532 33.3398 39.5033 33.257 39.4789L33.205 39.4629C33.134 39.4419 33.076 39.4229 33.033 39.4079C32.9681 39.3821 32.9049 39.352 32.844 39.3179C32.7704 39.2816 32.7029 39.2341 32.644 39.1769C32.5883 39.1167 32.5433 39.0473 32.511 38.9719C32.4699 38.8815 32.4494 38.7832 32.451 38.6839C32.4452 38.5721 32.4654 38.4605 32.51 38.3577C32.5546 38.255 32.6224 38.1641 32.708 38.0919C32.832 37.9908 32.9789 37.9218 33.1359 37.8911C33.2929 37.8604 33.4551 37.8689 33.608 37.9159C33.6995 37.9446 33.7859 37.9874 33.864 38.0429C33.9483 38.1056 34.0168 38.1871 34.064 38.2809C34.1211 38.3902 34.1551 38.51 34.164 38.6329H33.838C33.7767 38.3123 33.6033 38.1519 33.318 38.1519C33.1773 38.148 33.0404 38.1985 32.936 38.2929C32.8853 38.3387 32.8451 38.395 32.8183 38.4578C32.7916 38.5207 32.7788 38.5886 32.781 38.6569C32.7808 38.704 32.7875 38.7508 32.801 38.7959C32.8119 38.8327 32.8259 38.8685 32.843 38.9029C32.8646 38.9402 32.8952 38.9715 32.932 38.9939L33.032 39.0659C33.0772 39.0929 33.1251 39.1151 33.175 39.1319L33.326 39.1889C33.353 39.1999 33.415 39.2209 33.51 39.2529C33.582 39.2789 33.633 39.2989 33.663 39.3119C33.693 39.3249 33.745 39.3499 33.816 39.3859C33.8749 39.413 33.9292 39.4491 33.977 39.4929C34.013 39.5289 34.053 39.5739 34.098 39.6279C34.1443 39.6831 34.1784 39.7476 34.198 39.8169C34.2185 39.8946 34.2282 39.9746 34.227 40.0549C34.2297 40.1691 34.2087 40.2826 34.1653 40.3883C34.1219 40.494 34.0571 40.5895 33.975 40.6689C33.8879 40.7525 33.7848 40.8175 33.6719 40.8601C33.559 40.9028 33.4386 40.9221 33.318 40.9169C33.081 40.9245 32.85 40.8415 32.672 40.6849C32.5841 40.603 32.5145 40.5035 32.4677 40.3929C32.4208 40.2823 32.3977 40.163 32.4 40.0429Z" fill="#DDE1E6"/>
<path d="M36.746 39.8761H34.8C34.7986 39.9876 34.8221 40.0979 34.8688 40.1991C34.9155 40.3004 34.9843 40.3899 35.07 40.4611C35.2269 40.5958 35.4273 40.669 35.634 40.6671C35.7881 40.67 35.9401 40.6302 36.073 40.5521C36.2033 40.4758 36.3078 40.3623 36.373 40.2261H36.679C36.5922 40.4405 36.4409 40.6226 36.246 40.7471C36.0616 40.8603 35.8494 40.9202 35.633 40.9202C35.4166 40.9202 35.2044 40.8603 35.02 40.7471C34.855 40.6434 34.7212 40.4969 34.633 40.3231C34.5516 40.159 34.5095 39.9783 34.51 39.7951C34.5073 39.6468 34.5346 39.4995 34.5903 39.362C34.646 39.2245 34.7289 39.0997 34.834 38.9951C35.0443 38.7889 35.3257 38.6712 35.6201 38.6662C35.9146 38.6612 36.1998 38.7692 36.417 38.9681C36.5373 39.0849 36.6297 39.2272 36.6875 39.3846C36.7453 39.5419 36.767 39.7102 36.751 39.8771L36.746 39.8761ZM34.803 39.6421H36.456C36.4492 39.5436 36.4228 39.4475 36.3783 39.3594C36.3338 39.2713 36.2722 39.193 36.197 39.1291C36.122 39.0577 36.0334 39.0019 35.9366 38.9652C35.8397 38.9284 35.7365 38.9114 35.633 38.9151C35.4213 38.91 35.2157 38.9866 35.059 39.1291C34.9838 39.193 34.9221 39.2713 34.8776 39.3594C34.8331 39.4475 34.8067 39.5436 34.8 39.6421H34.803Z" fill="#DDE1E6"/>
<path d="M39.308 38.7244V40.8624H39.014V40.4214C38.9354 40.5766 38.8126 40.705 38.661 40.7904C38.4479 40.9037 38.204 40.9455 37.9654 40.9094C37.7268 40.8734 37.5061 40.7616 37.336 40.5904C37.1374 40.3739 37.0299 40.0891 37.036 39.7954C37.0326 39.6479 37.0586 39.5012 37.1125 39.3638C37.1664 39.2265 37.2472 39.1012 37.35 38.9954C37.4522 38.8886 37.5757 38.8045 37.7125 38.7485C37.8492 38.6926 37.9963 38.6659 38.144 38.6704C38.3392 38.666 38.5314 38.7188 38.697 38.8224C38.8368 38.9068 38.9485 39.0306 39.018 39.1784V38.7294L39.308 38.7244ZM37.322 39.7934C37.3239 39.9294 37.3549 40.0634 37.413 40.1864C37.4772 40.3184 37.577 40.4299 37.701 40.5084C37.8433 40.6008 38.0103 40.6478 38.18 40.6434C38.3507 40.6474 38.5184 40.5973 38.659 40.5004C38.7928 40.4078 38.8948 40.2762 38.951 40.1234C38.9988 40.0172 39.023 39.9019 39.022 39.7854C39.0285 39.6676 39.0055 39.55 38.955 39.4434C38.8947 39.2928 38.7901 39.1641 38.655 39.0744C38.5127 38.9777 38.3439 38.9278 38.172 38.9314C38.059 38.9282 37.9465 38.9486 37.8418 38.9913C37.7372 39.034 37.6425 39.0981 37.564 39.1794C37.4842 39.2601 37.4217 39.3561 37.3801 39.4616C37.3385 39.5671 37.3187 39.68 37.322 39.7934Z" fill="#DDE1E6"/>
<path d="M39.88 40.8624V38.7244H40.159V39.0743C40.2199 38.9465 40.3172 38.8395 40.4387 38.7667C40.5602 38.6939 40.7005 38.6587 40.842 38.6653V38.9554H40.814C40.7254 38.9498 40.6366 38.9639 40.5541 38.9968C40.4717 39.0296 40.3975 39.0804 40.337 39.1454C40.216 39.3033 40.1567 39.4999 40.17 39.6984V40.8624H39.88Z" fill="#DDE1E6"/>
<path d="M42.769 40.1394H43.075C43.0058 40.3655 42.8655 40.5633 42.675 40.7034C42.4507 40.8626 42.1776 40.9379 41.9034 40.9161C41.6292 40.8944 41.3714 40.777 41.175 40.5844C40.9705 40.3722 40.8577 40.0881 40.861 39.7934C40.858 39.6453 40.885 39.498 40.9403 39.3605C40.9957 39.2231 41.0782 39.0982 41.183 38.9934C41.2877 38.8866 41.4133 38.8026 41.552 38.7467C41.6907 38.6908 41.8395 38.6641 41.989 38.6684C42.2317 38.6661 42.4689 38.7403 42.667 38.8804C42.8685 39.0215 43.014 39.2289 43.078 39.4664H42.778C42.7215 39.3033 42.6106 39.1645 42.464 39.0734C42.3002 38.9693 42.1061 38.9233 41.913 38.9427C41.7199 38.9621 41.5388 39.0458 41.399 39.1804C41.2766 39.2993 41.1925 39.4521 41.1576 39.6192C41.1226 39.7862 41.1384 39.9599 41.2029 40.1179C41.2674 40.2759 41.3777 40.411 41.5195 40.5059C41.6614 40.6008 41.8283 40.6511 41.999 40.6504C42.1774 40.6541 42.3525 40.6013 42.499 40.4994C42.6237 40.4099 42.718 40.2842 42.769 40.1394Z" fill="#DDE1E6"/>
<path d="M43.476 40.8624V37.9224H43.77V39.0694C43.834 38.9337 43.9428 38.8243 44.078 38.7594C44.2185 38.6873 44.3752 38.6528 44.533 38.6594C44.6657 38.649 44.7989 38.6702 44.9218 38.7213C45.0447 38.7724 45.1538 38.852 45.24 38.9534C45.3881 39.1746 45.4585 39.4388 45.44 39.7044V40.8564H45.15V39.7154C45.1617 39.5154 45.1073 39.3172 44.995 39.1514C44.928 39.0768 44.8449 39.0185 44.7521 38.9807C44.6592 38.9429 44.559 38.9268 44.459 38.9334C44.362 38.9274 44.2649 38.9431 44.1748 38.9795C44.0846 39.0158 44.0037 39.0718 43.938 39.1434C43.8186 39.2817 43.7573 39.4609 43.767 39.6434V40.8594L43.476 40.8624Z" fill="#DDE1E6"/>
<path d="M47.465 40.8624V39.8294L46.52 37.9224H46.877L47.632 39.5114L48.383 37.9224H48.741L47.795 39.8294V40.8624H47.465Z" fill="#DDE1E6"/>
<path d="M48.538 39.7931C48.5357 39.6466 48.5625 39.5011 48.6167 39.365C48.671 39.2289 48.7516 39.1049 48.854 39.0001C49.0735 38.7877 49.367 38.6689 49.6725 38.6689C49.978 38.6689 50.2715 38.7877 50.491 39.0001C50.6939 39.2155 50.8068 39.5002 50.8068 39.7961C50.8068 40.092 50.6939 40.3767 50.491 40.5921C50.2708 40.8032 49.9775 40.921 49.6725 40.921C49.3674 40.921 49.0742 40.8032 48.854 40.5921C48.7507 40.4867 48.6696 40.3618 48.6153 40.2245C48.5611 40.0873 48.5347 39.9407 48.538 39.7931ZM48.828 39.7931C48.8252 39.9054 48.8453 40.017 48.8871 40.1212C48.9289 40.2254 48.9914 40.3199 49.071 40.3991C49.2316 40.5555 49.4468 40.643 49.671 40.643C49.8951 40.643 50.1104 40.5555 50.271 40.3991C50.4264 40.234 50.5129 40.0159 50.5129 39.7891C50.5129 39.5624 50.4264 39.3442 50.271 39.1791C50.1104 39.0228 49.8951 38.9353 49.671 38.9353C49.4468 38.9353 49.2316 39.0228 49.071 39.1791C48.9906 39.2594 48.9276 39.3553 48.8858 39.4609C48.844 39.5665 48.8243 39.6796 48.828 39.7931Z" fill="#DDE1E6"/>
<path d="M53.215 38.7246V40.8626H52.9371V40.4806C52.8765 40.6204 52.7709 40.7358 52.637 40.8086C52.4859 40.8899 52.3156 40.929 52.1441 40.9216C52.0159 40.9304 51.8874 40.9095 51.7686 40.8606C51.6498 40.8117 51.5439 40.7361 51.4591 40.6396C51.3088 40.4379 51.2322 40.1909 51.242 39.9396V38.7276H51.5321V39.8836C51.5201 40.0866 51.5799 40.2873 51.701 40.4506C51.766 40.5218 51.8466 40.5769 51.9365 40.6116C52.0264 40.6463 52.1231 40.6597 52.219 40.6506C52.3137 40.6553 52.4084 40.6407 52.4972 40.6077C52.5861 40.5747 52.6674 40.5239 52.736 40.4586C52.7996 40.3878 52.8485 40.3052 52.8799 40.2154C52.9113 40.1257 52.9246 40.0305 52.919 39.9356V38.7276L53.215 38.7246Z" fill="#DDE1E6"/>
<path d="M53.787 40.8623V38.7243H54.065V39.0743C54.126 38.9465 54.2233 38.8396 54.3448 38.7668C54.4663 38.6941 54.6065 38.6588 54.748 38.6653V38.9553H54.72C54.6316 38.9499 54.543 38.9641 54.4607 38.9969C54.3784 39.0298 54.3044 39.0805 54.244 39.1453C54.1226 39.303 54.0632 39.4998 54.077 39.6983V40.8623H53.787Z" fill="#DDE1E6"/>
<path d="M56.218 40.8624V37.9224H56.544V40.8624H56.218Z" fill="#DDE1E6"/>
<path d="M57.3 40.8622V38.9622H56.879V38.7272H57.3V37.9272H57.59V38.7272H58.059V38.9622H57.59V40.8622H57.3Z" fill="#DDE1E6"/>
<path d="M60.335 39.8761H58.388C58.3865 39.9876 58.41 40.098 58.4568 40.1992C58.5035 40.3004 58.5722 40.3899 58.658 40.4611C58.8148 40.5958 59.0152 40.669 59.222 40.6671C59.3761 40.67 59.5281 40.6302 59.661 40.5521C59.7913 40.4759 59.8958 40.3624 59.961 40.2261H60.267C60.1802 40.4405 60.0289 40.6226 59.834 40.7471C59.6496 40.8603 59.4374 40.9202 59.221 40.9202C59.0046 40.9202 58.7924 40.8603 58.608 40.7471C58.443 40.6435 58.3092 40.4969 58.221 40.3231C58.1396 40.1591 58.0974 39.9783 58.098 39.7951C58.0952 39.6468 58.1225 39.4995 58.1782 39.362C58.2339 39.2246 58.3168 39.0997 58.422 38.9951C58.6322 38.7906 58.9125 38.6739 59.2058 38.6691C59.4991 38.6643 59.7832 38.7716 60 38.9691C60.1202 39.0859 60.2127 39.2282 60.2705 39.3856C60.3283 39.5429 60.35 39.7113 60.334 39.8781L60.335 39.8761ZM58.392 39.6421H60.045C60.0382 39.5437 60.0118 39.4476 59.9673 39.3595C59.9228 39.2714 59.8612 39.1931 59.786 39.1291C59.711 39.0577 59.6224 39.002 59.5255 38.9652C59.4287 38.9285 59.3255 38.9115 59.222 38.9151C59.0102 38.9101 58.8047 38.9867 58.648 39.1291C58.5733 39.1933 58.5122 39.2717 58.4682 39.3598C58.4242 39.4479 58.3983 39.5439 58.392 39.6421Z" fill="#DDE1E6"/>
<path d="M60.752 40.8624V38.7244H61.03V39.0624C61.092 38.9367 61.1921 38.8339 61.316 38.7684C61.4352 38.7028 61.569 38.6684 61.705 38.6684C61.8142 38.663 61.9232 38.6818 62.0242 38.7237C62.1252 38.7655 62.2157 38.8293 62.289 38.9104C62.3457 38.9774 62.3925 39.0521 62.428 39.1324C62.4696 39.0506 62.5217 38.9746 62.583 38.9064C62.7392 38.7577 62.9453 38.6729 63.1609 38.6684C63.3764 38.664 63.5858 38.7403 63.748 38.8824C63.837 38.9704 63.9018 39.08 63.936 39.2004C63.9761 39.3561 63.9942 39.5167 63.99 39.6774V40.8654H63.7V39.6894C63.7174 39.4871 63.6609 39.2853 63.541 39.1214C63.4897 39.0596 63.4243 39.0111 63.3504 38.98C63.2764 38.9488 63.196 38.9359 63.116 38.9424C63.0253 38.9359 62.9345 38.9529 62.8524 38.9918C62.7702 39.0307 62.6995 39.0901 62.647 39.1644C62.599 39.2283 62.5649 39.3015 62.547 39.3794C62.5285 39.4783 62.5205 39.5788 62.523 39.6794V40.8674H62.229V39.6694C62.2451 39.4923 62.2064 39.3147 62.118 39.1604C62.0646 39.0869 61.9938 39.0277 61.912 38.9883C61.8301 38.9488 61.7398 38.9303 61.649 38.9344C61.5572 38.9305 61.466 38.9501 61.384 38.9914C61.3088 39.0285 61.2442 39.0838 61.196 39.1524C61.0942 39.3034 61.044 39.4834 61.053 39.6654V40.8574L60.752 40.8624Z" fill="#DDE1E6"/>
<path d="M65.8 39.2614H65.51C65.513 39.2133 65.5056 39.1651 65.4883 39.1201C65.4711 39.075 65.4444 39.0342 65.41 39.0004C65.3334 38.9389 65.2378 38.9061 65.1396 38.9075C65.0413 38.909 64.9467 38.9447 64.872 39.0084C64.8377 39.0389 64.8108 39.0768 64.7935 39.1193C64.7762 39.1618 64.7688 39.2076 64.772 39.2534C64.7702 39.2953 64.7783 39.3371 64.7957 39.3754C64.8131 39.4136 64.8392 39.4472 64.872 39.4734C64.9683 39.5385 65.0752 39.5862 65.188 39.6144L65.377 39.6684C65.4347 39.6871 65.4908 39.7102 65.545 39.7374C65.605 39.7636 65.6591 39.8017 65.704 39.8494C65.7452 39.8978 65.7788 39.9521 65.804 40.0104C65.8356 40.0837 65.8523 40.1626 65.853 40.2424C65.8589 40.3326 65.8446 40.423 65.811 40.5069C65.7775 40.5909 65.7255 40.6662 65.659 40.7274C65.5203 40.8573 65.3359 40.9271 65.146 40.9214C64.9619 40.9241 64.7827 40.8617 64.64 40.7454C64.5672 40.6865 64.5089 40.6115 64.4699 40.5263C64.4308 40.4411 64.4121 40.3481 64.415 40.2544H64.705C64.7038 40.314 64.7156 40.3732 64.7396 40.4277C64.7636 40.4823 64.7992 40.531 64.844 40.5704C64.9295 40.6425 65.0382 40.6812 65.15 40.6794C65.2053 40.6814 65.2605 40.672 65.3121 40.6519C65.3637 40.6318 65.4106 40.6013 65.45 40.5624C65.4879 40.5258 65.5175 40.4815 65.537 40.4326C65.5565 40.3836 65.5653 40.331 65.563 40.2784C65.5647 40.2266 65.5543 40.1752 65.5326 40.1281C65.5109 40.0811 65.4785 40.0397 65.438 40.0074C65.3127 39.9241 65.1735 39.8638 65.027 39.8294C64.8791 39.7912 64.7406 39.7232 64.62 39.6294C64.571 39.5849 64.5326 39.53 64.5075 39.4688C64.4824 39.4075 64.4713 39.3415 64.475 39.2754C64.4718 39.1916 64.4873 39.1081 64.5206 39.0311C64.5538 38.9541 64.6038 38.8856 64.667 38.8304C64.7993 38.7181 64.9686 38.659 65.142 38.6644C65.2446 38.6633 65.3464 38.682 65.442 38.7194C65.5397 38.7602 65.624 38.8278 65.685 38.9144C65.7575 39.0158 65.7976 39.1368 65.8 39.2614Z" fill="#DDE1E6"/>
<path d="M66.732 40.4253V40.8623H66.422V40.4253H66.732Z" fill="#DDE1E6"/>
<path d="M67.88 40.4253V40.8623H67.57V40.4253H67.88Z" fill="#DDE1E6"/>
<path d="M69.028 40.4253V40.8623H68.718V40.4253H69.028Z" fill="#DDE1E6"/>
<path d="M110.838 39.896H111.372C111.375 39.9714 111.391 40.0456 111.421 40.115C111.441 40.1677 111.476 40.2137 111.521 40.248C111.557 40.2735 111.596 40.2937 111.638 40.308C111.701 40.3288 111.768 40.3317 111.833 40.3163C111.897 40.301 111.956 40.268 112.003 40.221C112.037 40.1891 112.064 40.1506 112.083 40.1077C112.101 40.0649 112.11 40.0187 112.11 39.972C112.111 39.9072 112.087 39.8445 112.043 39.797C112.004 39.7519 111.957 39.7146 111.904 39.687C111.856 39.662 111.763 39.624 111.626 39.571L111.546 39.538C111.486 39.517 111.436 39.497 111.396 39.481C111.338 39.4542 111.281 39.4238 111.227 39.39C111.162 39.3535 111.102 39.3073 111.051 39.253C111.002 39.1951 110.962 39.13 110.932 39.06C110.895 38.9762 110.877 38.8855 110.878 38.794C110.874 38.6834 110.896 38.5734 110.942 38.4729C110.988 38.3724 111.058 38.2844 111.145 38.216C111.32 38.0754 111.538 38 111.763 38.003C111.858 38.0028 111.953 38.0163 112.045 38.043C112.139 38.0714 112.229 38.1138 112.31 38.169C112.4 38.2316 112.472 38.3163 112.52 38.415C112.576 38.5301 112.606 38.6561 112.608 38.784H112.077C112.071 38.7501 112.063 38.7167 112.052 38.684C112.039 38.6492 112.022 38.6157 112.003 38.584C111.98 38.5441 111.945 38.5123 111.903 38.493C111.853 38.4716 111.799 38.4614 111.744 38.463C111.658 38.4608 111.575 38.4912 111.511 38.548C111.479 38.5745 111.453 38.6079 111.436 38.6456C111.419 38.6834 111.41 38.7245 111.411 38.766C111.407 38.8065 111.415 38.8471 111.432 38.8838C111.45 38.9204 111.477 38.9515 111.511 38.974C111.668 39.0624 111.832 39.1389 112.001 39.203C112.181 39.2727 112.344 39.3786 112.481 39.514C112.588 39.6354 112.643 39.7935 112.636 39.955C112.643 40.1742 112.562 40.3871 112.412 40.547C112.323 40.6312 112.218 40.6959 112.103 40.7369C111.988 40.7779 111.866 40.7943 111.744 40.785C111.62 40.7935 111.495 40.7764 111.378 40.7347C111.261 40.6931 111.153 40.6279 111.062 40.543C110.982 40.4564 110.921 40.3542 110.882 40.2429C110.844 40.1316 110.829 40.0135 110.838 39.896Z" fill="white"/>
<path d="M114.93 39.8925H113.33C113.332 39.9629 113.35 40.0319 113.382 40.0945C113.414 40.1572 113.46 40.2118 113.516 40.2545C113.626 40.3419 113.763 40.3879 113.904 40.3845C114.001 40.3902 114.097 40.368 114.182 40.3205C114.266 40.273 114.336 40.2022 114.381 40.1165H114.868C114.787 40.3191 114.648 40.4932 114.468 40.6165C114.302 40.7318 114.103 40.7923 113.901 40.7895C113.762 40.7927 113.623 40.7667 113.495 40.7134C113.366 40.66 113.25 40.5803 113.154 40.4795C113.057 40.3828 112.981 40.2678 112.93 40.1412C112.878 40.0147 112.852 39.8791 112.854 39.7425C112.852 39.6048 112.878 39.4681 112.929 39.3404C112.981 39.2127 113.057 39.0964 113.154 38.9985C113.25 38.8998 113.365 38.8211 113.492 38.7671C113.618 38.713 113.754 38.6846 113.892 38.6836C114.03 38.6826 114.167 38.7089 114.294 38.7611C114.422 38.8132 114.537 38.8902 114.635 38.9875C114.751 39.105 114.838 39.248 114.889 39.4051C114.941 39.5622 114.955 39.7291 114.93 39.8925ZM113.341 39.5315H114.464C114.448 39.4115 114.388 39.3019 114.295 39.2245C114.188 39.1271 114.046 39.0764 113.901 39.0835C113.756 39.0773 113.615 39.1279 113.507 39.2245C113.414 39.3018 113.355 39.4116 113.341 39.5315Z" fill="white"/>
<path d="M117.336 38.7441V40.7271H116.863V40.4411C116.803 40.5542 116.708 40.6449 116.592 40.7001C116.467 40.76 116.33 40.7901 116.192 40.7881C116.055 40.7939 115.918 40.7694 115.791 40.7163C115.665 40.6633 115.551 40.583 115.459 40.4811C115.276 40.2756 115.178 40.0082 115.185 39.7331C115.18 39.594 115.203 39.4554 115.253 39.3255C115.303 39.1955 115.378 39.077 115.475 38.9771C115.568 38.8813 115.679 38.8056 115.803 38.7548C115.926 38.7041 116.059 38.6793 116.192 38.6821C116.339 38.6771 116.485 38.7135 116.613 38.7871C116.716 38.8455 116.802 38.9304 116.861 39.0331V38.7441H117.336ZM115.66 39.7441C115.66 39.8359 115.68 39.9265 115.718 40.0101C115.768 40.1122 115.845 40.1982 115.942 40.258C116.038 40.3178 116.149 40.3491 116.263 40.3481C116.373 40.3544 116.482 40.3274 116.576 40.2706C116.67 40.2139 116.744 40.13 116.79 40.0301C116.836 39.9438 116.862 39.8486 116.866 39.7511C116.871 39.6554 116.853 39.5598 116.812 39.4731C116.766 39.3724 116.694 39.2858 116.603 39.2221C116.502 39.1536 116.381 39.1186 116.259 39.1221C116.177 39.1186 116.095 39.1335 116.019 39.1657C115.944 39.1979 115.876 39.2465 115.822 39.3081C115.716 39.4271 115.658 39.5816 115.66 39.7411V39.7441Z" fill="white"/>
<path d="M117.8 40.727V38.744H118.248V39.004C118.297 38.9014 118.375 38.8158 118.473 38.7583C118.571 38.7009 118.684 38.6743 118.797 38.682V39.159H118.775C118.707 39.1493 118.638 39.1555 118.573 39.1772C118.508 39.1989 118.449 39.2355 118.4 39.284C118.352 39.3325 118.315 39.3916 118.293 39.4567C118.272 39.5218 118.265 39.5911 118.275 39.659V40.728L117.8 40.727Z" fill="white"/>
<path d="M120.46 40.0044H120.944C120.902 40.1602 120.824 40.3042 120.717 40.4254C120.611 40.5467 120.478 40.6418 120.328 40.7036C120.179 40.7655 120.018 40.7924 119.857 40.7822C119.695 40.772 119.539 40.7251 119.399 40.645C119.258 40.5649 119.138 40.4538 119.048 40.3201C118.957 40.1865 118.898 40.0339 118.876 39.874C118.853 39.7141 118.867 39.5511 118.918 39.3976C118.968 39.2441 119.052 39.1041 119.165 38.9884C119.261 38.8888 119.377 38.8101 119.504 38.7575C119.632 38.7048 119.77 38.6792 119.908 38.6824C120.147 38.6787 120.38 38.7559 120.57 38.9014C120.76 39.0438 120.893 39.2496 120.944 39.4814H120.46C120.419 39.3738 120.346 39.2815 120.25 39.2174C120.154 39.1533 120.041 39.1204 119.926 39.1234C119.848 39.1216 119.77 39.1358 119.697 39.165C119.624 39.1942 119.558 39.2379 119.503 39.2934C119.393 39.4131 119.335 39.5711 119.341 39.7334C119.338 39.814 119.351 39.8944 119.379 39.9698C119.408 40.0452 119.451 40.1141 119.507 40.1724C119.606 40.2687 119.735 40.3283 119.873 40.3416C120.01 40.3548 120.148 40.3209 120.264 40.2454C120.35 40.1839 120.417 40.1007 120.46 40.0044Z" fill="white"/>
<path d="M121.259 40.7272V38.0542H121.732V38.9792C121.783 38.8789 121.867 38.7991 121.97 38.7532C122.079 38.703 122.197 38.6787 122.317 38.6822C122.435 38.6715 122.553 38.6915 122.661 38.7402C122.768 38.7889 122.861 38.8647 122.931 38.9602C123.048 39.1654 123.102 39.4005 123.086 39.6362V40.7272H122.613V39.6582C122.621 39.5267 122.59 39.3957 122.523 39.2822C122.483 39.2298 122.431 39.1882 122.371 39.1611C122.311 39.134 122.246 39.1224 122.18 39.1272C122.109 39.1217 122.038 39.1347 121.974 39.1651C121.91 39.1954 121.855 39.242 121.815 39.3002C121.756 39.3955 121.727 39.5063 121.732 39.6182V40.7272H121.259Z" fill="white"/>
<path d="M58.99 48.2376C60.7882 48.2376 62.246 46.7798 62.246 44.9816C62.246 43.1833 60.7882 41.7256 58.99 41.7256C57.1918 41.7256 55.734 43.1833 55.734 44.9816C55.734 46.7798 57.1918 48.2376 58.99 48.2376Z" fill="#D9DDE5"/>
<path opacity="0.7" d="M58.99 48.2376C60.7882 48.2376 62.246 46.7798 62.246 44.9816C62.246 43.1833 60.7882 41.7256 58.99 41.7256C57.1918 41.7256 55.734 43.1833 55.734 44.9816C55.734 46.7798 57.1918 48.2376 58.99 48.2376Z" fill="#D9DDE5"/>
<path d="M66.261 46.5043C67.0889 46.5043 67.76 45.8332 67.76 45.0053C67.76 44.1775 67.0889 43.5063 66.261 43.5063C65.4331 43.5063 64.762 44.1775 64.762 45.0053C64.762 45.8332 65.4331 46.5043 66.261 46.5043Z" fill="#D9DDE5"/>
<path opacity="0.6" d="M66.261 46.5043C67.0889 46.5043 67.76 45.8332 67.76 45.0053C67.76 44.1775 67.0889 43.5063 66.261 43.5063C65.4331 43.5063 64.762 44.1775 64.762 45.0053C64.762 45.8332 65.4331 46.5043 66.261 46.5043Z" fill="#D9DDE5"/>
<path d="M71.146 43.4102C71.0968 43.533 71.0122 43.6385 70.903 43.7132C70.7939 43.788 70.665 43.8286 70.5327 43.8301C70.4004 43.8316 70.2706 43.7939 70.1598 43.7216C70.0489 43.6494 69.962 43.5459 69.91 43.4242C69.858 43.3026 69.8432 43.1682 69.8675 43.0381C69.8919 42.9081 69.9542 42.7882 70.0467 42.6936C70.1392 42.5989 70.2577 42.5339 70.3871 42.5066C70.5166 42.4793 70.6512 42.491 70.774 42.5402C70.8557 42.5728 70.9301 42.6212 70.993 42.6826C71.0559 42.744 71.1061 42.8172 71.1406 42.898C71.1752 42.9788 71.1934 43.0657 71.1944 43.1536C71.1953 43.2415 71.1789 43.3287 71.146 43.4102Z" fill="#D9DDE5"/>
<path opacity="0.5" d="M71.146 43.4102C71.0968 43.533 71.0122 43.6385 70.903 43.7132C70.7939 43.788 70.665 43.8286 70.5327 43.8301C70.4004 43.8316 70.2706 43.7939 70.1598 43.7216C70.0489 43.6494 69.962 43.5459 69.91 43.4242C69.858 43.3026 69.8432 43.1682 69.8675 43.0381C69.8919 42.9081 69.9542 42.7882 70.0467 42.6936C70.1392 42.5989 70.2577 42.5339 70.3871 42.5066C70.5166 42.4793 70.6512 42.491 70.774 42.5402C70.8557 42.5728 70.9301 42.6212 70.993 42.6826C71.0559 42.744 71.1061 42.8172 71.1406 42.898C71.1752 42.9788 71.1934 43.0657 71.1944 43.1536C71.1953 43.2415 71.1789 43.3287 71.146 43.4102Z" fill="#D9DDE5"/>
<path d="M62.271 35.6869C62.685 34.6558 62.8242 33.5349 62.6748 32.4339C62.5255 31.3329 62.0927 30.2895 61.419 29.4059C61.9363 28.1022 62.0651 26.6766 61.79 25.3012C61.5148 23.9258 60.8475 22.6595 59.8685 21.655C58.8896 20.6506 57.6408 19.9509 56.2729 19.6406C54.9051 19.3302 53.4766 19.4224 52.16 19.9059C51.8395 18.8991 51.2756 17.987 50.5181 17.2504C49.7607 16.5138 48.8331 15.9754 47.8178 15.6832C46.8025 15.3909 45.7307 15.3537 44.6975 15.5748C43.6644 15.796 42.7017 16.2686 41.895 16.951C41.3063 16.2859 40.5573 15.7825 39.7192 15.4887C38.8811 15.1948 37.9817 15.1201 37.1066 15.2719C36.2316 15.4236 35.4098 15.7966 34.7196 16.3555C34.0293 16.9144 33.4935 17.6406 33.163 18.4649C32.9921 18.8925 32.8782 19.3407 32.824 19.798C32.028 19.9648 31.2888 20.3354 30.6789 20.8734C30.069 21.4115 29.6091 22.0986 29.3443 22.8676C29.0795 23.6366 29.0187 24.4612 29.168 25.2607C29.3173 26.0602 29.6715 26.8073 30.196 27.4289C30.073 28.0367 30.0713 28.6628 30.1913 29.2711C30.3113 29.8795 30.5504 30.4581 30.895 30.9736C31.2396 31.4891 31.6828 31.9314 32.199 32.2749C32.7153 32.6183 33.2944 32.8563 33.903 32.9749C33.9166 33.6346 34.0689 34.2841 34.35 34.881C34.6311 35.478 35.0348 36.0091 35.5347 36.4397C36.0347 36.8703 36.6197 37.1908 37.2517 37.3804C37.8837 37.5699 38.5486 37.6243 39.203 37.5399C39.4937 38.1477 39.9116 38.6859 40.4284 39.118C40.9452 39.5501 41.5489 39.866 42.1986 40.0444C42.8482 40.2228 43.5286 40.2595 44.1936 40.1519C44.8586 40.0443 45.4928 39.795 46.053 39.4209C46.3762 40.445 47.0081 41.3441 47.8622 41.995C48.7162 42.646 49.7506 43.0169 50.8237 43.0571C51.8968 43.0973 52.9561 42.8047 53.8564 42.2195C54.7567 41.6342 55.4541 40.7849 55.853 39.7879C55.864 39.7599 55.873 39.7309 55.884 39.7029C57.2362 39.7932 58.5823 39.4533 59.7296 38.732C60.8768 38.0106 61.7664 36.9447 62.271 35.6869Z" fill="#D9DDE5"/>
<path opacity="0.8" d="M62.271 35.6869C62.685 34.6558 62.8242 33.5349 62.6748 32.4339C62.5255 31.3329 62.0927 30.2895 61.419 29.4059C61.9363 28.1022 62.0651 26.6766 61.79 25.3012C61.5148 23.9258 60.8475 22.6595 59.8685 21.655C58.8896 20.6506 57.6408 19.9509 56.2729 19.6406C54.9051 19.3302 53.4766 19.4224 52.16 19.9059C51.8395 18.8991 51.2756 17.987 50.5181 17.2504C49.7607 16.5138 48.8331 15.9754 47.8178 15.6832C46.8025 15.3909 45.7307 15.3537 44.6975 15.5748C43.6644 15.796 42.7017 16.2686 41.895 16.951C41.3063 16.2859 40.5573 15.7825 39.7192 15.4887C38.8811 15.1948 37.9817 15.1201 37.1066 15.2719C36.2316 15.4236 35.4098 15.7966 34.7196 16.3555C34.0293 16.9144 33.4935 17.6406 33.163 18.4649C32.9921 18.8925 32.8782 19.3407 32.824 19.798C32.028 19.9648 31.2888 20.3354 30.6789 20.8734C30.069 21.4115 29.6091 22.0986 29.3443 22.8676C29.0795 23.6366 29.0187 24.4612 29.168 25.2607C29.3173 26.0602 29.6715 26.8073 30.196 27.4289C30.073 28.0367 30.0713 28.6628 30.1913 29.2711C30.3113 29.8795 30.5504 30.4581 30.895 30.9736C31.2396 31.4891 31.6828 31.9314 32.199 32.2749C32.7153 32.6183 33.2944 32.8563 33.903 32.9749C33.9166 33.6346 34.0689 34.2841 34.35 34.881C34.6311 35.478 35.0348 36.0091 35.5347 36.4397C36.0347 36.8703 36.6197 37.1908 37.2517 37.3804C37.8837 37.5699 38.5486 37.6243 39.203 37.5399C39.4937 38.1477 39.9116 38.6859 40.4284 39.118C40.9452 39.5501 41.5489 39.866 42.1986 40.0444C42.8482 40.2228 43.5286 40.2595 44.1936 40.1519C44.8586 40.0443 45.4928 39.795 46.053 39.4209C46.3762 40.445 47.0081 41.3441 47.8622 41.995C48.7162 42.646 49.7506 43.0169 50.8237 43.0571C51.8968 43.0973 52.9561 42.8047 53.8564 42.2195C54.7567 41.6342 55.4541 40.7849 55.853 39.7879C55.864 39.7599 55.873 39.7309 55.884 39.7029C57.2362 39.7932 58.5823 39.4533 59.7296 38.732C60.8768 38.0106 61.7664 36.9447 62.271 35.6869Z" fill="#D9DDE5"/>
<path d="M47.6631 24.4012C47.944 24.3992 48.2172 24.3082 48.4432 24.1413C48.6692 23.9744 48.8365 23.7401 48.9211 23.4722C48.0908 23.6827 47.2222 23.6909 46.3881 23.4962C46.4777 23.7624 46.6493 23.9934 46.8784 24.156C47.1075 24.3186 47.3822 24.4044 47.6631 24.4012Z" fill="#F2F4F8"/>
<path d="M54.377 25.01C54.3629 24.9717 54.3413 24.9366 54.3135 24.9068C54.2857 24.8769 54.2522 24.8529 54.215 24.836L51.64 23.676C51.095 23.4976 50.5383 23.3566 49.974 23.254C49.9545 23.2509 49.9348 23.2492 49.915 23.249C49.8463 23.2494 49.7799 23.2734 49.7267 23.3169C49.6736 23.3604 49.637 23.4208 49.623 23.488C49.5278 23.9368 49.2824 24.3397 48.9273 24.6301C48.5722 24.9206 48.1286 25.0812 47.6698 25.0856C47.2111 25.0899 46.7646 24.9376 46.4041 24.6539C46.0436 24.3701 45.7907 23.9719 45.687 23.525C45.6696 23.4479 45.6224 23.3808 45.5557 23.3383C45.489 23.2958 45.4083 23.2813 45.331 23.298C44.7685 23.4105 44.2146 23.5619 43.673 23.751L41.121 24.959C41.0837 24.976 41.0502 25.0005 41.0227 25.031C40.9951 25.0615 40.9742 25.0973 40.961 25.1362C40.9479 25.1751 40.9429 25.2163 40.9464 25.2572C40.9498 25.2981 40.9616 25.3379 40.981 25.374L42.115 27.56C42.1473 27.6236 42.2011 27.6736 42.2669 27.7011C42.3327 27.7286 42.4061 27.7318 42.474 27.71L43.706 27.332L43.775 34.703C43.7763 34.7836 43.8095 34.8603 43.8672 34.9165C43.9249 34.9727 44.0025 35.0038 44.083 35.003L51.442 34.934C51.482 34.934 51.5216 34.9261 51.5585 34.9105C51.5953 34.895 51.6287 34.8723 51.6567 34.8437C51.6846 34.8151 51.7065 34.7812 51.7212 34.744C51.7359 34.7068 51.743 34.667 51.742 34.627L51.673 27.257L52.913 27.611C52.9415 27.6197 52.9712 27.6241 53.001 27.624C53.0571 27.6236 53.112 27.6074 53.1593 27.5774C53.2067 27.5473 53.2447 27.5046 53.269 27.454L54.362 25.247C54.3805 25.2106 54.3914 25.1708 54.394 25.1301C54.3965 25.0893 54.3908 25.0485 54.377 25.01Z" fill="#F2F4F8"/>
<g clip-path="url(#clip0_642_1865)">
<path d="M76.2552 46.2182C75.8615 44.7946 75.0895 43.4017 73.808 42.6553C73.1981 42.3013 72.511 42.1166 71.8934 41.778C71.1523 41.3702 70.5347 40.7699 69.8398 40.2928C68.126 39.1077 65.8949 38.7076 63.8722 39.2155C61.8495 39.7234 60.0816 41.1393 59.1321 42.9939C57.6961 41.9011 55.1948 42.3629 53.4964 42.9708C51.798 43.5787 50.3697 45.6026 49.9606 47.3572L57.9509 49.7658C59.5489 51.505 61.3246 53.121 63.409 54.2445C65.4934 55.368 67.9098 55.976 70.249 55.622C72.5882 55.268 74.8193 53.8751 75.877 51.7666C76.7262 50.0659 76.7725 48.042 76.263 46.2182H76.2552Z" fill="#1A2E35"/>
<path d="M81.9218 72.5594C83.9522 71.1434 84.4386 67.9653 82.9254 66.0106C82.4776 65.4258 81.86 64.9025 81.7597 64.1715C81.6979 63.7251 81.8446 63.2788 81.9527 62.8402C82.6706 59.9236 81.4818 56.63 79.0576 54.8447C79.019 53.2133 78.1003 49.7657 76.0236 48.4421L66.5897 49.7657C67.022 59.6697 66.9911 69.5967 66.5048 79.5006C66.4276 81.0166 66.3735 82.6557 67.2073 83.9254C68.3885 85.7338 70.8512 86.1032 73.0128 86.1571C75.0818 86.211 77.1894 86.1186 79.1348 85.4414C81.0803 84.7642 82.8791 83.4099 83.6974 81.5168C84.9558 78.6003 83.6588 75.2143 81.9218 72.5594Z" fill="#1A2E35"/>
<path d="M53.1412 52.5208L52.8556 50.4123L65.3081 46.5415C69.1836 45.6796 73.8852 49.1117 74.5877 53.0133C75.3674 57.3458 76.1471 62.6633 76.0005 65.98C75.7148 72.6441 70.774 74.0524 70.774 74.0524L71.2758 78.0001C71.7853 82.0017 68.952 85.657 64.9376 86.1649C60.9385 86.6728 57.2715 83.864 56.7465 79.8778L53.1335 52.5208H53.1412Z" fill="#FFBF9D"/>
<path d="M73.7308 57.9152C73.8002 58.3538 73.476 58.7771 73.0128 58.854C72.5496 58.931 72.125 58.6385 72.0555 58.1999C71.986 57.7613 72.3103 57.338 72.7657 57.2611C73.229 57.1841 73.6536 57.4765 73.723 57.9152H73.7308Z" fill="#1A2E35"/>
<path d="M73.5146 55.9529C73.422 56.076 72.7272 55.6758 71.8239 55.7836C70.9207 55.8759 70.303 56.4146 70.195 56.3145C70.1409 56.2684 70.2258 56.0606 70.4883 55.8143C70.7508 55.5758 71.214 55.3141 71.7776 55.2526C72.3412 55.191 72.843 55.3449 73.1363 55.5219C73.4374 55.7066 73.5532 55.8913 73.5146 55.9452V55.9529Z" fill="#1A2E35"/>
<path d="M65.2695 59.0618C65.339 59.5004 65.0148 59.9237 64.5516 60.0006C64.0884 60.0776 63.6638 59.7851 63.5943 59.3465C63.5248 58.9079 63.849 58.4846 64.3045 58.4077C64.7677 58.3307 65.1923 58.6231 65.2618 59.0618H65.2695Z" fill="#1A2E35"/>
<path d="M64.6288 57.1379C64.5361 57.261 63.8413 56.8609 62.9381 56.9686C62.0348 57.061 61.4172 57.5996 61.3091 57.4996C61.2551 57.4534 61.34 57.2457 61.6025 56.9994C61.865 56.7608 62.3282 56.4992 62.8918 56.4376C63.4553 56.3761 63.9571 56.53 64.2505 56.707C64.5516 56.8917 64.6674 57.0764 64.6288 57.1302V57.1379Z" fill="#1A2E35"/>
<path d="M68.6895 63.4635C68.6818 63.4096 69.2299 63.248 70.1332 63.0326C70.3648 62.9787 70.5732 62.9094 70.5964 62.7478C70.635 62.5785 70.5038 62.34 70.3648 62.0783C70.0792 61.5474 69.7858 60.9856 69.477 60.4008C68.2418 58.0075 67.3154 56.0298 67.408 55.9836C67.5084 55.9374 68.5892 57.8305 69.8244 60.2238C70.1255 60.8163 70.4111 61.3781 70.6813 61.9167C70.7971 62.1707 70.9824 62.4477 70.9052 62.8094C70.8589 62.9864 70.7045 63.1326 70.5655 63.1865C70.4188 63.248 70.2953 63.2634 70.1795 63.2865C69.2685 63.4404 68.6973 63.5097 68.6895 63.4558V63.4635Z" fill="#1A2E35"/>
<path d="M70.774 74.0677C70.774 74.0677 66.1651 74.8681 61.4867 72.7518C61.4867 72.7518 64.235 77.0843 70.9593 75.6992L70.774 74.0677Z" fill="#FF9A6C"/>
<path d="M68.5583 65.6875C68.18 65.2951 67.5856 65.1258 67.022 65.2489C66.636 65.3336 66.2577 65.5721 66.057 65.9184C65.8563 66.2647 65.8563 66.7264 66.111 67.0034C66.3967 67.319 66.9139 67.342 67.3308 67.165C67.7477 66.9957 68.0874 66.6648 68.4116 66.3416C68.4965 66.2493 68.5892 66.157 68.6432 66.0415C68.6895 65.9261 68.6895 65.7876 68.6046 65.7029" fill="#FF9A6C"/>
<path d="M66.0956 64.3947C66.2423 64.3716 66.3581 65.3489 67.2768 65.9492C68.1955 66.5494 69.23 66.3185 69.2608 66.457C69.284 66.5186 69.0524 66.6725 68.6046 66.7341C68.1723 66.7956 67.5238 66.7341 66.9602 66.3647C66.3967 65.9953 66.111 65.449 66.0338 65.0565C65.9489 64.6486 66.0338 64.3947 66.0956 64.3947Z" fill="#1A2E35"/>
<path d="M64.4512 53.575C64.3895 53.829 63.4708 53.8213 62.4209 54.0675C61.3709 54.2984 60.5449 54.7063 60.3827 54.4985C60.3055 54.3984 60.4291 54.1522 60.7533 53.8752C61.0698 53.5981 61.5948 53.3134 62.2201 53.1672C62.8532 53.021 63.4476 53.0594 63.8491 53.1672C64.2582 53.2826 64.4744 53.4519 64.4512 53.5673V53.575Z" fill="#1A2E35"/>
<path d="M72.8816 53.3749C72.7426 53.5981 72.0941 53.4596 71.3453 53.5365C70.5887 53.5827 69.9711 53.8366 69.8012 53.6366C69.724 53.5365 69.8012 53.3211 70.056 53.0979C70.3108 52.8747 70.7431 52.6593 71.2681 52.6208C71.7853 52.5746 72.2562 52.7131 72.5419 52.8901C72.8352 53.0671 72.9433 53.2749 72.8816 53.3826V53.3749Z" fill="#1A2E35"/>
<path d="M54.5541 45.9489C53.2648 46.3722 51.8057 49.8813 52.184 51.1818C52.5623 52.4823 53.782 53.4288 55.0945 53.7597C56.4146 54.0906 57.8119 53.8905 59.1089 53.4981C60.9463 52.944 62.884 51.682 63.0153 49.7658C64.8064 51.5665 67.5856 52.3284 70.0483 51.6897C72.511 51.0587 74.333 47.3033 75.0278 44.8639L54.5541 45.9489Z" fill="#1A2E35"/>
<path d="M67.3 59.0925C67.3 59.0925 67.2845 58.7616 67.1301 58.1999C66.9834 57.6458 66.6051 56.8378 65.7714 56.2145C65.3545 55.9143 64.8372 55.6527 64.2428 55.5527C63.6483 55.4526 62.9844 55.4757 62.3514 55.722C61.7183 55.9528 61.1162 56.3838 60.6838 56.9763C60.2438 57.5612 59.9967 58.3153 59.989 59.0925C59.989 59.8698 60.2438 60.6239 60.6838 61.2088C61.1162 61.8013 61.7183 62.2322 62.3514 62.4631C62.9844 62.7094 63.6561 62.7247 64.2428 62.6324C64.8372 62.5324 65.3622 62.2707 65.7714 61.9706C66.6051 61.3473 66.9834 60.5393 67.1301 59.9852C67.2845 59.4234 67.2691 59.0925 67.3 59.0925C67.3077 59.0925 67.3154 59.1772 67.3154 59.3311C67.3154 59.485 67.3 59.7236 67.2305 60.0083C67.107 60.5854 66.7441 61.4396 65.8795 62.1168C65.4548 62.4477 64.9067 62.7247 64.2737 62.8479C63.6483 62.9633 62.9381 62.9479 62.2587 62.694C61.5794 62.4554 60.9309 62.0014 60.4677 61.3627C59.989 60.7393 59.7188 59.9236 59.7188 59.0925C59.7188 58.2614 59.9967 57.4534 60.4677 56.8224C60.9309 56.1837 61.5794 55.7297 62.2587 55.4911C62.9381 55.2372 63.6483 55.2218 64.2737 55.3372C64.9067 55.4526 65.4471 55.7374 65.8795 56.0683C66.7441 56.7454 67.107 57.5996 67.2305 58.1768C67.2922 58.4692 67.3154 58.7001 67.3154 58.854C67.3154 59.0079 67.3154 59.0925 67.3 59.0925Z" fill="#375A64"/>
<path d="M76.6258 57.4227C76.6258 57.4227 76.6104 57.0918 76.456 56.5301C76.3093 55.976 75.931 55.168 75.0972 54.5447C74.6804 54.2445 74.1631 53.9829 73.5687 53.8829C72.9742 53.7828 72.3103 53.8059 71.6772 54.0522C71.0442 54.283 70.442 54.714 70.0097 55.3065C69.5696 55.8914 69.3226 56.6455 69.3149 57.4227C69.3149 58.2 69.5696 58.9541 70.0097 59.539C70.442 60.1315 71.0442 60.5624 71.6772 60.7933C72.3103 61.0396 72.9819 61.0549 73.5687 60.9626C74.1631 60.8626 74.6881 60.6009 75.0972 60.3008C75.931 59.6775 76.3093 58.8695 76.456 58.3154C76.6104 57.7536 76.5949 57.4227 76.6258 57.4227C76.6335 57.4227 76.6413 57.5074 76.6413 57.6613C76.6413 57.8152 76.6258 58.0538 76.5563 58.3385C76.4328 58.9156 76.07 59.7698 75.2053 60.447C74.7807 60.7779 74.2326 61.0549 73.5995 61.1781C72.9742 61.2935 72.264 61.2781 71.5846 61.0242C70.9052 60.7856 70.2567 60.3316 69.7935 59.6929C69.3149 59.0695 69.0447 58.2538 69.0447 57.4227C69.0447 56.5916 69.3226 55.7836 69.7935 55.1526C70.2567 54.5139 70.9052 54.0599 71.5846 53.8213C72.264 53.5674 72.9742 53.552 73.5995 53.6674C74.2326 53.7828 74.773 54.0676 75.2053 54.3985C76.07 55.0756 76.4328 55.9298 76.5563 56.507C76.6181 56.7994 76.6413 57.0303 76.6413 57.1842C76.6413 57.3381 76.6413 57.4227 76.6258 57.4227Z" fill="#375A64"/>
<path d="M66.7441 57.0533C66.7441 57.0533 66.7055 56.8763 66.829 56.63C66.9448 56.3915 67.2227 56.0913 67.6319 55.9605C68.0411 55.8374 68.4425 55.922 68.6741 56.0529C68.9134 56.1837 69.0061 56.3299 68.9829 56.353C68.9597 56.3838 68.8285 56.2991 68.5969 56.2299C68.373 56.1606 68.0411 56.1144 67.7091 56.2145C67.3771 56.3222 67.1301 56.5454 66.9834 56.7301C66.8367 56.9147 66.775 57.061 66.7364 57.0533H66.7441Z" fill="#375A64"/>
<path d="M59.7188 59.9699C59.7419 60.0391 59.1012 60.3162 58.2828 60.5855C57.4645 60.8625 56.7851 61.0241 56.762 60.9549C56.7388 60.8856 57.3796 60.6086 58.1979 60.3393C59.0085 60.0699 59.6879 59.9006 59.7188 59.9699Z" fill="#375A64"/>
<path d="M124.267 71.2821C125.355 70.8588 124.907 69.7353 124.907 69.7353L120.862 70.9512C120.862 70.9512 123.008 70.0816 124.112 69.1889C125.216 68.2886 124.66 67.5114 124.66 67.5114L120.491 69.1197L118.137 70.5048L112.231 79.4853C112.231 79.4853 116.848 81.7324 117.658 81.086C119.094 79.9471 119.882 77.3999 120.198 76.1071C120.777 75.9378 122.599 75.3991 123.093 75.0759C123.68 74.6834 123.958 74.0986 123.958 74.0986L120.746 74.7065C121.209 74.568 124.189 73.5522 124.429 73.1905C124.846 72.5518 124.583 72.2671 124.583 72.2671L120.546 72.8981L120.962 72.598C120.962 72.598 123.224 71.6976 124.274 71.2975L124.267 71.2821Z" fill="#FFBF9D"/>
<path d="M109.398 80.6396L95.8103 93.0368C94.1196 92.6521 73.4374 80.3241 73.4374 80.3241L70.1641 96.1842C70.1641 96.1842 91.3326 105.888 97.1613 104.711C98.1109 104.518 99.6781 104.395 100.659 103.141C105.321 97.1692 115.203 82.4018 115.203 82.4018L109.39 80.6473L109.398 80.6396Z" fill="#FFBF9D"/>
<path d="M118.631 80.0163L116.184 78.8389L117.952 75.6376L119.341 72.7134L121.495 68.7272L118.214 69.9584C117.828 70.12 117.488 70.3817 117.226 70.7126L111.83 78.1463L109.436 80.578L111.745 86.7728L114.462 82.548L116.052 82.1787C117.643 81.8093 118.646 80.024 118.646 80.024L118.631 80.0163Z" fill="#FFBF9D"/>
<path d="M114.686 74.9835C115.813 74.4217 116.994 73.96 118.206 73.6137C118.6 73.4983 119.017 73.3982 119.426 73.4598C119.835 73.5214 120.237 73.783 120.345 74.1755C120.468 74.6295 120.175 75.1066 119.781 75.3606C119.387 75.6145 118.917 75.7068 118.461 75.8223C118.006 75.9377 117.542 76.107 117.241 76.4687C116.956 76.8073 116.871 77.2536 116.716 77.6692C116.23 79.0158 115.002 80.0701 113.59 80.3395" fill="#FFBF9D"/>
<path d="M113.59 80.3318C113.59 80.3318 113.806 80.2625 114.184 80.1163C114.555 79.9624 115.08 79.7008 115.597 79.2006C115.852 78.9543 116.106 78.6542 116.315 78.2925C116.531 77.9308 116.662 77.5153 116.809 77.0459C116.886 76.815 116.994 76.5687 117.172 76.361C117.349 76.1532 117.589 75.9993 117.843 75.8992C118.345 75.6761 118.901 75.6222 119.395 75.4221C119.642 75.3221 119.858 75.1836 120.013 74.9912C120.167 74.7988 120.268 74.5679 120.26 74.3448C120.237 73.8831 119.743 73.5829 119.31 73.5522C118.855 73.5137 118.422 73.6599 118.013 73.7753C117.604 73.8908 117.226 74.0139 116.886 74.137C116.199 74.3756 115.659 74.5987 115.288 74.7526C114.918 74.9065 114.709 74.9989 114.701 74.9835C114.701 74.9681 114.887 74.8527 115.25 74.668C115.612 74.4833 116.153 74.237 116.832 73.9754C117.172 73.8446 117.55 73.7138 117.959 73.5829C118.368 73.4675 118.816 73.2982 119.333 73.329C119.588 73.3444 119.858 73.429 120.082 73.5983C120.306 73.7599 120.484 74.0216 120.499 74.3294C120.522 74.945 120.028 75.4375 119.488 75.6453C118.947 75.8608 118.399 75.9146 117.944 76.1147C117.712 76.2148 117.504 76.3456 117.357 76.5149C117.203 76.6842 117.11 76.8996 117.025 77.1228C116.878 77.5691 116.724 78.0232 116.492 78.3925C116.269 78.7696 115.998 79.0774 115.72 79.3237C115.172 79.8239 114.616 80.0778 114.223 80.2086C114.03 80.2702 113.868 80.3087 113.767 80.3241C113.659 80.3395 113.605 80.3472 113.605 80.3395L113.59 80.3318Z" fill="#FF9A6C"/>
<path d="M71.9088 124.949H44.0624C44.0624 124.949 39.9476 130.105 37.2379 135.477L76.9269 135.638C77.7066 134.369 71.9088 124.942 71.9088 124.942V124.949Z" fill="#01194F"/>
<path d="M80.1385 99.7087C79.1966 87.2807 76.1009 79.4776 76.1009 79.4776L71.2758 78.0001C70.5501 81.1783 65.3545 82.2249 62.3977 80.832L59.271 79.2006C49.2349 77.7 49.7522 78.5311 47.4361 79.9163C45.4212 81.1244 45.6065 90.1357 45.6065 90.1357C45.6065 90.1357 40.6038 113.622 40.874 117.385C41.1442 121.148 44.0624 124.934 44.0624 124.934H71.9089C74.7113 124.934 75.5141 118.616 75.3211 116.323C75.1281 114.03 80.455 103.78 80.1462 99.701L80.1385 99.7087Z" fill="#B71010"/>
<path d="M53.6971 107.535C53.6971 107.535 53.8438 107.697 54.1603 107.927C54.4768 108.158 54.9632 108.466 55.6039 108.766C56.2447 109.066 57.0476 109.336 57.9817 109.474C58.9082 109.605 59.9658 109.597 61.0235 109.343C63.1619 108.851 64.7677 107.596 65.7482 106.611C66.2423 106.111 66.5974 105.665 66.8367 105.357C67.0683 105.042 67.1764 104.857 67.1609 104.842C67.1223 104.811 66.6128 105.519 65.6015 106.465C64.5979 107.396 63.0152 108.589 60.954 109.066C58.9004 109.566 56.9472 109.128 55.6889 108.581C54.4151 108.043 53.728 107.489 53.6971 107.543V107.535Z" fill="#1A2E35"/>
<g opacity="0.3">
<path d="M66.6901 105.473C66.4816 107.566 65.4703 109.605 63.8259 110.929C62.1815 112.252 59.8964 112.799 57.866 112.221C55.8356 111.644 54.1449 109.89 53.7975 107.812C55.2257 108.466 56.6848 109.12 58.2365 109.351C61.5562 109.851 65.092 108.181 66.8136 105.311C66.7364 105.388 66.6592 105.473 66.5897 105.549" fill="#262626"/>
</g>
<path d="M34.9141 99.1393L48.9415 105.696C48.9415 105.696 54.6621 93.083 55.1562 91.3593C55.6503 89.6355 57.1943 86.9037 55.6117 83.3099C54.029 79.7162 49.7907 78.3926 47.4438 79.924C42.1941 83.3484 34.9141 99.1393 34.9141 99.1393Z" fill="#B71010"/>
<path d="M79.0268 99.801C79.683 99.801 87.2023 103.726 87.2023 103.726L91.487 89.5815C85.087 85.3337 79.8451 80.4779 76.1008 79.4775L78.0695 91.1668L79.0268 99.801Z" fill="#B71010"/>
<path d="M34.9141 99.1392C34.9141 99.1392 35.0144 99.1623 35.192 99.2392C35.4004 99.3239 35.6552 99.4316 35.9717 99.5701C36.6743 99.878 37.6393 100.309 38.805 100.824C41.2214 101.925 44.4947 103.41 48.1155 105.057C48.5015 105.234 48.8875 105.411 49.2503 105.58L49.0728 105.642C50.694 102.317 52.1145 99.3393 53.1181 97.1923C53.6045 96.138 53.9982 95.2838 54.2915 94.6528C54.4228 94.3758 54.5231 94.1449 54.6081 93.9679C54.6853 93.814 54.7239 93.7294 54.7316 93.7371C54.7393 93.7371 54.7162 93.8294 54.6544 93.991C54.5926 94.1526 54.5077 94.3912 54.3842 94.699C54.1371 95.3069 53.7666 96.1919 53.2879 97.2769C52.3229 99.447 50.9333 102.441 49.3198 105.773L49.2658 105.888L49.1422 105.834L48.0074 105.311C44.4021 103.641 41.1365 102.125 38.7278 101.009C37.5698 100.455 36.6202 100.009 35.9254 99.6779C35.6166 99.524 35.3696 99.4008 35.1688 99.3008C34.999 99.2162 34.9064 99.1623 34.9141 99.1546V99.1392Z" fill="#1A2E35"/>
<path d="M77.7375 88.1887C77.7375 88.1887 77.8533 88.4965 78.0309 89.0583C78.2161 89.6662 78.4632 90.4666 78.772 91.4439C79.3819 93.4524 80.262 96.2919 80.3083 99.5548C80.2851 101.186 79.9532 102.71 79.5594 104.057C79.1657 105.403 78.718 106.581 78.3319 107.566C77.9459 108.551 77.614 109.336 77.3824 109.882C77.1508 110.428 77.0195 110.728 77.0041 110.721C76.9964 110.721 77.0195 110.636 77.0658 110.49C77.1276 110.313 77.1971 110.105 77.2897 109.843C77.5136 109.251 77.807 108.458 78.1621 107.496C78.5249 106.504 78.9573 105.326 79.3278 103.987C79.6984 102.648 80.0226 101.148 80.0458 99.5548C80.0072 96.3535 79.158 93.5216 78.5944 91.4977C78.3088 90.4819 78.0772 89.6585 77.9382 89.0814C77.8687 88.7967 77.8147 88.5735 77.7838 88.4196C77.7529 88.2657 77.7375 88.1887 77.7452 88.181L77.7375 88.1887Z" fill="#1A2E35"/>
<path d="M65.8794 85.3722C65.6632 83.3176 64.5747 81.4091 63.1079 79.947C62.3822 79.2236 61.5098 78.4926 61.3631 77.4768C61.1779 76.1609 62.3282 74.9219 62.1352 73.606C61.9036 71.9592 59.8423 71.2513 59.1012 69.7584C58.113 67.7576 59.8346 65.1565 58.7769 63.1942C58.1361 62.0091 56.6076 61.3781 56.2988 60.0622C56.098 59.2157 57.7193 57.9768 58.0975 56.1376C58.9468 52.0052 59.3714 48.8039 55.3492 46.3952L52.9946 43.1786C50.3543 44.4637 48.1386 47.3495 48.1 50.3661C48.0768 51.7897 48.8103 53.221 48.1849 54.5062C47.3126 56.2992 45.2899 57.3996 44.68 59.2927C43.8076 62.0014 46.2163 65.0334 45.1586 67.6806C44.541 69.2428 42.9044 70.1354 41.8776 71.4667C40.2718 73.5522 40.4339 76.7996 42.2482 78.7081C39.6851 80.4318 38.4962 83.9409 39.4921 86.8574C39.909 88.081 40.8585 89.2969 42.1555 89.3738C44.0161 89.4739 45.0737 87.3807 46.4325 86.111C48.5478 84.141 52.2534 84.241 54.2606 86.3188C55.6889 87.7963 56.2679 90.0202 57.9354 91.2284C59.6107 92.4443 62.1043 92.2288 63.7178 90.9206C65.3313 89.6201 66.0724 87.4192 65.8562 85.3569L65.8794 85.3722Z" fill="#1A2E35"/>
<path d="M47.5674 104.803C44.9116 109.159 43.0588 111.66 43.0588 111.66L66.8908 126.127L64.1116 132.553L33.2003 119.878C33.2003 119.878 30.1508 116.754 31.2316 113.268L36.1571 99.7087L47.5674 104.803Z" fill="#FFBF9D"/>
<path d="M37.261 113.868C37.3151 113.945 38.4422 112.999 40.1098 112.391C41.7773 111.767 43.2441 111.744 43.2364 111.652C43.2518 111.583 41.731 111.467 40.0094 112.114C38.2801 112.745 37.207 113.822 37.261 113.868Z" fill="#FF9A6C"/>
<path d="M85.3727 130.536L79.4282 127.704L67.8326 126.789L66.8831 126.135L64.1038 132.56C64.1038 132.56 67.1455 134.007 68.7359 134.138L78.4864 133.845L83.5816 134.376L85.365 130.536H85.3727Z" fill="#FFBF9D"/>
<path d="M118.808 107.712L85.3727 107.981C84.2842 107.981 83.2497 108.497 83.0875 109.566L79.4359 133.861H62.2124C61.6565 133.861 61.2088 134.307 61.2088 134.861C61.2088 135.415 61.6565 135.861 62.2124 135.861H117.218L120.978 110.22C121.179 108.897 120.152 107.704 118.808 107.704V107.712Z" fill="#E1E1E1"/>
<path d="M118.808 107.712C118.808 107.712 118.994 107.689 119.333 107.758C119.665 107.835 120.198 108.043 120.607 108.604C120.816 108.881 120.97 109.243 121.024 109.666C121.078 110.097 120.955 110.551 120.901 111.036C120.762 112.021 120.6 113.152 120.422 114.422C119.689 119.516 118.623 126.858 117.318 135.877L117.303 135.961H117.21C102.975 135.969 84.2687 135.985 63.8413 135.992H62.4054C62.1815 136 61.8727 135.992 61.6488 135.846C61.4095 135.715 61.2242 135.5 61.1316 135.246C60.9308 134.738 61.1702 134.115 61.6488 133.861C61.8804 133.722 62.1815 133.714 62.4054 133.722H63.1156C64.9993 133.722 66.8676 133.722 68.705 133.722C72.3875 133.722 75.9696 133.722 79.4282 133.722L79.297 133.83C80.6094 125.126 81.8369 117.015 82.9409 109.736C82.9795 109.274 83.1879 108.774 83.5585 108.466C83.9213 108.143 84.3845 107.973 84.84 107.904C85.3032 107.835 85.751 107.873 86.191 107.858C86.6311 107.858 87.0711 107.858 87.5034 107.85C89.2405 107.835 90.9157 107.827 92.5369 107.82C95.7717 107.796 98.7671 107.781 101.485 107.766C106.912 107.735 111.243 107.719 114.223 107.704C115.705 107.704 116.848 107.704 117.627 107.704C118.006 107.704 118.299 107.704 118.507 107.704C118.708 107.704 118.808 107.712 118.808 107.712C118.808 107.712 118.708 107.719 118.507 107.727C118.299 107.727 118.013 107.735 117.627 107.743C116.848 107.75 115.697 107.773 114.223 107.789C111.243 107.82 106.912 107.873 101.485 107.927C98.7671 107.95 95.7717 107.981 92.5369 108.012C90.9157 108.027 89.2405 108.043 87.5034 108.058C87.0711 108.058 86.6311 108.066 86.191 108.073C85.751 108.089 85.2955 108.058 84.8786 108.12C84.454 108.189 84.0294 108.351 83.7129 108.635C83.3809 108.92 83.2111 109.32 83.1725 109.774C82.0839 117.054 80.8641 125.173 79.5672 133.876L79.5517 133.984H79.4359C75.9773 133.984 72.3952 133.984 68.7127 133.984C66.8753 133.984 65.0071 133.984 63.1233 133.984H62.4131C62.1661 133.984 61.9808 133.984 61.7878 134.091C61.4249 134.284 61.2396 134.761 61.394 135.146C61.4635 135.338 61.6025 135.507 61.7878 135.607C61.9731 135.715 62.1661 135.723 62.4131 135.715C62.8917 135.715 63.3704 135.715 63.849 135.715C84.2764 135.731 102.982 135.738 117.218 135.746L117.118 135.831C118.461 126.812 119.55 119.478 120.306 114.384C120.499 113.114 120.669 111.983 120.816 111.005C120.877 110.513 121.001 110.067 120.955 109.659C120.908 109.251 120.762 108.889 120.569 108.62C120.175 108.066 119.658 107.858 119.333 107.773C118.994 107.689 118.816 107.704 118.816 107.696L118.808 107.712Z" fill="#1A2E35"/>
<path d="M100.674 123.564C101.829 123.564 102.766 122.631 102.766 121.479C102.766 120.327 101.829 119.393 100.674 119.393C99.5185 119.393 98.5818 120.327 98.5818 121.479C98.5818 122.631 99.5185 123.564 100.674 123.564Z" fill="white"/>
<path d="M80.7869 135.638C80.8333 135.646 81.8986 129.459 83.1647 121.825C84.4308 114.184 85.419 107.989 85.3727 107.981C85.3264 107.973 84.261 114.16 82.9949 121.794C81.7288 129.428 80.7406 135.631 80.7869 135.638Z" fill="#1A2E35"/>
</g>
<rect y="120" width="32" height="32" rx="4" fill="#00194F"/>
<path d="M17.9233 130.364V142H15.8153V132.415H15.7472L13.0256 134.153V132.222L15.9176 130.364H17.9233Z" fill="white"/>
<defs>
<clipPath id="clip0_642_1865">
<rect width="94" height="97" fill="white" transform="translate(31 39)"/>
</clipPath>
</defs>
</svg>
