<svg width="152" height="152" viewBox="0 0 152 152" fill="none" xmlns="http://www.w3.org/2000/svg">
<path d="M152 127.074H1.00201V127.164H152V127.074Z" fill="#ECECEC"/>
<path d="M148.707 132.888H136.743V132.978H148.707V132.888Z" fill="#ECECEC"/>
<path d="M105.838 133.868H102.698V133.958H105.838V133.868Z" fill="#ECECEC"/>
<path d="M136.381 129.533H129.449V129.623H136.381V129.533Z" fill="#ECECEC"/>
<path d="M20.75 130.141H5.14801V130.231H20.75V130.141Z" fill="#ECECEC"/>
<path d="M26.254 130.141H23.966V130.231H26.254V130.141Z" fill="#ECECEC"/>
<path d="M67.524 131.665H33.688V131.755H67.524V131.665Z" fill="#ECECEC"/>
<path d="M71.81 110.969H2.06201C1.79093 110.969 1.5225 110.916 1.27213 110.812C1.02175 110.708 0.794317 110.556 0.602816 110.364C0.411315 110.172 0.259505 109.944 0.156069 109.693C0.0526327 109.443 -0.00039206 109.174 2.18234e-06 108.903V10.8603C0.000531688 10.3136 0.21794 9.78945 0.604525 9.40286C0.99111 9.01628 1.5153 8.79887 2.06201 8.79834H71.81C72.3567 8.79887 72.8809 9.01628 73.2675 9.40286C73.654 9.78945 73.8715 10.3136 73.872 10.8603V108.903C73.8724 109.174 73.8194 109.443 73.7159 109.693C73.6125 109.944 73.4607 110.172 73.2692 110.364C73.0777 110.556 72.8502 110.708 72.5999 110.812C72.3495 110.916 72.0811 110.969 71.81 110.969ZM2.06201 8.88834C1.53925 8.88913 1.03811 9.09715 0.668459 9.4668C0.298809 9.83645 0.090792 10.3376 0.0899985 10.8603V108.903C0.0907926 109.426 0.298842 109.927 0.66852 110.297C1.0382 110.666 1.53934 110.874 2.06201 110.874H71.81C72.3326 110.874 72.8336 110.666 73.2031 110.296C73.5726 109.927 73.7805 109.426 73.781 108.903V10.8603C73.7805 10.3377 73.5727 9.83654 73.2032 9.46686C72.8337 9.09718 72.3327 8.88913 71.81 8.88834H2.06201Z" fill="#ECECEC"/>
<path d="M149.938 110.969H80.19C79.6434 110.969 79.1192 110.752 78.7326 110.365C78.346 109.979 78.1285 109.455 78.128 108.908V10.8603C78.1285 10.3136 78.346 9.78945 78.7325 9.40286C79.1191 9.01628 79.6433 8.79887 80.19 8.79834H149.938C150.485 8.79887 151.009 9.01628 151.395 9.40286C151.782 9.78945 151.999 10.3136 152 10.8603V108.903C152 109.174 151.947 109.443 151.844 109.693C151.74 109.944 151.589 110.172 151.397 110.364C151.206 110.556 150.978 110.708 150.728 110.812C150.477 110.916 150.209 110.969 149.938 110.969ZM80.19 8.88834C79.6673 8.88913 79.1663 9.09718 78.7968 9.46686C78.4273 9.83654 78.2195 10.3377 78.219 10.8603V108.903C78.2195 109.426 78.4274 109.927 78.7969 110.296C79.1664 110.666 79.6674 110.874 80.19 110.874H149.938C150.461 110.874 150.962 110.666 151.331 110.297C151.701 109.927 151.909 109.426 151.91 108.903V10.8603C151.909 10.3376 151.701 9.83645 151.332 9.4668C150.962 9.09715 150.461 8.88913 149.938 8.88834H80.19Z" fill="#ECECEC"/>
<path d="M37.089 0.0502711C37.0493 0.0161847 36.9983 -0.00172245 36.946 0.000130717C36.8938 0.00198388 36.8442 0.0234559 36.807 0.0602656L34.16 2.70727L33.424 1.97227C32.8639 1.41225 32.199 0.968028 31.4673 0.664971C30.7355 0.361915 29.9512 0.205956 29.1592 0.206002C28.3671 0.206049 27.5828 0.362088 26.8511 0.665231C26.1194 0.968373 25.4545 1.41268 24.8945 1.97277C24.3345 2.53286 23.8903 3.19776 23.5872 3.92953C23.2841 4.66129 23.1282 5.44558 23.1282 6.23762C23.1283 7.02966 23.2843 7.81393 23.5875 8.54566C23.8906 9.27739 24.3349 9.94224 24.895 10.5023L25.63 11.2373L22.983 13.8843C22.9458 13.9213 22.924 13.9711 22.9219 14.0236C22.9199 14.0761 22.9377 14.1274 22.972 14.1673L35.472 28.7263C35.4904 28.7475 35.513 28.7648 35.5384 28.777C35.5637 28.7891 35.5913 28.796 35.6194 28.7971C35.6475 28.7983 35.6755 28.7936 35.7018 28.7835C35.728 28.7734 35.7519 28.758 35.772 28.7383L51.656 12.8553C51.6753 12.835 51.6904 12.811 51.7003 12.7848C51.7101 12.7586 51.7147 12.7307 51.7135 12.7027C51.7124 12.6747 51.7057 12.6473 51.6937 12.6219C51.6818 12.5966 51.6649 12.5739 51.644 12.5553L37.089 0.0502711ZM26.071 9.32526C25.252 8.50614 24.792 7.39524 24.7921 6.23692C24.7922 5.0786 25.2524 3.96776 26.0715 3.14877C26.8906 2.32978 28.0015 1.86973 29.1599 1.86982C30.3182 1.86991 31.429 2.33015 32.248 3.14927L32.983 3.88427L26.806 10.0613L26.071 9.32526ZM30.336 14.7693C29.9457 15.1587 29.4169 15.3774 28.8655 15.3774C28.3142 15.3774 27.7853 15.1587 27.395 14.7693C27.0952 14.4921 26.8892 14.1284 26.8056 13.7287C26.7221 13.3291 26.7652 12.9133 26.929 12.5393L28.277 13.8863C28.4337 14.0386 28.6441 14.1232 28.8626 14.1217C29.0812 14.1201 29.2904 14.0327 29.445 13.8782C29.5996 13.7238 29.6872 13.5147 29.6889 13.2961C29.6906 13.0776 29.6062 12.8671 29.454 12.7103L28.107 11.3633C28.4809 11.2001 28.8963 11.1571 29.2956 11.2404C29.695 11.3238 30.0586 11.5292 30.336 11.8283C30.7254 12.2186 30.9441 12.7474 30.9441 13.2988C30.9441 13.8501 30.7254 14.379 30.336 14.7693ZM37.689 7.41627C37.2986 7.80544 36.7698 8.02396 36.2185 8.02396C35.6672 8.02396 35.1384 7.80544 34.748 7.41627C34.448 7.13901 34.242 6.77506 34.1586 6.37515C34.0753 5.97523 34.1187 5.55929 34.283 5.18527L35.63 6.53327C35.7867 6.68561 35.9971 6.77014 36.2156 6.76864C36.4342 6.76714 36.6434 6.67971 36.798 6.52523C36.9526 6.37076 37.0402 6.16164 37.0419 5.94309C37.0436 5.72455 36.9592 5.51411 36.807 5.35726L35.46 4.01026C35.8338 3.84693 36.2491 3.80386 36.6485 3.88699C37.0478 3.97012 37.4114 4.17535 37.689 4.47427C38.0779 4.86467 38.2962 5.39324 38.2962 5.94427C38.2962 6.49529 38.0779 7.02387 37.689 7.41427V7.41627Z" fill="#ECECEC"/>
<path d="M151.844 34.5586C151.898 34.4749 151.919 34.374 151.903 34.2755C151.887 34.1771 151.834 34.0883 151.756 34.0266L146.112 29.6456L147.329 28.0776C148.267 26.8845 148.96 25.5177 149.368 24.0559C149.775 22.594 149.89 21.066 149.705 19.5596C149.52 18.0533 149.039 16.5984 148.289 15.2787C147.54 13.959 146.537 12.8006 145.338 11.87C144.139 10.9394 142.768 10.2551 141.304 9.85642C139.839 9.45774 138.311 9.35257 136.805 9.54697C135.3 9.74136 133.848 10.2315 132.533 10.9891C131.218 11.7468 130.066 12.757 129.143 13.9616L127.926 15.5296L122.282 11.1486C122.203 11.0878 122.103 11.0589 122.004 11.0676C121.904 11.0763 121.812 11.122 121.744 11.1956L97.158 38.3396C97.1217 38.3803 97.0942 38.4281 97.0771 38.4798C97.0599 38.5316 97.0535 38.5863 97.0583 38.6406C97.0631 38.6949 97.0789 38.7477 97.1048 38.7957C97.1308 38.8437 97.1662 38.8858 97.209 38.9196L131.073 65.2046C131.117 65.2375 131.167 65.2611 131.22 65.2739C131.273 65.2868 131.328 65.2885 131.382 65.2792C131.436 65.2698 131.487 65.2495 131.533 65.2194C131.579 65.1894 131.618 65.1503 131.648 65.1046L151.844 34.5586ZM131.651 15.9086C132.319 15.0341 133.153 14.3005 134.106 13.75C135.058 13.1995 136.11 12.843 137.201 12.7011C138.292 12.5592 139.401 12.6347 140.463 12.9233C141.524 13.2118 142.518 13.7077 143.388 14.3823C144.257 15.0569 144.984 15.8969 145.527 16.8539C146.07 17.8108 146.418 18.8658 146.551 19.9579C146.684 21.0501 146.6 22.1578 146.303 23.2172C146.006 24.2766 145.502 25.2668 144.821 26.1306L143.604 27.6986L130.434 17.4766L131.651 15.9086ZM122.365 25.2826C121.535 24.6363 120.995 23.6869 120.863 22.6429C120.732 21.5988 121.02 20.5453 121.665 19.7136C122.118 19.0794 122.758 18.6024 123.495 18.3489C124.232 18.0955 125.03 18.0782 125.777 18.2996L123.546 21.1736C123.416 21.3381 123.319 21.5268 123.262 21.7289C123.205 21.9309 123.189 22.1423 123.214 22.3507C123.239 22.5591 123.305 22.7604 123.409 22.9431C123.512 23.1257 123.651 23.286 123.817 23.4147C123.983 23.5434 124.172 23.6379 124.375 23.6928C124.578 23.7478 124.789 23.7619 124.997 23.7346C125.205 23.7072 125.406 23.6389 125.588 23.5335C125.769 23.4281 125.928 23.2878 126.055 23.1206L128.284 20.2486C128.682 20.9177 128.862 21.694 128.8 22.47C128.738 23.2461 128.436 23.9836 127.936 24.5806C127.29 25.4117 126.34 25.9523 125.296 26.0839C124.251 26.2156 123.197 25.9274 122.365 25.2826ZM138.043 37.4516C137.213 36.8053 136.673 35.8559 136.541 34.8119C136.41 33.7678 136.698 32.7143 137.343 31.8826C137.796 31.2485 138.435 30.7715 139.172 30.518C139.909 30.2646 140.707 30.2473 141.454 30.4686L139.224 33.3426C139.09 33.5067 138.99 33.6959 138.931 33.8991C138.871 34.1024 138.852 34.3155 138.876 34.526C138.9 34.7364 138.966 34.94 139.07 35.1247C139.173 35.3094 139.313 35.4715 139.48 35.6014C139.648 35.7312 139.839 35.8263 140.044 35.8811C140.248 35.9358 140.462 35.949 140.672 35.92C140.882 35.8909 141.084 35.8202 141.266 35.7119C141.448 35.6037 141.606 35.4601 141.732 35.2896L143.961 32.4176C144.359 33.0866 144.54 33.8628 144.478 34.6389C144.416 35.415 144.114 36.1525 143.614 36.7496C142.968 37.5807 142.018 38.1213 140.974 38.2529C139.929 38.3846 138.875 38.0964 138.043 37.4516Z" fill="#ECECEC"/>
<path d="M101.255 96.048C101.301 95.9784 101.319 95.894 101.306 95.8117C101.292 95.7293 101.248 95.6551 101.182 95.604L96.469 91.946L97.485 90.637C99.0479 88.6233 99.7469 86.0713 99.4282 83.5423C99.1095 81.0132 97.7991 78.7144 95.7855 77.1515C93.7718 75.5886 91.2198 74.8896 88.6908 75.2083C86.1617 75.527 83.8629 76.8373 82.3 78.851L81.284 80.16L76.572 76.502C76.5059 76.4507 76.4229 76.4263 76.3396 76.4337C76.2563 76.4412 76.1789 76.4798 76.123 76.542L55.6 99.205C55.5694 99.2387 55.5461 99.2784 55.5316 99.3216C55.5172 99.3649 55.5118 99.4106 55.516 99.456C55.52 99.5014 55.5332 99.5454 55.5549 99.5855C55.5766 99.6256 55.6062 99.6608 55.642 99.689L83.917 121.635C83.953 121.663 83.9944 121.683 84.0386 121.694C84.0827 121.705 84.1288 121.707 84.1737 121.7C84.2187 121.693 84.2616 121.676 84.2999 121.651C84.3381 121.626 84.3709 121.594 84.396 121.556L101.255 96.048ZM84.395 80.477C84.9553 79.7547 85.6525 79.1499 86.4466 78.697C87.2407 78.2442 88.1162 77.9522 89.0231 77.8377C89.9301 77.7232 90.8507 77.7884 91.7324 78.0297C92.6141 78.271 93.4397 78.6836 94.162 79.244C94.8842 79.8043 95.4891 80.5015 95.9419 81.2956C96.3948 82.0897 96.6868 82.9652 96.8013 83.8721C96.9158 84.7791 96.8505 85.6997 96.6092 86.5814C96.3679 87.4631 95.9553 88.2887 95.395 89.011L94.379 90.32L83.379 81.786L84.395 80.477ZM76.642 88.303C75.9485 87.7634 75.4974 86.9709 75.3876 86.0991C75.2777 85.2274 75.5181 84.3477 76.056 83.653C76.4347 83.1237 76.9689 82.7256 77.5844 82.5141C78.1999 82.3026 78.8659 82.2883 79.49 82.473L77.627 84.873C77.4136 85.151 77.319 85.5021 77.3637 85.8497C77.4085 86.1973 77.589 86.513 77.8658 86.7279C78.1427 86.9427 78.4933 87.0393 78.8411 86.9964C79.189 86.9535 79.5056 86.7747 79.722 86.499L81.583 84.099C81.9154 84.6577 82.0659 85.3059 82.0138 85.9538C81.9616 86.6018 81.7094 87.2176 81.292 87.716C80.7527 88.4098 79.9602 88.8613 79.0884 88.9713C78.2166 89.0814 77.3367 88.841 76.642 88.303ZM89.732 98.464C89.0385 97.9244 88.5874 97.1318 88.4776 96.2601C88.3677 95.3884 88.6081 94.5087 89.146 93.814C89.5247 93.2848 90.0589 92.8866 90.6744 92.675C91.2898 92.4633 91.9558 92.4487 92.58 92.633L90.717 95.033C90.6103 95.1705 90.5317 95.3276 90.4858 95.4955C90.4398 95.6634 90.4273 95.8386 90.4491 96.0113C90.4709 96.184 90.5265 96.3507 90.6127 96.5019C90.6989 96.653 90.814 96.7858 90.9515 96.8925C91.089 96.9992 91.2462 97.0777 91.414 97.1237C91.5819 97.1697 91.7571 97.1821 91.9298 97.1603C92.1025 97.1386 92.2692 97.083 92.4204 96.9968C92.5716 96.9106 92.7043 96.7955 92.811 96.658L94.673 94.258C95.0054 94.8167 95.1559 95.4649 95.1038 96.1128C95.0516 96.7608 94.7994 97.3766 94.382 97.875C93.8434 98.5694 93.0515 99.0219 92.1798 99.1333C91.3081 99.2446 90.4278 99.0057 89.732 98.469V98.464Z" fill="#ECECEC"/>
<path d="M42.531 117.535C42.5825 117.568 42.6448 117.581 42.7055 117.571C42.7662 117.561 42.821 117.529 42.859 117.481L45.559 114.006L46.524 114.755C48.0092 115.907 49.8913 116.422 51.7564 116.187C53.6214 115.951 55.3166 114.985 56.469 113.5C57.6213 112.014 58.1365 110.132 57.9012 108.267C57.6658 106.402 56.6992 104.707 55.214 103.555L54.249 102.806L56.949 99.3305C56.9869 99.2819 57.0049 99.2207 56.9995 99.1593C56.9942 99.0979 56.9657 99.0409 56.92 98.9995L40.2 83.8695C40.1748 83.8471 40.1453 83.83 40.1134 83.8194C40.0814 83.8087 40.0476 83.8047 40.014 83.8075C39.9805 83.8105 39.9481 83.8204 39.9186 83.8366C39.8892 83.8528 39.8634 83.8749 39.843 83.9015L23.661 104.749C23.6404 104.775 23.6254 104.806 23.6172 104.839C23.6089 104.871 23.6075 104.905 23.613 104.939C23.6183 104.972 23.6305 105.003 23.6487 105.032C23.667 105.06 23.6909 105.084 23.719 105.103L42.531 117.535ZM54.013 105.103C55.0747 105.942 55.762 107.166 55.9253 108.51C56.0886 109.853 55.7146 111.206 54.8849 112.275C54.0552 113.344 52.8368 114.043 51.4949 114.218C50.153 114.393 48.7963 114.031 47.72 113.211L46.755 112.462L53.048 104.354L54.013 105.103ZM48.242 99.3865C48.6396 98.8748 49.2241 98.5419 49.8671 98.4608C50.5101 98.3798 51.1589 98.5574 51.671 98.9545C52.061 99.2337 52.3544 99.6275 52.5103 100.081C52.6662 100.535 52.6769 101.026 52.541 101.486L50.772 100.113C50.6706 100.034 50.5547 99.9757 50.4309 99.9417C50.3071 99.9077 50.1778 99.8984 50.0504 99.9144C49.923 99.9303 49.8 99.9713 49.6884 100.035C49.5768 100.098 49.4788 100.183 49.4 100.285C49.3212 100.386 49.2631 100.502 49.2291 100.626C49.1951 100.749 49.1859 100.879 49.2018 101.006C49.2178 101.134 49.2587 101.257 49.3222 101.368C49.3857 101.48 49.4706 101.578 49.572 101.657L51.34 103.029C50.9281 103.274 50.4502 103.385 49.9724 103.347C49.4946 103.308 49.0405 103.122 48.673 102.815C48.1617 102.417 47.8291 101.832 47.7483 101.19C47.6675 100.547 47.8451 99.8985 48.242 99.3865ZM40.75 109.038C41.1479 108.526 41.7324 108.194 42.3752 108.113C43.018 108.032 43.6667 108.209 44.179 108.606C44.5692 108.885 44.8627 109.279 45.0186 109.732C45.1746 110.186 45.1852 110.677 45.049 111.138L43.28 109.765C43.1786 109.686 43.0627 109.628 42.9389 109.594C42.8151 109.56 42.6858 109.55 42.5584 109.566C42.431 109.582 42.308 109.623 42.1964 109.687C42.0848 109.75 41.9868 109.835 41.908 109.937C41.8292 110.038 41.7711 110.154 41.7371 110.278C41.7031 110.401 41.6939 110.531 41.7098 110.658C41.7258 110.786 41.7667 110.909 41.8302 111.02C41.8937 111.132 41.9786 111.23 42.08 111.309L43.848 112.681C43.4361 112.926 42.9582 113.037 42.4804 112.999C42.0026 112.96 41.5485 112.774 41.181 112.467C40.6699 112.068 40.3374 111.484 40.2566 110.841C40.1758 110.198 40.3533 109.55 40.75 109.038Z" fill="#F5F5F5"/>
<path d="M14.013 10.1824C14.7608 10.1829 15.4893 10.4195 16.0948 10.8583C16.7002 11.2972 17.1518 11.9159 17.385 12.6264L17.575 13.2074L19.666 12.5244C19.6783 12.5204 19.6911 12.5184 19.704 12.5183C19.7282 12.5181 19.7519 12.5252 19.772 12.5385C19.7922 12.5519 19.8078 12.571 19.817 12.5934L24.123 23.0163C24.1299 23.0321 24.1335 23.0491 24.1335 23.0664C24.1335 23.0836 24.1299 23.1006 24.123 23.1164C24.1161 23.1317 24.106 23.1454 24.0934 23.1566C24.0808 23.1678 24.066 23.1763 24.05 23.1814L11.502 27.2813C11.4857 27.287 11.4683 27.2891 11.4511 27.2875C11.4338 27.286 11.4171 27.2808 11.402 27.2724C11.3872 27.2641 11.3743 27.253 11.3639 27.2396C11.3536 27.2261 11.3462 27.2108 11.342 27.1944L8.66301 16.2394C8.6557 16.2094 8.66 16.1778 8.67503 16.1509C8.69005 16.1241 8.71468 16.1038 8.744 16.0944L10.835 15.4114L10.645 14.8304C10.4716 14.2983 10.4266 13.7328 10.5136 13.1801C10.6005 12.6273 10.817 12.103 11.1454 11.6499C11.4737 11.1968 11.9046 10.8279 12.4028 10.5732C12.9011 10.3184 13.4525 10.1852 14.012 10.1843L14.013 10.1824ZM11.765 15.1074L16.644 13.5134L16.454 12.9324C16.3494 12.612 16.1826 12.3154 15.9633 12.0595C15.744 11.8036 15.4765 11.5933 15.1759 11.4408C14.8754 11.2883 14.5478 11.1965 14.2117 11.1706C13.8757 11.1447 13.5379 11.1852 13.2175 11.2898C12.8972 11.3945 12.6005 11.5613 12.3446 11.7806C12.0887 11.9998 11.8785 12.2674 11.726 12.5679C11.5734 12.8685 11.4816 13.1961 11.4557 13.5321C11.4298 13.8682 11.4704 14.206 11.575 14.5264L11.765 15.1074ZM17.793 15.9414C17.6898 15.9413 17.5892 15.9087 17.5055 15.8482C17.4218 15.7877 17.3594 15.7024 17.327 15.6044L16.98 14.5394C16.7945 14.6918 16.6612 14.8982 16.5984 15.1299C16.5357 15.3617 16.5467 15.6072 16.63 15.8324C16.7307 16.1405 16.9496 16.3961 17.2387 16.5429C17.5278 16.6896 17.8633 16.7155 18.1715 16.6149C18.4797 16.5142 18.7353 16.2953 18.882 16.0062C19.0288 15.7171 19.0547 15.3815 18.954 15.0734C18.8881 14.8427 18.7521 14.6383 18.5649 14.4883C18.3777 14.3384 18.1485 14.2503 17.909 14.2364L18.257 15.3004C18.2971 15.4237 18.2867 15.5579 18.228 15.6735C18.1693 15.7892 18.0672 15.8769 17.944 15.9174C17.8952 15.933 17.8443 15.9411 17.793 15.9414ZM11.983 17.8414C11.8799 17.8411 11.7796 17.8084 11.6961 17.7479C11.6127 17.6874 11.5503 17.6022 11.518 17.5044L11.17 16.4394C10.985 16.5921 10.8519 16.7986 10.7894 17.0302C10.7269 17.2619 10.7379 17.5072 10.821 17.7324C10.9217 18.0405 11.1406 18.2961 11.4297 18.4429C11.7188 18.5896 12.0543 18.6155 12.3625 18.5149C12.6707 18.4142 12.9263 18.1953 13.073 17.9062C13.2198 17.6171 13.2456 17.2815 13.145 16.9734C13.0791 16.7427 12.9431 16.5383 12.7559 16.3883C12.5687 16.2384 12.3395 16.1503 12.1 16.1364L12.448 17.2004C12.4881 17.3237 12.4777 17.4579 12.419 17.5735C12.3603 17.6892 12.2582 17.7769 12.135 17.8174C12.0859 17.8332 12.0346 17.8413 11.983 17.8414ZM14.012 9.46436C13.3478 9.46533 12.6931 9.6212 12.0997 9.91961C11.5064 10.218 10.9908 10.6507 10.594 11.1834C10.1972 11.716 9.93011 12.3338 9.81398 12.9877C9.69784 13.6417 9.73586 14.3137 9.925 14.9504L8.51902 15.4094C8.31691 15.4766 8.14744 15.6174 8.04426 15.8037C7.94108 15.9901 7.91174 16.2084 7.96202 16.4154L10.64 27.3684C10.6853 27.5519 10.7908 27.7151 10.9396 27.8318C11.0883 27.9485 11.2719 28.0121 11.461 28.0124C11.55 28.0124 11.6385 27.9982 11.723 27.9704L24.271 23.8704C24.3815 23.8344 24.4834 23.7759 24.5703 23.6987C24.6572 23.6215 24.7272 23.5272 24.7759 23.4217C24.8246 23.3161 24.851 23.2017 24.8535 23.0855C24.8559 22.9693 24.8343 22.8538 24.79 22.7464L20.484 12.3214C20.4026 12.1245 20.2498 11.9656 20.0562 11.8766C19.8626 11.7876 19.6425 11.775 19.44 11.8414L18.04 12.3004C17.7453 11.4695 17.2001 10.7505 16.4796 10.2425C15.759 9.73458 14.8986 9.4627 14.017 9.46436H14.012ZM12.23 14.1973C12.1089 13.742 12.1668 13.2575 12.3916 12.8435C12.6165 12.4294 12.9913 12.1171 13.4392 11.9707C13.8871 11.8243 14.374 11.8549 14.8 12.0563C15.226 12.2576 15.5588 12.6144 15.73 13.0534L12.23 14.1973Z" fill="#ECECEC"/>
<path d="M76.501 143.387C115.18 143.387 146.535 141.556 146.535 139.297C146.535 137.038 115.18 135.207 76.501 135.207C37.8223 135.207 6.46701 137.038 6.46701 139.297C6.46701 141.556 37.8223 143.387 76.501 143.387Z" fill="#F5F5F5"/>
<path d="M141.96 24.0995V100.929C141.96 101.634 141.821 102.332 141.551 102.983C141.28 103.634 140.885 104.225 140.386 104.723C139.887 105.22 139.295 105.615 138.644 105.884C137.993 106.153 137.295 106.291 136.59 106.289H16.41C14.9874 106.29 13.6229 105.725 12.6161 104.72C11.6092 103.716 11.0424 102.352 11.04 100.929V24.0995C11.0419 22.6758 11.6082 21.311 12.6149 20.3044C13.6215 19.2977 14.9864 18.7313 16.41 18.7295H136.59C138.014 18.7298 139.38 19.2956 140.387 20.3026C141.394 21.3096 141.96 22.6754 141.96 24.0995Z" fill="white"/>
<path d="M143.419 78.4012H143.058V75.1372H143.419V78.4012ZM143.419 72.5862H143.058V65.8462H143.419V72.5862Z" fill="#C0C7CD"/>
<path d="M136.61 106.489H16.392C14.9219 106.488 13.5124 105.903 12.4728 104.863C11.4333 103.824 10.8486 102.414 10.847 100.944V24.0831C10.8486 22.6129 11.4333 21.2035 12.4728 20.1639C13.5124 19.1244 14.9219 18.5397 16.392 18.5381H136.61C138.08 18.5397 139.49 19.1244 140.529 20.1639C141.569 21.2035 142.153 22.6129 142.155 24.0831V100.944C142.153 102.414 141.569 103.824 140.529 104.863C139.49 105.903 138.08 106.488 136.61 106.489ZM16.392 18.9291C15.0256 18.9307 13.7155 19.4742 12.7493 20.4404C11.7831 21.4066 11.2396 22.7166 11.238 24.0831V100.944C11.2396 102.311 11.7831 103.621 12.7493 104.587C13.7155 105.553 15.0256 106.097 16.392 106.098H136.61C137.977 106.097 139.287 105.553 140.253 104.587C141.219 103.621 141.763 102.311 141.765 100.944V24.0831C141.763 22.7166 141.219 21.4065 140.253 20.4404C139.287 19.4742 137.977 18.9307 136.61 18.9291H16.392Z" fill="#C0C7CD"/>
<path d="M21.388 24.3695C21.3878 24.7105 21.2865 25.0437 21.097 25.3271C20.9074 25.6104 20.6381 25.8313 20.3231 25.9616C20.008 26.0919 19.6614 26.1259 19.3271 26.0593C18.9927 25.9926 18.6856 25.8284 18.4446 25.5872C18.2036 25.3461 18.0395 25.0389 17.9731 24.7045C17.9066 24.3701 17.9408 24.0235 18.0713 23.7086C18.2018 23.3936 18.4228 23.1244 18.7063 22.935C18.9898 22.7456 19.3231 22.6445 19.664 22.6445C19.8905 22.6445 20.1147 22.6892 20.324 22.7759C20.5332 22.8626 20.7233 22.9896 20.8834 23.1498C21.0435 23.31 21.1705 23.5002 21.2571 23.7095C21.3436 23.9188 21.3881 24.1431 21.388 24.3695Z" fill="#C0C7CD"/>
<path opacity="0.2" d="M32.71 25.3764H24.251C23.9839 25.3756 23.728 25.2691 23.5391 25.0803C23.3503 24.8914 23.2438 24.6355 23.243 24.3684C23.2438 24.1012 23.3502 23.8452 23.5391 23.6561C23.7279 23.4671 23.9838 23.3604 24.251 23.3594H32.71C32.9774 23.3602 33.2336 23.4667 33.4226 23.6558C33.6117 23.8448 33.7182 24.101 33.719 24.3684C33.7179 24.6356 33.6113 24.8915 33.4222 25.0803C33.2332 25.2692 32.9772 25.3756 32.71 25.3764Z" fill="#C0C7CD"/>
<path opacity="0.2" d="M73.489 24.9214H67.554C67.4074 24.9214 67.2668 24.8633 67.163 24.7599C67.0591 24.6564 67.0005 24.516 67 24.3694C67 24.2228 67.0582 24.0821 67.162 23.9784C67.2657 23.8747 67.4063 23.8164 67.553 23.8164H73.488C73.5607 23.8163 73.6326 23.8305 73.6998 23.8582C73.7669 23.886 73.828 23.9267 73.8793 23.9781C73.9307 24.0295 73.9714 24.0905 73.9992 24.1576C74.0269 24.2248 74.0411 24.2968 74.041 24.3694C74.0407 24.5157 73.9825 24.656 73.879 24.7594C73.7756 24.8629 73.6353 24.9211 73.489 24.9214Z" fill="#C0C7CD"/>
<path opacity="0.2" d="M86.807 24.9214H80.872C80.7254 24.9212 80.5849 24.8628 80.4813 24.7592C80.3776 24.6555 80.3193 24.515 80.319 24.3684C80.319 24.2218 80.3772 24.0811 80.481 23.9774C80.5847 23.8737 80.7253 23.8154 80.872 23.8154H86.807C86.8797 23.8153 86.9516 23.8295 87.0188 23.8573C87.0859 23.885 87.147 23.9257 87.1983 23.9771C87.2497 24.0285 87.2904 24.0895 87.3182 24.1566C87.3459 24.2238 87.3601 24.2958 87.36 24.3684C87.36 24.5151 87.3017 24.6558 87.198 24.7595C87.0943 24.8632 86.9537 24.9214 86.807 24.9214Z" fill="#C0C7CD"/>
<path opacity="0.2" d="M100.126 24.9214H94.19C94.0434 24.9212 93.9029 24.8628 93.7993 24.7592C93.6956 24.6555 93.6373 24.515 93.637 24.3684C93.637 24.2218 93.6953 24.0811 93.799 23.9774C93.9027 23.8737 94.0433 23.8154 94.19 23.8154H100.126C100.273 23.8154 100.413 23.8737 100.517 23.9774C100.621 24.0811 100.679 24.2218 100.679 24.3684C100.679 24.515 100.62 24.6555 100.517 24.7592C100.413 24.8628 100.273 24.9212 100.126 24.9214Z" fill="#C0C7CD"/>
<path opacity="0.2" d="M113.444 24.9214H107.508C107.361 24.9212 107.221 24.8628 107.117 24.7592C107.014 24.6555 106.955 24.515 106.955 24.3684C106.955 24.2218 107.013 24.0811 107.117 23.9774C107.221 23.8737 107.361 23.8154 107.508 23.8154H113.444C113.591 23.8154 113.731 23.8737 113.835 23.9774C113.939 24.0811 113.997 24.2218 113.997 24.3684C113.997 24.515 113.938 24.6555 113.835 24.7592C113.731 24.8628 113.591 24.9212 113.444 24.9214Z" fill="#C0C7CD"/>
<path opacity="0.7" d="M130.486 25.3446H121.507C121.248 25.3446 121 25.2418 120.817 25.0587C120.634 24.8757 120.531 24.6275 120.531 24.3686C120.531 24.2404 120.556 24.1133 120.605 23.9948C120.654 23.8763 120.726 23.7686 120.816 23.6778C120.907 23.5871 121.015 23.5151 121.133 23.466C121.252 23.4169 121.379 23.3916 121.507 23.3916H130.486C130.614 23.3916 130.741 23.4169 130.86 23.466C130.978 23.5151 131.086 23.5871 131.176 23.6778C131.267 23.7686 131.339 23.8763 131.388 23.9948C131.437 24.1133 131.462 24.2404 131.462 24.3686C131.462 24.6275 131.359 24.8757 131.176 25.0587C130.993 25.2418 130.745 25.3446 130.486 25.3446Z" fill="#C0C7CD"/>
<path opacity="0.2" d="M133.991 71.3601V53.7972C133.991 53.6505 134.049 53.5098 134.153 53.4061C134.257 53.3024 134.397 53.2441 134.544 53.2441C134.617 53.244 134.689 53.2582 134.756 53.286C134.823 53.3137 134.884 53.3544 134.935 53.4058C134.987 53.4572 135.027 53.5182 135.055 53.5854C135.083 53.6525 135.097 53.7245 135.097 53.7972V71.3601C135.097 71.5068 135.039 71.6475 134.935 71.7512C134.831 71.8549 134.691 71.9131 134.544 71.9131C134.397 71.9129 134.257 71.8545 134.153 71.7509C134.05 71.6472 133.991 71.5067 133.991 71.3601Z" fill="#C0C7CD"/>
<path opacity="0.2" d="M134.544 76.9234C134.849 76.9234 135.097 76.6758 135.097 76.3704C135.097 76.065 134.849 75.8174 134.544 75.8174C134.239 75.8174 133.991 76.065 133.991 76.3704C133.991 76.6758 134.239 76.9234 134.544 76.9234Z" fill="#C0C7CD"/>
<path opacity="0.2" d="M134.544 84.731C134.849 84.731 135.097 84.4834 135.097 84.178C135.097 83.8726 134.849 83.625 134.544 83.625C134.239 83.625 133.991 83.8726 133.991 84.178C133.991 84.4834 134.239 84.731 134.544 84.731Z" fill="#C0C7CD"/>
<path opacity="0.2" d="M134.544 92.5396C134.849 92.5396 135.097 92.292 135.097 91.9866C135.097 91.6812 134.849 91.4336 134.544 91.4336C134.239 91.4336 133.991 91.6812 133.991 91.9866C133.991 92.292 134.239 92.5396 134.544 92.5396Z" fill="#C0C7CD"/>
<path d="M131.23 39.3993C131.227 40.8837 130.637 42.3066 129.587 43.3562C128.537 44.4058 127.114 44.9967 125.63 44.9993H23.77C22.2848 44.9993 20.8604 44.4093 19.8102 43.3591C18.76 42.3089 18.17 40.8845 18.17 39.3993C18.17 37.9141 18.76 36.4897 19.8102 35.4395C20.8604 34.3893 22.2848 33.7993 23.77 33.7993H125.63C127.115 33.7993 128.54 34.3893 129.59 35.4395C130.64 36.4897 131.23 37.9141 131.23 39.3993Z" fill="#F2F4F8"/>
<path d="M125.631 33.9782C127.068 33.9782 128.446 34.549 129.462 35.5651C130.478 36.5812 131.049 37.9593 131.049 39.3962C131.049 40.8332 130.478 42.2112 129.462 43.2273C128.446 44.2434 127.068 44.8142 125.631 44.8142H23.771C22.3341 44.8142 20.956 44.2434 19.9399 43.2273C18.9238 42.2112 18.353 40.8332 18.353 39.3962C18.353 37.9593 18.9238 36.5812 19.9399 35.5651C20.956 34.549 22.3341 33.9782 23.771 33.9782H125.631ZM125.631 33.6162H23.771C23.0056 33.6062 22.2459 33.7482 21.5359 34.0341C20.8258 34.3201 20.1797 34.7442 19.6349 35.2819C19.0901 35.8195 18.6575 36.4601 18.3622 37.1663C18.067 37.8725 17.915 38.6303 17.915 39.3957C17.915 40.1612 18.067 40.919 18.3622 41.6252C18.6575 42.3314 19.0901 42.9719 19.6349 43.5096C20.1797 44.0473 20.8258 44.4714 21.5359 44.7573C22.2459 45.0432 23.0056 45.1853 23.771 45.1752H125.631C127.151 45.1552 128.601 44.5375 129.669 43.4558C130.736 42.3741 131.335 40.9155 131.335 39.3957C131.335 37.8759 130.736 36.4173 129.669 35.3356C128.601 34.2539 127.151 33.6362 125.631 33.6162Z" fill="#C0C7CD"/>
<path d="M125.632 33.6162H108.293C105.101 33.6162 102.514 36.2036 102.514 39.3952V39.3962C102.514 42.5879 105.101 45.1752 108.293 45.1752H125.632C128.824 45.1752 131.411 42.5879 131.411 39.3962V39.3952C131.411 36.2036 128.824 33.6162 125.632 33.6162Z" fill="#C0C7CD"/>
<path d="M40.386 80.2305H18.713C18.3142 80.2305 17.991 80.5537 17.991 80.9525V80.9535C17.991 81.3522 18.3142 81.6755 18.713 81.6755H40.386C40.7847 81.6755 41.108 81.3522 41.108 80.9535V80.9525C41.108 80.5537 40.7847 80.2305 40.386 80.2305Z" fill="#ECECEC"/>
<path d="M34.607 83.8423H18.713C18.3142 83.8423 17.991 84.1655 17.991 84.5643V84.5653C17.991 84.964 18.3142 85.2873 18.713 85.2873H34.607C35.0057 85.2873 35.329 84.964 35.329 84.5653V84.5643C35.329 84.1655 35.0057 83.8423 34.607 83.8423Z" fill="#ECECEC"/>
<path d="M31.717 87.4541H18.713C18.3142 87.4541 17.991 87.7774 17.991 88.1761V88.1771C17.991 88.5759 18.3142 88.8991 18.713 88.8991H31.717C32.1157 88.8991 32.439 88.5759 32.439 88.1771V88.1761C32.439 87.7774 32.1157 87.4541 31.717 87.4541Z" fill="#ECECEC"/>
<path d="M38.941 91.7891H20.158C18.9612 91.7891 17.991 92.7593 17.991 93.9561C17.991 95.1529 18.9612 96.1231 20.158 96.1231H38.941C40.1378 96.1231 41.108 95.1529 41.108 93.9561C41.108 92.7593 40.1378 91.7891 38.941 91.7891Z" fill="#DDE1E6"/>
<path d="M70.494 80.2305H48.821C48.4222 80.2305 48.099 80.5537 48.099 80.9525V80.9535C48.099 81.3522 48.4222 81.6755 48.821 81.6755H70.494C70.8927 81.6755 71.216 81.3522 71.216 80.9535V80.9525C71.216 80.5537 70.8927 80.2305 70.494 80.2305Z" fill="#ECECEC"/>
<path d="M64.715 83.8423H48.821C48.4222 83.8423 48.099 84.1655 48.099 84.5643V84.5653C48.099 84.964 48.4222 85.2873 48.821 85.2873H64.715C65.1137 85.2873 65.437 84.964 65.437 84.5653V84.5643C65.437 84.1655 65.1137 83.8423 64.715 83.8423Z" fill="#ECECEC"/>
<path d="M61.825 87.4541H48.821C48.4222 87.4541 48.099 87.7774 48.099 88.1761V88.1771C48.099 88.5759 48.4222 88.8991 48.821 88.8991H61.825C62.2237 88.8991 62.547 88.5759 62.547 88.1771V88.1761C62.547 87.7774 62.2237 87.4541 61.825 87.4541Z" fill="#ECECEC"/>
<path d="M69.049 91.7891H50.266C49.0692 91.7891 48.099 92.7593 48.099 93.9561C48.099 95.1529 49.0692 96.1231 50.266 96.1231H69.049C70.2458 96.1231 71.216 95.1529 71.216 93.9561C71.216 92.7593 70.2458 91.7891 69.049 91.7891Z" fill="#DDE1E6"/>
<path d="M100.581 80.2305H78.908C78.5093 80.2305 78.186 80.5537 78.186 80.9525V80.9535C78.186 81.3522 78.5093 81.6755 78.908 81.6755H100.581C100.98 81.6755 101.303 81.3522 101.303 80.9535V80.9525C101.303 80.5537 100.98 80.2305 100.581 80.2305Z" fill="#ECECEC"/>
<path d="M94.802 83.8423H78.908C78.5093 83.8423 78.186 84.1655 78.186 84.5643V84.5653C78.186 84.964 78.5093 85.2873 78.908 85.2873H94.802C95.2008 85.2873 95.524 84.964 95.524 84.5653V84.5643C95.524 84.1655 95.2008 83.8423 94.802 83.8423Z" fill="#ECECEC"/>
<path d="M91.912 87.4541H78.908C78.5093 87.4541 78.186 87.7774 78.186 88.1761V88.1771C78.186 88.5759 78.5093 88.8991 78.908 88.8991H91.912C92.3108 88.8991 92.634 88.5759 92.634 88.1771V88.1761C92.634 87.7774 92.3108 87.4541 91.912 87.4541Z" fill="#ECECEC"/>
<path d="M99.136 91.7891H80.353C79.1562 91.7891 78.186 92.7593 78.186 93.9561C78.186 95.1529 79.1562 96.1231 80.353 96.1231H99.136C100.333 96.1231 101.303 95.1529 101.303 93.9561C101.303 92.7593 100.333 91.7891 99.136 91.7891Z" fill="#DDE1E6"/>
<path d="M41.11 61.2393V68.3593C41.11 70.481 40.2671 72.5158 38.7668 74.0161C37.2666 75.5164 35.2317 76.3593 33.11 76.3593H25.99C23.8683 76.3593 21.8335 75.5164 20.3332 74.0161C18.8329 72.5158 17.99 70.481 17.99 68.3593V61.2393C17.99 59.1175 18.8329 57.0827 20.3332 55.5824C21.8335 54.0821 23.8683 53.2393 25.99 53.2393H33.11C35.2317 53.2393 37.2666 54.0821 38.7668 55.5824C40.2671 57.0827 41.11 59.1175 41.11 61.2393Z" fill="#ECECEC"/>
<path d="M71.22 61.2393V68.3593C71.22 70.481 70.3772 72.5158 68.8769 74.0161C67.3766 75.5164 65.3417 76.3593 63.22 76.3593H56.1C53.9783 76.3593 51.9434 75.5164 50.4431 74.0161C48.9429 72.5158 48.1 70.481 48.1 68.3593V61.2393C48.1 59.1175 48.9429 57.0827 50.4431 55.5824C51.9434 54.0821 53.9783 53.2393 56.1 53.2393H63.22C65.3408 53.2422 67.374 54.0859 68.8736 55.5856C70.3733 57.0853 71.2171 59.1184 71.22 61.2393Z" fill="#ECECEC"/>
<path d="M101.3 61.2393V68.3593C101.3 70.481 100.457 72.5158 98.9568 74.0161C97.4566 75.5164 95.4217 76.3593 93.3 76.3593H86.19C84.0683 76.3593 82.0334 75.5164 80.5331 74.0161C79.0329 72.5158 78.19 70.481 78.19 68.3593V61.2393C78.19 59.1175 79.0329 57.0827 80.5331 55.5824C82.0334 54.0821 84.0683 53.2393 86.19 53.2393H93.3C95.4217 53.2393 97.4566 54.0821 98.9568 55.5824C100.457 57.0827 101.3 59.1175 101.3 61.2393Z" fill="#ECECEC"/>
<path d="M131.41 61.2393V68.3593C131.41 70.481 130.567 72.5158 129.067 74.0161C127.567 75.5164 125.532 76.3593 123.41 76.3593H116.29C114.168 76.3593 112.133 75.5164 110.633 74.0161C109.133 72.5158 108.29 70.481 108.29 68.3593V61.2393C108.29 59.1175 109.133 57.0827 110.633 55.5824C112.133 54.0821 114.168 53.2393 116.29 53.2393H123.41C125.532 53.2393 127.567 54.0821 129.067 55.5824C130.567 57.0827 131.41 59.1175 131.41 61.2393Z" fill="#ECECEC"/>
<path d="M130.688 80.2305H109.015C108.616 80.2305 108.293 80.5537 108.293 80.9525V80.9535C108.293 81.3522 108.616 81.6755 109.015 81.6755H130.688C131.087 81.6755 131.41 81.3522 131.41 80.9535V80.9525C131.41 80.5537 131.087 80.2305 130.688 80.2305Z" fill="#ECECEC"/>
<path d="M124.909 83.8423H109.015C108.616 83.8423 108.293 84.1655 108.293 84.5643V84.5653C108.293 84.964 108.616 85.2873 109.015 85.2873H124.909C125.308 85.2873 125.631 84.964 125.631 84.5653V84.5643C125.631 84.1655 125.308 83.8423 124.909 83.8423Z" fill="#ECECEC"/>
<path d="M122.019 87.4541H109.015C108.616 87.4541 108.293 87.7774 108.293 88.1761V88.1771C108.293 88.5759 108.616 88.8991 109.015 88.8991H122.019C122.418 88.8991 122.741 88.5759 122.741 88.1771V88.1761C122.741 87.7774 122.418 87.4541 122.019 87.4541Z" fill="#ECECEC"/>
<path d="M129.243 91.7891H110.46C109.263 91.7891 108.293 92.7593 108.293 93.9561C108.293 95.1529 109.263 96.1231 110.46 96.1231H129.243C130.44 96.1231 131.41 95.1529 131.41 93.9561C131.41 92.7593 130.44 91.7891 129.243 91.7891Z" fill="#DDE1E6"/>
<path d="M24.216 41.8499C24.2683 41.898 24.3369 41.9244 24.408 41.9239C24.4451 41.9244 24.482 41.9174 24.5164 41.9033C24.5507 41.8892 24.5819 41.8684 24.608 41.8419L25.864 40.5809C26.2216 40.8235 26.644 40.9524 27.076 40.9509C27.4767 40.9368 27.8645 40.8051 28.1909 40.5721C28.5172 40.3392 28.7679 40.0153 28.9115 39.6409C29.0551 39.2665 29.0854 38.8582 28.9985 38.4667C28.9117 38.0752 28.7115 37.718 28.423 37.4394C28.1346 37.1609 27.7705 36.9735 27.3762 36.9004C26.9819 36.8273 26.5749 36.8719 26.2058 37.0286C25.8366 37.1853 25.5218 37.4471 25.3004 37.7815C25.0791 38.1158 24.9611 38.5079 24.961 38.9089C24.9634 39.3927 25.141 39.8591 25.461 40.2219L24.215 41.4729C24.1896 41.4974 24.1694 41.5267 24.1557 41.5591C24.142 41.5915 24.1349 41.6264 24.135 41.6617C24.1351 41.6969 24.1423 41.7317 24.1563 41.7641C24.1702 41.7964 24.1905 41.8256 24.216 41.8499ZM28.637 38.9089C28.648 39.2204 28.5656 39.5281 28.4005 39.7924C28.2354 40.0568 27.9951 40.2658 27.7104 40.3926C27.4257 40.5194 27.1096 40.5583 26.8026 40.5042C26.4957 40.4501 26.2119 40.3056 25.9877 40.0891C25.7634 39.8726 25.609 39.5941 25.5442 39.2892C25.4793 38.9844 25.5071 38.6671 25.6238 38.3781C25.7406 38.0891 25.941 37.8416 26.1994 37.6673C26.4578 37.493 26.7623 37.3999 27.074 37.3999C27.4812 37.3932 27.8745 37.5484 28.1675 37.8313C28.4605 38.1141 28.6294 38.5017 28.637 38.9089Z" fill="#C0C7CD"/>
<path d="M32.4 40.0429H32.73C32.7309 40.13 32.7505 40.2158 32.7874 40.2946C32.8244 40.3735 32.8777 40.4435 32.944 40.4999C33.0506 40.5846 33.1819 40.632 33.318 40.6349C33.4707 40.6366 33.6181 40.5788 33.729 40.4739C33.7859 40.4242 33.8313 40.3627 33.8619 40.2936C33.8925 40.2245 33.9075 40.1495 33.906 40.0739C33.908 39.9911 33.8909 39.909 33.856 39.8339C33.8211 39.7642 33.7674 39.7057 33.701 39.6649C33.6374 39.6258 33.5705 39.5923 33.501 39.5649C33.4212 39.532 33.3398 39.5033 33.257 39.4789L33.205 39.4629C33.134 39.4419 33.076 39.4229 33.033 39.4079C32.9681 39.3821 32.9049 39.352 32.844 39.3179C32.7704 39.2816 32.7029 39.2341 32.644 39.1769C32.5883 39.1167 32.5433 39.0473 32.511 38.9719C32.4699 38.8815 32.4494 38.7832 32.451 38.6839C32.4452 38.5721 32.4654 38.4605 32.51 38.3577C32.5546 38.255 32.6224 38.1641 32.708 38.0919C32.832 37.9908 32.9789 37.9218 33.1359 37.8911C33.2929 37.8604 33.4551 37.8689 33.608 37.9159C33.6995 37.9446 33.7859 37.9874 33.864 38.0429C33.9483 38.1056 34.0168 38.1871 34.064 38.2809C34.1211 38.3902 34.1551 38.51 34.164 38.6329H33.838C33.7767 38.3123 33.6033 38.1519 33.318 38.1519C33.1773 38.148 33.0404 38.1985 32.936 38.2929C32.8853 38.3387 32.8451 38.395 32.8183 38.4578C32.7916 38.5207 32.7788 38.5886 32.781 38.6569C32.7808 38.704 32.7875 38.7508 32.801 38.7959C32.8119 38.8327 32.8259 38.8685 32.843 38.9029C32.8646 38.9402 32.8952 38.9715 32.932 38.9939L33.032 39.0659C33.0772 39.0929 33.1251 39.1151 33.175 39.1319L33.326 39.1889C33.353 39.1999 33.415 39.2209 33.51 39.2529C33.582 39.2789 33.633 39.2989 33.663 39.3119C33.693 39.3249 33.745 39.3499 33.816 39.3859C33.8749 39.413 33.9292 39.4491 33.977 39.4929C34.013 39.5289 34.053 39.5739 34.098 39.6279C34.1443 39.6831 34.1784 39.7476 34.198 39.8169C34.2185 39.8946 34.2282 39.9746 34.227 40.0549C34.2297 40.1691 34.2087 40.2826 34.1653 40.3883C34.1219 40.494 34.0571 40.5895 33.975 40.6689C33.8879 40.7525 33.7848 40.8175 33.6719 40.8601C33.559 40.9028 33.4386 40.9221 33.318 40.9169C33.081 40.9245 32.85 40.8415 32.672 40.6849C32.5841 40.603 32.5145 40.5035 32.4677 40.3929C32.4208 40.2823 32.3977 40.163 32.4 40.0429Z" fill="#DDE1E6"/>
<path d="M36.746 39.8761H34.8C34.7986 39.9876 34.8221 40.0979 34.8688 40.1991C34.9155 40.3004 34.9843 40.3899 35.07 40.4611C35.2269 40.5958 35.4273 40.669 35.634 40.6671C35.7881 40.67 35.9401 40.6302 36.073 40.5521C36.2033 40.4758 36.3078 40.3623 36.373 40.2261H36.679C36.5922 40.4405 36.4409 40.6226 36.246 40.7471C36.0616 40.8603 35.8494 40.9202 35.633 40.9202C35.4166 40.9202 35.2044 40.8603 35.02 40.7471C34.855 40.6434 34.7212 40.4969 34.633 40.3231C34.5516 40.159 34.5095 39.9783 34.51 39.7951C34.5073 39.6468 34.5346 39.4995 34.5903 39.362C34.646 39.2245 34.7289 39.0997 34.834 38.9951C35.0443 38.7889 35.3257 38.6712 35.6201 38.6662C35.9146 38.6612 36.1998 38.7692 36.417 38.9681C36.5373 39.0849 36.6297 39.2272 36.6875 39.3846C36.7453 39.5419 36.767 39.7102 36.751 39.8771L36.746 39.8761ZM34.803 39.6421H36.456C36.4492 39.5436 36.4228 39.4475 36.3783 39.3594C36.3338 39.2713 36.2722 39.193 36.197 39.1291C36.122 39.0577 36.0334 39.0019 35.9366 38.9652C35.8397 38.9284 35.7365 38.9114 35.633 38.9151C35.4213 38.91 35.2157 38.9866 35.059 39.1291C34.9838 39.193 34.9221 39.2713 34.8776 39.3594C34.8331 39.4475 34.8067 39.5436 34.8 39.6421H34.803Z" fill="#DDE1E6"/>
<path d="M39.308 38.7244V40.8624H39.014V40.4214C38.9354 40.5766 38.8126 40.705 38.661 40.7904C38.4479 40.9037 38.204 40.9455 37.9654 40.9094C37.7268 40.8734 37.5061 40.7616 37.336 40.5904C37.1374 40.3739 37.0299 40.0891 37.036 39.7954C37.0326 39.6479 37.0586 39.5012 37.1125 39.3638C37.1664 39.2265 37.2472 39.1012 37.35 38.9954C37.4522 38.8886 37.5757 38.8045 37.7125 38.7485C37.8492 38.6926 37.9963 38.6659 38.144 38.6704C38.3392 38.666 38.5314 38.7188 38.697 38.8224C38.8368 38.9068 38.9485 39.0306 39.018 39.1784V38.7294L39.308 38.7244ZM37.322 39.7934C37.3239 39.9294 37.3549 40.0634 37.413 40.1864C37.4772 40.3184 37.577 40.4299 37.701 40.5084C37.8433 40.6008 38.0103 40.6478 38.18 40.6434C38.3507 40.6474 38.5184 40.5973 38.659 40.5004C38.7928 40.4078 38.8948 40.2762 38.951 40.1234C38.9988 40.0172 39.023 39.9019 39.022 39.7854C39.0285 39.6676 39.0055 39.55 38.955 39.4434C38.8947 39.2928 38.7901 39.1641 38.655 39.0744C38.5127 38.9777 38.3439 38.9278 38.172 38.9314C38.059 38.9282 37.9465 38.9486 37.8418 38.9913C37.7372 39.034 37.6425 39.0981 37.564 39.1794C37.4842 39.2601 37.4217 39.3561 37.3801 39.4616C37.3385 39.5671 37.3187 39.68 37.322 39.7934Z" fill="#DDE1E6"/>
<path d="M39.88 40.8624V38.7244H40.159V39.0743C40.2199 38.9465 40.3172 38.8395 40.4387 38.7667C40.5602 38.6939 40.7005 38.6587 40.842 38.6653V38.9554H40.814C40.7254 38.9498 40.6366 38.9639 40.5541 38.9968C40.4717 39.0296 40.3975 39.0804 40.337 39.1454C40.216 39.3033 40.1567 39.4999 40.17 39.6984V40.8624H39.88Z" fill="#DDE1E6"/>
<path d="M42.769 40.1394H43.075C43.0058 40.3655 42.8655 40.5633 42.675 40.7034C42.4507 40.8626 42.1776 40.9379 41.9034 40.9161C41.6292 40.8944 41.3714 40.777 41.175 40.5844C40.9705 40.3722 40.8577 40.0881 40.861 39.7934C40.858 39.6453 40.885 39.498 40.9403 39.3605C40.9957 39.2231 41.0782 39.0982 41.183 38.9934C41.2877 38.8866 41.4133 38.8026 41.552 38.7467C41.6907 38.6908 41.8395 38.6641 41.989 38.6684C42.2317 38.6661 42.4689 38.7403 42.667 38.8804C42.8685 39.0215 43.014 39.2289 43.078 39.4664H42.778C42.7215 39.3033 42.6106 39.1645 42.464 39.0734C42.3002 38.9693 42.1061 38.9233 41.913 38.9427C41.7199 38.9621 41.5388 39.0458 41.399 39.1804C41.2766 39.2993 41.1925 39.4521 41.1576 39.6192C41.1226 39.7862 41.1384 39.9599 41.2029 40.1179C41.2674 40.2759 41.3777 40.411 41.5195 40.5059C41.6614 40.6008 41.8283 40.6511 41.999 40.6504C42.1774 40.6541 42.3525 40.6013 42.499 40.4994C42.6237 40.4099 42.718 40.2842 42.769 40.1394Z" fill="#DDE1E6"/>
<path d="M43.476 40.8624V37.9224H43.77V39.0694C43.834 38.9337 43.9428 38.8243 44.078 38.7594C44.2185 38.6873 44.3752 38.6528 44.533 38.6594C44.6657 38.649 44.7989 38.6702 44.9218 38.7213C45.0447 38.7724 45.1538 38.852 45.24 38.9534C45.3881 39.1746 45.4585 39.4388 45.44 39.7044V40.8564H45.15V39.7154C45.1617 39.5154 45.1073 39.3172 44.995 39.1514C44.928 39.0768 44.8449 39.0185 44.7521 38.9807C44.6592 38.9429 44.559 38.9268 44.459 38.9334C44.362 38.9274 44.2649 38.9431 44.1748 38.9795C44.0846 39.0158 44.0037 39.0718 43.938 39.1434C43.8186 39.2817 43.7573 39.4609 43.767 39.6434V40.8594L43.476 40.8624Z" fill="#DDE1E6"/>
<path d="M47.465 40.8624V39.8294L46.52 37.9224H46.877L47.632 39.5114L48.383 37.9224H48.741L47.795 39.8294V40.8624H47.465Z" fill="#DDE1E6"/>
<path d="M48.538 39.7931C48.5357 39.6466 48.5625 39.5011 48.6167 39.365C48.671 39.2289 48.7516 39.1049 48.854 39.0001C49.0735 38.7877 49.367 38.6689 49.6725 38.6689C49.978 38.6689 50.2715 38.7877 50.491 39.0001C50.6939 39.2155 50.8068 39.5002 50.8068 39.7961C50.8068 40.092 50.6939 40.3767 50.491 40.5921C50.2708 40.8032 49.9775 40.921 49.6725 40.921C49.3674 40.921 49.0742 40.8032 48.854 40.5921C48.7507 40.4867 48.6696 40.3618 48.6153 40.2245C48.5611 40.0873 48.5347 39.9407 48.538 39.7931ZM48.828 39.7931C48.8252 39.9054 48.8453 40.017 48.8871 40.1212C48.9289 40.2254 48.9914 40.3199 49.071 40.3991C49.2316 40.5555 49.4468 40.643 49.671 40.643C49.8951 40.643 50.1104 40.5555 50.271 40.3991C50.4264 40.234 50.5129 40.0159 50.5129 39.7891C50.5129 39.5624 50.4264 39.3442 50.271 39.1791C50.1104 39.0228 49.8951 38.9353 49.671 38.9353C49.4468 38.9353 49.2316 39.0228 49.071 39.1791C48.9906 39.2594 48.9276 39.3553 48.8858 39.4609C48.844 39.5665 48.8243 39.6796 48.828 39.7931Z" fill="#DDE1E6"/>
<path d="M53.215 38.7246V40.8626H52.937V40.4806C52.8765 40.6204 52.7708 40.7358 52.637 40.8086C52.4858 40.8899 52.3155 40.929 52.144 40.9216C52.0159 40.9304 51.8874 40.9095 51.7686 40.8606C51.6498 40.8117 51.5439 40.7361 51.459 40.6396C51.3088 40.4379 51.2322 40.1909 51.242 39.9396V38.7276H51.532V39.8836C51.52 40.0866 51.5799 40.2873 51.701 40.4506C51.766 40.5218 51.8466 40.5769 51.9364 40.6116C52.0263 40.6463 52.1231 40.6597 52.219 40.6506C52.3137 40.6553 52.4083 40.6407 52.4972 40.6077C52.5861 40.5747 52.6673 40.5239 52.736 40.4586C52.7995 40.3878 52.8484 40.3052 52.8798 40.2154C52.9112 40.1257 52.9246 40.0305 52.919 39.9356V38.7276L53.215 38.7246Z" fill="#DDE1E6"/>
<path d="M53.787 40.8623V38.7243H54.065V39.0743C54.126 38.9465 54.2233 38.8396 54.3448 38.7668C54.4663 38.6941 54.6065 38.6588 54.748 38.6653V38.9553H54.72C54.6316 38.9499 54.543 38.9641 54.4607 38.9969C54.3784 39.0298 54.3044 39.0805 54.244 39.1453C54.1226 39.303 54.0632 39.4998 54.077 39.6983V40.8623H53.787Z" fill="#DDE1E6"/>
<path d="M56.218 40.8624V37.9224H56.544V40.8624H56.218Z" fill="#DDE1E6"/>
<path d="M57.3 40.8622V38.9622H56.879V38.7272H57.3V37.9272H57.59V38.7272H58.059V38.9622H57.59V40.8622H57.3Z" fill="#DDE1E6"/>
<path d="M60.335 39.8761H58.388C58.3866 39.9876 58.4101 40.098 58.4568 40.1992C58.5035 40.3004 58.5722 40.3899 58.658 40.4611C58.8149 40.5958 59.0152 40.669 59.222 40.6671C59.3761 40.67 59.5281 40.6302 59.661 40.5521C59.7914 40.4759 59.8959 40.3624 59.961 40.2261H60.267C60.1803 40.4405 60.0289 40.6226 59.834 40.7471C59.6496 40.8603 59.4374 40.9202 59.221 40.9202C59.0046 40.9202 58.7924 40.8603 58.608 40.7471C58.443 40.6435 58.3092 40.4969 58.221 40.3231C58.1396 40.1591 58.0975 39.9783 58.098 39.7951C58.0953 39.6468 58.1226 39.4995 58.1783 39.362C58.2339 39.2246 58.3168 39.0997 58.422 38.9951C58.6322 38.7906 58.9126 38.6739 59.2058 38.6691C59.4991 38.6643 59.7832 38.7716 60 38.9691C60.1203 39.0859 60.2127 39.2282 60.2705 39.3856C60.3284 39.5429 60.3501 39.7113 60.334 39.8781L60.335 39.8761ZM58.392 39.6421H60.045C60.0382 39.5437 60.0118 39.4476 59.9673 39.3595C59.9229 39.2714 59.8612 39.1931 59.786 39.1291C59.711 39.0577 59.6224 39.002 59.5256 38.9652C59.4287 38.9285 59.3255 38.9115 59.222 38.9151C59.0103 38.9101 58.8047 38.9867 58.648 39.1291C58.5733 39.1933 58.5122 39.2717 58.4682 39.3598C58.4243 39.4479 58.3983 39.5439 58.392 39.6421Z" fill="#DDE1E6"/>
<path d="M60.752 40.8624V38.7244H61.03V39.0624C61.092 38.9367 61.1921 38.8339 61.316 38.7684C61.4352 38.7028 61.569 38.6684 61.705 38.6684C61.8142 38.663 61.9232 38.6818 62.0242 38.7237C62.1252 38.7655 62.2157 38.8293 62.289 38.9104C62.3457 38.9774 62.3925 39.0521 62.428 39.1324C62.4696 39.0506 62.5217 38.9746 62.583 38.9064C62.7392 38.7577 62.9453 38.6729 63.1609 38.6684C63.3764 38.664 63.5858 38.7403 63.748 38.8824C63.837 38.9704 63.9018 39.08 63.936 39.2004C63.9761 39.3561 63.9942 39.5167 63.99 39.6774V40.8654H63.7V39.6894C63.7174 39.4871 63.6609 39.2853 63.541 39.1214C63.4897 39.0596 63.4243 39.0111 63.3504 38.98C63.2764 38.9488 63.196 38.9359 63.116 38.9424C63.0253 38.9359 62.9345 38.9529 62.8524 38.9918C62.7702 39.0307 62.6995 39.0901 62.647 39.1644C62.599 39.2283 62.5649 39.3015 62.547 39.3794C62.5285 39.4783 62.5205 39.5788 62.523 39.6794V40.8674H62.229V39.6694C62.2451 39.4923 62.2064 39.3147 62.118 39.1604C62.0646 39.0869 61.9938 39.0277 61.912 38.9883C61.8301 38.9488 61.7398 38.9303 61.649 38.9344C61.5572 38.9305 61.466 38.9501 61.384 38.9914C61.3088 39.0285 61.2442 39.0838 61.196 39.1524C61.0942 39.3034 61.044 39.4834 61.053 39.6654V40.8574L60.752 40.8624Z" fill="#DDE1E6"/>
<path d="M65.8 39.2614H65.51C65.513 39.2133 65.5056 39.1651 65.4883 39.1201C65.4711 39.075 65.4444 39.0342 65.41 39.0004C65.3334 38.9389 65.2378 38.9061 65.1396 38.9075C65.0413 38.909 64.9467 38.9447 64.872 39.0084C64.8377 39.0389 64.8108 39.0768 64.7935 39.1193C64.7762 39.1618 64.7688 39.2076 64.772 39.2534C64.7702 39.2953 64.7783 39.3371 64.7957 39.3754C64.8131 39.4136 64.8392 39.4472 64.872 39.4734C64.9683 39.5385 65.0752 39.5862 65.188 39.6144L65.377 39.6684C65.4347 39.6871 65.4908 39.7102 65.545 39.7374C65.605 39.7636 65.6591 39.8017 65.704 39.8494C65.7452 39.8978 65.7788 39.9521 65.804 40.0104C65.8356 40.0837 65.8523 40.1626 65.853 40.2424C65.8589 40.3326 65.8446 40.423 65.811 40.5069C65.7775 40.5909 65.7255 40.6662 65.659 40.7274C65.5203 40.8573 65.3359 40.9271 65.146 40.9214C64.9619 40.9241 64.7827 40.8617 64.64 40.7454C64.5672 40.6865 64.5089 40.6115 64.4699 40.5263C64.4308 40.4411 64.4121 40.3481 64.415 40.2544H64.705C64.7038 40.314 64.7156 40.3732 64.7396 40.4277C64.7636 40.4823 64.7992 40.531 64.844 40.5704C64.9295 40.6425 65.0382 40.6812 65.15 40.6794C65.2053 40.6814 65.2605 40.672 65.3121 40.6519C65.3637 40.6318 65.4106 40.6013 65.45 40.5624C65.4879 40.5258 65.5175 40.4815 65.537 40.4326C65.5565 40.3836 65.5653 40.331 65.563 40.2784C65.5647 40.2266 65.5543 40.1752 65.5326 40.1281C65.5109 40.0811 65.4785 40.0397 65.438 40.0074C65.3127 39.9241 65.1735 39.8638 65.027 39.8294C64.8791 39.7912 64.7406 39.7232 64.62 39.6294C64.571 39.5849 64.5326 39.53 64.5075 39.4688C64.4824 39.4075 64.4713 39.3415 64.475 39.2754C64.4718 39.1916 64.4873 39.1081 64.5206 39.0311C64.5538 38.9541 64.6038 38.8856 64.667 38.8304C64.7993 38.7181 64.9686 38.659 65.142 38.6644C65.2446 38.6633 65.3464 38.682 65.442 38.7194C65.5397 38.7602 65.624 38.8278 65.685 38.9144C65.7575 39.0158 65.7976 39.1368 65.8 39.2614Z" fill="#DDE1E6"/>
<path d="M66.732 40.4253V40.8623H66.422V40.4253H66.732Z" fill="#DDE1E6"/>
<path d="M67.88 40.4253V40.8623H67.57V40.4253H67.88Z" fill="#DDE1E6"/>
<path d="M69.028 40.4253V40.8623H68.718V40.4253H69.028Z" fill="#DDE1E6"/>
<path d="M110.838 39.896H111.372C111.375 39.9714 111.391 40.0456 111.421 40.115C111.441 40.1677 111.476 40.2137 111.521 40.248C111.557 40.2735 111.596 40.2937 111.638 40.308C111.701 40.3288 111.768 40.3317 111.833 40.3163C111.897 40.301 111.956 40.268 112.003 40.221C112.037 40.1891 112.064 40.1506 112.083 40.1077C112.101 40.0649 112.11 40.0187 112.11 39.972C112.111 39.9072 112.087 39.8445 112.043 39.797C112.004 39.7519 111.957 39.7146 111.904 39.687C111.856 39.662 111.763 39.624 111.626 39.571L111.546 39.538C111.486 39.517 111.436 39.497 111.396 39.481C111.338 39.4542 111.281 39.4238 111.227 39.39C111.162 39.3535 111.102 39.3073 111.051 39.253C111.002 39.1951 110.962 39.13 110.932 39.06C110.895 38.9762 110.877 38.8855 110.878 38.794C110.874 38.6834 110.896 38.5734 110.942 38.4729C110.988 38.3724 111.058 38.2844 111.145 38.216C111.32 38.0754 111.538 38 111.763 38.003C111.858 38.0028 111.953 38.0163 112.045 38.043C112.139 38.0714 112.229 38.1138 112.31 38.169C112.4 38.2316 112.472 38.3163 112.52 38.415C112.576 38.5301 112.606 38.6561 112.608 38.784H112.077C112.071 38.7501 112.063 38.7167 112.052 38.684C112.039 38.6492 112.022 38.6157 112.003 38.584C111.98 38.5441 111.945 38.5123 111.903 38.493C111.853 38.4716 111.799 38.4614 111.744 38.463C111.658 38.4608 111.575 38.4912 111.511 38.548C111.479 38.5745 111.453 38.6079 111.436 38.6456C111.419 38.6834 111.41 38.7245 111.411 38.766C111.407 38.8065 111.415 38.8471 111.432 38.8838C111.45 38.9204 111.477 38.9515 111.511 38.974C111.668 39.0624 111.832 39.1389 112.001 39.203C112.181 39.2727 112.344 39.3786 112.481 39.514C112.588 39.6354 112.643 39.7935 112.636 39.955C112.643 40.1742 112.562 40.3871 112.412 40.547C112.323 40.6312 112.218 40.6959 112.103 40.7369C111.988 40.7779 111.866 40.7943 111.744 40.785C111.62 40.7935 111.495 40.7764 111.378 40.7347C111.261 40.6931 111.153 40.6279 111.062 40.543C110.982 40.4564 110.921 40.3542 110.882 40.2429C110.844 40.1316 110.829 40.0135 110.838 39.896Z" fill="white"/>
<path d="M114.93 39.8925H113.33C113.332 39.9629 113.35 40.0319 113.382 40.0945C113.414 40.1572 113.46 40.2118 113.516 40.2545C113.626 40.3419 113.763 40.3879 113.904 40.3845C114.001 40.3902 114.097 40.368 114.182 40.3205C114.266 40.273 114.336 40.2022 114.381 40.1165H114.868C114.787 40.3191 114.648 40.4932 114.468 40.6165C114.302 40.7318 114.103 40.7923 113.901 40.7895C113.762 40.7927 113.623 40.7667 113.495 40.7134C113.366 40.66 113.25 40.5803 113.154 40.4795C113.057 40.3828 112.981 40.2678 112.93 40.1412C112.878 40.0147 112.852 39.8791 112.854 39.7425C112.852 39.6048 112.878 39.4681 112.929 39.3404C112.981 39.2127 113.057 39.0964 113.154 38.9985C113.25 38.8998 113.365 38.8211 113.492 38.7671C113.618 38.713 113.754 38.6846 113.892 38.6836C114.03 38.6826 114.167 38.7089 114.294 38.7611C114.422 38.8132 114.537 38.8902 114.635 38.9875C114.751 39.105 114.838 39.248 114.889 39.4051C114.941 39.5622 114.955 39.7291 114.93 39.8925ZM113.341 39.5315H114.464C114.448 39.4115 114.388 39.3019 114.295 39.2245C114.188 39.1271 114.046 39.0764 113.901 39.0835C113.756 39.0773 113.615 39.1279 113.507 39.2245C113.414 39.3018 113.355 39.4116 113.341 39.5315Z" fill="white"/>
<path d="M117.336 38.7441V40.7271H116.863V40.4411C116.803 40.5542 116.708 40.6449 116.592 40.7001C116.467 40.76 116.33 40.7901 116.192 40.7881C116.055 40.7939 115.918 40.7694 115.791 40.7163C115.665 40.6633 115.551 40.583 115.459 40.4811C115.276 40.2756 115.178 40.0082 115.185 39.7331C115.18 39.594 115.203 39.4554 115.253 39.3255C115.303 39.1955 115.378 39.077 115.475 38.9771C115.568 38.8813 115.679 38.8056 115.803 38.7548C115.926 38.7041 116.059 38.6793 116.192 38.6821C116.339 38.6771 116.485 38.7135 116.613 38.7871C116.716 38.8455 116.802 38.9304 116.861 39.0331V38.7441H117.336ZM115.66 39.7441C115.66 39.8359 115.68 39.9265 115.718 40.0101C115.768 40.1122 115.845 40.1982 115.942 40.258C116.038 40.3178 116.149 40.3491 116.263 40.3481C116.373 40.3544 116.482 40.3274 116.576 40.2706C116.67 40.2139 116.744 40.13 116.79 40.0301C116.836 39.9438 116.862 39.8486 116.866 39.7511C116.871 39.6554 116.853 39.5598 116.812 39.4731C116.766 39.3724 116.694 39.2858 116.603 39.2221C116.502 39.1536 116.381 39.1186 116.259 39.1221C116.177 39.1186 116.095 39.1335 116.019 39.1657C115.944 39.1979 115.876 39.2465 115.822 39.3081C115.716 39.4271 115.658 39.5816 115.66 39.7411V39.7441Z" fill="white"/>
<path d="M117.8 40.727V38.744H118.248V39.004C118.297 38.9014 118.375 38.8158 118.473 38.7583C118.571 38.7009 118.684 38.6743 118.797 38.682V39.159H118.775C118.707 39.1493 118.638 39.1555 118.573 39.1772C118.508 39.1989 118.449 39.2355 118.4 39.284C118.352 39.3325 118.315 39.3916 118.293 39.4567C118.272 39.5218 118.265 39.5911 118.275 39.659V40.728L117.8 40.727Z" fill="white"/>
<path d="M120.46 40.0044H120.944C120.902 40.1602 120.824 40.3042 120.717 40.4254C120.611 40.5467 120.478 40.6418 120.328 40.7036C120.179 40.7655 120.018 40.7924 119.857 40.7822C119.695 40.772 119.539 40.7251 119.399 40.645C119.258 40.5649 119.138 40.4538 119.048 40.3201C118.957 40.1865 118.898 40.0339 118.876 39.874C118.853 39.7141 118.867 39.5511 118.918 39.3976C118.968 39.2441 119.052 39.1041 119.165 38.9884C119.261 38.8888 119.377 38.8101 119.504 38.7575C119.632 38.7048 119.77 38.6792 119.908 38.6824C120.147 38.6787 120.38 38.7559 120.57 38.9014C120.76 39.0438 120.893 39.2496 120.944 39.4814H120.46C120.419 39.3738 120.346 39.2815 120.25 39.2174C120.154 39.1533 120.041 39.1204 119.926 39.1234C119.848 39.1216 119.77 39.1358 119.697 39.165C119.624 39.1942 119.558 39.2379 119.503 39.2934C119.393 39.4131 119.335 39.5711 119.341 39.7334C119.338 39.814 119.351 39.8944 119.379 39.9698C119.408 40.0452 119.451 40.1141 119.507 40.1724C119.606 40.2687 119.735 40.3283 119.873 40.3416C120.01 40.3548 120.148 40.3209 120.264 40.2454C120.35 40.1839 120.417 40.1007 120.46 40.0044Z" fill="white"/>
<path d="M121.259 40.7272V38.0542H121.732V38.9792C121.783 38.8789 121.867 38.7991 121.97 38.7532C122.079 38.703 122.197 38.6787 122.317 38.6822C122.435 38.6715 122.553 38.6915 122.661 38.7402C122.768 38.7889 122.861 38.8647 122.931 38.9602C123.048 39.1654 123.102 39.4005 123.086 39.6362V40.7272H122.613V39.6582C122.621 39.5267 122.59 39.3957 122.523 39.2822C122.483 39.2298 122.431 39.1882 122.371 39.1611C122.311 39.134 122.246 39.1224 122.18 39.1272C122.109 39.1217 122.038 39.1347 121.974 39.1651C121.91 39.1954 121.855 39.242 121.815 39.3002C121.756 39.3955 121.727 39.5063 121.732 39.6182V40.7272H121.259Z" fill="white"/>
<path d="M58.99 48.2376C60.7882 48.2376 62.246 46.7798 62.246 44.9816C62.246 43.1833 60.7882 41.7256 58.99 41.7256C57.1918 41.7256 55.734 43.1833 55.734 44.9816C55.734 46.7798 57.1918 48.2376 58.99 48.2376Z" fill="#D9DDE5"/>
<path opacity="0.7" d="M58.99 48.2376C60.7882 48.2376 62.246 46.7798 62.246 44.9816C62.246 43.1833 60.7882 41.7256 58.99 41.7256C57.1918 41.7256 55.734 43.1833 55.734 44.9816C55.734 46.7798 57.1918 48.2376 58.99 48.2376Z" fill="#D9DDE5"/>
<path d="M66.261 46.5043C67.0889 46.5043 67.76 45.8332 67.76 45.0053C67.76 44.1775 67.0889 43.5063 66.261 43.5063C65.4331 43.5063 64.762 44.1775 64.762 45.0053C64.762 45.8332 65.4331 46.5043 66.261 46.5043Z" fill="#D9DDE5"/>
<path opacity="0.6" d="M66.261 46.5043C67.0889 46.5043 67.76 45.8332 67.76 45.0053C67.76 44.1775 67.0889 43.5063 66.261 43.5063C65.4331 43.5063 64.762 44.1775 64.762 45.0053C64.762 45.8332 65.4331 46.5043 66.261 46.5043Z" fill="#D9DDE5"/>
<path d="M71.146 43.4102C71.0967 43.533 71.0122 43.6385 70.903 43.7132C70.7938 43.788 70.665 43.8286 70.5327 43.8301C70.4004 43.8316 70.2706 43.7939 70.1597 43.7216C70.0489 43.6494 69.962 43.5459 69.9099 43.4242C69.8579 43.3026 69.8432 43.1682 69.8675 43.0381C69.8918 42.9081 69.9542 42.7882 70.0467 42.6936C70.1391 42.5989 70.2576 42.5339 70.3871 42.5066C70.5166 42.4793 70.6512 42.491 70.774 42.5402C70.8556 42.5728 70.93 42.6212 70.993 42.6826C71.0559 42.744 71.106 42.8172 71.1406 42.898C71.1752 42.9788 71.1934 43.0657 71.1943 43.1536C71.1953 43.2415 71.1788 43.3287 71.146 43.4102Z" fill="#D9DDE5"/>
<path opacity="0.5" d="M71.146 43.4102C71.0967 43.533 71.0122 43.6385 70.903 43.7132C70.7938 43.788 70.665 43.8286 70.5327 43.8301C70.4004 43.8316 70.2706 43.7939 70.1597 43.7216C70.0489 43.6494 69.962 43.5459 69.9099 43.4242C69.8579 43.3026 69.8432 43.1682 69.8675 43.0381C69.8918 42.9081 69.9542 42.7882 70.0467 42.6936C70.1391 42.5989 70.2576 42.5339 70.3871 42.5066C70.5166 42.4793 70.6512 42.491 70.774 42.5402C70.8556 42.5728 70.93 42.6212 70.993 42.6826C71.0559 42.744 71.106 42.8172 71.1406 42.898C71.1752 42.9788 71.1934 43.0657 71.1943 43.1536C71.1953 43.2415 71.1788 43.3287 71.146 43.4102Z" fill="#D9DDE5"/>
<path d="M62.271 35.6869C62.685 34.6558 62.8241 33.5349 62.6748 32.4339C62.5254 31.3329 62.0927 30.2895 61.419 29.4059C61.9362 28.1022 62.0651 26.6766 61.7899 25.3012C61.5148 23.9258 60.8475 22.6595 59.8685 21.655C58.8895 20.6506 57.6408 19.9509 56.2729 19.6406C54.9051 19.3302 53.4766 19.4224 52.16 19.9059C51.8395 18.8991 51.2755 17.987 50.5181 17.2504C49.7606 16.5138 48.8331 15.9754 47.8178 15.6832C46.8024 15.3909 45.7307 15.3537 44.6975 15.5748C43.6643 15.796 42.7017 16.2686 41.895 16.951C41.3063 16.2859 40.5573 15.7825 39.7192 15.4887C38.8811 15.1948 37.9817 15.1201 37.1066 15.2719C36.2315 15.4236 35.4098 15.7966 34.7195 16.3555C34.0293 16.9144 33.4934 17.6406 33.163 18.4649C32.9921 18.8925 32.8781 19.3407 32.824 19.798C32.028 19.9648 31.2888 20.3354 30.6789 20.8734C30.0689 21.4115 29.6091 22.0986 29.3443 22.8676C29.0794 23.6366 29.0187 24.4612 29.168 25.2607C29.3173 26.0602 29.6715 26.8073 30.196 27.4289C30.0729 28.0367 30.0713 28.6628 30.1913 29.2711C30.3112 29.8795 30.5504 30.4581 30.895 30.9736C31.2396 31.4891 31.6827 31.9314 32.199 32.2749C32.7152 32.6183 33.2944 32.8563 33.903 32.9749C33.9165 33.6346 34.0688 34.2841 34.35 34.881C34.6311 35.478 35.0348 36.0091 35.5347 36.4397C36.0347 36.8703 36.6197 37.1908 37.2517 37.3804C37.8837 37.5699 38.5486 37.6243 39.203 37.5399C39.4936 38.1477 39.9115 38.6859 40.4284 39.118C40.9452 39.5501 41.5489 39.866 42.1985 40.0444C42.8482 40.2228 43.5285 40.2595 44.1936 40.1519C44.8586 40.0443 45.4927 39.795 46.053 39.4209C46.3762 40.445 47.0081 41.3441 47.8621 41.995C48.7162 42.646 49.7506 43.0169 50.8237 43.0571C51.8968 43.0973 52.956 42.8047 53.8564 42.2195C54.7567 41.6342 55.4541 40.7849 55.853 39.7879C55.864 39.7599 55.873 39.7309 55.884 39.7029C57.2362 39.7932 58.5823 39.4533 59.7295 38.732C60.8768 38.0106 61.7664 36.9447 62.271 35.6869Z" fill="#D9DDE5"/>
<path opacity="0.8" d="M62.271 35.6869C62.685 34.6558 62.8241 33.5349 62.6748 32.4339C62.5254 31.3329 62.0927 30.2895 61.419 29.4059C61.9362 28.1022 62.0651 26.6766 61.7899 25.3012C61.5148 23.9258 60.8475 22.6595 59.8685 21.655C58.8895 20.6506 57.6408 19.9509 56.2729 19.6406C54.9051 19.3302 53.4766 19.4224 52.16 19.9059C51.8395 18.8991 51.2755 17.987 50.5181 17.2504C49.7606 16.5138 48.8331 15.9754 47.8178 15.6832C46.8024 15.3909 45.7307 15.3537 44.6975 15.5748C43.6643 15.796 42.7017 16.2686 41.895 16.951C41.3063 16.2859 40.5573 15.7825 39.7192 15.4887C38.8811 15.1948 37.9817 15.1201 37.1066 15.2719C36.2315 15.4236 35.4098 15.7966 34.7195 16.3555C34.0293 16.9144 33.4934 17.6406 33.163 18.4649C32.9921 18.8925 32.8781 19.3407 32.824 19.798C32.028 19.9648 31.2888 20.3354 30.6789 20.8734C30.0689 21.4115 29.6091 22.0986 29.3443 22.8676C29.0794 23.6366 29.0187 24.4612 29.168 25.2607C29.3173 26.0602 29.6715 26.8073 30.196 27.4289C30.0729 28.0367 30.0713 28.6628 30.1913 29.2711C30.3112 29.8795 30.5504 30.4581 30.895 30.9736C31.2396 31.4891 31.6827 31.9314 32.199 32.2749C32.7152 32.6183 33.2944 32.8563 33.903 32.9749C33.9165 33.6346 34.0688 34.2841 34.35 34.881C34.6311 35.478 35.0348 36.0091 35.5347 36.4397C36.0347 36.8703 36.6197 37.1908 37.2517 37.3804C37.8837 37.5699 38.5486 37.6243 39.203 37.5399C39.4936 38.1477 39.9115 38.6859 40.4284 39.118C40.9452 39.5501 41.5489 39.866 42.1985 40.0444C42.8482 40.2228 43.5285 40.2595 44.1936 40.1519C44.8586 40.0443 45.4927 39.795 46.053 39.4209C46.3762 40.445 47.0081 41.3441 47.8621 41.995C48.7162 42.646 49.7506 43.0169 50.8237 43.0571C51.8968 43.0973 52.956 42.8047 53.8564 42.2195C54.7567 41.6342 55.4541 40.7849 55.853 39.7879C55.864 39.7599 55.873 39.7309 55.884 39.7029C57.2362 39.7932 58.5823 39.4533 59.7295 38.732C60.8768 38.0106 61.7664 36.9447 62.271 35.6869Z" fill="#D9DDE5"/>
<path d="M47.663 24.4012C47.944 24.3992 48.2171 24.3082 48.4431 24.1413C48.6691 23.9744 48.8364 23.7401 48.921 23.4722C48.0907 23.6827 47.2221 23.6909 46.388 23.4962C46.4776 23.7624 46.6493 23.9934 46.8783 24.156C47.1074 24.3186 47.3821 24.4044 47.663 24.4012Z" fill="#F2F4F8"/>
<path d="M54.377 25.01C54.3629 24.9717 54.3413 24.9366 54.3135 24.9068C54.2857 24.8769 54.2522 24.8529 54.215 24.836L51.64 23.676C51.0949 23.4976 50.5383 23.3566 49.974 23.254C49.9545 23.2509 49.9348 23.2492 49.915 23.249C49.8463 23.2494 49.7798 23.2734 49.7267 23.3169C49.6736 23.3604 49.6369 23.4208 49.623 23.488C49.5278 23.9368 49.2823 24.3397 48.9272 24.6301C48.5721 24.9206 48.1286 25.0812 47.6698 25.0856C47.2111 25.0899 46.7646 24.9376 46.4041 24.6539C46.0436 24.3701 45.7906 23.9719 45.687 23.525C45.6695 23.4479 45.6223 23.3808 45.5557 23.3383C45.489 23.2958 45.4083 23.2813 45.331 23.298C44.7685 23.4105 44.2145 23.5619 43.673 23.751L41.121 24.959C41.0836 24.976 41.0501 25.0005 41.0226 25.031C40.9951 25.0615 40.9741 25.0973 40.961 25.1362C40.9479 25.1751 40.9429 25.2163 40.9463 25.2572C40.9498 25.2981 40.9615 25.3379 40.981 25.374L42.115 27.56C42.1472 27.6236 42.2011 27.6736 42.2669 27.7011C42.3326 27.7286 42.4061 27.7318 42.474 27.71L43.706 27.332L43.775 34.703C43.7763 34.7836 43.8094 34.8603 43.8671 34.9165C43.9248 34.9727 44.0024 35.0038 44.083 35.003L51.442 34.934C51.482 34.934 51.5216 34.9261 51.5584 34.9105C51.5953 34.895 51.6287 34.8723 51.6566 34.8437C51.6846 34.8151 51.7065 34.7812 51.7212 34.744C51.7358 34.7068 51.7429 34.667 51.742 34.627L51.673 27.257L52.913 27.611C52.9415 27.6197 52.9712 27.6241 53.001 27.624C53.0571 27.6236 53.1119 27.6074 53.1593 27.5774C53.2067 27.5473 53.2447 27.5046 53.269 27.454L54.362 25.247C54.3805 25.2106 54.3914 25.1708 54.3939 25.1301C54.3965 25.0893 54.3908 25.0485 54.377 25.01Z" fill="#F2F4F8"/>
<g clip-path="url(#clip0_642_2915)">
<path d="M67.6748 74.1581L66.5991 70.9636C67.5721 69.3116 68.1134 67.3785 68.0722 65.3219C67.9558 59.406 63.0703 54.7035 57.157 54.82C51.2437 54.9365 46.5433 59.8242 46.6598 65.7401C46.7762 71.656 51.6617 76.3586 57.575 76.242C60.0417 76.1941 62.296 75.3097 64.0844 73.8702L67.6817 74.1581H67.6748Z" fill="white"/>
<path d="M67.6748 74.1581C67.6748 74.1581 67.6063 74.1581 67.4487 74.1512C67.2843 74.1444 67.0581 74.1238 66.7704 74.1101C66.1468 74.069 65.2492 74.0073 64.0775 73.9319C64.0501 73.9319 64.0296 73.9113 64.0364 73.8839C64.0364 73.877 64.0364 73.8633 64.0433 73.8565L64.1118 73.9181C63.0292 74.7956 61.419 75.7553 59.3017 76.1529C58.2465 76.3586 57.0748 76.3928 55.8551 76.2214C54.6355 76.0501 53.3679 75.6593 52.1619 75.0012C50.956 74.3432 49.8254 73.4109 48.8935 72.2318C47.9616 71.0596 47.2422 69.6406 46.8653 68.0776C46.0842 64.9723 46.8036 61.2706 49.1128 58.5765C50.2639 57.2192 51.7234 56.1498 53.3199 55.526C54.9096 54.8885 56.6089 54.6417 58.2259 54.7651C59.843 54.8885 61.3778 55.3958 62.6866 56.143C64.0022 56.8902 65.1053 57.8842 65.9413 58.9878C67.6269 61.2089 68.2435 63.7864 68.1408 65.9252C68.0585 68.0845 67.3459 69.8188 66.6402 70.9979V70.9636C66.9828 72.0056 67.2432 72.8076 67.4282 73.3629C67.5104 73.6234 67.5789 73.8222 67.62 73.973C67.6611 74.1101 67.6817 74.1718 67.6817 74.1718C67.6817 74.1718 67.6543 74.0964 67.5995 73.9593L67.3802 73.3423C67.1883 72.8008 66.9143 72.0124 66.558 70.991C66.558 70.9773 66.558 70.9636 66.558 70.9568C67.2432 69.7777 67.9284 68.0639 67.9969 65.9252C68.0791 63.8138 67.4624 61.2774 65.7905 59.1044C64.9614 58.0213 63.8788 57.0479 62.5838 56.3212C61.2888 55.5877 59.7882 55.101 58.1985 54.9776C56.6089 54.8611 54.9507 55.101 53.3884 55.7317C51.8262 56.3418 50.4009 57.3906 49.2704 58.7273C47.0092 61.3665 46.3034 64.9929 47.0572 68.0365C47.4272 69.5652 48.1261 70.9636 49.0374 72.1153C49.9487 73.2738 51.0587 74.1924 52.2373 74.8504C53.4227 75.5085 54.6697 75.8993 55.8688 76.0706C57.0679 76.242 58.2259 76.2214 59.2674 76.0227C61.3641 75.6525 62.9607 74.7133 64.0433 73.8565C64.0638 73.8427 64.0912 73.8427 64.1118 73.8565C64.1255 73.8702 64.1255 73.8976 64.1118 73.9113L64.0775 73.8427C65.2355 73.9456 66.1194 74.0278 66.7361 74.0758C67.0307 74.1032 67.2637 74.1238 67.4282 74.1375C67.5858 74.1512 67.668 74.1649 67.668 74.1649L67.6748 74.1581Z" fill="#1A2E35"/>
<path d="M54.3271 63.3545H55.9579C55.9579 63.3545 55.9579 61.9835 57.3763 61.963C58.1163 61.9493 58.5 62.436 58.6507 62.8061C58.8289 63.238 58.7741 63.7247 58.5343 64.1223C58.2602 64.5747 57.6504 64.9929 56.554 64.801V68.4753H58.1642V66.3228C58.1642 66.3228 60.4254 65.7401 60.4254 63.2517C60.4254 60.8662 58.2876 60.3177 57.3763 60.3177C56.6774 60.3177 54.2929 60.4891 54.3271 63.3614V63.3545Z" fill="#1A2E35"/>
<path d="M58.1848 69.2294H56.554V70.758H58.1848V69.2294Z" fill="#1A2E35"/>
<path d="M57.6709 92.7833C57.6709 92.7833 57.6504 92.701 57.6092 92.5571C57.4037 91.8716 56.6705 89.8219 54.9781 89.2461C52.9362 88.5469 48.5989 87.7037 47.5025 87.2512C46.4062 86.8057 45.7073 86.4561 45.4127 87.0045C45.1112 87.5529 45.5634 88.4029 46.1596 88.6497C46.7557 88.8965 48.7016 89.7533 48.7016 89.7533L47.6533 92.7833C47.6533 92.7833 53.2856 94.8741 54.1284 95.7721C54.9781 96.6701 54.8068 97.8149 54.8068 97.8149L58.4246 94.8672L57.6641 92.7833H57.6709Z" fill="#FFBF9D"/>
<path d="M41.3015 85.9282C41.3015 85.9282 40.9178 85.9899 41.1645 86.3806C41.4111 86.7713 43.5901 89.2872 43.5901 89.2872C43.5901 89.2872 43.2886 90.2537 43.5901 90.5553C43.8916 90.857 46.5364 92.132 46.5364 92.132C46.5364 92.132 48.0233 93.9486 48.9757 94.2502C49.9282 94.5518 53.6282 95.395 53.6282 95.395L52.8677 91.8578L50.0926 91.9812L48.8113 90.8912C48.8113 90.8912 49.4348 89.6505 49.5719 89.6779C49.7089 89.7053 51.045 89.4928 50.908 89.1363C50.771 88.773 50.6065 88.4097 49.6267 88.5331C48.6468 88.6565 47.1325 90.0755 47.1325 90.0755L46.4131 89.6231L47.3107 88.0464C47.3107 88.0464 49.3252 87.6557 48.8593 86.2298C48.8593 86.2298 46.7625 86.6822 46.4062 86.929C46.0499 87.1689 44.9331 89.3831 44.9331 89.3831L45.0153 87.3883C45.0153 87.3883 46.1322 86.2367 45.9403 85.51C45.7484 84.7834 45.2345 84.8108 45.2345 84.8108L43.7066 86.9907L43.6449 87.3609C43.6449 87.3609 42.5897 86.2298 42.1306 85.9899C41.6647 85.7499 41.2878 85.9282 41.2878 85.9282H41.3015Z" fill="#FFBF9D"/>
<path d="M53.6214 95.443C53.6214 95.443 53.5734 95.443 53.4843 95.4224L53.0801 95.3402C52.7169 95.2579 52.1962 95.1414 51.5178 94.9906C50.8395 94.8329 50.0104 94.6478 49.058 94.3805C48.5646 94.2434 48.1398 93.8869 47.7218 93.5167C47.3038 93.1328 46.8927 92.701 46.4885 92.2211L46.509 92.2348C45.8786 91.9332 45.214 91.611 44.5288 91.2477C44.3575 91.1586 44.1793 91.0626 44.008 90.9666C43.919 90.9187 43.8367 90.8638 43.7477 90.809C43.6654 90.7473 43.5695 90.7062 43.4941 90.5965C43.3708 90.3908 43.3845 90.1646 43.3982 89.9521C43.4188 89.7396 43.4599 89.5271 43.5215 89.3214L43.5352 89.3831C43.0899 88.869 42.6308 88.3343 42.158 87.779C41.925 87.498 41.6852 87.2101 41.4454 86.9222C41.3289 86.7714 41.2056 86.6343 41.0959 86.4629C41.048 86.3738 40.9932 86.2709 41.0206 86.1407C41.0548 86.0036 41.1782 85.935 41.2946 85.9145H41.2741C41.5139 85.8254 41.7743 85.8254 42.021 85.9145C42.2676 85.9967 42.4595 86.1681 42.6445 86.3258C43.0145 86.648 43.3708 87.0044 43.7202 87.3746L43.5901 87.4157L43.6517 87.0456V87.0318L43.6654 87.0181L45.1866 84.8382L45.2071 84.804H45.2414C45.5497 84.804 45.8033 85.0233 45.9197 85.277C45.9814 85.4072 46.0294 85.5306 46.0431 85.6814C46.0499 85.8254 46.0294 85.9762 45.9883 86.1064C45.8101 86.648 45.4607 87.0867 45.0769 87.5048L45.0975 87.4569L45.0838 87.7105C45.0564 88.3 45.0358 88.8759 45.0153 89.4517L44.8714 89.4106C45.0838 88.9924 45.3031 88.5811 45.5292 88.1766C45.7621 87.779 45.9746 87.3746 46.276 87.0113C46.3651 86.9085 46.4885 86.8605 46.5912 86.8193C46.7009 86.7782 46.8036 86.7439 46.9133 86.7097C47.1325 86.6411 47.345 86.5863 47.5574 86.5246C47.989 86.4149 48.4139 86.3121 48.8387 86.2161L48.9072 86.2024L48.9278 86.2641C48.9894 86.4972 49.0237 86.7508 48.9552 86.9907C48.8867 87.2306 48.7359 87.4294 48.5578 87.5871C48.1946 87.9024 47.7561 88.067 47.3175 88.1698L47.3655 88.1355C47.0572 88.6702 46.7557 89.198 46.4679 89.7053L46.4473 89.6093L47.1668 90.0618H47.0846C47.4888 89.6985 47.9068 89.3694 48.3453 89.0747C48.7839 88.8005 49.243 88.5262 49.7637 88.4988C50.0104 88.4783 50.2708 88.4851 50.5106 88.5674C50.6271 88.6085 50.7435 88.6771 50.8326 88.7799C50.9217 88.8827 50.9628 89.013 50.9628 89.1432C50.9628 89.2735 50.9217 89.4106 50.8326 89.4997C50.7435 89.5888 50.6339 89.6505 50.5311 89.6985C50.3119 89.7876 50.0858 89.8287 49.8665 89.8424L49.9007 89.8219C49.5239 90.2332 49.1813 90.6102 48.8455 90.9735V90.8981C49.2978 91.2957 49.7226 91.6522 50.1132 91.9949H50.0652C50.4146 91.8372 50.7641 91.7139 51.093 91.6247C51.4287 91.5425 51.7439 91.4945 52.0454 91.4739C52.6484 91.4396 53.1554 91.5219 53.5597 91.6316C53.9571 91.7413 54.2586 91.8647 54.4505 91.9469C54.5464 91.9881 54.6218 92.0292 54.6697 92.0497C54.7177 92.0703 54.7451 92.084 54.7451 92.0909C54.7451 92.0977 54.7177 92.084 54.6697 92.0635L54.4436 91.9743C54.2449 91.8989 53.9503 91.7824 53.546 91.6796C53.1486 91.5767 52.6415 91.5082 52.0523 91.5425C51.7576 91.563 51.4424 91.6179 51.1136 91.7001C50.7847 91.7893 50.4489 91.9126 50.0995 92.0703L50.072 92.084L50.0515 92.0635L48.7702 90.9804L48.7291 90.9461L48.7633 90.905C49.0922 90.5416 49.4417 90.1578 49.8117 89.7464L49.8254 89.7327H49.8459C50.0583 89.7122 50.2776 89.671 50.4763 89.5888C50.675 89.5065 50.86 89.3557 50.8395 89.1432C50.8395 88.9238 50.6819 88.7456 50.4695 88.6839C50.2571 88.6154 50.0104 88.6085 49.7706 88.6291C49.2909 88.6565 48.8455 88.917 48.4139 89.1912C47.989 89.4791 47.5711 89.8081 47.1737 90.1715L47.1325 90.2057L47.0914 90.1783L46.372 89.7259L46.3172 89.6916L46.3514 89.6368C46.6461 89.1226 46.9407 88.6017 47.249 88.0601L47.2627 88.0327H47.297C47.7081 87.9299 48.1398 87.7585 48.4687 87.4706C48.6331 87.3266 48.7633 87.1484 48.825 86.9427C48.8867 86.7371 48.8524 86.5109 48.7976 86.2984L48.8867 86.3463C48.4618 86.4423 48.037 86.5383 47.6122 86.6548C47.3998 86.7097 47.1874 86.7714 46.9749 86.8331C46.7694 86.9016 46.5296 86.9633 46.4062 87.0935C46.1322 87.4226 45.906 87.8339 45.6799 88.2315C45.4538 88.6291 45.2414 89.0404 45.029 89.4585L44.8714 89.7739L44.8851 89.4243C44.9056 88.8484 44.9331 88.2658 44.9536 87.6831L44.9673 87.4294V87.402L44.9879 87.3815C45.351 86.9839 45.6936 86.5383 45.8581 86.0447C45.8992 85.9213 45.9129 85.7979 45.906 85.6745C45.8992 85.558 45.8512 85.4346 45.7964 85.3249C45.6936 85.1056 45.4812 84.9411 45.2619 84.9342L45.3236 84.8999C44.796 85.6471 44.2821 86.3875 43.7956 87.0798L43.8093 87.0524L43.7477 87.4226L43.7202 87.5734L43.6175 87.4637C43.2749 87.1004 42.9186 86.7439 42.5554 86.4286C42.3704 86.2709 42.1854 86.1201 41.9798 86.0447C41.7743 85.9693 41.5345 85.9693 41.3426 86.0447H41.3221C41.2535 86.0653 41.1782 86.1133 41.1713 86.1681C41.1576 86.2298 41.185 86.3121 41.233 86.3875C41.3289 86.5383 41.4522 86.6891 41.5687 86.8331C41.8085 87.121 42.0415 87.4089 42.2745 87.6899C42.7473 88.2452 43.2063 88.7867 43.6449 89.3009L43.6654 89.3283L43.6517 89.3626C43.5901 89.5614 43.5489 89.767 43.5284 89.9658C43.5078 90.1646 43.5078 90.3771 43.6038 90.5279C43.7065 90.6582 43.9121 90.7541 44.0697 90.857C44.241 90.9598 44.4123 91.0489 44.5836 91.138C45.2688 91.5013 45.9334 91.8304 46.557 92.1389H46.5707V92.1526C46.9749 92.6324 47.3861 93.0643 47.7972 93.4413C48.2083 93.8115 48.6263 94.1611 49.0922 94.2913C50.0378 94.5656 50.8669 94.7575 51.5452 94.9289C52.2167 95.0934 52.7375 95.2168 53.1006 95.3059L53.5049 95.4087C53.594 95.4293 53.6419 95.4499 53.6419 95.4499L53.6214 95.443Z" fill="#FFBF9D"/>
<path d="M47.9068 92.7695C47.9068 92.7695 47.2764 92.2828 46.9133 91.3917L46.7899 91.0763C46.742 90.9667 46.7351 90.8364 46.7488 90.7267C46.8105 90.4937 46.927 90.3566 47.0161 90.2332C47.2079 89.9795 47.3929 89.8836 47.4066 89.9178C47.4066 89.9315 47.2696 90.0412 47.1051 90.3017C47.0298 90.4251 46.9201 90.5896 46.8859 90.7542C46.8722 90.8433 46.8859 90.9324 46.927 91.0284C46.9681 91.1243 47.0161 91.2409 47.0572 91.3437C47.3998 92.2006 47.9411 92.749 47.9068 92.7832V92.7695Z" fill="#FFBF9D"/>
<path d="M45.3236 91.0763C45.3236 91.0763 45.2003 91.09 45.0358 90.9872C44.8714 90.8912 44.6727 90.6856 44.611 90.3908C44.5425 90.096 44.6384 89.8218 44.7412 89.6642C44.8508 89.5065 44.9536 89.4448 44.9673 89.4654C44.981 89.4859 44.9056 89.5682 44.8371 89.719C44.7618 89.8698 44.7069 90.1098 44.7618 90.3565C44.8166 90.6033 44.9742 90.7953 45.1044 90.8981C45.2345 91.0078 45.3373 91.0489 45.3305 91.0763H45.3236Z" fill="#FFBF9D"/>
<path d="M43.6654 89.342C43.6175 89.342 43.5627 88.8142 43.5969 88.1629C43.6243 87.5117 43.686 86.9907 43.7271 86.9907C43.7751 86.9907 43.7819 87.5186 43.7545 88.1698C43.7271 88.821 43.7065 89.342 43.6723 89.342H43.6654Z" fill="#FFBF9D"/>
<path d="M71.6969 138.89C71.6969 138.89 99.9272 139.014 100.523 138.89C101.119 138.767 97.1658 123.912 97.1658 123.912L74.1568 123.096L71.6901 138.897L71.6969 138.89Z" fill="#01194F"/>
<path d="M72.1492 92.8517L73.9787 80.115C74.8077 70.182 74.6227 58.1103 76.0959 54.9638C78.823 49.1439 87.0797 48.9999 87.0797 48.9999C98.036 48.7737 99.564 57.2603 100.277 64.9653C100.4 66.2746 100.832 68.6054 101.4 71.3063C102.736 76.9343 104.477 82.7336 108.328 86.7096C109.794 88.2245 110.726 90.3016 110.973 92.3993C111.219 94.4969 109.986 96.951 107.889 97.1909C108.896 98.2535 109.383 99.7959 109.164 101.249C108.944 102.702 108.019 104.032 106.738 104.745C104.936 105.753 102.709 105.513 100.674 105.17C98.6458 104.834 96.5286 104.375 94.9869 103.018C93.4452 101.654 92.7189 99.5971 92.1981 97.6091C91.5609 95.2098 91.1224 92.7626 90.8757 90.2948L72.1629 92.8517H72.1492Z" fill="#1A2E35"/>
<path d="M85.4695 52.023L86.1889 51.406L93.4178 54.7581C94.4798 54.8747 95.2815 55.7795 95.261 56.8558L92.9381 81.5203C92.8628 83.1518 93.5068 83.9469 92.4585 85.1946L85.2433 93.5235C82.7218 96.526 83.2905 89.6641 81.5912 86.1269C81.4747 85.8801 82.0846 85.0163 82.0503 84.8381C82.0229 84.6187 81.9681 84.4748 81.9681 84.2966C81.8447 82.3497 81.9201 80.6702 81.9201 80.6702C81.8927 78.5383 81.8996 77.6609 81.8927 77.6814C81.8927 77.6814 77.3978 76.9342 76.4728 71.0663C76.0137 68.146 76.3289 64.1838 76.692 60.2833C77.1991 54.8815 81.1184 51.8036 85.4626 52.0298L85.4695 52.023Z" fill="#FFBF9D"/>
<path d="M85.2707 64.4854C85.257 64.883 85.5791 65.2258 85.9971 65.2463C86.4082 65.2669 86.7576 64.9653 86.7713 64.5677C86.785 64.1701 86.463 63.8273 86.045 63.8068C85.627 63.7862 85.2845 64.0878 85.2707 64.4854Z" fill="#1A2E35"/>
<path d="M77.8226 64.0947C77.8089 64.4923 78.131 64.835 78.5489 64.8556C78.9601 64.8762 79.3095 64.5745 79.3232 64.1769C79.3369 63.7793 79.0149 63.4366 78.5969 63.416C78.1789 63.3955 77.8363 63.6971 77.8226 64.0947Z" fill="#1A2E35"/>
<path d="M77.3909 61.86C77.4869 61.956 78.0556 61.5378 78.8641 61.5378C79.6727 61.531 80.2688 61.9423 80.351 61.8463C80.3921 61.8052 80.2962 61.6269 80.0427 61.435C79.7891 61.2499 79.3506 61.0648 78.8504 61.0648C78.3434 61.0648 77.9254 61.2499 77.6787 61.4418C77.4321 61.6338 77.343 61.812 77.3909 61.8532V61.86Z" fill="#1A2E35"/>
<path d="M85.5791 62.3535C85.6819 62.4427 86.2095 61.9628 87.0112 61.8806C87.8128 61.7914 88.4501 62.141 88.5255 62.0314C88.5666 61.9834 88.4501 61.8189 88.176 61.6543C87.9019 61.4967 87.4497 61.3596 86.9495 61.4076C86.4493 61.4624 86.045 61.6886 85.8189 61.9011C85.5928 62.1136 85.5243 62.2987 85.5722 62.3398L85.5791 62.3535Z" fill="#1A2E35"/>
<path d="M82.4614 68.0912C82.4614 68.0432 81.9612 67.961 81.1458 67.8513C80.9403 67.8307 80.7416 67.7896 80.7073 67.6456C80.6594 67.4948 80.7484 67.2755 80.8444 67.0355C81.0362 66.5351 81.2418 66.0141 81.4542 65.4589C82.3038 63.2173 82.9205 61.3733 82.8314 61.339C82.7424 61.3047 81.9818 63.0939 81.1321 65.3355C80.9266 65.8907 80.7347 66.4117 80.5429 66.919C80.4675 67.1521 80.3305 67.4194 80.4332 67.7279C80.4881 67.8856 80.6388 67.9952 80.7758 68.0295C80.906 68.0706 81.0225 68.0706 81.1253 68.0775C81.9475 68.1255 82.4546 68.1255 82.4546 68.0775L82.4614 68.0912Z" fill="#1A2E35"/>
<path d="M81.8927 77.6747C81.8927 77.6747 85.8394 77.9283 89.7451 75.5839C89.7451 75.5839 87.7717 79.6421 81.8996 79.0937V77.6747H81.8927Z" fill="#7C4235"/>
<path d="M83.4755 69.6131C83.7702 69.2292 84.6335 68.6328 85.1406 68.6808C85.49 68.722 85.723 68.9756 85.9354 69.2567C86.1478 69.5446 85.9285 70.3329 85.7298 70.6002C85.5106 70.9087 85.0857 71.1349 84.702 71.0253C84.3183 70.9156 83.8113 70.3398 83.4961 70.0861C83.407 70.0176 83.3179 69.9422 83.2631 69.8462C83.2083 69.7502 83.4001 69.6817 83.4687 69.5994" fill="#7C4235"/>
<path d="M84.9624 59.166C85.0652 59.3785 85.86 59.1934 86.8124 59.2071C87.7717 59.2071 88.5597 59.4059 88.6625 59.1934C88.7104 59.0906 88.5528 58.8987 88.2239 58.7204C87.895 58.5422 87.388 58.3914 86.8193 58.3845C86.2437 58.3845 85.7367 58.5216 85.4078 58.6999C85.072 58.8781 84.9213 59.0632 84.9624 59.166Z" fill="#1A2E35"/>
<path d="M77.6787 58.3913C77.8226 58.5764 78.3776 58.3913 79.0491 58.3776C79.7206 58.3433 80.2893 58.501 80.4195 58.309C80.4743 58.2131 80.3853 58.028 80.1386 57.8566C79.8919 57.6852 79.4877 57.5413 79.0217 57.555C78.5626 57.5687 78.1584 57.7332 77.9254 57.9252C77.6856 58.1171 77.6102 58.3022 77.6719 58.3913H77.6787Z" fill="#1A2E35"/>
<path d="M94.5963 67.1109C94.5963 67.1109 90.396 68.1872 88.5734 57.8635C87.9499 54.3331 84.8596 51.3443 84.8596 51.3443L86.1889 51.0153C86.1889 51.0153 94.2263 53.723 94.3565 53.8327C94.4867 53.9424 96.1997 58.1582 96.1997 58.1582L94.5963 67.1178V67.1109Z" fill="#1A2E35"/>
<path d="M93.5959 66.6791C93.5959 66.2404 94.103 65.2121 94.5346 65.1436C95.6858 64.9654 97.7619 65.0613 97.7825 67.9816C97.8099 71.9849 93.7878 71.1829 93.7809 71.0664C93.7809 70.9772 93.5959 68.1804 93.6028 66.6723L93.5959 66.6791Z" fill="#FFBF9D"/>
<path d="M94.9869 69.5445C94.9869 69.5445 95.0554 69.5925 95.1719 69.6474C95.2884 69.7022 95.4871 69.7365 95.6926 69.6542C96.1174 69.4965 96.4669 68.8247 96.4806 68.105C96.4875 67.7416 96.4121 67.392 96.2819 67.111C96.1586 66.8162 95.9667 66.6174 95.7543 66.5763C95.5419 66.5283 95.3911 66.6585 95.3432 66.7682C95.2884 66.8779 95.3158 66.9602 95.2952 66.967C95.2815 66.9807 95.2061 66.8985 95.2404 66.734C95.2541 66.6517 95.3021 66.5626 95.398 66.4803C95.4939 66.4049 95.631 66.3638 95.7817 66.3775C96.09 66.3981 96.371 66.6791 96.5149 66.9944C96.6725 67.3098 96.7752 67.7005 96.7615 68.105C96.741 68.9139 96.3299 69.6679 95.7543 69.8393C95.4734 69.9147 95.2404 69.8324 95.1171 69.7365C94.9937 69.6405 94.9732 69.5514 94.9869 69.5445Z" fill="#7C4235"/>
<path d="M91.8898 65.0134C91.8898 65.0134 91.6705 64.9859 91.3005 64.8626C90.9305 64.7392 90.4166 64.465 89.9233 63.9645C89.6766 63.7178 89.4368 63.4093 89.2243 63.0597C89.0188 62.7032 88.8338 62.2988 88.683 61.86C88.3747 60.9826 88.1966 59.968 87.9704 58.9124C87.7443 57.8567 87.4908 56.8627 87.203 55.9715C86.9152 55.0804 86.5932 54.2989 86.278 53.6683C85.9628 53.0307 85.6613 52.544 85.4352 52.2218C85.3256 52.0573 85.2296 51.9408 85.168 51.8517C85.1063 51.7694 85.072 51.7283 85.0652 51.7283C85.0652 51.7283 85.0926 51.7763 85.1474 51.8654C85.2022 51.9545 85.2913 52.0779 85.4009 52.2424C85.6133 52.5714 85.908 53.065 86.2095 53.7025C86.511 54.34 86.833 55.1147 87.1071 56.0058C87.388 56.897 87.6415 57.891 87.8677 58.9398C88.0938 59.9886 88.2719 61.01 88.594 61.8943C88.7516 62.3399 88.9366 62.7443 89.1558 63.1008C89.3751 63.4573 89.6218 63.7657 89.8753 64.0125C90.3823 64.5129 90.9168 64.7803 91.2937 64.8968C91.6774 65.0134 91.8966 65.0065 91.8966 65.0065L91.8898 65.0134Z" fill="#1A2E35"/>
<path d="M84.7637 71.0938C84.7568 71.0527 85.1063 71.0664 85.4763 70.7442C85.6544 70.5865 85.8326 70.3397 85.8806 70.0313C85.9285 69.7296 85.8257 69.3663 85.5859 69.099C85.442 68.9345 85.2639 68.8179 85.072 68.7562H85.1474C84.0168 69.2224 83.3179 69.8393 83.2768 69.7913C83.2425 69.7639 83.8935 69.0647 85.0583 68.5506L85.0926 68.5369L85.1337 68.5506C85.3667 68.6191 85.5859 68.7562 85.7572 68.955C86.0382 69.2772 86.1546 69.7091 86.0861 70.0793C86.0176 70.4494 85.7915 70.7236 85.5791 70.8881C85.1268 71.2172 84.75 71.1349 84.7637 71.1144V71.0938Z" fill="#1A2E35"/>
<path d="M101.037 125.022C97.433 126.613 93.2944 127.065 89.4094 126.291C86.6069 125.729 85.2433 126.387 82.3998 126.661C80.7142 126.825 77.7061 125.66 76.0137 125.612C74.3418 125.564 72.711 124.762 71.6969 123.487L75.1229 90.1234L78.453 81.2804L81.8996 80.8417C81.8996 80.8417 81.6323 84.5365 86.9221 84.8587C92.2118 85.1878 92.8696 80.9651 92.8696 80.9651C92.8696 80.9651 102.956 82.9393 102.867 83.2478C102.784 83.5563 96.8438 116.913 96.8438 116.913L101.044 125.029L101.037 125.022Z" fill="white"/>
<path d="M94.0824 79.7449C93.918 80.2247 91.4513 106.473 91.2046 113.396C90.9579 120.32 93.548 138.938 93.548 138.938L108.122 138.835L102.195 117.16L104.84 83.3438L96.371 81.2736L94.0824 79.7449Z" fill="#B71010"/>
<path opacity="0.3" d="M92.3283 107.007C92.3283 107.007 91.9446 113.287 94.1167 116.029C96.2888 118.771 98.3375 119.251 100.297 119.415C101.654 119.532 102.709 119.038 102.709 119.038L101.661 115.069L92.3283 107.007Z" fill="#B71010"/>
<path d="M103.936 83.1244C103.936 83.1244 109.033 84.7011 109.684 90.9392C110.212 96.0187 107.012 111.799 105.868 114.027C104.196 117.283 101.695 119.401 96.5971 116.584C94.8156 115.597 92.8902 112.094 92.3077 106.761C91.5472 99.8027 91.2114 91.5767 91.2114 91.5767L97.2891 90.6238L100.325 99.1447L103.942 83.1244H103.936Z" fill="#B71010"/>
<path d="M101.065 117.88C101.065 117.88 101.017 117.88 100.921 117.88H100.489C100.297 117.873 100.064 117.88 99.7901 117.832L99.3447 117.77C99.2625 117.756 99.1803 117.749 99.0981 117.729L98.8445 117.66L98.2895 117.509C98.1045 117.441 97.9127 117.352 97.7071 117.269C97.6043 117.222 97.4947 117.187 97.3988 117.132L97.0973 116.954L96.7821 116.769C96.6725 116.707 96.5834 116.618 96.4738 116.543C95.6447 115.933 94.843 115.042 94.2057 113.917C93.5617 112.793 93.0478 111.456 92.7257 109.969C92.39 108.481 92.2461 106.864 92.0885 105.163C91.787 101.763 91.5472 98.0205 91.3279 94.0926C91.2799 93.2288 91.2388 92.3788 91.1977 91.5356V91.4671H91.2662C94.192 91.0421 96.9808 90.6445 99.5777 90.2743H99.6462L99.6599 90.3291C99.9066 91.5905 100.146 92.8107 100.379 93.9692C100.599 95.1345 100.852 96.2313 101.099 97.2664C101.599 99.3367 102.058 101.153 102.373 102.668C103.011 105.705 103.093 107.522 103.093 107.522C103.093 107.522 103.093 107.494 103.079 107.439L103.052 107.193C103.024 106.973 102.99 106.658 102.935 106.24C102.826 105.41 102.627 104.197 102.298 102.682C101.976 101.167 101.503 99.3572 100.996 97.287C100.743 96.2519 100.482 95.1551 100.263 93.9897C100.03 92.8244 99.7901 91.611 99.5366 90.3428L99.6188 90.3977C97.0288 90.7679 94.2332 91.1723 91.3142 91.5905L91.3827 91.5082C91.4238 92.3514 91.4718 93.2014 91.5198 94.0651C91.739 97.9931 91.972 101.736 92.2666 105.129C92.4242 106.822 92.5681 108.44 92.8902 109.921C93.2054 111.402 93.7124 112.725 94.3428 113.842C94.9732 114.959 95.7543 115.851 96.5697 116.454C96.6725 116.529 96.7615 116.618 96.8712 116.68L97.1795 116.865L97.481 117.043C97.5769 117.105 97.6866 117.139 97.7825 117.187C97.9812 117.269 98.1731 117.365 98.3581 117.434L98.9062 117.592L99.1597 117.667C99.242 117.688 99.3242 117.695 99.3996 117.708L99.8381 117.777C100.112 117.832 100.345 117.825 100.537 117.838L100.969 117.859C101.065 117.859 101.113 117.873 101.113 117.873L101.065 117.88Z" fill="#B71010"/>
<path d="M102.634 87.7653C102.675 87.7721 102.291 89.6573 101.777 91.9674C101.263 94.2776 100.811 96.1422 100.77 96.1353C100.729 96.1284 101.113 94.2433 101.626 91.9332C102.14 89.623 102.593 87.7584 102.634 87.7653Z" fill="#B71010"/>
<path opacity="0.3" d="M69.9908 139L77.2197 138.89C77.2197 138.89 82.852 114.322 80.8238 104.115" fill="#262626"/>
<path d="M74.1568 81.6368C74.1568 81.6368 70.7103 82.1715 68.4491 85.7841C66.3798 89.0883 65.7494 101.784 65.7494 101.784L59.4113 92.4267L52.9088 96.1901C52.9088 96.1901 60.9667 113.437 61.8027 115.24C63.9542 119.888 68.2024 119.155 71.4366 118.167C74.6707 117.18 72.4575 92.4747 72.4575 92.4747L74.1637 81.6368H74.1568Z" fill="#B71010"/>
<path d="M72.4986 116.872C72.4164 116.892 67.1198 138.678 67.1198 138.678C67.1198 139.226 74.3487 138.918 75.4039 138.89C75.4039 138.89 78.9738 125.283 79.981 117.077C80.9883 108.872 81.9133 79.361 81.9133 79.361L79.3027 81.0336L74.1637 81.6368L70.8542 92.317C68.6547 99.4188 68.9013 107.055 71.5668 114L72.5055 116.879L72.4986 116.872Z" fill="#B71010"/>
<path d="M80.0701 111.223C80.0701 111.223 80.0495 111.203 80.0221 111.162L79.8988 110.963C79.796 110.784 79.6179 110.538 79.4534 110.181C79.0765 109.496 78.6312 108.447 78.2406 107.11C77.8432 105.767 77.5417 104.121 77.3704 102.284C77.1854 100.447 77.1374 98.4111 77.1511 96.286C77.1374 94.1541 77.3635 92.125 77.665 90.3084C77.9665 88.485 78.3023 86.8603 78.5626 85.4893C78.823 84.1183 79.0149 83.0078 79.1245 82.24C79.1862 81.8562 79.2204 81.5545 79.2478 81.3489L79.2821 81.1158C79.289 81.061 79.2958 81.0404 79.2958 81.0404C79.2958 81.0404 79.2958 81.0678 79.2958 81.1227L79.2753 81.3557C79.2547 81.5614 79.2341 81.863 79.1793 82.2469C79.0902 83.0215 78.9121 84.1389 78.6654 85.5099C78.4188 86.8809 78.0899 88.5124 77.8021 90.329C77.5074 92.1456 77.2882 94.161 77.3019 96.286C77.2882 98.4111 77.3293 100.44 77.5074 102.271C77.6787 104.101 77.9665 105.739 78.3434 107.076C78.7202 108.413 79.1451 109.461 79.5014 110.154C79.659 110.51 79.8303 110.764 79.9193 110.942L80.029 111.148C80.0564 111.196 80.0632 111.216 80.0632 111.223H80.0701Z" fill="#B71010"/>
<path d="M71.1968 122.013C71.1968 122.013 71.1968 121.979 71.2105 121.917L71.2721 121.643L71.5256 120.587C71.7518 119.662 72.0807 118.339 72.4781 116.714V116.748C72.019 115.419 71.5119 113.849 71.0255 112.108C70.539 110.366 70.0662 108.447 69.7304 106.404C69.5523 105.3 69.4221 104.21 69.4358 103.155C69.4426 102.099 69.5317 101.085 69.6345 100.118C69.8606 98.1918 70.1758 96.478 70.4567 95.0453C70.7445 93.6194 70.9843 92.4678 71.1488 91.652L71.3338 90.7266L71.3818 90.4867C71.3955 90.4318 71.4023 90.4044 71.4023 90.4044C71.4023 90.4044 71.4023 90.4318 71.4023 90.4867L71.3681 90.7266C71.3406 90.9391 71.2858 91.2544 71.2105 91.6589C71.0529 92.4746 70.8336 93.6332 70.5664 95.059C70.2991 96.4986 69.9977 98.2123 69.7784 100.125C69.6756 101.085 69.6002 102.092 69.5934 103.141C69.5797 104.19 69.7099 105.266 69.888 106.37C70.2238 108.399 70.6897 110.318 71.1693 112.06C71.649 113.801 72.1492 115.371 72.5946 116.7V116.735C72.1766 118.352 71.834 119.669 71.5942 120.594L71.3132 121.643L71.2379 121.917C71.2173 121.979 71.2105 122.006 71.2036 122.006L71.1968 122.013Z" fill="#B71010"/>
<path d="M69.333 110.675C69.333 110.675 69.2987 110.538 69.2645 110.291C69.2302 110.044 69.1754 109.688 69.0863 109.249C68.9219 108.378 68.6067 107.186 68.0791 105.938C67.5515 104.69 66.9143 103.635 66.4072 102.901C66.1537 102.538 65.9413 102.243 65.7837 102.051C65.6329 101.852 65.5507 101.743 65.5576 101.736C65.5644 101.729 65.6603 101.825 65.8316 102.017C66.0029 102.202 66.2291 102.483 66.4963 102.839C67.0307 103.559 67.6885 104.615 68.223 105.876C68.7506 107.138 69.0521 108.351 69.196 109.228C69.2645 109.667 69.3125 110.03 69.3262 110.277C69.3399 110.524 69.3467 110.668 69.3399 110.668L69.333 110.675Z" fill="#B71010"/>
<path d="M94.9595 61.9423C94.9595 62.0725 90.2179 76.5367 90.2179 76.5367L93.0752 81.3215L93.9659 81.1022L97.9538 67.8513C97.9538 67.8513 96.0421 62.0725 95.8297 61.9423C95.6104 61.812 94.9595 61.9423 94.9595 61.9423Z" fill="#375A64"/>
<path d="M97.7551 84.6462C97.7551 84.6462 98.1045 81.6094 98.6459 80.1973C99.1872 78.7852 99.0707 77.8871 99.0707 77.0508C99.0707 76.3927 98.5773 75.2068 98.5773 75.2068C98.5773 75.2068 97.2823 70.6482 97.1179 69.9147C96.9603 69.1812 97.1795 67.7828 96.3778 67.8102C95.5762 67.8376 95.3912 68.4135 95.3912 69.4966C95.3912 70.5797 95.6173 70.9635 95.6173 70.9635C95.6173 70.9635 94.1852 70.0381 93.3835 70.0998C92.5887 70.1615 90.8962 70.7373 90.8962 70.7373C90.8962 70.7373 90.2933 72.0398 92.6504 71.7244C93.13 71.6628 93.9248 72.1358 93.9248 72.1358L91.184 72.3894L89.8136 74.11C89.8136 74.11 90.3207 75.0971 91.8213 73.9181L93.8289 73.8221L94.8498 75.9883L92.9381 74.8504L90.3892 75.3302L89.5053 77.0303C89.5053 77.0303 89.3751 77.6472 90.1357 77.421C90.9031 77.1948 91.3074 76.4202 91.3074 76.4202L92.6846 76.6258L93.7056 77.9625C93.7056 77.9625 92.7805 82.2058 92.9107 83.6659C93.0409 85.1329 93.4178 86.4422 93.4178 86.4422L93.5685 91.1859L98.9062 90.3908L97.7482 84.6257L97.7551 84.6462Z" fill="#FFBF9D"/>
<path d="M97.7551 84.6462C97.7551 84.6462 97.7619 84.6805 97.7825 84.7422L97.8442 85.0301C97.899 85.2906 97.9744 85.6608 98.0771 86.1475C98.2827 87.1346 98.5773 88.5673 98.9542 90.4045V90.4456H98.9199C97.4262 90.6787 95.6173 90.9529 93.5822 91.2614H93.5206V91.2065C93.4726 89.7738 93.4178 88.1766 93.3561 86.4628V86.4765C93.1848 85.8459 93.0478 85.1946 92.9381 84.516C92.8902 84.1732 92.8422 83.8305 92.8285 83.474C92.8285 83.1176 92.8491 82.7611 92.8833 82.4046C93.0341 80.9719 93.315 79.4912 93.6302 77.9694L93.6439 78.0311C93.3287 77.6129 92.9792 77.1605 92.6229 76.6944L92.6709 76.7218L91.2937 76.523L91.369 76.4819C91.1635 76.8383 90.8688 77.1674 90.4851 77.3799C90.2864 77.4827 90.0809 77.565 89.841 77.565C89.7246 77.565 89.5738 77.5307 89.4916 77.4073C89.4162 77.2908 89.4094 77.1605 89.4299 77.0303V77.0097C89.7108 76.475 90.0123 75.8992 90.3207 75.3096L90.3344 75.2754H90.3686C91.1703 75.1177 92.0405 74.9532 92.9176 74.7887H92.9724C93.5754 75.1588 94.2263 75.5427 94.8841 75.9335L94.7745 76.0294C94.4524 75.3439 94.103 74.6036 93.7535 73.8632L93.8289 73.9044H93.7946C93.1368 73.9386 92.4791 73.9661 91.8213 74.0003L91.8624 73.9866C91.554 74.2197 91.2183 74.4459 90.8277 74.5419C90.6359 74.5899 90.4235 74.5967 90.2247 74.5419C90.026 74.4733 89.8547 74.3499 89.7451 74.158L89.7177 74.1169L89.752 74.0757C90.211 73.4931 90.6701 72.9241 91.1224 72.3551L91.1429 72.3277H91.1772C92.1022 72.2386 93.0204 72.1563 93.918 72.0741L93.8837 72.2112C93.6028 72.0535 93.3013 71.9095 92.9998 71.8341C92.9244 71.8136 92.8491 71.8067 92.7737 71.7999C92.7052 71.7999 92.6229 71.8067 92.5407 71.8136C92.3763 71.8341 92.2118 71.8478 92.0474 71.8478C91.7185 71.8478 91.3759 71.8341 91.0744 71.6491C90.9237 71.5599 90.8072 71.4023 90.7729 71.224C90.7386 71.0458 90.7661 70.8744 90.8346 70.7168L90.8483 70.6893L90.8825 70.6756C91.2937 70.5385 91.7048 70.4151 92.1159 70.2986C92.527 70.1889 92.9381 70.0792 93.363 70.0381C93.5822 70.0175 93.8015 70.0655 94.0002 70.1204C94.2058 70.1752 94.3976 70.2506 94.5826 70.3329C94.9595 70.4974 95.3158 70.6962 95.6584 70.9087L95.5625 70.9978C95.4323 70.7168 95.398 70.4426 95.3637 70.1615C95.3363 69.8804 95.3295 69.6062 95.3363 69.332C95.3363 69.0578 95.3637 68.7836 95.4323 68.5163C95.4939 68.2489 95.6515 67.9747 95.9188 67.8514C96.0489 67.7897 96.186 67.7554 96.3162 67.7485C96.3847 67.7348 96.4532 67.7485 96.5286 67.7485C96.5971 67.7691 96.6725 67.7897 96.7273 67.8376C96.8506 67.9268 96.9191 68.0501 96.9671 68.1804C97.0151 68.3038 97.0356 68.434 97.0562 68.5643C97.1316 69.0716 97.0904 69.5788 97.2206 70.0381C97.7345 71.9164 98.2073 73.637 98.6253 75.1863C98.7692 75.5359 98.8925 75.8855 98.9816 76.2351C99.0296 76.4133 99.0707 76.5847 99.0912 76.7629C99.1186 76.9412 99.1118 77.1194 99.1186 77.2839C99.1392 77.9626 99.1186 78.6138 98.9816 79.1965C98.8583 79.786 98.6184 80.2933 98.4883 80.7731C98.3512 81.2598 98.2553 81.7123 98.1731 82.1167C98.0155 82.9256 97.9195 83.5631 97.851 83.9881L97.7825 84.4749C97.7688 84.5845 97.7551 84.6394 97.7551 84.6394C97.7551 84.6394 97.7551 84.5845 97.7688 84.4749L97.8236 83.9881C97.8784 83.5631 97.9675 82.9256 98.1182 82.1099C98.1936 81.7054 98.2895 81.2461 98.4266 80.7594C98.5568 80.2659 98.7966 79.7654 98.9131 79.1828C99.0433 78.6069 99.057 77.9694 99.0364 77.2908C99.0364 77.1194 99.0364 76.948 99.009 76.7835C98.9816 76.6121 98.9405 76.4407 98.8925 76.2694C98.7966 75.9266 98.6733 75.577 98.5294 75.2274C98.0977 73.6781 97.6249 71.9507 97.1041 70.0724C96.9671 69.5925 97.0082 69.0784 96.9328 68.5917C96.8917 68.3518 96.8369 68.0844 96.6519 67.9542C96.5628 67.8856 96.4464 67.8719 96.323 67.8856C96.1997 67.8925 96.0764 67.9199 95.9667 67.9747C95.7475 68.0776 95.6104 68.3038 95.5487 68.5574C95.4871 68.8042 95.4665 69.0716 95.4597 69.3458C95.4597 69.6131 95.4597 69.8873 95.4871 70.1615C95.5145 70.4289 95.5625 70.7168 95.6721 70.943L95.7749 71.1555L95.5762 71.0321C95.2404 70.8264 94.891 70.6276 94.5209 70.47C94.1578 70.3123 93.7604 70.1615 93.3698 70.1889C92.9655 70.2301 92.5544 70.3397 92.1502 70.4494C91.7459 70.5591 91.3348 70.6893 90.9237 70.8264L90.9648 70.7853C90.9099 70.9156 90.8894 71.0664 90.9168 71.2035C90.9442 71.3406 91.0333 71.4571 91.1498 71.5325C91.3964 71.6902 91.7253 71.7107 92.0405 71.7107C92.1981 71.7107 92.3557 71.697 92.5202 71.6765C92.5955 71.6696 92.6846 71.6559 92.7737 71.6628C92.8628 71.6628 92.945 71.6765 93.0341 71.697C93.3698 71.7793 93.6713 71.9233 93.9659 72.0878L94.1715 72.2043L93.9317 72.2249C93.0341 72.3071 92.1159 72.3963 91.1909 72.4785L91.2457 72.4511C90.7935 73.0201 90.3344 73.5959 89.8753 74.1717V74.0894C89.9644 74.2265 90.1151 74.3431 90.2796 74.3979C90.444 74.4528 90.629 74.4459 90.8003 74.3979C91.1566 74.3157 91.4787 74.0963 91.7733 73.8701L91.7939 73.8564H91.8144L93.7878 73.7604H93.8769L93.8974 73.8015C94.2469 74.5419 94.5963 75.2822 94.9184 75.9677L95.028 76.1939L94.8087 76.0637C94.1509 75.673 93.5 75.2891 92.897 74.9258H92.9518C92.0748 75.0971 91.2046 75.2617 90.4029 75.4125L90.4577 75.3713C90.1494 75.9609 89.8479 76.5367 89.5738 77.0714V77.0508C89.567 77.1399 89.5738 77.2428 89.6218 77.3045C89.6629 77.373 89.752 77.3936 89.8479 77.3936C90.0397 77.3936 90.2453 77.3182 90.4235 77.2222C90.7798 77.0303 91.0607 76.7149 91.2525 76.3859L91.28 76.3379H91.3279C91.8076 76.4133 92.2803 76.4887 92.7052 76.5504H92.7326L92.7531 76.5778C93.1094 77.044 93.4589 77.5033 93.7741 77.9146L93.7946 77.942V77.9763C93.4657 79.4912 93.1917 80.9719 93.0341 82.3978C92.993 82.7542 92.9724 83.1038 92.9793 83.4535C92.9861 83.7962 93.0341 84.1458 93.082 84.4817C93.1848 85.1535 93.3218 85.8116 93.4931 86.4285V86.4423C93.548 88.1492 93.5959 89.7532 93.637 91.186L93.5754 91.1311C95.6173 90.8363 97.4193 90.569 98.9199 90.3496L98.8857 90.3976C98.5225 88.5536 98.2416 87.114 98.0497 86.1269C97.9538 85.6402 97.8853 85.2632 97.8373 85.0095L97.7825 84.7216C97.7688 84.6599 97.7688 84.6257 97.7688 84.6257L97.7551 84.6462Z" fill="#FFBF9D"/>
<path d="M93.5685 72.1974C93.5685 72.1974 93.6439 72.17 93.7878 72.1494C93.9317 72.1289 94.1304 72.1014 94.3907 72.1151C94.6443 72.1289 94.9732 72.1837 95.2541 72.4031C95.4048 72.5196 95.4939 72.6773 95.5898 72.8349C95.6789 72.9926 95.768 73.164 95.8502 73.3353C96.0147 73.6712 96.2613 73.9454 96.4601 74.2196C96.6588 74.487 96.8369 74.7338 96.9671 74.96C97.0973 75.1793 97.1727 75.3781 97.1795 75.5358C97.1795 75.6935 97.111 75.7552 97.111 75.7483C97.0973 75.7415 97.1453 75.6729 97.1178 75.5427C97.0973 75.4124 97.0082 75.2273 96.8712 75.0217C96.7341 74.816 96.556 74.5761 96.3504 74.3156C96.1517 74.0483 95.8982 73.7741 95.72 73.4176C95.5419 73.0817 95.398 72.7252 95.1719 72.5196C94.9252 72.3208 94.6306 72.2591 94.3839 72.2317C93.8906 72.1905 93.5754 72.2317 93.5754 72.2043L93.5685 72.1974Z" fill="#7C4235"/>
<path d="M97.6454 73.2943C97.6454 73.2943 97.3919 72.6088 96.8095 71.9439C96.5286 71.6011 96.1791 71.4229 95.9256 71.2652C95.6721 71.1075 95.5556 70.9499 95.5693 70.9362C95.583 70.9224 95.72 71.039 95.9804 71.1692C96.1106 71.2378 96.2682 71.3132 96.4326 71.416C96.6039 71.5188 96.7684 71.6696 96.9191 71.841C97.2206 72.1838 97.4193 72.5471 97.529 72.8282C97.6386 73.1024 97.6591 73.2943 97.6386 73.2943H97.6454Z" fill="#7C4235"/>
<path d="M96.3025 78.2573C96.3025 78.2573 96.3436 78.1339 96.323 77.9351C96.2956 77.7363 96.2408 77.4621 96.1243 77.181C95.8982 76.6052 95.5282 76.2419 95.5625 76.2145C95.583 76.1802 96.0216 76.5092 96.2682 77.1262C96.3916 77.4278 96.4327 77.7226 96.4327 77.9351C96.4327 78.1613 96.3162 78.2778 96.3025 78.2573Z" fill="#7C4235"/>
<g opacity="0.3">
<path d="M77.2745 100.632C77.0826 102.421 76.8976 104.238 77.1717 106.02C77.4458 107.803 78.2406 109.571 79.6795 110.654C78.3571 107.672 77.2676 104.348 77.3567 100.996" fill="#262626"/>
</g>
</g>
<rect y="120" width="32" height="32" rx="4" fill="#00194F"/>
<path d="M12.7649 142L17.7138 132.205V132.125H11.9695V130.364H19.8956V132.165L14.9524 142H12.7649Z" fill="white"/>
<defs>
<clipPath id="clip0_642_2915">
<rect width="70" height="90" fill="white" transform="translate(41 49)"/>
</clipPath>
</defs>
</svg>
