<svg width="80" height="80" viewBox="0 0 80 80" fill="none" xmlns="http://www.w3.org/2000/svg">
<g id="Group">
<path id="Vector" d="M77.3203 79.9981C74.8734 79.9981 72.4264 79.9981 69.9784 79.9981C69.9784 66.8521 69.9495 53.7061 70.0074 40.5612C70.017 38.4235 68.6906 36.6505 66.1064 36.658C48.6935 36.7127 31.2796 36.7127 13.8668 36.658C11.3019 36.6505 9.95724 38.4053 9.96689 40.5612C10.0259 53.7072 9.99691 66.8532 9.99691 79.9981C7.54996 79.9981 5.103 79.9981 2.65498 79.9981C1.31998 79.5626 0.433203 78.6787 0 77.3423C0 60.7832 0 44.2242 0 27.6641C0.617636 27.027 1.15056 26.2665 1.86578 25.7709C13.929 17.4228 26.0136 9.10786 38.0951 0.785443C39.622 -0.266793 40.378 -0.262502 41.9242 0.802605C54.0893 9.18402 66.2501 17.5729 78.4291 25.935C79.526 26.688 79.9957 27.603 79.9935 28.9341C79.9678 44.5771 79.9582 60.2201 80 75.8621C80.0043 77.9204 79.2923 79.3169 77.3203 79.9981Z" fill="url(#paint0_linear_3796_1762)"/>
<path id="Vector_2" d="M42.7982 79.9976C41.905 79.501 41.639 78.7383 41.6487 77.7333C41.6884 73.6488 41.6637 69.5632 41.6658 65.4776C41.6669 63.8708 42.2159 63.3259 43.8286 63.3227C45.5668 63.3184 47.305 63.3216 49.1633 63.3216C49.1633 64.1368 49.1558 64.8801 49.1643 65.6235C49.1826 67.241 50.1884 68.3211 51.6606 68.3147C53.1157 68.3093 54.1322 67.2109 54.158 65.602C54.1698 64.8769 54.1601 64.1518 54.1601 63.3216C54.7156 63.3216 55.2013 63.3216 55.687 63.3216C57.066 63.3216 58.445 63.3013 59.8239 63.3291C60.9723 63.3527 61.6414 63.9888 61.6479 65.129C61.6704 69.4742 61.6554 73.8204 61.6597 78.1656C61.6607 79.0505 61.1911 79.6104 60.4491 79.9987C54.5654 79.9976 48.6818 79.9976 42.7982 79.9976Z" fill="url(#paint1_linear_3796_1762)"/>
<path id="Vector_3" d="M19.5252 79.9977C18.5966 79.543 18.2964 78.7814 18.3028 77.7753C18.3307 73.6897 18.3125 69.6052 18.3157 65.5196C18.3168 63.901 18.9022 63.325 20.5385 63.3229C22.2521 63.3197 23.9645 63.3218 25.8163 63.3218C25.8163 64.1981 25.7885 65.0187 25.8228 65.836C25.8721 67.0288 26.6345 67.9866 27.6907 68.2548C28.7598 68.5261 29.9125 68.0885 30.439 67.1103C30.662 66.6952 30.7574 66.1803 30.795 65.703C30.8518 64.9565 30.81 64.2024 30.81 63.414C31.0405 63.3776 31.2121 63.3282 31.3836 63.3272C33.0489 63.3207 34.7142 63.3111 36.3794 63.3272C37.6822 63.34 38.302 63.9536 38.3052 65.245C38.3149 69.5129 38.2913 73.7798 38.3224 78.0477C38.3288 78.9755 37.9042 79.5515 37.1772 79.9999C31.2925 79.9977 25.4089 79.9977 19.5252 79.9977Z" fill="url(#paint2_linear_3796_1762)"/>
<path id="Vector_4" d="M37.4911 45.7566C37.4782 44.98 37.4889 44.2034 37.4889 43.3271C35.5706 43.3271 33.7777 43.3174 31.9838 43.3292C30.6123 43.3389 29.9926 43.9717 29.9915 45.35C29.9872 49.5676 29.9872 53.7851 29.9915 58.0026C29.9936 59.3852 30.6102 59.9987 31.9988 59.9998C37.3356 60.0041 42.6723 60.0041 48.0091 59.9998C49.3484 59.9987 49.98 59.3745 49.9821 58.0466C49.9875 53.8033 49.9864 49.559 49.9821 45.3157C49.981 43.9867 49.3537 43.3421 48.0338 43.3303C46.3685 43.3153 44.7022 43.3249 43.0358 43.3303C42.8643 43.3314 42.6927 43.3786 42.4868 43.4086C42.4868 44.2313 42.4997 45.0111 42.4836 45.7909C42.4525 47.2604 41.3835 48.3265 39.9702 48.319C38.5666 48.3115 37.5157 47.2314 37.4911 45.7566Z" fill="url(#paint3_linear_3796_1762)"/>
</g>
<defs>
<linearGradient id="paint0_linear_3796_1762" x1="19.5" y1="16.5" x2="80" y2="62.5" gradientUnits="userSpaceOnUse">
<stop stop-color="#A50507"/>
<stop offset="1" stop-color="#02184E"/>
</linearGradient>
<linearGradient id="paint1_linear_3796_1762" x1="44.5" y1="68" x2="61" y2="79.5" gradientUnits="userSpaceOnUse">
<stop stop-color="#A40507"/>
<stop offset="1" stop-color="#02184D"/>
</linearGradient>
<linearGradient id="paint2_linear_3796_1762" x1="23.5" y1="69" x2="38" y2="80" gradientUnits="userSpaceOnUse">
<stop stop-color="#A40507"/>
<stop offset="1" stop-color="#02184D"/>
</linearGradient>
<linearGradient id="paint3_linear_3796_1762" x1="33.5" y1="47.5" x2="50" y2="60" gradientUnits="userSpaceOnUse">
<stop stop-color="#A40507"/>
<stop offset="1" stop-color="#02184D"/>
</linearGradient>
</defs>
</svg>
