<svg width="41" height="40" viewBox="0 0 41 40" fill="none" xmlns="http://www.w3.org/2000/svg">
<g id="Group">
<path id="Path" d="M35.4997 26.667V30.0003C35.4997 32.7617 33.2611 35.0003 30.4997 35.0003H28.833" stroke="url(#paint0_linear_4109_912)" stroke-width="2" stroke-linecap="round" stroke-linejoin="round"/>
<path id="Path_2" d="M5.5 15V10C5.5 7.23858 7.73858 5 10.5 5H12.1667" stroke="url(#paint1_linear_4109_912)" stroke-width="2" stroke-linecap="round" stroke-linejoin="round"/>
<path id="Path_3" d="M22.1667 34.9997C22.1667 32.6985 20.3012 30.833 18 30.833H9.66667C7.36548 30.833 5.5 32.6985 5.5 34.9997" stroke="url(#paint2_linear_4109_912)" stroke-width="2" stroke-linecap="round" stroke-linejoin="round"/>
<ellipse id="Oval" cx="13.8337" cy="22.4997" rx="4.16667" ry="4.16667" stroke="url(#paint3_linear_4109_912)" stroke-width="2" stroke-linecap="round" stroke-linejoin="round"/>
<path id="Path_4" fill-rule="evenodd" clip-rule="evenodd" d="M23.417 5H29.2503V9.16667C29.2503 9.6269 28.8772 10 28.417 10H24.2503C23.7901 10 23.417 9.6269 23.417 9.16667V5Z" stroke="url(#paint4_linear_4109_912)" stroke-width="2" stroke-linecap="round" stroke-linejoin="round"/>
<path id="Path_5" d="M23.8337 21.6667H31.3337C33.6348 21.6667 35.5003 19.8012 35.5003 17.5V9.16667C35.5003 6.86548 33.6348 5 31.3337 5H21.3337C19.0325 5 17.167 6.86548 17.167 9.16667V13.3333" stroke="url(#paint5_linear_4109_912)" stroke-width="2" stroke-linecap="round" stroke-linejoin="round"/>
</g>
<defs>
<linearGradient id="paint0_linear_4109_912" x1="28.833" y1="35.0003" x2="35.6587" y2="34.9034" gradientUnits="userSpaceOnUse">
<stop stop-color="#AA0606"/>
<stop offset="0.786458" stop-color="#00194F"/>
</linearGradient>
<linearGradient id="paint1_linear_4109_912" x1="5.5" y1="15" x2="12.3261" y2="14.9192" gradientUnits="userSpaceOnUse">
<stop stop-color="#AA0606"/>
<stop offset="0.786458" stop-color="#00194F"/>
</linearGradient>
<linearGradient id="paint2_linear_4109_912" x1="5.5" y1="34.9997" x2="22.4819" y2="33.7939" gradientUnits="userSpaceOnUse">
<stop stop-color="#AA0606"/>
<stop offset="0.786458" stop-color="#00194F"/>
</linearGradient>
<linearGradient id="paint3_linear_4109_912" x1="9.5" y1="20.5" x2="17.5" y2="24" gradientUnits="userSpaceOnUse">
<stop stop-color="#A90505"/>
<stop offset="1" stop-color="#00194F"/>
</linearGradient>
<linearGradient id="paint4_linear_4109_912" x1="23.417" y1="10" x2="29.3881" y2="9.87634" gradientUnits="userSpaceOnUse">
<stop stop-color="#AA0606"/>
<stop offset="0.786458" stop-color="#00194F"/>
</linearGradient>
<linearGradient id="paint5_linear_4109_912" x1="17.167" y1="21.6667" x2="35.9342" y2="21.3002" gradientUnits="userSpaceOnUse">
<stop stop-color="#AA0606"/>
<stop offset="0.786458" stop-color="#00194F"/>
</linearGradient>
</defs>
</svg>
