<svg width="20" height="20" viewBox="0 0 20 20" fill="none" xmlns="http://www.w3.org/2000/svg">
<g id="Group">
<path id="Path" d="M1.66699 6.66699V4.16699C1.66699 2.78628 2.78628 1.66699 4.16699 1.66699H8.33366" stroke="#00194F" stroke-linecap="round" stroke-linejoin="round"/>
<path id="Path_2" d="M18.3337 10.833V15.833C18.3337 17.2137 17.2144 18.333 15.8337 18.333H11.667" stroke="#00194F" stroke-linecap="round" stroke-linejoin="round"/>
<path id="Path_3" d="M10.2988 11.6663L7.20953 8.57708C7.05325 8.4208 6.84129 8.33301 6.62027 8.33301H5.83432C5.54351 8.33301 5.27373 8.48461 5.12251 8.73301C4.97128 8.98141 4.96049 9.29067 5.09403 9.54901L6.18855 11.6663" stroke="#00194F" stroke-linecap="round" stroke-linejoin="round"/>
<path id="Path_4" d="M5.35537 15H3.37907C2.66169 15 2.02479 14.541 1.79793 13.8604L0.876755 11.0969C0.792046 10.8427 0.834662 10.5634 0.99129 10.3461C1.14792 10.1288 1.39946 10 1.66733 10H2.49611C2.81176 10 3.10031 10.1783 3.24146 10.4607L3.84447 11.6667" stroke="#00194F" stroke-linecap="round" stroke-linejoin="round"/>
<path id="Path_5" d="M3.84473 11.667H12.5003C13.4208 11.667 14.1669 12.4132 14.1669 13.3337V13.3337C14.1669 14.2541 13.4208 15.0003 12.5003 15.0003" stroke="#00194F" stroke-linecap="round" stroke-linejoin="round"/>
<path id="Path_6" d="M9.46578 15L6.37653 18.0893C6.22024 18.2455 6.00828 18.3333 5.78727 18.3333H5.00131C4.7105 18.3333 4.44072 18.1817 4.2895 17.9333C4.13828 17.6849 4.12749 17.3757 4.26103 17.1173L5.35554 15" stroke="#00194F" stroke-linecap="round" stroke-linejoin="round"/>
<path id="Path_7" d="M12.5002 14.9997H9.46582" stroke="#00194F" stroke-linecap="round" stroke-linejoin="round"/>
<path id="Path_8" fill-rule="evenodd" clip-rule="evenodd" d="M13.333 1.66699H15.833V3.75033C15.833 3.98044 15.6465 4.16699 15.4163 4.16699H13.7497C13.5196 4.16699 13.333 3.98044 13.333 3.75033V1.66699Z" stroke="#00194F" stroke-linecap="round" stroke-linejoin="round"/>
<rect id="Rectangle" x="10.833" y="1.66699" width="7.5" height="6.66667" rx="2" stroke="#00194F" stroke-linecap="round" stroke-linejoin="round"/>
</g>
</svg>
