<svg width="124" height="40" viewBox="0 0 124 40" fill="none" xmlns="http://www.w3.org/2000/svg">
<g id="Group">
<g id="Group_2">
<g id="Group_3">
<path id="Vector" d="M16.437 32.4C25.4459 32.4 32.7491 25.147 32.7491 16.2C32.7491 7.25299 25.4459 0 16.437 0C7.42815 0 0.125 7.25299 0.125 16.2C0.125 25.147 7.42815 32.4 16.437 32.4Z" fill="#00194F"/>
<path id="Vector_2" d="M3.95128 40.0004C6.06448 40.0004 7.77756 38.2991 7.77756 36.2004C7.77756 34.1017 6.06448 32.4004 3.95128 32.4004C1.83808 32.4004 0.125 34.1017 0.125 36.2004C0.125 38.2991 1.83808 40.0004 3.95128 40.0004Z" fill="#B81010"/>
<path id="Vector_3" d="M30.3326 33.8C31.6673 33.8 32.7492 32.7255 32.7492 31.4C32.7492 30.0745 31.6673 29 30.3326 29C28.998 29 27.916 30.0745 27.916 31.4C27.916 32.7255 28.998 33.8 30.3326 33.8Z" fill="#B81010"/>
<path id="Vector_4" d="M32.7491 16.1004C32.6484 14.8004 31.6415 13.8004 30.3325 13.8004C29.0235 13.8004 28.0166 14.8004 27.9159 16.1004V16.2004C27.9159 21.7004 23.3848 26.2004 17.8467 26.2004C12.3087 26.2004 7.77756 21.7004 7.77756 16.2004C7.77756 16.1004 7.77756 16.0004 7.77756 15.9004C7.67687 13.9004 5.96511 12.4004 3.95128 12.4004C1.93745 12.4004 0.326383 13.9004 0.125 15.9004C0.125 16.0004 0.125 16.0004 0.125 16.1004V16.2004V16.3004C0.225692 25.2004 7.47549 32.4004 16.437 32.4004C25.3986 32.4004 32.7491 25.2004 32.7491 16.2004C32.7491 16.1004 32.7491 16.1004 32.7491 16.1004Z" fill="#B81010"/>
</g>
</g>
<g id="Group_4">
<g id="Group_5">
<path id="Vector_5" d="M66.2789 16.1998C66.2789 21.6998 61.7478 26.1998 56.2098 26.1998C50.6717 26.1998 46.1406 21.6998 46.1406 16.1998C46.1406 14.8998 47.2482 13.7998 48.5572 13.7998C49.8662 13.7998 50.9738 14.8998 50.9738 16.1998C50.9738 19.5998 53.7932 22.3998 57.2167 22.3998C60.6402 22.3998 63.4596 19.5998 63.4596 16.1998C63.4596 15.3998 64.0637 14.7998 64.8693 14.7998C65.6748 14.7998 66.2789 15.3998 66.2789 16.1998Z" fill="#B81010"/>
<path id="Vector_6" d="M63.5611 9.9002C63.5611 10.2002 63.4605 10.6002 63.2591 10.8002L63.0577 11.0002L61.9501 12.1002L57.9224 16.1002C57.419 16.6002 56.7141 16.7002 56.11 16.3002C56.11 16.3002 56.11 16.3002 56.0093 16.3002C55.9086 16.3002 55.9086 16.2002 55.8079 16.2002C55.8079 16.2002 55.8079 16.2002 55.7072 16.1002C55.7072 16.1002 55.7072 16.1002 55.7072 16.0002C55.6065 15.9002 55.6065 15.8002 55.5058 15.7002C55.5058 15.7002 55.5058 15.7002 55.5058 15.6002C55.5058 15.6002 55.5058 15.6002 55.5058 15.5002C55.5058 15.5002 55.5058 15.5002 55.5058 15.4002V15.3002C55.4051 14.9002 55.6065 14.4002 55.9086 14.1002L59.6342 10.4002C58.9293 10.1002 58.1238 10.0002 57.3183 10.0002C53.8948 10.0002 51.0754 12.8002 51.0754 16.2002C51.0754 14.9002 49.9678 13.8002 48.6588 13.8002C47.3498 13.8002 46.2422 14.9002 46.2422 16.2002C46.2422 10.7002 50.7733 6.2002 56.3113 6.2002C58.4259 6.2002 60.4397 6.9002 62.0508 8.0002C62.4535 8.3002 62.7556 8.5002 63.0577 8.8002C63.3598 9.1002 63.5611 9.5002 63.5611 9.9002Z" fill="#00194F"/>
</g>
<path id="Vector_7" d="M79.2684 23.2998H73.1262L80.2753 16.1998C80.8794 15.5998 80.8794 14.6998 80.2753 14.1998C79.9732 13.8998 79.6711 13.7998 79.2684 13.7998H69.7027C68.8971 13.7998 68.293 14.3998 68.293 15.1998C68.293 15.9998 68.8971 16.5998 69.7027 16.5998H75.8448L68.6957 23.6998C68.3937 23.9998 68.293 24.2998 68.293 24.6998C68.293 25.4998 68.8971 26.0998 69.7027 26.0998H79.2684C80.0739 26.0998 80.678 25.4998 80.678 24.6998C80.678 23.9998 80.0739 23.2998 79.2684 23.2998Z" fill="#00194F"/>
<path id="Vector_8" d="M88.8336 13.8002C87.6253 13.8002 86.417 14.2002 85.5108 14.8002V7.6002C85.5108 6.8002 84.9066 6.2002 84.1011 6.2002C83.2956 6.2002 82.6914 6.8002 82.6914 7.6002V24.7002C82.6914 25.5002 83.2956 26.1002 84.1011 26.1002C84.7052 26.1002 85.3094 25.7002 85.5108 25.1002C86.5177 25.7002 87.6253 26.1002 88.9343 26.1002C92.3578 26.1002 95.1772 23.3002 95.1772 19.9002C95.1772 16.5002 92.2571 13.8002 88.8336 13.8002ZM88.8336 23.3002C87.0211 23.3002 85.5108 21.8002 85.5108 20.0002C85.5108 18.2002 87.0211 16.7002 88.8336 16.7002C90.646 16.7002 92.1564 18.2002 92.1564 20.0002C92.1564 21.8002 90.7467 23.3002 88.8336 23.3002Z" fill="#00194F"/>
<path id="Vector_9" d="M109.476 15.1998V19.9998C109.476 23.3998 106.657 26.1998 103.233 26.1998C99.8096 26.1998 96.9902 23.3998 96.9902 19.9998V15.1998C96.9902 14.4998 97.4937 13.8998 98.1985 13.7998H98.6013C99.3061 13.8998 99.8096 14.4998 99.8096 15.1998V19.9998C99.8096 21.7998 101.32 23.2998 103.132 23.2998C104.945 23.2998 106.455 21.7998 106.455 19.9998V15.1998C106.455 14.3998 107.059 13.7998 107.865 13.7998C108.872 13.7998 109.476 14.4998 109.476 15.1998Z" fill="#00194F"/>
<path id="Vector_10" d="M122.465 13.7998C121.659 13.7998 121.055 14.3998 121.055 15.1998V16.0998V19.9998C121.055 21.7998 119.544 23.2998 117.732 23.2998C115.92 23.2998 114.409 21.7998 114.409 19.9998V15.1998C114.409 14.4998 113.906 13.8998 113.201 13.7998H112.798C112.093 13.8998 111.59 14.4998 111.59 15.1998V19.9998C111.59 23.3998 114.409 26.1998 117.833 26.1998C119.041 26.1998 120.249 25.7998 121.156 25.1998V27.5998C121.156 29.3998 119.645 30.8998 117.833 30.8998C116.322 30.8998 115.114 29.8998 114.611 28.5998C114.409 27.9998 113.906 27.5998 113.201 27.5998C112.194 27.5998 111.489 28.4998 111.791 29.3998C112.597 31.8998 114.913 33.7998 117.732 33.7998C121.156 33.7998 123.975 30.9998 123.975 27.5998V19.9998V16.1998V15.2998C123.874 14.4998 123.169 13.7998 122.465 13.7998Z" fill="#00194F"/>
</g>
</g>
</svg>
