<svg width="34" height="42" viewBox="0 0 34 42" fill="none" xmlns="http://www.w3.org/2000/svg">
<path d="M22.1053 19.8947C26.989 19.8947 30.9474 15.9363 30.9474 11.0526C30.9474 6.16878 26.989 2.21045 22.1053 2.21045C17.2215 2.21045 13.2632 6.16878 13.2632 11.0526C13.2632 15.9363 17.2215 19.8947 22.1053 19.8947Z" fill="#2F78F1"/>
<path d="M11.0526 0H22.7527C23.339 0 23.9012 0.232894 24.3158 0.647448L32.5104 8.84211C32.925 9.25666 33.1579 9.81892 33.1579 10.4052V30.9474C33.1579 33.389 31.1785 35.3684 28.7368 35.3684H11.0526C8.61095 35.3684 6.63158 33.389 6.63158 30.9474V4.42105C6.63158 1.97937 8.61095 0 11.0526 0ZM23.2105 3.31579V7.73684C23.2105 8.95768 24.2002 9.94737 25.421 9.94737H29.8421L23.2105 3.31579Z" fill="#140097"/>
<path d="M7.07182 16.4015C8.95756 15.9135 10.9604 15.4736 12.1579 15.4736C13.3554 15.4736 15.3582 15.9135 17.244 16.4015C19.172 16.9004 21.1145 17.4873 22.2571 17.8432C23.2107 18.1402 23.932 18.9446 24.0705 19.9368C25.1067 27.3598 22.7039 32.8598 19.7896 36.499C18.3379 38.3118 16.7601 39.6629 15.4178 40.5665C14.7471 41.0179 14.1255 41.3642 13.5977 41.6014C13.1099 41.8206 12.5881 41.9999 12.1579 41.9999C11.7277 41.9999 11.2059 41.8206 10.7181 41.6014C10.1903 41.3642 9.56868 41.0179 8.898 40.5665C7.55567 39.6629 5.97791 38.3118 4.52621 36.499C1.61186 32.8598 -0.790944 27.3598 0.245297 19.9368C0.383816 18.9446 1.10507 18.1403 2.05864 17.8432C3.20128 17.4873 5.14377 16.9004 7.07182 16.4015Z" fill="#2F78F1"/>
</svg>
