<svg width="40" height="40" viewBox="0 0 40 40" fill="none" xmlns="http://www.w3.org/2000/svg">
<g id="Group 16374">
<g id="Group 248">
<path id="Path 1154" d="M32.6996 26.1768C31.5995 24.6077 31.0196 22.733 31.0416 20.8168C31.0324 19.0361 31.5784 17.2968 32.6036 15.8408C33.3935 14.7831 34.3145 13.8302 35.3447 13.0048C34.6278 12.0917 33.7862 11.2838 32.8446 10.6048C31.3419 9.56441 29.5522 9.01841 27.7246 9.04277C26.3044 9.09593 24.9012 9.37196 23.5666 9.86077C22.4674 10.301 21.3093 10.5766 20.1296 10.6788C19.0009 10.5609 17.8885 10.3191 16.8126 9.95777C15.4334 9.52629 14.002 9.28375 12.5576 9.23677C11.2259 9.22207 9.9102 9.52804 8.72161 10.1289C7.53303 10.7297 6.50647 11.6077 5.72865 12.6888C3.83435 15.2929 2.8771 18.4614 3.01265 21.6788C3.1233 25.9472 4.34109 30.1136 6.54665 33.7698C8.93398 37.9204 11.3456 39.9958 13.7816 39.9958C14.8816 39.9271 15.9584 39.6499 16.9546 39.1788C18.0318 38.6996 19.1906 38.4305 20.3686 38.3858C21.6144 38.4273 22.8431 38.6876 23.9986 39.1548C25.0734 39.5848 26.2088 39.8443 27.3636 39.9238C29.415 39.9238 31.4743 38.3534 33.5416 35.2128C34.8128 33.3633 35.8088 31.3393 36.4986 29.2038C34.9244 28.6572 33.584 27.5892 32.6996 26.1768Z" fill="white"/>
<path id="Path 1155" d="M24.5258 7.6C25.4898 6.6586 26.2508 5.52974 26.7618 4.283C27.1935 3.24543 27.4307 2.13735 27.4618 1.014C27.4618 0.95 27.4618 0.87 27.4498 0.774C27.4378 0.678 27.4378 0.598 27.4378 0.534C27.4126 0.447248 27.3926 0.359097 27.3778 0.27C27.3624 0.178783 27.3414 0.0886095 27.3148 0C24.4941 0.657333 22.4908 1.84333 21.3048 3.558C20.0738 5.38244 19.4205 7.53514 19.4298 9.736C20.2741 9.67872 21.1112 9.54178 21.9298 9.327C22.917 8.95974 23.8056 8.3686 24.5258 7.6Z" fill="white"/>
</g>
</g>
</svg>
