<svg width="20" height="20" viewBox="0 0 20 20" fill="none" xmlns="http://www.w3.org/2000/svg">
<g id="Group">
<g id="Group_2">
<path id="Path" d="M15.5865 15.2472C16.1024 15.7631 16.1024 16.5989 15.5865 17.1139C15.0707 17.6297 14.2349 17.6297 13.7199 17.1139C13.204 16.5981 13.204 15.7622 13.7199 15.2472C14.2357 14.7314 15.0715 14.7314 15.5865 15.2472" stroke="#00194F" stroke-linecap="round" stroke-linejoin="round"/>
<path id="Path_2" d="M6.42022 15.2469C6.93605 15.7627 6.93605 16.5986 6.42022 17.1136C5.90439 17.6294 5.06855 17.6294 4.55355 17.1136C4.03855 16.5977 4.03772 15.7619 4.55355 15.2469C5.06939 14.7319 5.90439 14.7311 6.42022 15.2469" stroke="#00194F" stroke-linecap="round" stroke-linejoin="round"/>
<path id="Path_3" d="M8.33366 3.33398H11.667C12.127 3.33398 12.5003 3.70732 12.5003 4.16732V12.5007H1.66699" stroke="#00194F" stroke-linecap="round" stroke-linejoin="round"/>
<path id="Path_4" d="M4.16699 16.1807H2.50033C2.04033 16.1807 1.66699 15.8073 1.66699 15.3473V10.834" stroke="#00194F" stroke-linecap="round" stroke-linejoin="round"/>
<path id="Path_5" d="M12.5 5.83398H16.1025C16.4433 5.83398 16.75 6.04148 16.8758 6.35815L18.2142 9.70315C18.2925 9.89982 18.3333 10.1098 18.3333 10.3215V15.2782C18.3333 15.7382 17.96 16.1115 17.5 16.1115H15.9742" stroke="#00194F" stroke-linecap="round" stroke-linejoin="round"/>
<path id="Path_6" d="M13.3336 16.1833H6.80859" stroke="#00194F" stroke-linecap="round" stroke-linejoin="round"/>
<path id="Path_7" d="M18.3333 11.6673H15V8.33398H17.6667" stroke="#00194F" stroke-linecap="round" stroke-linejoin="round"/>
<path id="Path_8" d="M1.66699 3.33366H5.83366" stroke="#00194F" stroke-linecap="round" stroke-linejoin="round"/>
<path id="Path_9" d="M1.66699 5.83366H4.16699" stroke="#00194F" stroke-linecap="round" stroke-linejoin="round"/>
<path id="Path_10" d="M2.50033 8.33366H1.66699" stroke="#00194F" stroke-linecap="round" stroke-linejoin="round"/>
</g>
</g>
</svg>
