<svg width="40" height="40" viewBox="0 0 40 40" fill="none" xmlns="http://www.w3.org/2000/svg">
<g id="Group 16372">
<g id="google play">
<path id="Path 1150" d="M20.7685 19.2038L1.42502 38.5503C0.968564 38.116 0.606479 37.5924 0.361352 37.012C0.116225 36.4316 -0.00668782 35.8069 0.000280548 35.1769V4.83646C-0.00344891 4.19496 0.12565 3.55964 0.379453 2.97047C0.633256 2.3813 1.00627 1.85105 1.47501 1.41309L20.7685 19.2038Z" fill="#2196F3"/>
<path id="Path 1151" d="M37.4875 20.006C37.4841 20.865 37.2474 21.7069 36.8028 22.4419C36.3582 23.1769 35.7223 23.7774 34.963 24.1792L29.464 27.2286L22.6413 20.9298L20.7666 19.2051L27.9893 11.9824L34.962 15.8307C35.7218 16.2325 36.3581 16.8333 36.8029 17.5687C37.2477 18.304 37.4844 19.1465 37.4875 20.006Z" fill="#FFC107"/>
<path id="Path 1152" d="M20.7687 19.2036L1.47217 1.40684C1.74564 1.14859 2.04751 0.922185 2.37201 0.731965C3.13815 0.266246 4.01484 0.0137278 4.91134 0.000544072C5.80783 -0.0126397 6.69156 0.21399 7.47107 0.656979L27.9913 11.9839L20.7687 19.2036Z" fill="#4CAF50"/>
<path id="Path 1153" d="M29.4663 27.2296L7.47028 39.3504C6.7088 39.7832 5.84659 40.0073 4.97074 40.0002C4.05324 40.0084 3.15212 39.7571 2.37121 39.2754C2.0241 39.0766 1.70473 38.8328 1.42139 38.5505L20.7689 19.207L22.6435 20.9317L29.4663 27.2296Z" fill="#F44336"/>
</g>
</g>
</svg>
