<svg width="41" height="40" viewBox="0 0 41 40" fill="none" xmlns="http://www.w3.org/2000/svg">
<g id="Group">
<path id="Path" fill-rule="evenodd" clip-rule="evenodd" d="M20.4997 14.9973L15.4478 16.2603C14.5545 16.4836 13.6492 15.9405 13.4258 15.0471L12.3984 10.9373C12.2446 10.322 12.2694 9.67566 12.47 9.074L13.4502 6.13324C13.6772 5.4524 14.3143 4.99316 15.032 4.99316H25.9674C26.685 4.99316 27.3222 5.45241 27.5492 6.13326L28.683 9.53467C28.7832 9.83551 28.7957 10.1587 28.7187 10.4663L27.5735 15.0472C27.3502 15.9405 26.4449 16.4837 25.5516 16.2603L20.4997 14.9973Z" stroke="url(#paint0_linear_4109_198)" stroke-width="2" stroke-linecap="round" stroke-linejoin="round"/>
<path id="Path_2" d="M12.2999 9.99512H10.4952C7.73267 9.99512 5.49316 12.2346 5.49316 14.9972V30.0035C5.49316 32.766 7.73267 35.0055 10.4952 35.0055H30.5036C33.2662 35.0055 35.5057 32.766 35.5057 30.0035V14.9972C35.5057 12.2346 33.2662 9.99512 30.5036 9.99512H28.7682" stroke="url(#paint1_linear_4109_198)" stroke-width="2" stroke-linecap="round" stroke-linejoin="round"/>
<path id="Path_3" d="M26.335 23.3347H29.6697" stroke="url(#paint2_linear_4109_198)" stroke-width="2" stroke-linecap="round" stroke-linejoin="round"/>
<path id="Path_4" d="M26.9523 5.31836L20.4996 14.9974L14.0469 5.31836" stroke="url(#paint3_linear_4109_198)" stroke-width="2" stroke-linecap="round" stroke-linejoin="round"/>
<path id="Path_5" d="M20.5339 35.0054V14.9971" stroke="url(#paint4_linear_4109_198)" stroke-width="2" stroke-linecap="round" stroke-linejoin="round"/>
</g>
<defs>
<linearGradient id="paint0_linear_4109_198" x1="20.5337" y1="4.99316" x2="20.5337" y2="16.3105" gradientUnits="userSpaceOnUse">
<stop stop-color="#00194F"/>
<stop offset="1" stop-color="#AA0505"/>
</linearGradient>
<linearGradient id="paint1_linear_4109_198" x1="5.49316" y1="35.0055" x2="36.2137" y2="34.3511" gradientUnits="userSpaceOnUse">
<stop stop-color="#AA0606"/>
<stop offset="0.786458" stop-color="#00194F"/>
</linearGradient>
<linearGradient id="paint2_linear_4109_198" x1="26.335" y1="24.1683" x2="29.7456" y2="24.0472" gradientUnits="userSpaceOnUse">
<stop stop-color="#AA0606"/>
<stop offset="0.786458" stop-color="#00194F"/>
</linearGradient>
<linearGradient id="paint3_linear_4109_198" x1="14.0469" y1="14.9974" x2="27.2553" y2="14.6848" gradientUnits="userSpaceOnUse">
<stop stop-color="#AA0606"/>
<stop offset="0.786458" stop-color="#00194F"/>
</linearGradient>
<linearGradient id="paint4_linear_4109_198" x1="21" y1="36.5" x2="22.9003" y2="36.2954" gradientUnits="userSpaceOnUse">
<stop stop-color="#AA0606"/>
<stop offset="0.786458" stop-color="#00194F"/>
</linearGradient>
</defs>
</svg>
