<svg width="40" height="40" viewBox="0 0 40 40" fill="none" xmlns="http://www.w3.org/2000/svg">
<circle cx="22.5" cy="24.25" r="9" fill="#2F78F1"/>
<path d="M27 5.125C27 4.50368 26.4963 4 25.875 4H19.125C18.5037 4 18 4.50368 18 5.125C18 5.74632 17.4963 6.25 16.875 6.25C16.2537 6.25 15.75 6.75368 15.75 7.375V8.5C15.75 9.12132 16.2537 9.625 16.875 9.625H28.125C28.7463 9.625 29.25 9.12132 29.25 8.5V7.375C29.25 6.75368 28.7463 6.25 28.125 6.25C27.5037 6.25 27 5.74632 27 5.125Z" fill="#140097"/>
<path d="M13.692 6.25H12.375C10.511 6.25 9 7.76104 9 9.625V36.625C9 38.489 10.511 40 12.375 40H32.625C34.489 40 36 38.489 36 36.625V9.625C36 7.76104 34.489 6.25 32.625 6.25H31.308C31.4323 6.60188 31.5 6.98054 31.5 7.375V8.5C31.5 10.364 29.989 11.875 28.125 11.875H16.875C15.011 11.875 13.5 10.364 13.5 8.5V7.375C13.5 6.98054 13.5677 6.60188 13.692 6.25ZM28.9205 21.6705L22.1705 28.4205C21.9595 28.6315 21.6734 28.75 21.375 28.75C21.0766 28.75 20.7905 28.6315 20.5795 28.4205L17.2045 25.0455C16.7652 24.6062 16.7652 23.8938 17.2045 23.4545C17.6438 23.0152 18.3562 23.0152 18.7955 23.4545L21.375 26.034L27.3295 20.0795C27.7688 19.6402 28.4812 19.6402 28.9205 20.0795C29.3598 20.5188 29.3598 21.2312 28.9205 21.6705Z" fill="#140097"/>
</svg>
