<svg width="48" height="40" viewBox="0 0 48 40" fill="none" xmlns="http://www.w3.org/2000/svg">
<path d="M22.125 40C22.125 40 19.25 40 19.25 37C19.25 34 22.125 25 33.625 25C45.125 25 48 34 48 37C48 40 45.125 40 45.125 40H22.125Z" fill="#140097"/>
<path d="M33.625 22C38.3885 22 42.25 17.9706 42.25 13C42.25 8.02944 38.3885 4 33.625 4C28.8615 4 25 8.02944 25 13C25 17.9706 28.8615 22 33.625 22Z" fill="#2F78F1"/>
<path d="M16.997 40C16.5922 39.1477 16.375 38.1374 16.375 37C16.375 32.9336 18.3273 28.7517 21.9408 25.8399C20.36 25.3123 18.5172 25 16.375 25C4.875 25 2 34 2 37C2 40 4.875 40 4.875 40H16.997Z" fill="#140097"/>
<path d="M14.9375 22C18.907 22 22.125 18.6421 22.125 14.5C22.125 10.3579 18.907 7 14.9375 7C10.968 7 7.75 10.3579 7.75 14.5C7.75 18.6421 10.968 22 14.9375 22Z" fill="#2F78F1"/>
</svg>
