<svg width="174" height="24" viewBox="0 0 174 24" fill="none" xmlns="http://www.w3.org/2000/svg">
<path id="Vector 500" d="M2 10.5C1.17157 10.5 0.5 11.1716 0.5 12C0.5 12.8284 1.17157 13.5 2 13.5V10.5ZM173.061 13.0607C173.646 12.4749 173.646 11.5251 173.061 10.9393L163.515 1.3934C162.929 0.807611 161.979 0.807611 161.393 1.3934C160.808 1.97919 160.808 2.92893 161.393 3.51472L169.879 12L161.393 20.4853C160.808 21.0711 160.808 22.0208 161.393 22.6066C161.979 23.1924 162.929 23.1924 163.515 22.6066L173.061 13.0607ZM2 13.5H172V10.5H2V13.5Z" fill="url(#paint0_linear_3796_1774)"/>
<defs>
<linearGradient id="paint0_linear_3796_1774" x1="172" y1="11.9964" x2="2" y2="11.9964" gradientUnits="userSpaceOnUse">
<stop stop-color="#AF0000"/>
<stop offset="1" stop-color="#00194F" stop-opacity="0.3"/>
</linearGradient>
</defs>
</svg>
